<?xml version="1.0" encoding="utf-8"?>
<svg xmlns="http://www.w3.org/2000/svg" xmlns:xlink="http://www.w3.org/1999/xlink" width="640" height="480" viewBox="0 0 2560 1920">
<defs>
  <clipPath id="clip980">
    <rect x="0" y="0" width="2560" height="1920"/>
  </clipPath>
</defs>
<path clip-path="url(#clip980)" d="
M0 1920 L2560 1920 L2560 0 L0 0  Z
  " fill="#ffffff" fill-rule="evenodd" fill-opacity="1"/>
<defs>
  <clipPath id="clip981">
    <rect x="512" y="0" width="1793" height="1793"/>
  </clipPath>
</defs>
<path clip-path="url(#clip980)" d="
M239.929 1729.72 L2292.28 1729.72 L2292.28 47.2441 L239.929 47.2441  Z
  " fill="#ffffff" fill-rule="evenodd" fill-opacity="1"/>
<defs>
  <clipPath id="clip982">
    <rect x="239" y="47" width="2053" height="1683"/>
  </clipPath>
</defs>
<polyline clip-path="url(#clip982)" style="stroke:#000000; stroke-linecap:butt; stroke-linejoin:round; stroke-width:2; stroke-opacity:0.1; fill:none" points="
  410.959,1729.72 410.959,47.2441 
  "/>
<polyline clip-path="url(#clip982)" style="stroke:#000000; stroke-linecap:butt; stroke-linejoin:round; stroke-width:2; stroke-opacity:0.1; fill:none" points="
  581.988,1729.72 581.988,47.2441 
  "/>
<polyline clip-path="url(#clip982)" style="stroke:#000000; stroke-linecap:butt; stroke-linejoin:round; stroke-width:2; stroke-opacity:0.1; fill:none" points="
  753.018,1729.72 753.018,47.2441 
  "/>
<polyline clip-path="url(#clip982)" style="stroke:#000000; stroke-linecap:butt; stroke-linejoin:round; stroke-width:2; stroke-opacity:0.1; fill:none" points="
  924.047,1729.72 924.047,47.2441 
  "/>
<polyline clip-path="url(#clip982)" style="stroke:#000000; stroke-linecap:butt; stroke-linejoin:round; stroke-width:2; stroke-opacity:0.1; fill:none" points="
  1095.08,1729.72 1095.08,47.2441 
  "/>
<polyline clip-path="url(#clip982)" style="stroke:#000000; stroke-linecap:butt; stroke-linejoin:round; stroke-width:2; stroke-opacity:0.1; fill:none" points="
  1266.11,1729.72 1266.11,47.2441 
  "/>
<polyline clip-path="url(#clip982)" style="stroke:#000000; stroke-linecap:butt; stroke-linejoin:round; stroke-width:2; stroke-opacity:0.1; fill:none" points="
  1437.14,1729.72 1437.14,47.2441 
  "/>
<polyline clip-path="url(#clip982)" style="stroke:#000000; stroke-linecap:butt; stroke-linejoin:round; stroke-width:2; stroke-opacity:0.1; fill:none" points="
  1608.17,1729.72 1608.17,47.2441 
  "/>
<polyline clip-path="url(#clip982)" style="stroke:#000000; stroke-linecap:butt; stroke-linejoin:round; stroke-width:2; stroke-opacity:0.1; fill:none" points="
  1779.19,1729.72 1779.19,47.2441 
  "/>
<polyline clip-path="url(#clip982)" style="stroke:#000000; stroke-linecap:butt; stroke-linejoin:round; stroke-width:2; stroke-opacity:0.1; fill:none" points="
  1950.22,1729.72 1950.22,47.2441 
  "/>
<polyline clip-path="url(#clip982)" style="stroke:#000000; stroke-linecap:butt; stroke-linejoin:round; stroke-width:2; stroke-opacity:0.1; fill:none" points="
  2121.25,1729.72 2121.25,47.2441 
  "/>
<polyline clip-path="url(#clip980)" style="stroke:#000000; stroke-linecap:butt; stroke-linejoin:round; stroke-width:4; stroke-opacity:1; fill:none" points="
  239.929,1729.72 2292.28,1729.72 
  "/>
<polyline clip-path="url(#clip980)" style="stroke:#000000; stroke-linecap:butt; stroke-linejoin:round; stroke-width:4; stroke-opacity:1; fill:none" points="
  410.959,1729.72 410.959,1710.82 
  "/>
<polyline clip-path="url(#clip980)" style="stroke:#000000; stroke-linecap:butt; stroke-linejoin:round; stroke-width:4; stroke-opacity:1; fill:none" points="
  581.988,1729.72 581.988,1710.82 
  "/>
<polyline clip-path="url(#clip980)" style="stroke:#000000; stroke-linecap:butt; stroke-linejoin:round; stroke-width:4; stroke-opacity:1; fill:none" points="
  753.018,1729.72 753.018,1710.82 
  "/>
<polyline clip-path="url(#clip980)" style="stroke:#000000; stroke-linecap:butt; stroke-linejoin:round; stroke-width:4; stroke-opacity:1; fill:none" points="
  924.047,1729.72 924.047,1710.82 
  "/>
<polyline clip-path="url(#clip980)" style="stroke:#000000; stroke-linecap:butt; stroke-linejoin:round; stroke-width:4; stroke-opacity:1; fill:none" points="
  1095.08,1729.72 1095.08,1710.82 
  "/>
<polyline clip-path="url(#clip980)" style="stroke:#000000; stroke-linecap:butt; stroke-linejoin:round; stroke-width:4; stroke-opacity:1; fill:none" points="
  1266.11,1729.72 1266.11,1710.82 
  "/>
<polyline clip-path="url(#clip980)" style="stroke:#000000; stroke-linecap:butt; stroke-linejoin:round; stroke-width:4; stroke-opacity:1; fill:none" points="
  1437.14,1729.72 1437.14,1710.82 
  "/>
<polyline clip-path="url(#clip980)" style="stroke:#000000; stroke-linecap:butt; stroke-linejoin:round; stroke-width:4; stroke-opacity:1; fill:none" points="
  1608.17,1729.72 1608.17,1710.82 
  "/>
<polyline clip-path="url(#clip980)" style="stroke:#000000; stroke-linecap:butt; stroke-linejoin:round; stroke-width:4; stroke-opacity:1; fill:none" points="
  1779.19,1729.72 1779.19,1710.82 
  "/>
<polyline clip-path="url(#clip980)" style="stroke:#000000; stroke-linecap:butt; stroke-linejoin:round; stroke-width:4; stroke-opacity:1; fill:none" points="
  1950.22,1729.72 1950.22,1710.82 
  "/>
<polyline clip-path="url(#clip980)" style="stroke:#000000; stroke-linecap:butt; stroke-linejoin:round; stroke-width:4; stroke-opacity:1; fill:none" points="
  2121.25,1729.72 2121.25,1710.82 
  "/>
<path clip-path="url(#clip980)" d="M410.959 1761.92 Q407.348 1761.92 405.519 1765.48 Q403.714 1769.02 403.714 1776.15 Q403.714 1783.26 405.519 1786.83 Q407.348 1790.37 410.959 1790.37 Q414.593 1790.37 416.399 1786.83 Q418.227 1783.26 418.227 1776.15 Q418.227 1769.02 416.399 1765.48 Q414.593 1761.92 410.959 1761.92 M410.959 1758.21 Q416.769 1758.21 419.825 1762.82 Q422.903 1767.4 422.903 1776.15 Q422.903 1784.88 419.825 1789.49 Q416.769 1794.07 410.959 1794.07 Q405.149 1794.07 402.07 1789.49 Q399.014 1784.88 399.014 1776.15 Q399.014 1767.4 402.07 1762.82 Q405.149 1758.21 410.959 1758.21 Z" fill="#000000" fill-rule="evenodd" fill-opacity="1" /><path clip-path="url(#clip980)" d="M572.37 1789.46 L580.009 1789.46 L580.009 1763.1 L571.699 1764.77 L571.699 1760.51 L579.963 1758.84 L584.639 1758.84 L584.639 1789.46 L592.278 1789.46 L592.278 1793.4 L572.37 1793.4 L572.37 1789.46 Z" fill="#000000" fill-rule="evenodd" fill-opacity="1" /><path clip-path="url(#clip980)" d="M747.671 1789.46 L763.99 1789.46 L763.99 1793.4 L742.046 1793.4 L742.046 1789.46 Q744.708 1786.71 749.291 1782.08 Q753.898 1777.43 755.078 1776.09 Q757.323 1773.56 758.203 1771.83 Q759.106 1770.07 759.106 1768.38 Q759.106 1765.62 757.161 1763.89 Q755.24 1762.15 752.138 1762.15 Q749.939 1762.15 747.485 1762.91 Q745.055 1763.68 742.277 1765.23 L742.277 1760.51 Q745.101 1759.37 747.555 1758.79 Q750.009 1758.21 752.046 1758.21 Q757.416 1758.21 760.61 1760.9 Q763.805 1763.59 763.805 1768.08 Q763.805 1770.21 762.995 1772.13 Q762.208 1774.02 760.101 1776.62 Q759.522 1777.29 756.421 1780.51 Q753.319 1783.7 747.671 1789.46 Z" fill="#000000" fill-rule="evenodd" fill-opacity="1" /><path clip-path="url(#clip980)" d="M928.295 1774.77 Q931.652 1775.48 933.527 1777.75 Q935.425 1780.02 935.425 1783.35 Q935.425 1788.47 931.906 1791.27 Q928.388 1794.07 921.906 1794.07 Q919.73 1794.07 917.415 1793.63 Q915.124 1793.21 912.67 1792.36 L912.67 1787.84 Q914.615 1788.98 916.929 1789.56 Q919.244 1790.14 921.767 1790.14 Q926.165 1790.14 928.457 1788.4 Q930.772 1786.66 930.772 1783.35 Q930.772 1780.3 928.619 1778.59 Q926.49 1776.85 922.67 1776.85 L918.642 1776.85 L918.642 1773.01 L922.855 1773.01 Q926.304 1773.01 928.133 1771.64 Q929.962 1770.25 929.962 1767.66 Q929.962 1765 928.064 1763.59 Q926.189 1762.15 922.67 1762.15 Q920.749 1762.15 918.55 1762.57 Q916.351 1762.98 913.712 1763.86 L913.712 1759.7 Q916.374 1758.96 918.689 1758.59 Q921.027 1758.21 923.087 1758.21 Q928.411 1758.21 931.513 1760.65 Q934.614 1763.05 934.614 1767.17 Q934.614 1770.04 932.971 1772.03 Q931.327 1774 928.295 1774.77 Z" fill="#000000" fill-rule="evenodd" fill-opacity="1" /><path clip-path="url(#clip980)" d="M1098.09 1762.91 L1086.28 1781.36 L1098.09 1781.36 L1098.09 1762.91 M1096.86 1758.84 L1102.74 1758.84 L1102.74 1781.36 L1107.67 1781.36 L1107.67 1785.25 L1102.74 1785.25 L1102.74 1793.4 L1098.09 1793.4 L1098.09 1785.25 L1082.48 1785.25 L1082.48 1780.74 L1096.86 1758.84 Z" fill="#000000" fill-rule="evenodd" fill-opacity="1" /><path clip-path="url(#clip980)" d="M1256.38 1758.84 L1274.74 1758.84 L1274.74 1762.78 L1260.67 1762.78 L1260.67 1771.25 Q1261.69 1770.9 1262.7 1770.74 Q1263.72 1770.55 1264.74 1770.55 Q1270.53 1770.55 1273.91 1773.72 Q1277.29 1776.9 1277.29 1782.31 Q1277.29 1787.89 1273.81 1790.99 Q1270.34 1794.07 1264.02 1794.07 Q1261.85 1794.07 1259.58 1793.7 Q1257.33 1793.33 1254.93 1792.59 L1254.93 1787.89 Q1257.01 1789.02 1259.23 1789.58 Q1261.45 1790.14 1263.93 1790.14 Q1267.94 1790.14 1270.27 1788.03 Q1272.61 1785.92 1272.61 1782.31 Q1272.61 1778.7 1270.27 1776.59 Q1267.94 1774.49 1263.93 1774.49 Q1262.06 1774.49 1260.18 1774.9 Q1258.33 1775.32 1256.38 1776.2 L1256.38 1758.84 Z" fill="#000000" fill-rule="evenodd" fill-opacity="1" /><path clip-path="url(#clip980)" d="M1437.54 1774.26 Q1434.39 1774.26 1432.54 1776.41 Q1430.71 1778.56 1430.71 1782.31 Q1430.71 1786.04 1432.54 1788.21 Q1434.39 1790.37 1437.54 1790.37 Q1440.69 1790.37 1442.52 1788.21 Q1444.37 1786.04 1444.37 1782.31 Q1444.37 1778.56 1442.52 1776.41 Q1440.69 1774.26 1437.54 1774.26 M1446.82 1759.6 L1446.82 1763.86 Q1445.06 1763.03 1443.26 1762.59 Q1441.48 1762.15 1439.72 1762.15 Q1435.09 1762.15 1432.63 1765.27 Q1430.2 1768.4 1429.86 1774.72 Q1431.22 1772.71 1433.28 1771.64 Q1435.34 1770.55 1437.82 1770.55 Q1443.03 1770.55 1446.04 1773.72 Q1449.07 1776.87 1449.07 1782.31 Q1449.07 1787.64 1445.92 1790.85 Q1442.77 1794.07 1437.54 1794.07 Q1431.55 1794.07 1428.37 1789.49 Q1425.2 1784.88 1425.2 1776.15 Q1425.2 1767.96 1429.09 1763.1 Q1432.98 1758.21 1439.53 1758.21 Q1441.29 1758.21 1443.07 1758.56 Q1444.88 1758.91 1446.82 1759.6 Z" fill="#000000" fill-rule="evenodd" fill-opacity="1" /><path clip-path="url(#clip980)" d="M1597.05 1758.84 L1619.28 1758.84 L1619.28 1760.83 L1606.73 1793.4 L1601.85 1793.4 L1613.65 1762.78 L1597.05 1762.78 L1597.05 1758.84 Z" fill="#000000" fill-rule="evenodd" fill-opacity="1" /><path clip-path="url(#clip980)" d="M1779.19 1776.99 Q1775.86 1776.99 1773.94 1778.77 Q1772.04 1780.55 1772.04 1783.68 Q1772.04 1786.8 1773.94 1788.59 Q1775.86 1790.37 1779.19 1790.37 Q1782.53 1790.37 1784.45 1788.59 Q1786.37 1786.78 1786.37 1783.68 Q1786.37 1780.55 1784.45 1778.77 Q1782.55 1776.99 1779.19 1776.99 M1774.52 1775 Q1771.51 1774.26 1769.82 1772.2 Q1768.15 1770.14 1768.15 1767.17 Q1768.15 1763.03 1771.09 1760.62 Q1774.06 1758.21 1779.19 1758.21 Q1784.36 1758.21 1787.3 1760.62 Q1790.24 1763.03 1790.24 1767.17 Q1790.24 1770.14 1788.55 1772.2 Q1786.88 1774.26 1783.89 1775 Q1787.27 1775.78 1789.15 1778.08 Q1791.05 1780.37 1791.05 1783.68 Q1791.05 1788.7 1787.97 1791.39 Q1784.91 1794.07 1779.19 1794.07 Q1773.48 1794.07 1770.4 1791.39 Q1767.34 1788.7 1767.34 1783.68 Q1767.34 1780.37 1769.24 1778.08 Q1771.14 1775.78 1774.52 1775 M1772.81 1767.61 Q1772.81 1770.3 1774.47 1771.8 Q1776.16 1773.31 1779.19 1773.31 Q1782.2 1773.31 1783.89 1771.8 Q1785.61 1770.3 1785.61 1767.61 Q1785.61 1764.93 1783.89 1763.42 Q1782.2 1761.92 1779.19 1761.92 Q1776.16 1761.92 1774.47 1763.42 Q1772.81 1764.93 1772.81 1767.61 Z" fill="#000000" fill-rule="evenodd" fill-opacity="1" /><path clip-path="url(#clip980)" d="M1940.53 1792.68 L1940.53 1788.42 Q1942.28 1789.26 1944.09 1789.7 Q1945.9 1790.14 1947.63 1790.14 Q1952.26 1790.14 1954.69 1787.03 Q1957.15 1783.91 1957.49 1777.57 Q1956.15 1779.56 1954.09 1780.62 Q1952.03 1781.69 1949.53 1781.69 Q1944.34 1781.69 1941.31 1778.56 Q1938.3 1775.41 1938.3 1769.97 Q1938.3 1764.65 1941.45 1761.43 Q1944.6 1758.21 1949.83 1758.21 Q1955.83 1758.21 1958.97 1762.82 Q1962.15 1767.4 1962.15 1776.15 Q1962.15 1784.33 1958.26 1789.21 Q1954.39 1794.07 1947.84 1794.07 Q1946.08 1794.07 1944.28 1793.72 Q1942.47 1793.38 1940.53 1792.68 M1949.83 1778.03 Q1952.98 1778.03 1954.81 1775.88 Q1956.66 1773.72 1956.66 1769.97 Q1956.66 1766.25 1954.81 1764.09 Q1952.98 1761.92 1949.83 1761.92 Q1946.68 1761.92 1944.83 1764.09 Q1943 1766.25 1943 1769.97 Q1943 1773.72 1944.83 1775.88 Q1946.68 1778.03 1949.83 1778.03 Z" fill="#000000" fill-rule="evenodd" fill-opacity="1" /><path clip-path="url(#clip980)" d="M2095.94 1789.46 L2103.58 1789.46 L2103.58 1763.1 L2095.27 1764.77 L2095.27 1760.51 L2103.53 1758.84 L2108.21 1758.84 L2108.21 1789.46 L2115.85 1789.46 L2115.85 1793.4 L2095.94 1793.4 L2095.94 1789.46 Z" fill="#000000" fill-rule="evenodd" fill-opacity="1" /><path clip-path="url(#clip980)" d="M2135.29 1761.92 Q2131.68 1761.92 2129.85 1765.48 Q2128.05 1769.02 2128.05 1776.15 Q2128.05 1783.26 2129.85 1786.83 Q2131.68 1790.37 2135.29 1790.37 Q2138.93 1790.37 2140.73 1786.83 Q2142.56 1783.26 2142.56 1776.15 Q2142.56 1769.02 2140.73 1765.48 Q2138.93 1761.92 2135.29 1761.92 M2135.29 1758.21 Q2141.1 1758.21 2144.16 1762.82 Q2147.24 1767.4 2147.24 1776.15 Q2147.24 1784.88 2144.16 1789.49 Q2141.1 1794.07 2135.29 1794.07 Q2129.48 1794.07 2126.4 1789.49 Q2123.35 1784.88 2123.35 1776.15 Q2123.35 1767.4 2126.4 1762.82 Q2129.48 1758.21 2135.29 1758.21 Z" fill="#000000" fill-rule="evenodd" fill-opacity="1" /><path clip-path="url(#clip980)" d="M645.848 1829.46 L652.277 1829.46 L652.277 1848.94 L675.639 1848.94 L675.639 1829.46 L682.069 1829.46 L682.069 1876.98 L675.639 1876.98 L675.639 1854.35 L652.277 1854.35 L652.277 1876.98 L645.848 1876.98 L645.848 1829.46 Z" fill="#000000" fill-rule="evenodd" fill-opacity="1" /><path clip-path="url(#clip980)" d="M708.423 1845.44 Q703.712 1845.44 700.975 1849.13 Q698.238 1852.79 698.238 1859.19 Q698.238 1865.59 700.943 1869.28 Q703.68 1872.94 708.423 1872.94 Q713.102 1872.94 715.839 1869.25 Q718.576 1865.56 718.576 1859.19 Q718.576 1852.86 715.839 1849.17 Q713.102 1845.44 708.423 1845.44 M708.423 1840.48 Q716.062 1840.48 720.422 1845.44 Q724.783 1850.41 724.783 1859.19 Q724.783 1867.94 720.422 1872.94 Q716.062 1877.91 708.423 1877.91 Q700.752 1877.91 696.392 1872.94 Q692.063 1867.94 692.063 1859.19 Q692.063 1850.41 696.392 1845.44 Q700.752 1840.48 708.423 1840.48 Z" fill="#000000" fill-rule="evenodd" fill-opacity="1" /><path clip-path="url(#clip980)" d="M731.085 1841.34 L736.941 1841.34 L744.262 1869.15 L751.55 1841.34 L758.457 1841.34 L765.778 1869.15 L773.067 1841.34 L778.923 1841.34 L769.597 1876.98 L762.69 1876.98 L755.02 1847.77 L747.317 1876.98 L740.41 1876.98 L731.085 1841.34 Z" fill="#000000" fill-rule="evenodd" fill-opacity="1" /><path clip-path="url(#clip980)" d="M839.015 1857.7 L839.015 1860.56 L812.088 1860.56 Q812.47 1866.61 815.717 1869.79 Q818.995 1872.94 824.82 1872.94 Q828.194 1872.94 831.345 1872.11 Q834.527 1871.29 837.647 1869.63 L837.647 1875.17 Q834.496 1876.51 831.185 1877.21 Q827.875 1877.91 824.47 1877.91 Q815.94 1877.91 810.942 1872.94 Q805.977 1867.98 805.977 1859.51 Q805.977 1850.76 810.688 1845.63 Q815.43 1840.48 823.451 1840.48 Q830.644 1840.48 834.814 1845.12 Q839.015 1849.74 839.015 1857.7 M833.159 1855.98 Q833.095 1851.17 830.453 1848.31 Q827.843 1845.44 823.515 1845.44 Q818.613 1845.44 815.653 1848.21 Q812.725 1850.98 812.279 1856.01 L833.159 1855.98 Z" fill="#000000" fill-rule="evenodd" fill-opacity="1" /><path clip-path="url(#clip980)" d="M878.26 1855.47 L878.26 1876.98 L872.403 1876.98 L872.403 1855.66 Q872.403 1850.6 870.43 1848.08 Q868.457 1845.57 864.51 1845.57 Q859.767 1845.57 857.03 1848.59 Q854.293 1851.62 854.293 1856.84 L854.293 1876.98 L848.405 1876.98 L848.405 1841.34 L854.293 1841.34 L854.293 1846.87 Q856.394 1843.66 859.226 1842.07 Q862.091 1840.48 865.815 1840.48 Q871.958 1840.48 875.109 1844.3 Q878.26 1848.08 878.26 1855.47 Z" fill="#000000" fill-rule="evenodd" fill-opacity="1" /><path clip-path="url(#clip980)" d="M889.941 1841.34 L895.797 1841.34 L895.797 1877.62 Q895.797 1884.43 893.187 1887.49 Q890.609 1890.54 884.848 1890.54 L882.62 1890.54 L882.62 1885.58 L884.18 1885.58 Q887.522 1885.58 888.731 1884.02 Q889.941 1882.49 889.941 1877.62 L889.941 1841.34 M889.941 1827.46 L895.797 1827.46 L895.797 1834.87 L889.941 1834.87 L889.941 1827.46 Z" fill="#000000" fill-rule="evenodd" fill-opacity="1" /><path clip-path="url(#clip980)" d="M921.865 1845.44 Q917.154 1845.44 914.417 1849.13 Q911.68 1852.79 911.68 1859.19 Q911.68 1865.59 914.385 1869.28 Q917.122 1872.94 921.865 1872.94 Q926.544 1872.94 929.281 1869.25 Q932.018 1865.56 932.018 1859.19 Q932.018 1852.86 929.281 1849.17 Q926.544 1845.44 921.865 1845.44 M921.865 1840.48 Q929.504 1840.48 933.864 1845.44 Q938.225 1850.41 938.225 1859.19 Q938.225 1867.94 933.864 1872.94 Q929.504 1877.91 921.865 1877.91 Q914.194 1877.91 909.834 1872.94 Q905.505 1867.94 905.505 1859.19 Q905.505 1850.41 909.834 1845.44 Q914.194 1840.48 921.865 1840.48 Z" fill="#000000" fill-rule="evenodd" fill-opacity="1" /><path clip-path="url(#clip980)" d="M962.765 1880.29 Q960.282 1886.66 957.927 1888.6 Q955.571 1890.54 951.625 1890.54 L946.946 1890.54 L946.946 1885.64 L950.383 1885.64 Q952.802 1885.64 954.139 1884.5 Q955.476 1883.35 957.099 1879.08 L958.149 1876.41 L943.731 1841.34 L949.938 1841.34 L961.078 1869.22 L972.218 1841.34 L978.424 1841.34 L962.765 1880.29 Z" fill="#000000" fill-rule="evenodd" fill-opacity="1" /><path clip-path="url(#clip980)" d="M1002.71 1859.06 Q995.612 1859.06 992.874 1860.69 Q990.137 1862.31 990.137 1866.23 Q990.137 1869.34 992.174 1871.19 Q994.243 1873.01 997.776 1873.01 Q1002.65 1873.01 1005.57 1869.57 Q1008.53 1866.1 1008.53 1860.37 L1008.53 1859.06 L1002.71 1859.06 M1014.39 1856.65 L1014.39 1876.98 L1008.53 1876.98 L1008.53 1871.57 Q1006.53 1874.82 1003.54 1876.38 Q1000.55 1877.91 996.216 1877.91 Q990.742 1877.91 987.495 1874.85 Q984.281 1871.76 984.281 1866.61 Q984.281 1860.59 988.291 1857.54 Q992.333 1854.48 1000.32 1854.48 L1008.53 1854.48 L1008.53 1853.91 Q1008.53 1849.87 1005.86 1847.67 Q1003.22 1845.44 998.413 1845.44 Q995.357 1845.44 992.461 1846.17 Q989.564 1846.91 986.891 1848.37 L986.891 1842.96 Q990.105 1841.72 993.129 1841.11 Q996.153 1840.48 999.017 1840.48 Q1006.75 1840.48 1010.57 1844.49 Q1014.39 1848.5 1014.39 1856.65 Z" fill="#000000" fill-rule="evenodd" fill-opacity="1" /><path clip-path="url(#clip980)" d="M1052.04 1859.19 Q1052.04 1852.73 1049.37 1849.07 Q1046.73 1845.38 1042.08 1845.38 Q1037.43 1845.38 1034.76 1849.07 Q1032.12 1852.73 1032.12 1859.19 Q1032.12 1865.65 1034.76 1869.34 Q1037.43 1873.01 1042.08 1873.01 Q1046.73 1873.01 1049.37 1869.34 Q1052.04 1865.65 1052.04 1859.19 M1032.12 1846.75 Q1033.96 1843.56 1036.77 1842.04 Q1039.6 1840.48 1043.51 1840.48 Q1050.01 1840.48 1054.05 1845.63 Q1058.12 1850.79 1058.12 1859.19 Q1058.12 1867.59 1054.05 1872.75 Q1050.01 1877.91 1043.51 1877.91 Q1039.6 1877.91 1036.77 1876.38 Q1033.96 1874.82 1032.12 1871.64 L1032.12 1876.98 L1026.23 1876.98 L1026.23 1827.46 L1032.12 1827.46 L1032.12 1846.75 Z" fill="#000000" fill-rule="evenodd" fill-opacity="1" /><path clip-path="url(#clip980)" d="M1067.83 1827.46 L1073.69 1827.46 L1073.69 1876.98 L1067.83 1876.98 L1067.83 1827.46 Z" fill="#000000" fill-rule="evenodd" fill-opacity="1" /><path clip-path="url(#clip980)" d="M1116.43 1857.7 L1116.43 1860.56 L1089.51 1860.56 Q1089.89 1866.61 1093.13 1869.79 Q1096.41 1872.94 1102.24 1872.94 Q1105.61 1872.94 1108.76 1872.11 Q1111.94 1871.29 1115.06 1869.63 L1115.06 1875.17 Q1111.91 1876.51 1108.6 1877.21 Q1105.29 1877.91 1101.89 1877.91 Q1093.36 1877.91 1088.36 1872.94 Q1083.39 1867.98 1083.39 1859.51 Q1083.39 1850.76 1088.11 1845.63 Q1092.85 1840.48 1100.87 1840.48 Q1108.06 1840.48 1112.23 1845.12 Q1116.43 1849.74 1116.43 1857.7 M1110.58 1855.98 Q1110.51 1851.17 1107.87 1848.31 Q1105.26 1845.44 1100.93 1845.44 Q1096.03 1845.44 1093.07 1848.21 Q1090.14 1850.98 1089.7 1856.01 L1110.58 1855.98 Z" fill="#000000" fill-rule="evenodd" fill-opacity="1" /><path clip-path="url(#clip980)" d="M1146.77 1841.34 L1152.62 1841.34 L1152.62 1876.98 L1146.77 1876.98 L1146.77 1841.34 M1146.77 1827.46 L1152.62 1827.46 L1152.62 1834.87 L1146.77 1834.87 L1146.77 1827.46 Z" fill="#000000" fill-rule="evenodd" fill-opacity="1" /><path clip-path="url(#clip980)" d="M1187.6 1842.39 L1187.6 1847.92 Q1185.12 1846.65 1182.45 1846.01 Q1179.77 1845.38 1176.91 1845.38 Q1172.55 1845.38 1170.35 1846.71 Q1168.19 1848.05 1168.19 1850.73 Q1168.19 1852.76 1169.75 1853.94 Q1171.31 1855.09 1176.02 1856.14 L1178.02 1856.58 Q1184.26 1857.92 1186.87 1860.37 Q1189.51 1862.79 1189.51 1867.15 Q1189.51 1872.11 1185.56 1875.01 Q1181.65 1877.91 1174.77 1877.91 Q1171.91 1877.91 1168.79 1877.33 Q1165.7 1876.79 1162.27 1875.68 L1162.27 1869.63 Q1165.51 1871.32 1168.66 1872.18 Q1171.81 1873.01 1174.9 1873.01 Q1179.04 1873.01 1181.27 1871.6 Q1183.5 1870.17 1183.5 1867.59 Q1183.5 1865.21 1181.87 1863.93 Q1180.28 1862.66 1174.84 1861.48 L1172.8 1861.01 Q1167.36 1859.86 1164.94 1857.5 Q1162.52 1855.12 1162.52 1850.98 Q1162.52 1845.95 1166.09 1843.21 Q1169.65 1840.48 1176.21 1840.48 Q1179.45 1840.48 1182.32 1840.95 Q1185.18 1841.43 1187.6 1842.39 Z" fill="#000000" fill-rule="evenodd" fill-opacity="1" /><path clip-path="url(#clip980)" d="M1234.39 1880.29 Q1231.91 1886.66 1229.55 1888.6 Q1227.2 1890.54 1223.25 1890.54 L1218.57 1890.54 L1218.57 1885.64 L1222.01 1885.64 Q1224.43 1885.64 1225.76 1884.5 Q1227.1 1883.35 1228.72 1879.08 L1229.77 1876.41 L1215.36 1841.34 L1221.56 1841.34 L1232.7 1869.22 L1243.84 1841.34 L1250.05 1841.34 L1234.39 1880.29 Z" fill="#000000" fill-rule="evenodd" fill-opacity="1" /><path clip-path="url(#clip980)" d="M1271.95 1845.44 Q1267.24 1845.44 1264.5 1849.13 Q1261.76 1852.79 1261.76 1859.19 Q1261.76 1865.59 1264.47 1869.28 Q1267.2 1872.94 1271.95 1872.94 Q1276.63 1872.94 1279.36 1869.25 Q1282.1 1865.56 1282.1 1859.19 Q1282.1 1852.86 1279.36 1849.17 Q1276.63 1845.44 1271.95 1845.44 M1271.95 1840.48 Q1279.59 1840.48 1283.95 1845.44 Q1288.31 1850.41 1288.31 1859.19 Q1288.31 1867.94 1283.95 1872.94 Q1279.59 1877.91 1271.95 1877.91 Q1264.28 1877.91 1259.92 1872.94 Q1255.59 1867.94 1255.59 1859.19 Q1255.59 1850.41 1259.92 1845.44 Q1264.28 1840.48 1271.95 1840.48 Z" fill="#000000" fill-rule="evenodd" fill-opacity="1" /><path clip-path="url(#clip980)" d="M1297.41 1862.92 L1297.41 1841.34 L1303.27 1841.34 L1303.27 1862.69 Q1303.27 1867.75 1305.24 1870.3 Q1307.21 1872.81 1311.16 1872.81 Q1315.9 1872.81 1318.64 1869.79 Q1321.41 1866.77 1321.41 1861.55 L1321.41 1841.34 L1327.26 1841.34 L1327.26 1876.98 L1321.41 1876.98 L1321.41 1871.51 Q1319.28 1874.76 1316.44 1876.35 Q1313.64 1877.91 1309.92 1877.91 Q1303.78 1877.91 1300.59 1874.09 Q1297.41 1870.27 1297.41 1862.92 M1312.15 1840.48 L1312.15 1840.48 Z" fill="#000000" fill-rule="evenodd" fill-opacity="1" /><path clip-path="url(#clip980)" d="M1359.98 1846.81 Q1359 1846.24 1357.82 1845.98 Q1356.67 1845.7 1355.27 1845.7 Q1350.31 1845.7 1347.64 1848.94 Q1344.99 1852.16 1344.99 1858.21 L1344.99 1876.98 L1339.11 1876.98 L1339.11 1841.34 L1344.99 1841.34 L1344.99 1846.87 Q1346.84 1843.63 1349.8 1842.07 Q1352.76 1840.48 1356.99 1840.48 Q1357.6 1840.48 1358.33 1840.57 Q1359.06 1840.64 1359.95 1840.79 L1359.98 1846.81 Z" fill="#000000" fill-rule="evenodd" fill-opacity="1" /><path clip-path="url(#clip980)" d="M1386.85 1827.46 L1392.7 1827.46 L1392.7 1876.98 L1386.85 1876.98 L1386.85 1827.46 Z" fill="#000000" fill-rule="evenodd" fill-opacity="1" /><path clip-path="url(#clip980)" d="M1404.96 1841.34 L1410.81 1841.34 L1410.81 1876.98 L1404.96 1876.98 L1404.96 1841.34 M1404.96 1827.46 L1410.81 1827.46 L1410.81 1834.87 L1404.96 1834.87 L1404.96 1827.46 Z" fill="#000000" fill-rule="evenodd" fill-opacity="1" /><path clip-path="url(#clip980)" d="M1441.12 1827.46 L1441.12 1832.33 L1435.51 1832.33 Q1432.36 1832.33 1431.12 1833.6 Q1429.91 1834.87 1429.91 1838.18 L1429.91 1841.34 L1439.56 1841.34 L1439.56 1845.89 L1429.91 1845.89 L1429.91 1876.98 L1424.02 1876.98 L1424.02 1845.89 L1418.42 1845.89 L1418.42 1841.34 L1424.02 1841.34 L1424.02 1838.85 Q1424.02 1832.9 1426.79 1830.2 Q1429.56 1827.46 1435.58 1827.46 L1441.12 1827.46 Z" fill="#000000" fill-rule="evenodd" fill-opacity="1" /><path clip-path="url(#clip980)" d="M1476.51 1857.7 L1476.51 1860.56 L1449.58 1860.56 Q1449.96 1866.61 1453.21 1869.79 Q1456.49 1872.94 1462.31 1872.94 Q1465.69 1872.94 1468.84 1872.11 Q1472.02 1871.29 1475.14 1869.63 L1475.14 1875.17 Q1471.99 1876.51 1468.68 1877.21 Q1465.37 1877.91 1461.96 1877.91 Q1453.43 1877.91 1448.44 1872.94 Q1443.47 1867.98 1443.47 1859.51 Q1443.47 1850.76 1448.18 1845.63 Q1452.92 1840.48 1460.94 1840.48 Q1468.14 1840.48 1472.31 1845.12 Q1476.51 1849.74 1476.51 1857.7 M1470.65 1855.98 Q1470.59 1851.17 1467.95 1848.31 Q1465.34 1845.44 1461.01 1845.44 Q1456.11 1845.44 1453.15 1848.21 Q1450.22 1850.98 1449.77 1856.01 L1470.65 1855.98 Z" fill="#000000" fill-rule="evenodd" fill-opacity="1" /><path clip-path="url(#clip980)" d="M1512.63 1831.21 L1512.63 1841.34 L1524.7 1841.34 L1524.7 1845.89 L1512.63 1845.89 L1512.63 1865.24 Q1512.63 1869.6 1513.81 1870.84 Q1515.02 1872.08 1518.68 1872.08 L1524.7 1872.08 L1524.7 1876.98 L1518.68 1876.98 Q1511.9 1876.98 1509.32 1874.47 Q1506.75 1871.92 1506.75 1865.24 L1506.75 1845.89 L1502.45 1845.89 L1502.45 1841.34 L1506.75 1841.34 L1506.75 1831.21 L1512.63 1831.21 Z" fill="#000000" fill-rule="evenodd" fill-opacity="1" /><path clip-path="url(#clip980)" d="M1562.03 1855.47 L1562.03 1876.98 L1556.18 1876.98 L1556.18 1855.66 Q1556.18 1850.6 1554.2 1848.08 Q1552.23 1845.57 1548.28 1845.57 Q1543.54 1845.57 1540.8 1848.59 Q1538.07 1851.62 1538.07 1856.84 L1538.07 1876.98 L1532.18 1876.98 L1532.18 1827.46 L1538.07 1827.46 L1538.07 1846.87 Q1540.17 1843.66 1543 1842.07 Q1545.86 1840.48 1549.59 1840.48 Q1555.73 1840.48 1558.88 1844.3 Q1562.03 1848.08 1562.03 1855.47 Z" fill="#000000" fill-rule="evenodd" fill-opacity="1" /><path clip-path="url(#clip980)" d="M1604.2 1857.7 L1604.2 1860.56 L1577.28 1860.56 Q1577.66 1866.61 1580.91 1869.79 Q1584.18 1872.94 1590.01 1872.94 Q1593.38 1872.94 1596.53 1872.11 Q1599.72 1871.29 1602.84 1869.63 L1602.84 1875.17 Q1599.69 1876.51 1596.38 1877.21 Q1593.07 1877.91 1589.66 1877.91 Q1581.13 1877.91 1576.13 1872.94 Q1571.17 1867.98 1571.17 1859.51 Q1571.17 1850.76 1575.88 1845.63 Q1580.62 1840.48 1588.64 1840.48 Q1595.83 1840.48 1600 1845.12 Q1604.2 1849.74 1604.2 1857.7 M1598.35 1855.98 Q1598.28 1851.17 1595.64 1848.31 Q1593.03 1845.44 1588.7 1845.44 Q1583.8 1845.44 1580.84 1848.21 Q1577.91 1850.98 1577.47 1856.01 L1598.35 1855.98 Z" fill="#000000" fill-rule="evenodd" fill-opacity="1" /><path clip-path="url(#clip980)" d="M1636.54 1842.39 L1636.54 1847.92 Q1634.06 1846.65 1631.39 1846.01 Q1628.71 1845.38 1625.85 1845.38 Q1621.49 1845.38 1619.29 1846.71 Q1617.13 1848.05 1617.13 1850.73 Q1617.13 1852.76 1618.69 1853.94 Q1620.25 1855.09 1624.96 1856.14 L1626.96 1856.58 Q1633.2 1857.92 1635.81 1860.37 Q1638.45 1862.79 1638.45 1867.15 Q1638.45 1872.11 1634.51 1875.01 Q1630.59 1877.91 1623.72 1877.91 Q1620.85 1877.91 1617.73 1877.33 Q1614.64 1876.79 1611.21 1875.68 L1611.21 1869.63 Q1614.45 1871.32 1617.6 1872.18 Q1620.76 1873.01 1623.84 1873.01 Q1627.98 1873.01 1630.21 1871.6 Q1632.44 1870.17 1632.44 1867.59 Q1632.44 1865.21 1630.81 1863.93 Q1629.22 1862.66 1623.78 1861.48 L1621.74 1861.01 Q1616.3 1859.86 1613.88 1857.5 Q1611.46 1855.12 1611.46 1850.98 Q1611.46 1845.95 1615.03 1843.21 Q1618.59 1840.48 1625.15 1840.48 Q1628.39 1840.48 1631.26 1840.95 Q1634.12 1841.43 1636.54 1842.39 Z" fill="#000000" fill-rule="evenodd" fill-opacity="1" /><path clip-path="url(#clip980)" d="M1678.27 1857.7 L1678.27 1860.56 L1651.34 1860.56 Q1651.72 1866.61 1654.97 1869.79 Q1658.25 1872.94 1664.07 1872.94 Q1667.45 1872.94 1670.6 1872.11 Q1673.78 1871.29 1676.9 1869.63 L1676.9 1875.17 Q1673.75 1876.51 1670.44 1877.21 Q1667.13 1877.91 1663.72 1877.91 Q1655.19 1877.91 1650.2 1872.94 Q1645.23 1867.98 1645.23 1859.51 Q1645.23 1850.76 1649.94 1845.63 Q1654.69 1840.48 1662.71 1840.48 Q1669.9 1840.48 1674.07 1845.12 Q1678.27 1849.74 1678.27 1857.7 M1672.41 1855.98 Q1672.35 1851.17 1669.71 1848.31 Q1667.1 1845.44 1662.77 1845.44 Q1657.87 1845.44 1654.91 1848.21 Q1651.98 1850.98 1651.53 1856.01 L1672.41 1855.98 Z" fill="#000000" fill-rule="evenodd" fill-opacity="1" /><path clip-path="url(#clip980)" d="M1732.06 1846.75 L1732.06 1827.46 L1737.92 1827.46 L1737.92 1876.98 L1732.06 1876.98 L1732.06 1871.64 Q1730.21 1874.82 1727.38 1876.38 Q1724.58 1877.91 1720.63 1877.91 Q1714.17 1877.91 1710.1 1872.75 Q1706.06 1867.59 1706.06 1859.19 Q1706.06 1850.79 1710.1 1845.63 Q1714.17 1840.48 1720.63 1840.48 Q1724.58 1840.48 1727.38 1842.04 Q1730.21 1843.56 1732.06 1846.75 M1712.1 1859.19 Q1712.1 1865.65 1714.75 1869.34 Q1717.42 1873.01 1722.07 1873.01 Q1726.71 1873.01 1729.39 1869.34 Q1732.06 1865.65 1732.06 1859.19 Q1732.06 1852.73 1729.39 1849.07 Q1726.71 1845.38 1722.07 1845.38 Q1717.42 1845.38 1714.75 1849.07 Q1712.1 1852.73 1712.1 1859.19 Z" fill="#000000" fill-rule="evenodd" fill-opacity="1" /><path clip-path="url(#clip980)" d="M1766.18 1859.06 Q1759.08 1859.06 1756.35 1860.69 Q1753.61 1862.31 1753.61 1866.23 Q1753.61 1869.34 1755.65 1871.19 Q1757.71 1873.01 1761.25 1873.01 Q1766.12 1873.01 1769.04 1869.57 Q1772.01 1866.1 1772.01 1860.37 L1772.01 1859.06 L1766.18 1859.06 M1777.86 1856.65 L1777.86 1876.98 L1772.01 1876.98 L1772.01 1871.57 Q1770 1874.82 1767.01 1876.38 Q1764.02 1877.91 1759.69 1877.91 Q1754.21 1877.91 1750.97 1874.85 Q1747.75 1871.76 1747.75 1866.61 Q1747.75 1860.59 1751.76 1857.54 Q1755.8 1854.48 1763.79 1854.48 L1772.01 1854.48 L1772.01 1853.91 Q1772.01 1849.87 1769.33 1847.67 Q1766.69 1845.44 1761.88 1845.44 Q1758.83 1845.44 1755.93 1846.17 Q1753.04 1846.91 1750.36 1848.37 L1750.36 1842.96 Q1753.58 1841.72 1756.6 1841.11 Q1759.62 1840.48 1762.49 1840.48 Q1770.22 1840.48 1774.04 1844.49 Q1777.86 1848.5 1777.86 1856.65 Z" fill="#000000" fill-rule="evenodd" fill-opacity="1" /><path clip-path="url(#clip980)" d="M1804.76 1880.29 Q1802.27 1886.66 1799.92 1888.6 Q1797.56 1890.54 1793.62 1890.54 L1788.94 1890.54 L1788.94 1885.64 L1792.38 1885.64 Q1794.79 1885.64 1796.13 1884.5 Q1797.47 1883.35 1799.09 1879.08 L1800.14 1876.41 L1785.72 1841.34 L1791.93 1841.34 L1803.07 1869.22 L1814.21 1841.34 L1820.42 1841.34 L1804.76 1880.29 Z" fill="#000000" fill-rule="evenodd" fill-opacity="1" /><path clip-path="url(#clip980)" d="M1851.23 1842.39 L1851.23 1847.92 Q1848.74 1846.65 1846.07 1846.01 Q1843.4 1845.38 1840.53 1845.38 Q1836.17 1845.38 1833.98 1846.71 Q1831.81 1848.05 1831.81 1850.73 Q1831.81 1852.76 1833.37 1853.94 Q1834.93 1855.09 1839.64 1856.14 L1841.65 1856.58 Q1847.88 1857.92 1850.49 1860.37 Q1853.14 1862.79 1853.14 1867.15 Q1853.14 1872.11 1849.19 1875.01 Q1845.27 1877.91 1838.4 1877.91 Q1835.53 1877.91 1832.42 1877.33 Q1829.33 1876.79 1825.89 1875.68 L1825.89 1869.63 Q1829.14 1871.32 1832.29 1872.18 Q1835.44 1873.01 1838.53 1873.01 Q1842.66 1873.01 1844.89 1871.6 Q1847.12 1870.17 1847.12 1867.59 Q1847.12 1865.21 1845.5 1863.93 Q1843.91 1862.66 1838.46 1861.48 L1836.43 1861.01 Q1830.98 1859.86 1828.56 1857.5 Q1826.15 1855.12 1826.15 1850.98 Q1826.15 1845.95 1829.71 1843.21 Q1833.27 1840.48 1839.83 1840.48 Q1843.08 1840.48 1845.94 1840.95 Q1848.81 1841.43 1851.23 1842.39 Z" fill="#000000" fill-rule="evenodd" fill-opacity="1" /><path clip-path="url(#clip980)" d="M1868.76 1868.9 L1875.22 1868.9 L1875.22 1876.98 L1868.76 1876.98 L1868.76 1868.9 M1875.03 1864.22 L1868.95 1864.22 L1868.95 1859.32 Q1868.95 1856.1 1869.85 1854.04 Q1870.74 1851.97 1873.6 1849.23 L1876.47 1846.4 Q1878.28 1844.71 1879.08 1843.21 Q1879.9 1841.72 1879.9 1840.16 Q1879.9 1837.33 1877.8 1835.57 Q1875.73 1833.82 1872.3 1833.82 Q1869.78 1833.82 1866.92 1834.94 Q1864.08 1836.05 1861 1838.18 L1861 1832.2 Q1863.99 1830.39 1867.05 1829.5 Q1870.13 1828.6 1873.41 1828.6 Q1879.27 1828.6 1882.8 1831.69 Q1886.36 1834.78 1886.36 1839.84 Q1886.36 1842.26 1885.22 1844.46 Q1884.07 1846.62 1881.21 1849.36 L1878.41 1852.09 Q1876.91 1853.59 1876.28 1854.45 Q1875.67 1855.28 1875.42 1856.07 Q1875.22 1856.74 1875.13 1857.7 Q1875.03 1858.65 1875.03 1860.31 L1875.03 1864.22 Z" fill="#000000" fill-rule="evenodd" fill-opacity="1" /><polyline clip-path="url(#clip982)" style="stroke:#000000; stroke-linecap:butt; stroke-linejoin:round; stroke-width:2; stroke-opacity:0.1; fill:none" points="
  239.929,1682.1 2292.28,1682.1 
  "/>
<polyline clip-path="url(#clip982)" style="stroke:#000000; stroke-linecap:butt; stroke-linejoin:round; stroke-width:2; stroke-opacity:0.1; fill:none" points="
  239.929,1277.19 2292.28,1277.19 
  "/>
<polyline clip-path="url(#clip982)" style="stroke:#000000; stroke-linecap:butt; stroke-linejoin:round; stroke-width:2; stroke-opacity:0.1; fill:none" points="
  239.929,872.286 2292.28,872.286 
  "/>
<polyline clip-path="url(#clip982)" style="stroke:#000000; stroke-linecap:butt; stroke-linejoin:round; stroke-width:2; stroke-opacity:0.1; fill:none" points="
  239.929,467.377 2292.28,467.377 
  "/>
<polyline clip-path="url(#clip982)" style="stroke:#000000; stroke-linecap:butt; stroke-linejoin:round; stroke-width:2; stroke-opacity:0.1; fill:none" points="
  239.929,62.4687 2292.28,62.4687 
  "/>
<polyline clip-path="url(#clip980)" style="stroke:#000000; stroke-linecap:butt; stroke-linejoin:round; stroke-width:4; stroke-opacity:1; fill:none" points="
  239.929,1729.72 239.929,47.2441 
  "/>
<polyline clip-path="url(#clip980)" style="stroke:#000000; stroke-linecap:butt; stroke-linejoin:round; stroke-width:4; stroke-opacity:1; fill:none" points="
  239.929,1682.1 258.827,1682.1 
  "/>
<polyline clip-path="url(#clip980)" style="stroke:#000000; stroke-linecap:butt; stroke-linejoin:round; stroke-width:4; stroke-opacity:1; fill:none" points="
  239.929,1277.19 258.827,1277.19 
  "/>
<polyline clip-path="url(#clip980)" style="stroke:#000000; stroke-linecap:butt; stroke-linejoin:round; stroke-width:4; stroke-opacity:1; fill:none" points="
  239.929,872.286 258.827,872.286 
  "/>
<polyline clip-path="url(#clip980)" style="stroke:#000000; stroke-linecap:butt; stroke-linejoin:round; stroke-width:4; stroke-opacity:1; fill:none" points="
  239.929,467.377 258.827,467.377 
  "/>
<polyline clip-path="url(#clip980)" style="stroke:#000000; stroke-linecap:butt; stroke-linejoin:round; stroke-width:4; stroke-opacity:1; fill:none" points="
  239.929,62.4687 258.827,62.4687 
  "/>
<path clip-path="url(#clip980)" d="M189.585 1667.9 Q185.974 1667.9 184.145 1671.47 Q182.34 1675.01 182.34 1682.14 Q182.34 1689.24 184.145 1692.81 Q185.974 1696.35 189.585 1696.35 Q193.219 1696.35 195.025 1692.81 Q196.853 1689.24 196.853 1682.14 Q196.853 1675.01 195.025 1671.47 Q193.219 1667.9 189.585 1667.9 M189.585 1664.2 Q195.395 1664.2 198.451 1668.8 Q201.529 1673.39 201.529 1682.14 Q201.529 1690.86 198.451 1695.47 Q195.395 1700.05 189.585 1700.05 Q183.775 1700.05 180.696 1695.47 Q177.641 1690.86 177.641 1682.14 Q177.641 1673.39 180.696 1668.8 Q183.775 1664.2 189.585 1664.2 Z" fill="#000000" fill-rule="evenodd" fill-opacity="1" /><path clip-path="url(#clip980)" d="M154.446 1290.54 L170.766 1290.54 L170.766 1294.47 L148.821 1294.47 L148.821 1290.54 Q151.483 1287.78 156.067 1283.15 Q160.673 1278.5 161.854 1277.16 Q164.099 1274.64 164.979 1272.9 Q165.881 1271.14 165.881 1269.45 Q165.881 1266.7 163.937 1264.96 Q162.016 1263.22 158.914 1263.22 Q156.715 1263.22 154.261 1263.99 Q151.831 1264.75 149.053 1266.3 L149.053 1261.58 Q151.877 1260.45 154.331 1259.87 Q156.784 1259.29 158.821 1259.29 Q164.192 1259.29 167.386 1261.97 Q170.58 1264.66 170.58 1269.15 Q170.58 1271.28 169.77 1273.2 Q168.983 1275.1 166.877 1277.69 Q166.298 1278.36 163.196 1281.58 Q160.094 1284.78 154.446 1290.54 Z" fill="#000000" fill-rule="evenodd" fill-opacity="1" /><path clip-path="url(#clip980)" d="M180.627 1259.91 L198.983 1259.91 L198.983 1263.85 L184.909 1263.85 L184.909 1272.32 Q185.928 1271.97 186.946 1271.81 Q187.965 1271.63 188.983 1271.63 Q194.77 1271.63 198.15 1274.8 Q201.529 1277.97 201.529 1283.39 Q201.529 1288.96 198.057 1292.07 Q194.585 1295.15 188.266 1295.15 Q186.09 1295.15 183.821 1294.78 Q181.576 1294.4 179.168 1293.66 L179.168 1288.96 Q181.252 1290.1 183.474 1290.65 Q185.696 1291.21 188.173 1291.21 Q192.178 1291.21 194.515 1289.1 Q196.853 1287 196.853 1283.39 Q196.853 1279.78 194.515 1277.67 Q192.178 1275.56 188.173 1275.56 Q186.298 1275.56 184.423 1275.98 Q182.571 1276.4 180.627 1277.28 L180.627 1259.91 Z" fill="#000000" fill-rule="evenodd" fill-opacity="1" /><path clip-path="url(#clip980)" d="M149.469 855.006 L167.826 855.006 L167.826 858.941 L153.752 858.941 L153.752 867.413 Q154.77 867.066 155.789 866.904 Q156.807 866.719 157.826 866.719 Q163.613 866.719 166.992 869.89 Q170.372 873.061 170.372 878.478 Q170.372 884.056 166.9 887.158 Q163.428 890.237 157.108 890.237 Q154.932 890.237 152.664 889.867 Q150.419 889.496 148.011 888.755 L148.011 884.056 Q150.094 885.191 152.317 885.746 Q154.539 886.302 157.016 886.302 Q161.02 886.302 163.358 884.195 Q165.696 882.089 165.696 878.478 Q165.696 874.867 163.358 872.76 Q161.02 870.654 157.016 870.654 Q155.141 870.654 153.266 871.07 Q151.414 871.487 149.469 872.367 L149.469 855.006 Z" fill="#000000" fill-rule="evenodd" fill-opacity="1" /><path clip-path="url(#clip980)" d="M189.585 858.084 Q185.974 858.084 184.145 861.649 Q182.34 865.191 182.34 872.32 Q182.34 879.427 184.145 882.992 Q185.974 886.533 189.585 886.533 Q193.219 886.533 195.025 882.992 Q196.853 879.427 196.853 872.32 Q196.853 865.191 195.025 861.649 Q193.219 858.084 189.585 858.084 M189.585 854.381 Q195.395 854.381 198.451 858.987 Q201.529 863.57 201.529 872.32 Q201.529 881.047 198.451 885.654 Q195.395 890.237 189.585 890.237 Q183.775 890.237 180.696 885.654 Q177.641 881.047 177.641 872.32 Q177.641 863.57 180.696 858.987 Q183.775 854.381 189.585 854.381 Z" fill="#000000" fill-rule="evenodd" fill-opacity="1" /><path clip-path="url(#clip980)" d="M149.238 450.097 L171.46 450.097 L171.46 452.088 L158.914 484.657 L154.03 484.657 L165.835 454.032 L149.238 454.032 L149.238 450.097 Z" fill="#000000" fill-rule="evenodd" fill-opacity="1" /><path clip-path="url(#clip980)" d="M180.627 450.097 L198.983 450.097 L198.983 454.032 L184.909 454.032 L184.909 462.504 Q185.928 462.157 186.946 461.995 Q187.965 461.81 188.983 461.81 Q194.77 461.81 198.15 464.981 Q201.529 468.153 201.529 473.569 Q201.529 479.148 198.057 482.25 Q194.585 485.328 188.266 485.328 Q186.09 485.328 183.821 484.958 Q181.576 484.588 179.168 483.847 L179.168 479.148 Q181.252 480.282 183.474 480.838 Q185.696 481.393 188.173 481.393 Q192.178 481.393 194.515 479.287 Q196.853 477.18 196.853 473.569 Q196.853 469.958 194.515 467.852 Q192.178 465.745 188.173 465.745 Q186.298 465.745 184.423 466.162 Q182.571 466.579 180.627 467.458 L180.627 450.097 Z" fill="#000000" fill-rule="evenodd" fill-opacity="1" /><path clip-path="url(#clip980)" d="M120.071 75.8135 L127.71 75.8135 L127.71 49.4479 L119.4 51.1145 L119.4 46.8553 L127.664 45.1887 L132.34 45.1887 L132.34 75.8135 L139.979 75.8135 L139.979 79.7487 L120.071 79.7487 L120.071 75.8135 Z" fill="#000000" fill-rule="evenodd" fill-opacity="1" /><path clip-path="url(#clip980)" d="M159.423 48.2673 Q155.812 48.2673 153.983 51.8321 Q152.178 55.3738 152.178 62.5034 Q152.178 69.6098 153.983 73.1746 Q155.812 76.7163 159.423 76.7163 Q163.057 76.7163 164.863 73.1746 Q166.692 69.6098 166.692 62.5034 Q166.692 55.3738 164.863 51.8321 Q163.057 48.2673 159.423 48.2673 M159.423 44.5637 Q165.233 44.5637 168.289 49.1701 Q171.367 53.7534 171.367 62.5034 Q171.367 71.2302 168.289 75.8366 Q165.233 80.4199 159.423 80.4199 Q153.613 80.4199 150.534 75.8366 Q147.479 71.2302 147.479 62.5034 Q147.479 53.7534 150.534 49.1701 Q153.613 44.5637 159.423 44.5637 Z" fill="#000000" fill-rule="evenodd" fill-opacity="1" /><path clip-path="url(#clip980)" d="M189.585 48.2673 Q185.974 48.2673 184.145 51.8321 Q182.34 55.3738 182.34 62.5034 Q182.34 69.6098 184.145 73.1746 Q185.974 76.7163 189.585 76.7163 Q193.219 76.7163 195.025 73.1746 Q196.853 69.6098 196.853 62.5034 Q196.853 55.3738 195.025 51.8321 Q193.219 48.2673 189.585 48.2673 M189.585 44.5637 Q195.395 44.5637 198.451 49.1701 Q201.529 53.7534 201.529 62.5034 Q201.529 71.2302 198.451 75.8366 Q195.395 80.4199 189.585 80.4199 Q183.775 80.4199 180.696 75.8366 Q177.641 71.2302 177.641 62.5034 Q177.641 53.7534 180.696 49.1701 Q183.775 44.5637 189.585 44.5637 Z" fill="#000000" fill-rule="evenodd" fill-opacity="1" /><path clip-path="url(#clip980)" d="M22.8844 944.341 L29.6639 944.341 Q26.6402 947.588 25.1443 951.28 Q23.6483 954.94 23.6483 959.078 Q23.6483 967.226 28.6454 971.554 Q33.6107 975.883 43.0319 975.883 Q52.4213 975.883 57.4184 971.554 Q62.3836 967.226 62.3836 959.078 Q62.3836 954.94 60.8877 951.28 Q59.3918 947.588 56.3681 944.341 L63.0839 944.341 Q65.3755 947.715 66.5214 951.502 Q67.6672 955.258 67.6672 959.46 Q67.6672 970.249 61.0787 976.456 Q54.4583 982.663 43.0319 982.663 Q31.5736 982.663 24.9851 976.456 Q18.3648 970.249 18.3648 959.46 Q18.3648 955.195 19.5106 951.439 Q20.6246 947.651 22.8844 944.341 Z" fill="#000000" fill-rule="evenodd" fill-opacity="1" /><path clip-path="url(#clip980)" d="M35.2021 920.852 Q35.2021 925.562 38.8942 928.299 Q42.5545 931.037 48.952 931.037 Q55.3495 931.037 59.0417 928.331 Q62.7019 925.594 62.7019 920.852 Q62.7019 916.173 59.0098 913.436 Q55.3177 910.698 48.952 910.698 Q42.6181 910.698 38.926 913.436 Q35.2021 916.173 35.2021 920.852 M30.2368 920.852 Q30.2368 913.213 35.2021 908.852 Q40.1673 904.492 48.952 904.492 Q57.7049 904.492 62.7019 908.852 Q67.6672 913.213 67.6672 920.852 Q67.6672 928.522 62.7019 932.883 Q57.7049 937.211 48.952 937.211 Q40.1673 937.211 35.2021 932.883 Q30.2368 928.522 30.2368 920.852 Z" fill="#000000" fill-rule="evenodd" fill-opacity="1" /><path clip-path="url(#clip980)" d="M52.6759 895.389 L31.0962 895.389 L31.0962 889.532 L52.4531 889.532 Q57.5139 889.532 60.0602 887.559 Q62.5746 885.586 62.5746 881.639 Q62.5746 876.896 59.5509 874.159 Q56.5272 871.39 51.3073 871.39 L31.0962 871.39 L31.0962 865.534 L66.7442 865.534 L66.7442 871.39 L61.2696 871.39 Q64.5162 873.523 66.1076 876.355 Q67.6672 879.156 67.6672 882.88 Q67.6672 889.023 63.8478 892.206 Q60.0283 895.389 52.6759 895.389 M30.2368 880.652 L30.2368 880.652 Z" fill="#000000" fill-rule="evenodd" fill-opacity="1" /><path clip-path="url(#clip980)" d="M45.2281 823.838 L66.7442 823.838 L66.7442 829.695 L45.419 829.695 Q40.3583 829.695 37.8438 831.668 Q35.3294 833.641 35.3294 837.588 Q35.3294 842.331 38.3531 845.068 Q41.3768 847.805 46.5967 847.805 L66.7442 847.805 L66.7442 853.693 L31.0962 853.693 L31.0962 847.805 L36.6344 847.805 Q33.4197 845.704 31.8283 842.872 Q30.2368 840.007 30.2368 836.283 Q30.2368 830.14 34.0563 826.989 Q37.8438 823.838 45.2281 823.838 Z" fill="#000000" fill-rule="evenodd" fill-opacity="1" /><path clip-path="url(#clip980)" d="M20.9747 806.364 L31.0962 806.364 L31.0962 794.301 L35.6477 794.301 L35.6477 806.364 L54.9994 806.364 Q59.3599 806.364 60.6013 805.187 Q61.8426 803.977 61.8426 800.317 L61.8426 794.301 L66.7442 794.301 L66.7442 800.317 Q66.7442 807.096 64.2297 809.675 Q61.6834 812.253 54.9994 812.253 L35.6477 812.253 L35.6477 816.549 L31.0962 816.549 L31.0962 812.253 L20.9747 812.253 L20.9747 806.364 Z" fill="#000000" fill-rule="evenodd" fill-opacity="1" /><polyline clip-path="url(#clip982)" style="stroke:#389826; stroke-linecap:butt; stroke-linejoin:round; stroke-width:12; stroke-opacity:1; fill:none" points="
  325.444,1682.1 325.444,1422.96 496.474,1422.96 496.474,1390.57 667.503,1390.57 667.503,1261 838.533,1261 838.533,1066.64 1009.56,1066.64 1009.56,920.875 
  1180.59,920.875 1180.59,1082.84 1351.62,1082.84 1351.62,386.395 1522.65,386.395 1522.65,224.432 1693.68,224.432 1693.68,94.8613 1864.71,94.8613 1864.71,920.875 
  2035.74,920.875 2035.74,1066.64 2206.77,1066.64 2206.77,1682.1 
  "/>
<polyline clip-path="url(#clip982)" style="stroke:#cb3c33; stroke-linecap:butt; stroke-linejoin:round; stroke-width:12; stroke-opacity:1; fill:none" points="
  325.444,1682.1 325.444,1536.34 496.474,1536.34 496.474,1552.53 667.503,1552.53 667.503,1358.18 838.533,1358.18 838.533,1277.19 1009.56,1277.19 1009.56,1261 
  1180.59,1261 1180.59,1536.34 1351.62,1536.34 1351.62,1244.8 1522.65,1244.8 1522.65,1390.57 1693.68,1390.57 1693.68,1439.16 1864.71,1439.16 1864.71,1536.34 
  2035.74,1536.34 2035.74,1633.51 2206.77,1633.51 2206.77,1682.1 
  "/>
<path clip-path="url(#clip980)" d="
M308.341 310.687 L930.545 310.687 L930.545 103.327 L308.341 103.327  Z
  " fill="#ffffff" fill-rule="evenodd" fill-opacity="1"/>
<polyline clip-path="url(#clip980)" style="stroke:#000000; stroke-linecap:butt; stroke-linejoin:round; stroke-width:4; stroke-opacity:1; fill:none" points="
  308.341,310.687 930.545,310.687 930.545,103.327 308.341,103.327 308.341,310.687 
  "/>
<polyline clip-path="url(#clip980)" style="stroke:#389826; stroke-linecap:butt; stroke-linejoin:round; stroke-width:4; stroke-opacity:1; fill:none" points="
  331.145,155.167 467.969,155.167 
  "/>
<path clip-path="url(#clip980)" d="M490.773 137.887 L497.069 137.887 L512.393 166.799 L512.393 137.887 L516.93 137.887 L516.93 172.447 L510.634 172.447 L495.31 143.535 L495.31 172.447 L490.773 172.447 L490.773 137.887 Z" fill="#000000" fill-rule="evenodd" fill-opacity="1" /><path clip-path="url(#clip980)" d="M536.096 149.507 Q532.671 149.507 530.68 152.192 Q528.689 154.854 528.689 159.507 Q528.689 164.16 530.657 166.845 Q532.647 169.507 536.096 169.507 Q539.499 169.507 541.49 166.822 Q543.481 164.136 543.481 159.507 Q543.481 154.9 541.49 152.215 Q539.499 149.507 536.096 149.507 M536.096 145.896 Q541.652 145.896 544.823 149.507 Q547.995 153.118 547.995 159.507 Q547.995 165.873 544.823 169.507 Q541.652 173.118 536.096 173.118 Q530.518 173.118 527.347 169.507 Q524.198 165.873 524.198 159.507 Q524.198 153.118 527.347 149.507 Q530.518 145.896 536.096 145.896 Z" fill="#000000" fill-rule="evenodd" fill-opacity="1" /><path clip-path="url(#clip980)" d="M591.027 139.021 L591.027 143.581 Q588.365 142.308 586.004 141.683 Q583.643 141.058 581.443 141.058 Q577.624 141.058 575.541 142.539 Q573.481 144.021 573.481 146.752 Q573.481 149.044 574.846 150.225 Q576.235 151.382 580.078 152.1 L582.902 152.678 Q588.133 153.674 590.61 156.197 Q593.11 158.697 593.11 162.91 Q593.11 167.933 589.73 170.525 Q586.374 173.118 579.869 173.118 Q577.416 173.118 574.638 172.562 Q571.883 172.007 568.92 170.919 L568.92 166.104 Q571.768 167.701 574.499 168.511 Q577.23 169.322 579.869 169.322 Q583.874 169.322 586.05 167.748 Q588.226 166.174 588.226 163.257 Q588.226 160.711 586.652 159.275 Q585.101 157.84 581.536 157.123 L578.689 156.567 Q573.457 155.525 571.119 153.303 Q568.781 151.081 568.781 147.123 Q568.781 142.539 571.999 139.9 Q575.24 137.262 580.911 137.262 Q583.342 137.262 585.865 137.701 Q588.388 138.141 591.027 139.021 Z" fill="#000000" fill-rule="evenodd" fill-opacity="1" /><path clip-path="url(#clip980)" d="M600.054 136.428 L604.337 136.428 L604.337 157.701 L617.045 146.521 L622.485 146.521 L608.735 158.65 L623.064 172.447 L617.508 172.447 L604.337 159.785 L604.337 172.447 L600.054 172.447 L600.054 136.428 Z" fill="#000000" fill-rule="evenodd" fill-opacity="1" /><path clip-path="url(#clip980)" d="M627.67 146.521 L631.929 146.521 L631.929 172.447 L627.67 172.447 L627.67 146.521 M627.67 136.428 L631.929 136.428 L631.929 141.822 L627.67 141.822 L627.67 136.428 Z" fill="#000000" fill-rule="evenodd" fill-opacity="1" /><path clip-path="url(#clip980)" d="M644.962 168.558 L644.962 182.308 L640.679 182.308 L640.679 146.521 L644.962 146.521 L644.962 150.456 Q646.304 148.141 648.341 147.03 Q650.401 145.896 653.249 145.896 Q657.971 145.896 660.911 149.646 Q663.874 153.396 663.874 159.507 Q663.874 165.618 660.911 169.368 Q657.971 173.118 653.249 173.118 Q650.401 173.118 648.341 172.007 Q646.304 170.873 644.962 168.558 M659.452 159.507 Q659.452 154.808 657.508 152.146 Q655.587 149.461 652.207 149.461 Q648.827 149.461 646.883 152.146 Q644.962 154.808 644.962 159.507 Q644.962 164.206 646.883 166.891 Q648.827 169.553 652.207 169.553 Q655.587 169.553 657.508 166.891 Q659.452 164.206 659.452 159.507 Z" fill="#000000" fill-rule="evenodd" fill-opacity="1" /><polyline clip-path="url(#clip980)" style="stroke:#cb3c33; stroke-linecap:butt; stroke-linejoin:round; stroke-width:4; stroke-opacity:1; fill:none" points="
  331.145,207.007 467.969,207.007 
  "/>
<path clip-path="url(#clip980)" d="M513.018 190.861 L513.018 195.421 Q510.356 194.148 507.995 193.523 Q505.634 192.898 503.435 192.898 Q499.615 192.898 497.532 194.379 Q495.472 195.861 495.472 198.592 Q495.472 200.884 496.837 202.065 Q498.226 203.222 502.069 203.94 L504.893 204.518 Q510.124 205.514 512.601 208.037 Q515.101 210.537 515.101 214.75 Q515.101 219.773 511.722 222.365 Q508.365 224.958 501.861 224.958 Q499.407 224.958 496.629 224.402 Q493.874 223.847 490.912 222.759 L490.912 217.944 Q493.759 219.541 496.49 220.351 Q499.222 221.162 501.861 221.162 Q505.865 221.162 508.041 219.588 Q510.217 218.014 510.217 215.097 Q510.217 212.551 508.643 211.115 Q507.092 209.68 503.527 208.963 L500.68 208.407 Q495.449 207.365 493.111 205.143 Q490.773 202.921 490.773 198.963 Q490.773 194.379 493.99 191.74 Q497.231 189.102 502.902 189.102 Q505.333 189.102 507.856 189.541 Q510.379 189.981 513.018 190.861 Z" fill="#000000" fill-rule="evenodd" fill-opacity="1" /><path clip-path="url(#clip980)" d="M522.046 188.268 L526.328 188.268 L526.328 209.541 L539.036 198.361 L544.476 198.361 L530.726 210.49 L545.055 224.287 L539.499 224.287 L526.328 211.625 L526.328 224.287 L522.046 224.287 L522.046 188.268 Z" fill="#000000" fill-rule="evenodd" fill-opacity="1" /><path clip-path="url(#clip980)" d="M549.661 198.361 L553.92 198.361 L553.92 224.287 L549.661 224.287 L549.661 198.361 M549.661 188.268 L553.92 188.268 L553.92 193.662 L549.661 193.662 L549.661 188.268 Z" fill="#000000" fill-rule="evenodd" fill-opacity="1" /><path clip-path="url(#clip980)" d="M566.953 220.398 L566.953 234.148 L562.67 234.148 L562.67 198.361 L566.953 198.361 L566.953 202.296 Q568.295 199.981 570.332 198.87 Q572.393 197.736 575.24 197.736 Q579.962 197.736 582.902 201.486 Q585.865 205.236 585.865 211.347 Q585.865 217.458 582.902 221.208 Q579.962 224.958 575.24 224.958 Q572.393 224.958 570.332 223.847 Q568.295 222.713 566.953 220.398 M581.443 211.347 Q581.443 206.648 579.499 203.986 Q577.578 201.301 574.198 201.301 Q570.818 201.301 568.874 203.986 Q566.953 206.648 566.953 211.347 Q566.953 216.046 568.874 218.731 Q570.818 221.393 574.198 221.393 Q577.578 221.393 579.499 218.731 Q581.443 216.046 581.443 211.347 Z" fill="#000000" fill-rule="evenodd" fill-opacity="1" /><polyline clip-path="url(#clip980)" style="stroke:#000000; stroke-linecap:butt; stroke-linejoin:round; stroke-width:4; stroke-opacity:1; fill:none" points="
  331.145,258.847 467.969,258.847 
  "/>
<path clip-path="url(#clip980)" d="M490.773 241.567 L510.634 241.567 L510.634 245.502 L495.449 245.502 L495.449 255.687 L509.152 255.687 L509.152 259.622 L495.449 259.622 L495.449 276.127 L490.773 276.127 L490.773 241.567 Z" fill="#000000" fill-rule="evenodd" fill-opacity="1" /><path clip-path="url(#clip980)" d="M529.43 254.182 Q528.712 253.766 527.856 253.58 Q527.022 253.372 526.004 253.372 Q522.393 253.372 520.448 255.733 Q518.527 258.071 518.527 262.469 L518.527 276.127 L514.245 276.127 L514.245 250.201 L518.527 250.201 L518.527 254.229 Q519.87 251.867 522.022 250.733 Q524.175 249.576 527.254 249.576 Q527.694 249.576 528.226 249.645 Q528.759 249.692 529.407 249.807 L529.43 254.182 Z" fill="#000000" fill-rule="evenodd" fill-opacity="1" /><path clip-path="url(#clip980)" d="M545.68 263.094 Q540.518 263.094 538.527 264.275 Q536.536 265.455 536.536 268.303 Q536.536 270.571 538.018 271.914 Q539.522 273.233 542.092 273.233 Q545.633 273.233 547.763 270.733 Q549.916 268.21 549.916 264.043 L549.916 263.094 L545.68 263.094 M554.175 261.335 L554.175 276.127 L549.916 276.127 L549.916 272.191 Q548.458 274.553 546.282 275.687 Q544.106 276.798 540.958 276.798 Q536.976 276.798 534.615 274.576 Q532.277 272.33 532.277 268.58 Q532.277 264.205 535.194 261.983 Q538.133 259.761 543.944 259.761 L549.916 259.761 L549.916 259.344 Q549.916 256.405 547.971 254.807 Q546.05 253.187 542.555 253.187 Q540.333 253.187 538.226 253.719 Q536.12 254.252 534.175 255.317 L534.175 251.381 Q536.513 250.479 538.712 250.039 Q540.911 249.576 542.995 249.576 Q548.62 249.576 551.397 252.492 Q554.175 255.409 554.175 261.335 Z" fill="#000000" fill-rule="evenodd" fill-opacity="1" /><path clip-path="url(#clip980)" d="M581.605 251.196 L581.605 255.178 Q579.8 254.182 577.971 253.696 Q576.166 253.187 574.314 253.187 Q570.17 253.187 567.879 255.826 Q565.587 258.442 565.587 263.187 Q565.587 267.932 567.879 270.571 Q570.17 273.187 574.314 273.187 Q576.166 273.187 577.971 272.701 Q579.8 272.191 581.605 271.196 L581.605 275.131 Q579.823 275.965 577.902 276.381 Q576.004 276.798 573.851 276.798 Q567.994 276.798 564.545 273.117 Q561.096 269.437 561.096 263.187 Q561.096 256.844 564.569 253.21 Q568.064 249.576 574.129 249.576 Q576.096 249.576 577.971 249.993 Q579.846 250.386 581.605 251.196 Z" fill="#000000" fill-rule="evenodd" fill-opacity="1" /><path clip-path="url(#clip980)" d="M593.226 242.84 L593.226 250.201 L601.999 250.201 L601.999 253.511 L593.226 253.511 L593.226 267.585 Q593.226 270.756 594.082 271.659 Q594.962 272.562 597.624 272.562 L601.999 272.562 L601.999 276.127 L597.624 276.127 Q592.693 276.127 590.818 274.298 Q588.943 272.446 588.943 267.585 L588.943 253.511 L585.818 253.511 L585.818 250.201 L588.943 250.201 L588.943 242.84 L593.226 242.84 Z" fill="#000000" fill-rule="evenodd" fill-opacity="1" /><path clip-path="url(#clip980)" d="M607.601 250.201 L611.86 250.201 L611.86 276.127 L607.601 276.127 L607.601 250.201 M607.601 240.108 L611.86 240.108 L611.86 245.502 L607.601 245.502 L607.601 240.108 Z" fill="#000000" fill-rule="evenodd" fill-opacity="1" /><path clip-path="url(#clip980)" d="M630.818 253.187 Q627.392 253.187 625.402 255.872 Q623.411 258.534 623.411 263.187 Q623.411 267.84 625.378 270.525 Q627.369 273.187 630.818 273.187 Q634.221 273.187 636.212 270.502 Q638.202 267.816 638.202 263.187 Q638.202 258.58 636.212 255.895 Q634.221 253.187 630.818 253.187 M630.818 249.576 Q636.374 249.576 639.545 253.187 Q642.716 256.798 642.716 263.187 Q642.716 269.553 639.545 273.187 Q636.374 276.798 630.818 276.798 Q625.24 276.798 622.068 273.187 Q618.92 269.553 618.92 263.187 Q618.92 256.798 622.068 253.187 Q625.24 249.576 630.818 249.576 Z" fill="#000000" fill-rule="evenodd" fill-opacity="1" /><path clip-path="url(#clip980)" d="M671.327 260.479 L671.327 276.127 L667.068 276.127 L667.068 260.617 Q667.068 256.937 665.633 255.108 Q664.198 253.28 661.327 253.28 Q657.878 253.28 655.887 255.479 Q653.897 257.678 653.897 261.474 L653.897 276.127 L649.614 276.127 L649.614 250.201 L653.897 250.201 L653.897 254.229 Q655.425 251.891 657.485 250.733 Q659.568 249.576 662.276 249.576 Q666.744 249.576 669.036 252.354 Q671.327 255.108 671.327 260.479 Z" fill="#000000" fill-rule="evenodd" fill-opacity="1" /><path clip-path="url(#clip980)" d="M711.42 250.965 L711.42 254.992 Q709.614 254.067 707.67 253.604 Q705.725 253.141 703.642 253.141 Q700.471 253.141 698.873 254.113 Q697.299 255.085 697.299 257.029 Q697.299 258.511 698.434 259.367 Q699.568 260.201 702.994 260.965 L704.452 261.289 Q708.989 262.261 710.887 264.043 Q712.808 265.803 712.808 268.974 Q712.808 272.585 709.938 274.691 Q707.091 276.798 702.091 276.798 Q700.008 276.798 697.739 276.381 Q695.494 275.988 692.994 275.178 L692.994 270.779 Q695.355 272.006 697.647 272.631 Q699.938 273.233 702.184 273.233 Q705.193 273.233 706.813 272.215 Q708.433 271.173 708.433 269.298 Q708.433 267.562 707.253 266.636 Q706.096 265.71 702.137 264.854 L700.656 264.506 Q696.697 263.673 694.938 261.96 Q693.179 260.224 693.179 257.215 Q693.179 253.557 695.772 251.567 Q698.364 249.576 703.133 249.576 Q705.494 249.576 707.577 249.923 Q709.66 250.27 711.42 250.965 Z" fill="#000000" fill-rule="evenodd" fill-opacity="1" /><path clip-path="url(#clip980)" d="M719.429 240.108 L723.711 240.108 L723.711 261.381 L736.419 250.201 L741.859 250.201 L728.109 262.33 L742.438 276.127 L736.882 276.127 L723.711 263.465 L723.711 276.127 L719.429 276.127 L719.429 240.108 Z" fill="#000000" fill-rule="evenodd" fill-opacity="1" /><path clip-path="url(#clip980)" d="M747.044 250.201 L751.304 250.201 L751.304 276.127 L747.044 276.127 L747.044 250.201 M747.044 240.108 L751.304 240.108 L751.304 245.502 L747.044 245.502 L747.044 240.108 Z" fill="#000000" fill-rule="evenodd" fill-opacity="1" /><path clip-path="url(#clip980)" d="M764.336 272.238 L764.336 285.988 L760.054 285.988 L760.054 250.201 L764.336 250.201 L764.336 254.136 Q765.679 251.821 767.716 250.71 Q769.776 249.576 772.623 249.576 Q777.345 249.576 780.285 253.326 Q783.248 257.076 783.248 263.187 Q783.248 269.298 780.285 273.048 Q777.345 276.798 772.623 276.798 Q769.776 276.798 767.716 275.687 Q765.679 274.553 764.336 272.238 M778.827 263.187 Q778.827 258.488 776.882 255.826 Q774.961 253.141 771.581 253.141 Q768.202 253.141 766.257 255.826 Q764.336 258.488 764.336 263.187 Q764.336 267.886 766.257 270.571 Q768.202 273.233 771.581 273.233 Q774.961 273.233 776.882 270.571 Q778.827 267.886 778.827 263.187 Z" fill="#000000" fill-rule="evenodd" fill-opacity="1" /><path clip-path="url(#clip980)" d="M794.428 272.238 L794.428 285.988 L790.146 285.988 L790.146 250.201 L794.428 250.201 L794.428 254.136 Q795.771 251.821 797.808 250.71 Q799.868 249.576 802.715 249.576 Q807.438 249.576 810.377 253.326 Q813.34 257.076 813.34 263.187 Q813.34 269.298 810.377 273.048 Q807.438 276.798 802.715 276.798 Q799.868 276.798 797.808 275.687 Q795.771 274.553 794.428 272.238 M808.919 263.187 Q808.919 258.488 806.975 255.826 Q805.053 253.141 801.674 253.141 Q798.294 253.141 796.35 255.826 Q794.428 258.488 794.428 263.187 Q794.428 267.886 796.35 270.571 Q798.294 273.233 801.674 273.233 Q805.053 273.233 806.975 270.571 Q808.919 267.886 808.919 263.187 Z" fill="#000000" fill-rule="evenodd" fill-opacity="1" /><path clip-path="url(#clip980)" d="M820.4 250.201 L824.66 250.201 L824.66 276.127 L820.4 276.127 L820.4 250.201 M820.4 240.108 L824.66 240.108 L824.66 245.502 L820.4 245.502 L820.4 240.108 Z" fill="#000000" fill-rule="evenodd" fill-opacity="1" /><path clip-path="url(#clip980)" d="M855.123 260.479 L855.123 276.127 L850.863 276.127 L850.863 260.617 Q850.863 256.937 849.428 255.108 Q847.993 253.28 845.123 253.28 Q841.674 253.28 839.683 255.479 Q837.692 257.678 837.692 261.474 L837.692 276.127 L833.41 276.127 L833.41 250.201 L837.692 250.201 L837.692 254.229 Q839.22 251.891 841.28 250.733 Q843.363 249.576 846.072 249.576 Q850.539 249.576 852.831 252.354 Q855.123 255.108 855.123 260.479 Z" fill="#000000" fill-rule="evenodd" fill-opacity="1" /><path clip-path="url(#clip980)" d="M880.678 262.863 Q880.678 258.233 878.757 255.687 Q876.859 253.141 873.409 253.141 Q869.984 253.141 868.062 255.687 Q866.164 258.233 866.164 262.863 Q866.164 267.469 868.062 270.016 Q869.984 272.562 873.409 272.562 Q876.859 272.562 878.757 270.016 Q880.678 267.469 880.678 262.863 M884.937 272.909 Q884.937 279.529 881.997 282.747 Q879.058 285.988 872.993 285.988 Q870.747 285.988 868.757 285.64 Q866.766 285.316 864.891 284.622 L864.891 280.478 Q866.766 281.497 868.595 281.983 Q870.423 282.469 872.322 282.469 Q876.511 282.469 878.595 280.27 Q880.678 278.094 880.678 273.673 L880.678 271.566 Q879.359 273.858 877.298 274.992 Q875.238 276.127 872.368 276.127 Q867.599 276.127 864.683 272.492 Q861.766 268.858 861.766 262.863 Q861.766 256.844 864.683 253.21 Q867.599 249.576 872.368 249.576 Q875.238 249.576 877.298 250.71 Q879.359 251.844 880.678 254.136 L880.678 250.201 L884.937 250.201 L884.937 272.909 Z" fill="#000000" fill-rule="evenodd" fill-opacity="1" /><path clip-path="url(#clip980)" d="
M239.929 1729.72 L2292.28 1729.72 L2292.28 47.2441 L239.929 47.2441  Z
  " fill="#000000" fill-rule="evenodd" fill-opacity="0"/>
<polyline clip-path="url(#clip980)" style="stroke:#000000; stroke-linecap:butt; stroke-linejoin:round; stroke-width:4; stroke-opacity:1; fill:none" points="
  2292.28,1729.72 2292.28,47.2441 
  "/>
<polyline clip-path="url(#clip980)" style="stroke:#000000; stroke-linecap:butt; stroke-linejoin:round; stroke-width:4; stroke-opacity:1; fill:none" points="
  2292.28,1729.72 2273.39,1729.72 
  "/>
<polyline clip-path="url(#clip980)" style="stroke:#000000; stroke-linecap:butt; stroke-linejoin:round; stroke-width:4; stroke-opacity:1; fill:none" points="
  2292.28,1393.22 2273.39,1393.22 
  "/>
<polyline clip-path="url(#clip980)" style="stroke:#000000; stroke-linecap:butt; stroke-linejoin:round; stroke-width:4; stroke-opacity:1; fill:none" points="
  2292.28,1056.73 2273.39,1056.73 
  "/>
<polyline clip-path="url(#clip980)" style="stroke:#000000; stroke-linecap:butt; stroke-linejoin:round; stroke-width:4; stroke-opacity:1; fill:none" points="
  2292.28,720.234 2273.39,720.234 
  "/>
<polyline clip-path="url(#clip980)" style="stroke:#000000; stroke-linecap:butt; stroke-linejoin:round; stroke-width:4; stroke-opacity:1; fill:none" points="
  2292.28,383.739 2273.39,383.739 
  "/>
<polyline clip-path="url(#clip980)" style="stroke:#000000; stroke-linecap:butt; stroke-linejoin:round; stroke-width:4; stroke-opacity:1; fill:none" points="
  2292.28,47.2441 2273.39,47.2441 
  "/>
<path clip-path="url(#clip980)" d="M2342.63 1715.52 Q2339.02 1715.52 2337.19 1719.08 Q2335.38 1722.62 2335.38 1729.75 Q2335.38 1736.86 2337.19 1740.43 Q2339.02 1743.97 2342.63 1743.97 Q2346.26 1743.97 2348.07 1740.43 Q2349.9 1736.86 2349.9 1729.75 Q2349.9 1722.62 2348.07 1719.08 Q2346.26 1715.52 2342.63 1715.52 M2342.63 1711.81 Q2348.44 1711.81 2351.49 1716.42 Q2354.57 1721 2354.57 1729.75 Q2354.57 1738.48 2351.49 1743.09 Q2348.44 1747.67 2342.63 1747.67 Q2336.82 1747.67 2333.74 1743.09 Q2330.68 1738.48 2330.68 1729.75 Q2330.68 1721 2333.74 1716.42 Q2336.82 1711.81 2342.63 1711.81 Z" fill="#000000" fill-rule="evenodd" fill-opacity="1" /><path clip-path="url(#clip980)" d="M2362.79 1741.12 L2367.67 1741.12 L2367.67 1747 L2362.79 1747 L2362.79 1741.12 Z" fill="#000000" fill-rule="evenodd" fill-opacity="1" /><path clip-path="url(#clip980)" d="M2387.86 1715.52 Q2384.25 1715.52 2382.42 1719.08 Q2380.61 1722.62 2380.61 1729.75 Q2380.61 1736.86 2382.42 1740.43 Q2384.25 1743.97 2387.86 1743.97 Q2391.49 1743.97 2393.3 1740.43 Q2395.13 1736.86 2395.13 1729.75 Q2395.13 1722.62 2393.3 1719.08 Q2391.49 1715.52 2387.86 1715.52 M2387.86 1711.81 Q2393.67 1711.81 2396.72 1716.42 Q2399.8 1721 2399.8 1729.75 Q2399.8 1738.48 2396.72 1743.09 Q2393.67 1747.67 2387.86 1747.67 Q2382.05 1747.67 2378.97 1743.09 Q2375.91 1738.48 2375.91 1729.75 Q2375.91 1721 2378.97 1716.42 Q2382.05 1711.81 2387.86 1711.81 Z" fill="#000000" fill-rule="evenodd" fill-opacity="1" /><path clip-path="url(#clip980)" d="M2342.63 1379.02 Q2339.02 1379.02 2337.19 1382.59 Q2335.38 1386.13 2335.38 1393.26 Q2335.38 1400.37 2337.19 1403.93 Q2339.02 1407.47 2342.63 1407.47 Q2346.26 1407.47 2348.07 1403.93 Q2349.9 1400.37 2349.9 1393.26 Q2349.9 1386.13 2348.07 1382.59 Q2346.26 1379.02 2342.63 1379.02 M2342.63 1375.32 Q2348.44 1375.32 2351.49 1379.93 Q2354.57 1384.51 2354.57 1393.26 Q2354.57 1401.99 2351.49 1406.59 Q2348.44 1411.18 2342.63 1411.18 Q2336.82 1411.18 2333.74 1406.59 Q2330.68 1401.99 2330.68 1393.26 Q2330.68 1384.51 2333.74 1379.93 Q2336.82 1375.32 2342.63 1375.32 Z" fill="#000000" fill-rule="evenodd" fill-opacity="1" /><path clip-path="url(#clip980)" d="M2362.79 1404.63 L2367.67 1404.63 L2367.67 1410.5 L2362.79 1410.5 L2362.79 1404.63 Z" fill="#000000" fill-rule="evenodd" fill-opacity="1" /><path clip-path="url(#clip980)" d="M2381.89 1406.57 L2398.21 1406.57 L2398.21 1410.5 L2376.26 1410.5 L2376.26 1406.57 Q2378.92 1403.81 2383.51 1399.19 Q2388.11 1394.53 2389.29 1393.19 Q2391.54 1390.67 2392.42 1388.93 Q2393.32 1387.17 2393.32 1385.48 Q2393.32 1382.73 2391.38 1380.99 Q2389.46 1379.25 2386.35 1379.25 Q2384.16 1379.25 2381.7 1380.02 Q2379.27 1380.78 2376.49 1382.33 L2376.49 1377.61 Q2379.32 1376.48 2381.77 1375.9 Q2384.22 1375.32 2386.26 1375.32 Q2391.63 1375.32 2394.83 1378 Q2398.02 1380.69 2398.02 1385.18 Q2398.02 1387.31 2397.21 1389.23 Q2396.42 1391.13 2394.32 1393.72 Q2393.74 1394.39 2390.64 1397.61 Q2387.54 1400.81 2381.89 1406.57 Z" fill="#000000" fill-rule="evenodd" fill-opacity="1" /><path clip-path="url(#clip980)" d="M2342.63 1042.53 Q2339.02 1042.53 2337.19 1046.09 Q2335.38 1049.63 2335.38 1056.76 Q2335.38 1063.87 2337.19 1067.44 Q2339.02 1070.98 2342.63 1070.98 Q2346.26 1070.98 2348.07 1067.44 Q2349.9 1063.87 2349.9 1056.76 Q2349.9 1049.63 2348.07 1046.09 Q2346.26 1042.53 2342.63 1042.53 M2342.63 1038.82 Q2348.44 1038.82 2351.49 1043.43 Q2354.57 1048.01 2354.57 1056.76 Q2354.57 1065.49 2351.49 1070.1 Q2348.44 1074.68 2342.63 1074.68 Q2336.82 1074.68 2333.74 1070.1 Q2330.68 1065.49 2330.68 1056.76 Q2330.68 1048.01 2333.74 1043.43 Q2336.82 1038.82 2342.63 1038.82 Z" fill="#000000" fill-rule="evenodd" fill-opacity="1" /><path clip-path="url(#clip980)" d="M2362.79 1068.13 L2367.67 1068.13 L2367.67 1074.01 L2362.79 1074.01 L2362.79 1068.13 Z" fill="#000000" fill-rule="evenodd" fill-opacity="1" /><path clip-path="url(#clip980)" d="M2390.71 1043.52 L2378.9 1061.97 L2390.71 1061.97 L2390.71 1043.52 M2389.48 1039.45 L2395.36 1039.45 L2395.36 1061.97 L2400.29 1061.97 L2400.29 1065.86 L2395.36 1065.86 L2395.36 1074.01 L2390.71 1074.01 L2390.71 1065.86 L2375.1 1065.86 L2375.1 1061.35 L2389.48 1039.45 Z" fill="#000000" fill-rule="evenodd" fill-opacity="1" /><path clip-path="url(#clip980)" d="M2342.63 706.033 Q2339.02 706.033 2337.19 709.598 Q2335.38 713.14 2335.38 720.269 Q2335.38 727.376 2337.19 730.94 Q2339.02 734.482 2342.63 734.482 Q2346.26 734.482 2348.07 730.94 Q2349.9 727.376 2349.9 720.269 Q2349.9 713.14 2348.07 709.598 Q2346.26 706.033 2342.63 706.033 M2342.63 702.329 Q2348.44 702.329 2351.49 706.936 Q2354.57 711.519 2354.57 720.269 Q2354.57 728.996 2351.49 733.602 Q2348.44 738.186 2342.63 738.186 Q2336.82 738.186 2333.74 733.602 Q2330.68 728.996 2330.68 720.269 Q2330.68 711.519 2333.74 706.936 Q2336.82 702.329 2342.63 702.329 Z" fill="#000000" fill-rule="evenodd" fill-opacity="1" /><path clip-path="url(#clip980)" d="M2362.79 731.635 L2367.67 731.635 L2367.67 737.514 L2362.79 737.514 L2362.79 731.635 Z" fill="#000000" fill-rule="evenodd" fill-opacity="1" /><path clip-path="url(#clip980)" d="M2388.44 718.371 Q2385.29 718.371 2383.44 720.524 Q2381.61 722.677 2381.61 726.426 Q2381.61 730.153 2383.44 732.329 Q2385.29 734.482 2388.44 734.482 Q2391.59 734.482 2393.41 732.329 Q2395.27 730.153 2395.27 726.426 Q2395.27 722.677 2393.41 720.524 Q2391.59 718.371 2388.44 718.371 M2397.72 703.718 L2397.72 707.978 Q2395.96 707.144 2394.16 706.704 Q2392.37 706.265 2390.61 706.265 Q2385.98 706.265 2383.53 709.39 Q2381.1 712.515 2380.75 718.834 Q2382.12 716.82 2384.18 715.755 Q2386.24 714.667 2388.72 714.667 Q2393.92 714.667 2396.93 717.839 Q2399.97 720.987 2399.97 726.426 Q2399.97 731.751 2396.82 734.968 Q2393.67 738.186 2388.44 738.186 Q2382.44 738.186 2379.27 733.602 Q2376.1 728.996 2376.1 720.269 Q2376.1 712.075 2379.99 707.214 Q2383.88 702.329 2390.43 702.329 Q2392.19 702.329 2393.97 702.677 Q2395.78 703.024 2397.72 703.718 Z" fill="#000000" fill-rule="evenodd" fill-opacity="1" /><path clip-path="url(#clip980)" d="M2342.63 369.538 Q2339.02 369.538 2337.19 373.103 Q2335.38 376.644 2335.38 383.774 Q2335.38 390.88 2337.19 394.445 Q2339.02 397.987 2342.63 397.987 Q2346.26 397.987 2348.07 394.445 Q2349.9 390.88 2349.9 383.774 Q2349.9 376.644 2348.07 373.103 Q2346.26 369.538 2342.63 369.538 M2342.63 365.834 Q2348.44 365.834 2351.49 370.441 Q2354.57 375.024 2354.57 383.774 Q2354.57 392.501 2351.49 397.107 Q2348.44 401.691 2342.63 401.691 Q2336.82 401.691 2333.74 397.107 Q2330.68 392.501 2330.68 383.774 Q2330.68 375.024 2333.74 370.441 Q2336.82 365.834 2342.63 365.834 Z" fill="#000000" fill-rule="evenodd" fill-opacity="1" /><path clip-path="url(#clip980)" d="M2362.79 395.14 L2367.67 395.14 L2367.67 401.019 L2362.79 401.019 L2362.79 395.14 Z" fill="#000000" fill-rule="evenodd" fill-opacity="1" /><path clip-path="url(#clip980)" d="M2387.86 384.607 Q2384.53 384.607 2382.6 386.39 Q2380.71 388.172 2380.71 391.297 Q2380.71 394.422 2382.6 396.204 Q2384.53 397.987 2387.86 397.987 Q2391.19 397.987 2393.11 396.204 Q2395.03 394.399 2395.03 391.297 Q2395.03 388.172 2393.11 386.39 Q2391.22 384.607 2387.86 384.607 M2383.18 382.617 Q2380.17 381.876 2378.48 379.816 Q2376.82 377.755 2376.82 374.793 Q2376.82 370.649 2379.76 368.242 Q2382.72 365.834 2387.86 365.834 Q2393.02 365.834 2395.96 368.242 Q2398.9 370.649 2398.9 374.793 Q2398.9 377.755 2397.21 379.816 Q2395.54 381.876 2392.56 382.617 Q2395.94 383.404 2397.81 385.695 Q2399.71 387.987 2399.71 391.297 Q2399.71 396.32 2396.63 399.005 Q2393.58 401.691 2387.86 401.691 Q2382.14 401.691 2379.06 399.005 Q2376.01 396.32 2376.01 391.297 Q2376.01 387.987 2377.91 385.695 Q2379.8 383.404 2383.18 382.617 M2381.47 375.232 Q2381.47 377.918 2383.14 379.422 Q2384.83 380.927 2387.86 380.927 Q2390.87 380.927 2392.56 379.422 Q2394.27 377.918 2394.27 375.232 Q2394.27 372.547 2392.56 371.043 Q2390.87 369.538 2387.86 369.538 Q2384.83 369.538 2383.14 371.043 Q2381.47 372.547 2381.47 375.232 Z" fill="#000000" fill-rule="evenodd" fill-opacity="1" /><path clip-path="url(#clip980)" d="M2331.35 60.5889 L2338.99 60.5889 L2338.99 34.2233 L2330.68 35.89 L2330.68 31.6308 L2338.95 29.9641 L2343.62 29.9641 L2343.62 60.5889 L2351.26 60.5889 L2351.26 64.5241 L2331.35 64.5241 L2331.35 60.5889 Z" fill="#000000" fill-rule="evenodd" fill-opacity="1" /><path clip-path="url(#clip980)" d="M2360.71 58.6445 L2365.59 58.6445 L2365.59 64.5241 L2360.71 64.5241 L2360.71 58.6445 Z" fill="#000000" fill-rule="evenodd" fill-opacity="1" /><path clip-path="url(#clip980)" d="M2385.78 33.0428 Q2382.16 33.0428 2380.34 36.6076 Q2378.53 40.1492 2378.53 47.2788 Q2378.53 54.3853 2380.34 57.9501 Q2382.16 61.4917 2385.78 61.4917 Q2389.41 61.4917 2391.22 57.9501 Q2393.04 54.3853 2393.04 47.2788 Q2393.04 40.1492 2391.22 36.6076 Q2389.41 33.0428 2385.78 33.0428 M2385.78 29.3391 Q2391.59 29.3391 2394.64 33.9456 Q2397.72 38.5289 2397.72 47.2788 Q2397.72 56.0056 2394.64 60.6121 Q2391.59 65.1954 2385.78 65.1954 Q2379.97 65.1954 2376.89 60.6121 Q2373.83 56.0056 2373.83 47.2788 Q2373.83 38.5289 2376.89 33.9456 Q2379.97 29.3391 2385.78 29.3391 Z" fill="#000000" fill-rule="evenodd" fill-opacity="1" /><path clip-path="url(#clip980)" d="M2448.19 1012.61 L2448.19 985.304 L2453.6 985.304 L2453.6 1006.18 L2467.61 1006.18 L2467.61 987.341 L2473.02 987.341 L2473.02 1006.18 L2495.71 1006.18 L2495.71 1012.61 L2448.19 1012.61 Z" fill="#000000" fill-rule="evenodd" fill-opacity="1" /><path clip-path="url(#clip980)" d="M2465.54 959.46 Q2464.97 960.446 2464.71 961.624 Q2464.43 962.77 2464.43 964.17 Q2464.43 969.135 2467.67 971.809 Q2470.89 974.451 2476.93 974.451 L2495.71 974.451 L2495.71 980.339 L2460.07 980.339 L2460.07 974.451 L2465.6 974.451 Q2462.36 972.605 2460.8 969.645 Q2459.21 966.685 2459.21 962.451 Q2459.21 961.847 2459.3 961.115 Q2459.37 960.383 2459.52 959.491 L2465.54 959.46 Z" fill="#000000" fill-rule="evenodd" fill-opacity="1" /><path clip-path="url(#clip980)" d="M2477.79 937.116 Q2477.79 944.214 2479.42 946.951 Q2481.04 949.688 2484.96 949.688 Q2488.07 949.688 2489.92 947.651 Q2491.74 945.582 2491.74 942.049 Q2491.74 937.18 2488.3 934.251 Q2484.83 931.291 2479.1 931.291 L2477.79 931.291 L2477.79 937.116 M2475.38 925.435 L2495.71 925.435 L2495.71 931.291 L2490.3 931.291 Q2493.55 933.297 2495.11 936.288 Q2496.64 939.28 2496.64 943.609 Q2496.64 949.083 2493.58 952.33 Q2490.49 955.545 2485.34 955.545 Q2479.32 955.545 2476.27 951.534 Q2473.21 947.492 2473.21 939.503 L2473.21 931.291 L2472.64 931.291 Q2468.6 931.291 2466.4 933.965 Q2464.17 936.607 2464.17 941.413 Q2464.17 944.468 2464.9 947.365 Q2465.64 950.261 2467.1 952.935 L2461.69 952.935 Q2460.45 949.72 2459.84 946.696 Q2459.21 943.673 2459.21 940.808 Q2459.21 933.074 2463.22 929.254 Q2467.23 925.435 2475.38 925.435 Z" fill="#000000" fill-rule="evenodd" fill-opacity="1" /><path clip-path="url(#clip980)" d="M2461.43 887.718 L2466.91 887.718 Q2465.54 890.201 2464.87 892.715 Q2464.17 895.198 2464.17 897.744 Q2464.17 903.441 2467.8 906.592 Q2471.4 909.743 2477.92 909.743 Q2484.45 909.743 2488.07 906.592 Q2491.67 903.441 2491.67 897.744 Q2491.67 895.198 2491 892.715 Q2490.3 890.201 2488.93 887.718 L2494.34 887.718 Q2495.49 890.169 2496.06 892.811 Q2496.64 895.421 2496.64 898.381 Q2496.64 906.433 2491.58 911.176 Q2486.52 915.918 2477.92 915.918 Q2469.2 915.918 2464.2 911.144 Q2459.21 906.338 2459.21 897.999 Q2459.21 895.293 2459.78 892.715 Q2460.32 890.137 2461.43 887.718 Z" fill="#000000" fill-rule="evenodd" fill-opacity="1" /><path clip-path="url(#clip980)" d="M2449.94 871.74 L2460.07 871.74 L2460.07 859.677 L2464.62 859.677 L2464.62 871.74 L2483.97 871.74 Q2488.33 871.74 2489.57 870.563 Q2490.81 869.353 2490.81 865.693 L2490.81 859.677 L2495.71 859.677 L2495.71 865.693 Q2495.71 872.472 2493.2 875.05 Q2490.65 877.628 2483.97 877.628 L2464.62 877.628 L2464.62 881.925 L2460.07 881.925 L2460.07 877.628 L2449.94 877.628 L2449.94 871.74 Z" fill="#000000" fill-rule="evenodd" fill-opacity="1" /><path clip-path="url(#clip980)" d="M2460.07 851.975 L2460.07 846.118 L2495.71 846.118 L2495.71 851.975 L2460.07 851.975 M2446.19 851.975 L2446.19 846.118 L2453.6 846.118 L2453.6 851.975 L2446.19 851.975 Z" fill="#000000" fill-rule="evenodd" fill-opacity="1" /><path clip-path="url(#clip980)" d="M2464.17 820.051 Q2464.17 824.761 2467.86 827.498 Q2471.52 830.236 2477.92 830.236 Q2484.32 830.236 2488.01 827.53 Q2491.67 824.793 2491.67 820.051 Q2491.67 815.372 2487.98 812.635 Q2484.29 809.897 2477.92 809.897 Q2471.59 809.897 2467.9 812.635 Q2464.17 815.372 2464.17 820.051 M2459.21 820.051 Q2459.21 812.412 2464.17 808.051 Q2469.14 803.691 2477.92 803.691 Q2486.67 803.691 2491.67 808.051 Q2496.64 812.412 2496.64 820.051 Q2496.64 827.721 2491.67 832.082 Q2486.67 836.41 2477.92 836.41 Q2469.14 836.41 2464.17 832.082 Q2459.21 827.721 2459.21 820.051 Z" fill="#000000" fill-rule="evenodd" fill-opacity="1" /><path clip-path="url(#clip980)" d="M2474.2 764.351 L2495.71 764.351 L2495.71 770.207 L2474.39 770.207 Q2469.33 770.207 2466.81 772.181 Q2464.3 774.154 2464.3 778.101 Q2464.3 782.843 2467.32 785.58 Q2470.35 788.318 2475.57 788.318 L2495.71 788.318 L2495.71 794.206 L2460.07 794.206 L2460.07 788.318 L2465.6 788.318 Q2462.39 786.217 2460.8 783.384 Q2459.21 780.52 2459.21 776.796 Q2459.21 770.653 2463.03 767.502 Q2466.81 764.351 2474.2 764.351 Z" fill="#000000" fill-rule="evenodd" fill-opacity="1" /><polyline clip-path="url(#clip982)" style="stroke:#000000; stroke-linecap:butt; stroke-linejoin:round; stroke-width:4; stroke-opacity:1; fill:none" points="
  410.959,1124.03 581.988,1212.03 
  "/>
<polyline clip-path="url(#clip982)" style="stroke:#000000; stroke-linecap:butt; stroke-linejoin:round; stroke-width:4; stroke-opacity:1; fill:none" points="
  581.988,1212.03 753.018,998.209 
  "/>
<polyline clip-path="url(#clip982)" style="stroke:#000000; stroke-linecap:butt; stroke-linejoin:round; stroke-width:4; stroke-opacity:1; fill:none" points="
  753.018,998.209 924.047,1062.07 
  "/>
<polyline clip-path="url(#clip982)" style="stroke:#000000; stroke-linecap:butt; stroke-linejoin:round; stroke-width:4; stroke-opacity:1; fill:none" points="
  924.047,1062.07 1095.08,1130.48 
  "/>
<polyline clip-path="url(#clip982)" style="stroke:#000000; stroke-linecap:butt; stroke-linejoin:round; stroke-width:4; stroke-opacity:1; fill:none" points="
  1095.08,1130.48 1266.11,1400.54 
  "/>
<polyline clip-path="url(#clip982)" style="stroke:#000000; stroke-linecap:butt; stroke-linejoin:round; stroke-width:4; stroke-opacity:1; fill:none" points="
  1266.11,1400.54 1437.14,1305.17 
  "/>
<polyline clip-path="url(#clip982)" style="stroke:#000000; stroke-linecap:butt; stroke-linejoin:round; stroke-width:4; stroke-opacity:1; fill:none" points="
  1437.14,1305.17 1608.17,1449.31 
  "/>
<polyline clip-path="url(#clip982)" style="stroke:#000000; stroke-linecap:butt; stroke-linejoin:round; stroke-width:4; stroke-opacity:1; fill:none" points="
  1608.17,1449.31 1779.19,1506.38 
  "/>
<polyline clip-path="url(#clip982)" style="stroke:#000000; stroke-linecap:butt; stroke-linejoin:round; stroke-width:4; stroke-opacity:1; fill:none" points="
  1779.19,1506.38 1950.22,1459.32 
  "/>
<polyline clip-path="url(#clip982)" style="stroke:#000000; stroke-linecap:butt; stroke-linejoin:round; stroke-width:4; stroke-opacity:1; fill:none" points="
  1950.22,1459.32 2121.25,1606.61 
  "/>
<circle clip-path="url(#clip982)" cx="410.959" cy="1124.03" r="11.25" fill="#000000" fill-rule="evenodd" fill-opacity="1" stroke="none"/>
<circle clip-path="url(#clip982)" cx="581.988" cy="1212.03" r="11.7" fill="#000000" fill-rule="evenodd" fill-opacity="1" stroke="none"/>
<circle clip-path="url(#clip982)" cx="753.018" cy="998.209" r="20.7" fill="#000000" fill-rule="evenodd" fill-opacity="1" stroke="none"/>
<circle clip-path="url(#clip982)" cx="924.047" cy="1062.07" r="28.35" fill="#000000" fill-rule="evenodd" fill-opacity="1" stroke="none"/>
<circle clip-path="url(#clip982)" cx="1095.08" cy="1130.48" r="32.85" fill="#000000" fill-rule="evenodd" fill-opacity="1" stroke="none"/>
<circle clip-path="url(#clip982)" cx="1266.11" cy="1400.54" r="20.7" fill="#000000" fill-rule="evenodd" fill-opacity="1" stroke="none"/>
<circle clip-path="url(#clip982)" cx="1437.14" cy="1305.17" r="48.15" fill="#000000" fill-rule="evenodd" fill-opacity="1" stroke="none"/>
<circle clip-path="url(#clip982)" cx="1608.17" cy="1449.31" r="48.6" fill="#000000" fill-rule="evenodd" fill-opacity="1" stroke="none"/>
<circle clip-path="url(#clip982)" cx="1779.19" cy="1506.38" r="50.85" fill="#000000" fill-rule="evenodd" fill-opacity="1" stroke="none"/>
<circle clip-path="url(#clip982)" cx="1950.22" cy="1459.32" r="25.2" fill="#000000" fill-rule="evenodd" fill-opacity="1" stroke="none"/>
<circle clip-path="url(#clip982)" cx="2121.25" cy="1606.61" r="18.45" fill="#000000" fill-rule="evenodd" fill-opacity="1" stroke="none"/>
</svg>
