<svg version="1.1" xmlns="http://www.w3.org/2000/svg" viewBox="0 0 634.5 374.5" width="634.5" height="374.5">
  <!-- svg-source:excalidraw -->
  
  <defs>
    <style class="style-fonts">
      @font-face {
        font-family: "Virgil";
        src: url("https://excalidraw.com/Virgil.woff2");
      }
      @font-face {
        font-family: "Cascadia";
        src: url("https://excalidraw.com/Cascadia.woff2");
      }
    </style>
  </defs>
  <rect x="0" y="0" width="634.5" height="374.5" fill="#ffffff"></rect><g stroke-linecap="round" transform="translate(199.5 10) rotate(0 123.5 40.5)"><path d="M20.25 0 M20.25 0 C96.19 0.8, 168.08 0.83, 226.75 0 M20.25 0 C74.5 1.48, 128.95 0.91, 226.75 0 M226.75 0 C241.53 0.64, 246.81 8.6, 247 20.25 M226.75 0 C239.83 -2.29, 247.65 8.31, 247 20.25 M247 20.25 C248.41 28.91, 246.96 35.8, 247 60.75 M247 20.25 C247.33 29.99, 247.65 36.74, 247 60.75 M247 60.75 C245.41 73.67, 239.39 80.93, 226.75 81 M247 60.75 C244.75 75.34, 239.51 81.28, 226.75 81 M226.75 81 C182.51 81.44, 141.29 83.68, 20.25 81 M226.75 81 C173.38 82.39, 119.55 81.53, 20.25 81 M20.25 81 C4.86 79.04, 0.54 76, 0 60.75 M20.25 81 C4.84 79.31, -1.72 73.48, 0 60.75 M0 60.75 C0.8 53.56, 0.9 44.95, 0 20.25 M0 60.75 C1.17 46.45, 0.49 30.4, 0 20.25 M0 20.25 C-0.7 5.9, 7.61 -1.54, 20.25 0 M0 20.25 C1.61 4.8, 7.99 -1.85, 20.25 0" stroke="#000000" stroke-width="1" fill="none"></path></g><g transform="translate(276 38) rotate(0 47 12.5)"><text x="47" y="18" font-family="Virgil, Segoe UI Emoji" font-size="20px" fill="#000000" text-anchor="middle" style="white-space: pre;" direction="ltr">SF v SEA</text></g><g stroke-linecap="round" transform="translate(39 144.5) rotate(0 123.5 40.5)"><path d="M20.25 0 M20.25 0 C99.42 2.28, 177.79 2.33, 226.75 0 M20.25 0 C89.94 -1.63, 158.25 -2.37, 226.75 0 M226.75 0 C240.79 1.75, 245.34 5.28, 247 20.25 M226.75 0 C238.53 -0.77, 244.7 5.51, 247 20.25 M247 20.25 C247.8 35.11, 248.46 47.33, 247 60.75 M247 20.25 C247.45 29.76, 246.97 40.09, 247 60.75 M247 60.75 C247.86 72.71, 241.65 79.3, 226.75 81 M247 60.75 C248.24 72.4, 241.55 82.34, 226.75 81 M226.75 81 C150.04 82.89, 77.09 82.68, 20.25 81 M226.75 81 C177.84 80.75, 126.83 80.24, 20.25 81 M20.25 81 C5.2 79.51, 1.03 73.95, 0 60.75 M20.25 81 C4.94 80.72, -1.67 74.73, 0 60.75 M0 60.75 C-2.06 49.07, 0.26 41.44, 0 20.25 M0 60.75 C-0.43 49.63, 0.77 41.28, 0 20.25 M0 20.25 C-1.69 7.25, 7.77 -1.04, 20.25 0 M0 20.25 C-0.81 8.1, 4.52 -0.24, 20.25 0" stroke="#000000" stroke-width="1" fill="none"></path></g><g transform="translate(108.5 172.5) rotate(0 54 12.5)"><text x="54" y="18" font-family="Virgil, Segoe UI Emoji" font-size="20px" fill="#000000" text-anchor="middle" style="white-space: pre;" direction="ltr">JAC v LAC</text></g><g stroke-linecap="round" transform="translate(341 144.5) rotate(0 123.5 40.5)"><path d="M20.25 0 M20.25 0 C100.19 -2.95, 177.77 -3.01, 226.75 0 M20.25 0 C100.97 2.3, 182.51 0.94, 226.75 0 M226.75 0 C240.58 -2, 245.94 7.43, 247 20.25 M226.75 0 C241.82 1.52, 246.72 5.69, 247 20.25 M247 20.25 C245.6 30.01, 246.86 41.7, 247 60.75 M247 20.25 C246.42 30.63, 247.03 40.28, 247 60.75 M247 60.75 C245.17 75.53, 240.52 82.49, 226.75 81 M247 60.75 C248.34 72.94, 242.47 82.81, 226.75 81 M226.75 81 C166.96 78.79, 103.62 80.64, 20.25 81 M226.75 81 C155.88 81.11, 87.03 81.44, 20.25 81 M20.25 81 C5.92 81.66, -1.05 75.1, 0 60.75 M20.25 81 C4.83 79.74, 1.89 73.87, 0 60.75 M0 60.75 C1.5 45.9, 2.23 32.56, 0 20.25 M0 60.75 C-0.04 51.88, -0.06 42.8, 0 20.25 M0 20.25 C-1.54 7.05, 7.31 -1.08, 20.25 0 M0 20.25 C-1.18 8.47, 6.4 1.34, 20.25 0" stroke="#000000" stroke-width="1" fill="none"></path></g><g transform="translate(410.5 172.5) rotate(0 54 12.5)"><text x="54" y="18" font-family="Virgil, Segoe UI Emoji" font-size="20px" fill="#000000" text-anchor="middle" style="white-space: pre;" direction="ltr">JAC v LAC</text></g><g stroke-linecap="round" transform="translate(10 281.5) rotate(0 66.5 40.5)"><path d="M20.25 0 M20.25 0 C49.11 -0.07, 77.56 -1.51, 112.75 0 M20.25 0 C48.88 1.25, 78.4 1.08, 112.75 0 M112.75 0 C125.56 0.29, 131.33 5.86, 133 20.25 M112.75 0 C124.67 0.38, 133.88 8.77, 133 20.25 M133 20.25 C132.97 36.59, 134.35 49, 133 60.75 M133 20.25 C133.15 36.09, 132.68 50.27, 133 60.75 M133 60.75 C131.58 72.45, 124.36 81.9, 112.75 81 M133 60.75 C133.64 72.24, 125.1 80.38, 112.75 81 M112.75 81 C76.98 83.41, 42.5 81.57, 20.25 81 M112.75 81 C86.23 80.62, 59.42 80.69, 20.25 81 M20.25 81 C6.27 80.73, -1.84 73.19, 0 60.75 M20.25 81 C5.6 81.79, -2.23 75.64, 0 60.75 M0 60.75 C0.02 44.94, 0.38 28.58, 0 20.25 M0 60.75 C1.15 45.35, 0.95 31.83, 0 20.25 M0 20.25 C-1.42 8.69, 6.7 1.67, 20.25 0 M0 20.25 C-1.57 5.98, 6.66 2.09, 20.25 0" stroke="#000000" stroke-width="1" fill="none"></path></g><g transform="translate(21 309.5) rotate(0 55.5 12.5)"><text x="55.5" y="18" font-family="Virgil, Segoe UI Emoji" font-size="20px" fill="#000000" text-anchor="middle" style="white-space: pre;" direction="ltr">BUF v MIA</text></g><g stroke-linecap="round" transform="translate(155 281.5) rotate(0 66.5 40.5)"><path d="M20.25 0 M20.25 0 C42.97 0.61, 63.3 -1.95, 112.75 0 M20.25 0 C56.28 0.99, 93.42 -0.92, 112.75 0 M112.75 0 C126.07 1.51, 133.34 7.68, 133 20.25 M112.75 0 C127.98 1.39, 135.06 6.87, 133 20.25 M133 20.25 C133.95 30.12, 133.15 35.38, 133 60.75 M133 20.25 C133.52 36.25, 134.16 52.98, 133 60.75 M133 60.75 C134.4 75.81, 127.05 82.61, 112.75 81 M133 60.75 C132.36 72.43, 127.52 81.44, 112.75 81 M112.75 81 C89.43 81.63, 64.87 82.87, 20.25 81 M112.75 81 C75.86 79.99, 39.69 79.22, 20.25 81 M20.25 81 C6.84 79.34, 0.94 72.79, 0 60.75 M20.25 81 C8.55 79.57, 1.6 76.22, 0 60.75 M0 60.75 C-0.87 47.08, -2.08 33.23, 0 20.25 M0 60.75 C-0.57 47.38, -0.39 32.96, 0 20.25 M0 20.25 C1.97 5.63, 5.4 -0.64, 20.25 0 M0 20.25 C-0.36 4.91, 5.07 0.72, 20.25 0" stroke="#000000" stroke-width="1" fill="none"></path></g><g transform="translate(166 309.5) rotate(0 55.5 12.5)"><text x="55.5" y="18" font-family="Virgil, Segoe UI Emoji" font-size="20px" fill="#000000" text-anchor="middle" style="white-space: pre;" direction="ltr">BUF v MIA</text></g><g stroke-linecap="round" transform="translate(334 283.5) rotate(0 66.5 40.5)"><path d="M20.25 0 M20.25 0 C43.66 -0.58, 64.63 0.8, 112.75 0 M20.25 0 C56.07 0.63, 91.87 0.17, 112.75 0 M112.75 0 C126.77 -0.85, 133.08 7.81, 133 20.25 M112.75 0 C127.42 -2.26, 134.3 8.61, 133 20.25 M133 20.25 C131.39 31.79, 133.19 42.07, 133 60.75 M133 20.25 C133.92 29.93, 133.33 41.38, 133 60.75 M133 60.75 C132.45 75.23, 127.43 82.29, 112.75 81 M133 60.75 C134.33 74.24, 124.04 82.9, 112.75 81 M112.75 81 C88 79.79, 64.97 82.59, 20.25 81 M112.75 81 C84.1 81, 54.97 81.75, 20.25 81 M20.25 81 C5.01 80.38, 0.98 76.16, 0 60.75 M20.25 81 C7.48 80.62, -0.95 76.41, 0 60.75 M0 60.75 C0.95 52.45, -1.41 43.79, 0 20.25 M0 60.75 C1.11 50.32, -0.22 39.56, 0 20.25 M0 20.25 C-1.04 8.37, 6.7 -1.79, 20.25 0 M0 20.25 C0.52 7.01, 6.86 1.39, 20.25 0" stroke="#000000" stroke-width="1" fill="none"></path></g><g transform="translate(345 311.5) rotate(0 55.5 12.5)"><text x="55.5" y="18" font-family="Virgil, Segoe UI Emoji" font-size="20px" fill="#000000" text-anchor="middle" style="white-space: pre;" direction="ltr">BUF v MIA</text></g><g stroke-linecap="round" transform="translate(471 280.5) rotate(0 66.5 40.5)"><path d="M20.25 0 M20.25 0 C57.7 -0.62, 93.64 0.37, 112.75 0 M20.25 0 C39.75 0.5, 59.7 -0.16, 112.75 0 M112.75 0 C127.78 0.87, 133.97 5.99, 133 20.25 M112.75 0 C128.05 1.36, 134.85 7.47, 133 20.25 M133 20.25 C131.03 33.27, 133.14 49.38, 133 60.75 M133 20.25 C132.15 34.75, 133.88 49.57, 133 60.75 M133 60.75 C131.79 72.45, 124.57 79.32, 112.75 81 M133 60.75 C131.89 76.31, 124.97 81.95, 112.75 81 M112.75 81 C82.46 82.42, 55.36 82.31, 20.25 81 M112.75 81 C89.51 81.25, 68.11 81.13, 20.25 81 M20.25 81 C7.55 81.48, 1.29 74.24, 0 60.75 M20.25 81 C5.67 83.19, -2.21 74.62, 0 60.75 M0 60.75 C-1.59 46.52, -0.78 28.61, 0 20.25 M0 60.75 C0.26 48.19, -0.21 36.03, 0 20.25 M0 20.25 C-0.1 6.04, 8.18 -0.92, 20.25 0 M0 20.25 C-1.73 6.12, 6.14 0.05, 20.25 0" stroke="#000000" stroke-width="1" fill="none"></path></g><g transform="translate(482 308.5) rotate(0 55.5 12.5)"><text x="55.5" y="18" font-family="Virgil, Segoe UI Emoji" font-size="20px" fill="#000000" text-anchor="middle" style="white-space: pre;" direction="ltr">BUF v MIA</text></g><g stroke-linecap="round"><g transform="translate(266.5 96) rotate(0 -50.10338109298141 20.661260693133812)"><path d="M0.53 -1.16 C-16.18 5.91, -82.92 34.22, -99.52 41.31 M-0.66 0.84 C-17.63 8.16, -84.2 35.56, -100.73 42.48" stroke="#000000" stroke-width="1" fill="none"></path></g><g transform="translate(266.5 96) rotate(0 -50.10338109298141 20.661260693133812)"><path d="M-80.56 21.34 C-87.98 29.55, -95.87 38.01, -100.64 41.41 M-78.76 21.84 C-86.56 29.55, -91.91 36.04, -99.98 42.75" stroke="#000000" stroke-width="1" fill="none"></path></g><g transform="translate(266.5 96) rotate(0 -50.10338109298141 20.661260693133812)"><path d="M-72.7 40.3 C-82.79 41.67, -93.53 43.26, -100.64 41.41 M-70.89 40.79 C-81.37 42.38, -89.26 42.72, -99.98 42.75" stroke="#000000" stroke-width="1" fill="none"></path></g></g><mask></mask><g stroke-linecap="round"><g transform="translate(375.5 102) rotate(0 47.364016937627525 16.321596214980815)"><path d="M-0.07 0.32 C15.93 5.98, 80.13 27.68, 96.29 33.2 M-1.56 -0.56 C14.27 4.78, 79.13 25.87, 95.49 31.18" stroke="#000000" stroke-width="1" fill="none"></path></g><g transform="translate(375.5 102) rotate(0 47.364016937627525 16.321596214980815)"><path d="M66.05 32.71 C75.68 33.38, 85.88 30.81, 95.67 31.22 M65.78 31.57 C72.22 31.76, 80.15 31.34, 95.27 31.57" stroke="#000000" stroke-width="1" fill="none"></path></g><g transform="translate(375.5 102) rotate(0 47.364016937627525 16.321596214980815)"><path d="M72.39 13.19 C79.82 20.26, 87.94 24.09, 95.67 31.22 M72.13 12.06 C77.16 16.69, 83.62 20.77, 95.27 31.57" stroke="#000000" stroke-width="1" fill="none"></path></g></g><mask></mask><g stroke-linecap="round"><g transform="translate(137.5 237) rotate(0 -20.869418507376736 16.15962060094347)"><path d="M-0.34 -0.71 C-7.41 4.61, -35.29 26.49, -42.31 32.01 M1.68 1.52 C-5.58 6.96, -35.9 27.72, -43.42 33.03" stroke="#000000" stroke-width="1" fill="none"></path></g><g transform="translate(137.5 237) rotate(0 -20.869418507376736 16.15962060094347)"><path d="M-29.22 10.7 C-34.37 17.14, -38.43 25.78, -44.05 33.61 M-27.58 11.67 C-33.09 18.35, -39.34 25.88, -43.61 32.14" stroke="#000000" stroke-width="1" fill="none"></path></g><g transform="translate(137.5 237) rotate(0 -20.869418507376736 16.15962060094347)"><path d="M-18.79 25.7 C-27.15 27.51, -34.41 31.55, -44.05 33.61 M-17.15 26.67 C-26.21 28.17, -36.1 30.46, -43.61 32.14" stroke="#000000" stroke-width="1" fill="none"></path></g></g><mask></mask><g stroke-linecap="round"><g transform="translate(191.5 235) rotate(0 15.55178132131698 18.936161290854216)"><path d="M-0.85 -1.17 C4.28 5.37, 26.79 32.59, 31.95 39.04 M0.91 0.83 C5.86 7.07, 26.23 31.17, 31.5 37.47" stroke="#000000" stroke-width="1" fill="none"></path></g><g transform="translate(191.5 235) rotate(0 15.55178132131698 18.936161290854216)"><path d="M8.31 26.82 C20.41 28.79, 26.35 34.65, 33.25 39.26 M11.25 25.6 C16.84 29.94, 23.3 33.16, 32.09 37.65" stroke="#000000" stroke-width="1" fill="none"></path></g><g transform="translate(191.5 235) rotate(0 15.55178132131698 18.936161290854216)"><path d="M21.14 16.02 C28.13 22.19, 28.97 32.34, 33.25 39.26 M24.09 14.8 C25.38 22.69, 27.64 29.45, 32.09 37.65" stroke="#000000" stroke-width="1" fill="none"></path></g></g><mask></mask><g stroke-linecap="round"><g transform="translate(458.5 231) rotate(0 -25.787590431422018 22.712395016970106)"><path d="M0.38 -0.24 C-8.32 7.46, -43.29 37.91, -51.96 45.89 M-0.88 -1.41 C-9.23 6.42, -41.11 39.01, -49.75 46.84" stroke="#000000" stroke-width="1" fill="none"></path></g><g transform="translate(458.5 231) rotate(0 -25.787590431422018 22.712395016970106)"><path d="M-37.05 18.25 C-42.77 27.5, -44.09 38.12, -49.82 47.77 M-37.16 19.09 C-41.13 30.04, -46.5 40.24, -49.07 46.83" stroke="#000000" stroke-width="1" fill="none"></path></g><g transform="translate(458.5 231) rotate(0 -25.787590431422018 22.712395016970106)"><path d="M-22.77 32.99 C-33.02 37.56, -38.92 43.46, -49.82 47.77 M-22.88 33.83 C-32.29 38.89, -43.24 43.33, -49.07 46.83" stroke="#000000" stroke-width="1" fill="none"></path></g></g><mask></mask><g stroke-linecap="round"><g transform="translate(490.5 238) rotate(0 24.09882464171858 18.06428039512133)"><path d="M-0.02 1.04 C8.18 6.85, 41.29 30.03, 49.69 35.59 M-1.5 0.54 C6.48 5.94, 40.03 27.97, 48.58 33.78" stroke="#000000" stroke-width="1" fill="none"></path></g><g transform="translate(490.5 238) rotate(0 24.09882464171858 18.06428039512133)"><path d="M21.17 26.17 C30.33 29.75, 38.16 32.24, 49.47 35.45 M19.58 27.6 C25.32 28.46, 32.57 29.51, 49.51 33.61" stroke="#000000" stroke-width="1" fill="none"></path></g><g transform="translate(490.5 238) rotate(0 24.09882464171858 18.06428039512133)"><path d="M32.55 9.09 C37.95 18.45, 41.94 26.73, 49.47 35.45 M30.96 10.52 C33.95 15.31, 38.59 20.29, 49.51 33.61" stroke="#000000" stroke-width="1" fill="none"></path></g></g><mask></mask><g transform="translate(457.5 95) rotate(0 43.5 12.5)"><text x="0" y="18" font-family="Virgil, Segoe UI Emoji" font-size="20px" fill="#000000" text-anchor="start" style="white-space: pre;" direction="ltr">SEA wins</text></g><g transform="translate(120 94.5) rotate(0 35.5 12.5)"><text x="0" y="18" font-family="Virgil, Segoe UI Emoji" font-size="20px" fill="#000000" text-anchor="start" style="white-space: pre;" direction="ltr">SF wins</text></g><g transform="translate(14 236.5) rotate(0 43 12.5)"><text x="0" y="18" font-family="Virgil, Segoe UI Emoji" font-size="20px" fill="#000000" text-anchor="start" style="white-space: pre;" direction="ltr">JAC wins</text></g><g transform="translate(223.5 238.5) rotate(0 43 12.5)"><text x="0" y="18" font-family="Virgil, Segoe UI Emoji" font-size="20px" fill="#000000" text-anchor="start" style="white-space: pre;" direction="ltr">LAC wins</text></g><g transform="translate(538.5 235.5) rotate(0 43 12.5)"><text x="0" y="18" font-family="Virgil, Segoe UI Emoji" font-size="20px" fill="#000000" text-anchor="start" style="white-space: pre;" direction="ltr">LAC wins</text></g><g transform="translate(348.5 235.5) rotate(0 43 12.5)"><text x="0" y="18" font-family="Virgil, Segoe UI Emoji" font-size="20px" fill="#000000" text-anchor="start" style="white-space: pre;" direction="ltr">JAC wins</text></g><g transform="translate(215.5 18) rotate(0 3 12.5)"><text x="0" y="18" font-family="Virgil, Segoe UI Emoji" font-size="20px" fill="#000000" text-anchor="start" style="white-space: pre;" direction="ltr">1</text></g><g transform="translate(54.5 150.5) rotate(0 7.5 12.5)"><text x="0" y="18" font-family="Virgil, Segoe UI Emoji" font-size="20px" fill="#000000" text-anchor="start" style="white-space: pre;" direction="ltr">2</text></g><g transform="translate(348 151.5) rotate(0 7.5 12.5)"><text x="0" y="18" font-family="Virgil, Segoe UI Emoji" font-size="20px" fill="#000000" text-anchor="start" style="white-space: pre;" direction="ltr">3</text></g><g transform="translate(21 288.5) rotate(0 7 12.5)"><text x="0" y="18" font-family="Virgil, Segoe UI Emoji" font-size="20px" fill="#000000" text-anchor="start" style="white-space: pre;" direction="ltr">4</text></g><g transform="translate(165 284.5) rotate(0 6.5 12.5)"><text x="0" y="18" font-family="Virgil, Segoe UI Emoji" font-size="20px" fill="#000000" text-anchor="start" style="white-space: pre;" direction="ltr">5</text></g><g transform="translate(342 289.5) rotate(0 7 12.5)"><text x="0" y="18" font-family="Virgil, Segoe UI Emoji" font-size="20px" fill="#000000" text-anchor="start" style="white-space: pre;" direction="ltr">6</text></g><g transform="translate(480.5 286.5) rotate(0 6 12.5)"><text x="0" y="18" font-family="Virgil, Segoe UI Emoji" font-size="20px" fill="#000000" text-anchor="start" style="white-space: pre;" direction="ltr">7</text></g></svg>