<?xml version="1.0" encoding="utf-8"?>
<svg xmlns="http://www.w3.org/2000/svg" xmlns:xlink="http://www.w3.org/1999/xlink" width="600" height="400" viewBox="0 0 2400 1600">
<defs>
  <clipPath id="clip450">
    <rect x="0" y="0" width="2400" height="1600"/>
  </clipPath>
</defs>
<path clip-path="url(#clip450)" d="
M0 1600 L2400 1600 L2400 0 L0 0  Z
  " fill="#ffffff" fill-rule="evenodd" fill-opacity="1"/>
<defs>
  <clipPath id="clip451">
    <rect x="480" y="0" width="1681" height="1600"/>
  </clipPath>
</defs>
<path clip-path="url(#clip450)" d="
M235.283 1423.18 L2352.76 1423.18 L2352.76 47.2441 L235.283 47.2441  Z
  " fill="#ffffff" fill-rule="evenodd" fill-opacity="1"/>
<defs>
  <clipPath id="clip452">
    <rect x="235" y="47" width="2118" height="1377"/>
  </clipPath>
</defs>
<polyline clip-path="url(#clip452)" style="stroke:#000000; stroke-linecap:butt; stroke-linejoin:round; stroke-width:2; stroke-opacity:0.1; fill:none" points="
  296.32,1423.18 296.32,47.2441 
  "/>
<polyline clip-path="url(#clip452)" style="stroke:#000000; stroke-linecap:butt; stroke-linejoin:round; stroke-width:2; stroke-opacity:0.1; fill:none" points="
  573.459,1423.18 573.459,47.2441 
  "/>
<polyline clip-path="url(#clip452)" style="stroke:#000000; stroke-linecap:butt; stroke-linejoin:round; stroke-width:2; stroke-opacity:0.1; fill:none" points="
  850.597,1423.18 850.597,47.2441 
  "/>
<polyline clip-path="url(#clip452)" style="stroke:#000000; stroke-linecap:butt; stroke-linejoin:round; stroke-width:2; stroke-opacity:0.1; fill:none" points="
  1127.74,1423.18 1127.74,47.2441 
  "/>
<polyline clip-path="url(#clip452)" style="stroke:#000000; stroke-linecap:butt; stroke-linejoin:round; stroke-width:2; stroke-opacity:0.1; fill:none" points="
  1404.87,1423.18 1404.87,47.2441 
  "/>
<polyline clip-path="url(#clip452)" style="stroke:#000000; stroke-linecap:butt; stroke-linejoin:round; stroke-width:2; stroke-opacity:0.1; fill:none" points="
  1682.01,1423.18 1682.01,47.2441 
  "/>
<polyline clip-path="url(#clip452)" style="stroke:#000000; stroke-linecap:butt; stroke-linejoin:round; stroke-width:2; stroke-opacity:0.1; fill:none" points="
  1959.15,1423.18 1959.15,47.2441 
  "/>
<polyline clip-path="url(#clip452)" style="stroke:#000000; stroke-linecap:butt; stroke-linejoin:round; stroke-width:2; stroke-opacity:0.1; fill:none" points="
  2236.29,1423.18 2236.29,47.2441 
  "/>
<polyline clip-path="url(#clip450)" style="stroke:#000000; stroke-linecap:butt; stroke-linejoin:round; stroke-width:4; stroke-opacity:1; fill:none" points="
  235.283,1423.18 2352.76,1423.18 
  "/>
<polyline clip-path="url(#clip450)" style="stroke:#000000; stroke-linecap:butt; stroke-linejoin:round; stroke-width:4; stroke-opacity:1; fill:none" points="
  296.32,1423.18 296.32,1404.28 
  "/>
<polyline clip-path="url(#clip450)" style="stroke:#000000; stroke-linecap:butt; stroke-linejoin:round; stroke-width:4; stroke-opacity:1; fill:none" points="
  573.459,1423.18 573.459,1404.28 
  "/>
<polyline clip-path="url(#clip450)" style="stroke:#000000; stroke-linecap:butt; stroke-linejoin:round; stroke-width:4; stroke-opacity:1; fill:none" points="
  850.597,1423.18 850.597,1404.28 
  "/>
<polyline clip-path="url(#clip450)" style="stroke:#000000; stroke-linecap:butt; stroke-linejoin:round; stroke-width:4; stroke-opacity:1; fill:none" points="
  1127.74,1423.18 1127.74,1404.28 
  "/>
<polyline clip-path="url(#clip450)" style="stroke:#000000; stroke-linecap:butt; stroke-linejoin:round; stroke-width:4; stroke-opacity:1; fill:none" points="
  1404.87,1423.18 1404.87,1404.28 
  "/>
<polyline clip-path="url(#clip450)" style="stroke:#000000; stroke-linecap:butt; stroke-linejoin:round; stroke-width:4; stroke-opacity:1; fill:none" points="
  1682.01,1423.18 1682.01,1404.28 
  "/>
<polyline clip-path="url(#clip450)" style="stroke:#000000; stroke-linecap:butt; stroke-linejoin:round; stroke-width:4; stroke-opacity:1; fill:none" points="
  1959.15,1423.18 1959.15,1404.28 
  "/>
<polyline clip-path="url(#clip450)" style="stroke:#000000; stroke-linecap:butt; stroke-linejoin:round; stroke-width:4; stroke-opacity:1; fill:none" points="
  2236.29,1423.18 2236.29,1404.28 
  "/>
<path clip-path="url(#clip450)" d="M265.556 1468.75 L295.232 1468.75 L295.232 1472.69 L265.556 1472.69 L265.556 1468.75 Z" fill="#000000" fill-rule="evenodd" fill-opacity="1" /><path clip-path="url(#clip450)" d="M305.463 1484.86 L305.463 1480.6 Q307.223 1481.44 309.028 1481.88 Q310.834 1482.32 312.57 1482.32 Q317.199 1482.32 319.63 1479.21 Q322.084 1476.09 322.431 1469.75 Q321.088 1471.74 319.028 1472.8 Q316.968 1473.87 314.468 1473.87 Q309.283 1473.87 306.25 1470.74 Q303.241 1467.59 303.241 1462.15 Q303.241 1456.83 306.389 1453.61 Q309.537 1450.39 314.769 1450.39 Q320.764 1450.39 323.912 1455 Q327.084 1459.58 327.084 1468.33 Q327.084 1476.51 323.195 1481.39 Q319.329 1486.25 312.778 1486.25 Q311.019 1486.25 309.213 1485.9 Q307.408 1485.56 305.463 1484.86 M314.769 1470.21 Q317.917 1470.21 319.746 1468.06 Q321.598 1465.9 321.598 1462.15 Q321.598 1458.43 319.746 1456.27 Q317.917 1454.1 314.769 1454.1 Q311.621 1454.1 309.769 1456.27 Q307.94 1458.43 307.94 1462.15 Q307.94 1465.9 309.769 1468.06 Q311.621 1470.21 314.769 1470.21 Z" fill="#000000" fill-rule="evenodd" fill-opacity="1" /><path clip-path="url(#clip450)" d="M542.649 1468.75 L572.324 1468.75 L572.324 1472.69 L542.649 1472.69 L542.649 1468.75 Z" fill="#000000" fill-rule="evenodd" fill-opacity="1" /><path clip-path="url(#clip450)" d="M592.417 1469.17 Q589.084 1469.17 587.162 1470.95 Q585.264 1472.73 585.264 1475.86 Q585.264 1478.98 587.162 1480.77 Q589.084 1482.55 592.417 1482.55 Q595.75 1482.55 597.671 1480.77 Q599.593 1478.96 599.593 1475.86 Q599.593 1472.73 597.671 1470.95 Q595.773 1469.17 592.417 1469.17 M587.741 1467.18 Q584.732 1466.44 583.042 1464.38 Q581.375 1462.32 581.375 1459.35 Q581.375 1455.21 584.315 1452.8 Q587.278 1450.39 592.417 1450.39 Q597.579 1450.39 600.519 1452.8 Q603.458 1455.21 603.458 1459.35 Q603.458 1462.32 601.769 1464.38 Q600.102 1466.44 597.116 1467.18 Q600.496 1467.96 602.371 1470.26 Q604.269 1472.55 604.269 1475.86 Q604.269 1480.88 601.19 1483.57 Q598.134 1486.25 592.417 1486.25 Q586.699 1486.25 583.621 1483.57 Q580.565 1480.88 580.565 1475.86 Q580.565 1472.55 582.463 1470.26 Q584.361 1467.96 587.741 1467.18 M586.028 1459.79 Q586.028 1462.48 587.695 1463.98 Q589.384 1465.49 592.417 1465.49 Q595.426 1465.49 597.116 1463.98 Q598.829 1462.48 598.829 1459.79 Q598.829 1457.11 597.116 1455.6 Q595.426 1454.1 592.417 1454.1 Q589.384 1454.1 587.695 1455.6 Q586.028 1457.11 586.028 1459.79 Z" fill="#000000" fill-rule="evenodd" fill-opacity="1" /><path clip-path="url(#clip450)" d="M820.192 1468.75 L849.868 1468.75 L849.868 1472.69 L820.192 1472.69 L820.192 1468.75 Z" fill="#000000" fill-rule="evenodd" fill-opacity="1" /><path clip-path="url(#clip450)" d="M858.78 1451.02 L881.002 1451.02 L881.002 1453.01 L868.456 1485.58 L863.572 1485.58 L875.377 1454.96 L858.78 1454.96 L858.78 1451.02 Z" fill="#000000" fill-rule="evenodd" fill-opacity="1" /><path clip-path="url(#clip450)" d="M1096.8 1468.75 L1126.47 1468.75 L1126.47 1472.69 L1096.8 1472.69 L1096.8 1468.75 Z" fill="#000000" fill-rule="evenodd" fill-opacity="1" /><path clip-path="url(#clip450)" d="M1147.15 1466.44 Q1144 1466.44 1142.15 1468.59 Q1140.32 1470.74 1140.32 1474.49 Q1140.32 1478.22 1142.15 1480.39 Q1144 1482.55 1147.15 1482.55 Q1150.29 1482.55 1152.12 1480.39 Q1153.97 1478.22 1153.97 1474.49 Q1153.97 1470.74 1152.12 1468.59 Q1150.29 1466.44 1147.15 1466.44 M1156.43 1451.78 L1156.43 1456.04 Q1154.67 1455.21 1152.86 1454.77 Q1151.08 1454.33 1149.32 1454.33 Q1144.69 1454.33 1142.24 1457.45 Q1139.81 1460.58 1139.46 1466.9 Q1140.83 1464.89 1142.89 1463.82 Q1144.95 1462.73 1147.42 1462.73 Q1152.63 1462.73 1155.64 1465.9 Q1158.67 1469.05 1158.67 1474.49 Q1158.67 1479.82 1155.53 1483.03 Q1152.38 1486.25 1147.15 1486.25 Q1141.15 1486.25 1137.98 1481.67 Q1134.81 1477.06 1134.81 1468.33 Q1134.81 1460.14 1138.7 1455.28 Q1142.59 1450.39 1149.14 1450.39 Q1150.9 1450.39 1152.68 1450.74 Q1154.48 1451.09 1156.43 1451.78 Z" fill="#000000" fill-rule="evenodd" fill-opacity="1" /><path clip-path="url(#clip450)" d="M1374.52 1468.75 L1404.19 1468.75 L1404.19 1472.69 L1374.52 1472.69 L1374.52 1468.75 Z" fill="#000000" fill-rule="evenodd" fill-opacity="1" /><path clip-path="url(#clip450)" d="M1414.33 1451.02 L1432.69 1451.02 L1432.69 1454.96 L1418.61 1454.96 L1418.61 1463.43 Q1419.63 1463.08 1420.65 1462.92 Q1421.67 1462.73 1422.69 1462.73 Q1428.47 1462.73 1431.85 1465.9 Q1435.23 1469.08 1435.23 1474.49 Q1435.23 1480.07 1431.76 1483.17 Q1428.29 1486.25 1421.97 1486.25 Q1419.79 1486.25 1417.53 1485.88 Q1415.28 1485.51 1412.87 1484.77 L1412.87 1480.07 Q1414.96 1481.2 1417.18 1481.76 Q1419.4 1482.32 1421.88 1482.32 Q1425.88 1482.32 1428.22 1480.21 Q1430.56 1478.1 1430.56 1474.49 Q1430.56 1470.88 1428.22 1468.77 Q1425.88 1466.67 1421.88 1466.67 Q1420 1466.67 1418.13 1467.08 Q1416.28 1467.5 1414.33 1468.38 L1414.33 1451.02 Z" fill="#000000" fill-rule="evenodd" fill-opacity="1" /><path clip-path="url(#clip450)" d="M1650.91 1468.75 L1680.59 1468.75 L1680.59 1472.69 L1650.91 1472.69 L1650.91 1468.75 Z" fill="#000000" fill-rule="evenodd" fill-opacity="1" /><path clip-path="url(#clip450)" d="M1703.53 1455.09 L1691.72 1473.54 L1703.53 1473.54 L1703.53 1455.09 M1702.3 1451.02 L1708.18 1451.02 L1708.18 1473.54 L1713.11 1473.54 L1713.11 1477.43 L1708.18 1477.43 L1708.18 1485.58 L1703.53 1485.58 L1703.53 1477.43 L1687.93 1477.43 L1687.93 1472.92 L1702.3 1451.02 Z" fill="#000000" fill-rule="evenodd" fill-opacity="1" /><path clip-path="url(#clip450)" d="M1928.62 1468.75 L1958.3 1468.75 L1958.3 1472.69 L1928.62 1472.69 L1928.62 1468.75 Z" fill="#000000" fill-rule="evenodd" fill-opacity="1" /><path clip-path="url(#clip450)" d="M1982.56 1466.95 Q1985.91 1467.66 1987.79 1469.93 Q1989.68 1472.2 1989.68 1475.53 Q1989.68 1480.65 1986.17 1483.45 Q1982.65 1486.25 1976.17 1486.25 Q1973.99 1486.25 1971.68 1485.81 Q1969.38 1485.39 1966.93 1484.54 L1966.93 1480.02 Q1968.87 1481.16 1971.19 1481.74 Q1973.5 1482.32 1976.03 1482.32 Q1980.43 1482.32 1982.72 1480.58 Q1985.03 1478.84 1985.03 1475.53 Q1985.03 1472.48 1982.88 1470.77 Q1980.75 1469.03 1976.93 1469.03 L1972.9 1469.03 L1972.9 1465.19 L1977.12 1465.19 Q1980.56 1465.19 1982.39 1463.82 Q1984.22 1462.43 1984.22 1459.84 Q1984.22 1457.18 1982.32 1455.77 Q1980.45 1454.33 1976.93 1454.33 Q1975.01 1454.33 1972.81 1454.75 Q1970.61 1455.16 1967.97 1456.04 L1967.97 1451.88 Q1970.63 1451.14 1972.95 1450.77 Q1975.29 1450.39 1977.35 1450.39 Q1982.67 1450.39 1985.77 1452.83 Q1988.87 1455.23 1988.87 1459.35 Q1988.87 1462.22 1987.23 1464.21 Q1985.59 1466.18 1982.56 1466.95 Z" fill="#000000" fill-rule="evenodd" fill-opacity="1" /><path clip-path="url(#clip450)" d="M2206.23 1468.75 L2235.91 1468.75 L2235.91 1472.69 L2206.23 1472.69 L2206.23 1468.75 Z" fill="#000000" fill-rule="evenodd" fill-opacity="1" /><path clip-path="url(#clip450)" d="M2250.03 1481.64 L2266.35 1481.64 L2266.35 1485.58 L2244.4 1485.58 L2244.4 1481.64 Q2247.07 1478.89 2251.65 1474.26 Q2256.26 1469.61 2257.44 1468.27 Q2259.68 1465.74 2260.56 1464.01 Q2261.46 1462.25 2261.46 1460.56 Q2261.46 1457.8 2259.52 1456.07 Q2257.6 1454.33 2254.5 1454.33 Q2252.3 1454.33 2249.84 1455.09 Q2247.41 1455.86 2244.64 1457.41 L2244.64 1452.69 Q2247.46 1451.55 2249.91 1450.97 Q2252.37 1450.39 2254.4 1450.39 Q2259.77 1450.39 2262.97 1453.08 Q2266.16 1455.77 2266.16 1460.26 Q2266.16 1462.39 2265.35 1464.31 Q2264.57 1466.2 2262.46 1468.8 Q2261.88 1469.47 2258.78 1472.69 Q2255.68 1475.88 2250.03 1481.64 Z" fill="#000000" fill-rule="evenodd" fill-opacity="1" /><path clip-path="url(#clip450)" d="M897.484 1518.52 L903.34 1518.52 L903.34 1568.04 L897.484 1568.04 L897.484 1518.52 Z" fill="#000000" fill-rule="evenodd" fill-opacity="1" /><path clip-path="url(#clip450)" d="M929.408 1536.5 Q924.697 1536.5 921.96 1540.19 Q919.222 1543.85 919.222 1550.25 Q919.222 1556.65 921.928 1560.34 Q924.665 1564 929.408 1564 Q934.086 1564 936.824 1560.31 Q939.561 1556.62 939.561 1550.25 Q939.561 1543.92 936.824 1540.23 Q934.086 1536.5 929.408 1536.5 M929.408 1531.54 Q937.046 1531.54 941.407 1536.5 Q945.767 1541.47 945.767 1550.25 Q945.767 1559 941.407 1564 Q937.046 1568.97 929.408 1568.97 Q921.737 1568.97 917.376 1564 Q913.048 1559 913.048 1550.25 Q913.048 1541.47 917.376 1536.5 Q921.737 1531.54 929.408 1531.54 Z" fill="#000000" fill-rule="evenodd" fill-opacity="1" /><path clip-path="url(#clip450)" d="M978.933 1549.81 Q978.933 1543.44 976.291 1539.94 Q973.681 1536.44 968.939 1536.44 Q964.228 1536.44 961.586 1539.94 Q958.976 1543.44 958.976 1549.81 Q958.976 1556.14 961.586 1559.64 Q964.228 1563.14 968.939 1563.14 Q973.681 1563.14 976.291 1559.64 Q978.933 1556.14 978.933 1549.81 M984.789 1563.62 Q984.789 1572.72 980.747 1577.15 Q976.705 1581.6 968.366 1581.6 Q965.278 1581.6 962.541 1581.13 Q959.804 1580.68 957.226 1579.72 L957.226 1574.03 Q959.804 1575.43 962.318 1576.1 Q964.833 1576.76 967.443 1576.76 Q973.204 1576.76 976.068 1573.74 Q978.933 1570.75 978.933 1564.67 L978.933 1561.77 Q977.119 1564.92 974.286 1566.48 Q971.453 1568.04 967.506 1568.04 Q960.95 1568.04 956.939 1563.05 Q952.929 1558.05 952.929 1549.81 Q952.929 1541.53 956.939 1536.53 Q960.95 1531.54 967.506 1531.54 Q971.453 1531.54 974.286 1533.1 Q977.119 1534.66 978.933 1537.81 L978.933 1532.4 L984.789 1532.4 L984.789 1563.62 Z" fill="#000000" fill-rule="evenodd" fill-opacity="1" /><path clip-path="url(#clip450)" d="M1010.92 1518.58 Q1006.66 1525.9 1004.59 1533.06 Q1002.52 1540.23 1002.52 1547.58 Q1002.52 1554.93 1004.59 1562.16 Q1006.69 1569.35 1010.92 1576.64 L1005.83 1576.64 Q1001.05 1569.16 998.667 1561.93 Q996.311 1554.71 996.311 1547.58 Q996.311 1540.48 998.667 1533.29 Q1001.02 1526.09 1005.83 1518.58 L1010.92 1518.58 Z" fill="#000000" fill-rule="evenodd" fill-opacity="1" /><path clip-path="url(#clip450)" d="M1036.1 1536.5 Q1031.39 1536.5 1028.65 1540.19 Q1025.91 1543.85 1025.91 1550.25 Q1025.91 1556.65 1028.62 1560.34 Q1031.35 1564 1036.1 1564 Q1040.78 1564 1043.51 1560.31 Q1046.25 1556.62 1046.25 1550.25 Q1046.25 1543.92 1043.51 1540.23 Q1040.78 1536.5 1036.1 1536.5 M1036.1 1531.54 Q1043.74 1531.54 1048.1 1536.5 Q1052.46 1541.47 1052.46 1550.25 Q1052.46 1559 1048.1 1564 Q1043.74 1568.97 1036.1 1568.97 Q1028.43 1568.97 1024.07 1564 Q1019.74 1559 1019.74 1550.25 Q1019.74 1541.47 1024.07 1536.5 Q1028.43 1531.54 1036.1 1531.54 Z" fill="#000000" fill-rule="evenodd" fill-opacity="1" /><path clip-path="url(#clip450)" d="M1061.56 1553.98 L1061.56 1532.4 L1067.42 1532.4 L1067.42 1553.75 Q1067.42 1558.81 1069.39 1561.36 Q1071.36 1563.87 1075.31 1563.87 Q1080.05 1563.87 1082.79 1560.85 Q1085.56 1557.83 1085.56 1552.61 L1085.56 1532.4 L1091.41 1532.4 L1091.41 1568.04 L1085.56 1568.04 L1085.56 1562.57 Q1083.43 1565.82 1080.59 1567.41 Q1077.79 1568.97 1074.07 1568.97 Q1067.93 1568.97 1064.74 1565.15 Q1061.56 1561.33 1061.56 1553.98 M1076.3 1531.54 L1076.3 1531.54 Z" fill="#000000" fill-rule="evenodd" fill-opacity="1" /><path clip-path="url(#clip450)" d="M1109.27 1522.27 L1109.27 1532.4 L1121.33 1532.4 L1121.33 1536.95 L1109.27 1536.95 L1109.27 1556.3 Q1109.27 1560.66 1110.45 1561.9 Q1111.66 1563.14 1115.32 1563.14 L1121.33 1563.14 L1121.33 1568.04 L1115.32 1568.04 Q1108.54 1568.04 1105.96 1565.53 Q1103.38 1562.98 1103.38 1556.3 L1103.38 1536.95 L1099.09 1536.95 L1099.09 1532.4 L1103.38 1532.4 L1103.38 1522.27 L1109.27 1522.27 Z" fill="#000000" fill-rule="evenodd" fill-opacity="1" /><path clip-path="url(#clip450)" d="M1154.69 1533.76 L1154.69 1539.24 Q1152.21 1537.87 1149.69 1537.2 Q1147.21 1536.5 1144.66 1536.5 Q1138.97 1536.5 1135.82 1540.13 Q1132.66 1543.73 1132.66 1550.25 Q1132.66 1556.78 1135.82 1560.4 Q1138.97 1564 1144.66 1564 Q1147.21 1564 1149.69 1563.33 Q1152.21 1562.63 1154.69 1561.26 L1154.69 1566.68 Q1152.24 1567.82 1149.6 1568.39 Q1146.99 1568.97 1144.03 1568.97 Q1135.97 1568.97 1131.23 1563.91 Q1126.49 1558.85 1126.49 1550.25 Q1126.49 1541.53 1131.26 1536.53 Q1136.07 1531.54 1144.41 1531.54 Q1147.11 1531.54 1149.69 1532.11 Q1152.27 1532.65 1154.69 1533.76 Z" fill="#000000" fill-rule="evenodd" fill-opacity="1" /><path clip-path="url(#clip450)" d="M1178.69 1536.5 Q1173.98 1536.5 1171.24 1540.19 Q1168.5 1543.85 1168.5 1550.25 Q1168.5 1556.65 1171.21 1560.34 Q1173.95 1564 1178.69 1564 Q1183.37 1564 1186.1 1560.31 Q1188.84 1556.62 1188.84 1550.25 Q1188.84 1543.92 1186.1 1540.23 Q1183.37 1536.5 1178.69 1536.5 M1178.69 1531.54 Q1186.33 1531.54 1190.69 1536.5 Q1195.05 1541.47 1195.05 1550.25 Q1195.05 1559 1190.69 1564 Q1186.33 1568.97 1178.69 1568.97 Q1171.02 1568.97 1166.66 1564 Q1162.33 1559 1162.33 1550.25 Q1162.33 1541.47 1166.66 1536.5 Q1171.02 1531.54 1178.69 1531.54 Z" fill="#000000" fill-rule="evenodd" fill-opacity="1" /><path clip-path="url(#clip450)" d="M1232.51 1539.24 Q1234.71 1535.29 1237.76 1533.41 Q1240.82 1531.54 1244.96 1531.54 Q1250.53 1531.54 1253.55 1535.45 Q1256.57 1539.33 1256.57 1546.53 L1256.57 1568.04 L1250.68 1568.04 L1250.68 1546.72 Q1250.68 1541.59 1248.87 1539.11 Q1247.06 1536.63 1243.33 1536.63 Q1238.78 1536.63 1236.14 1539.65 Q1233.5 1542.68 1233.5 1547.9 L1233.5 1568.04 L1227.61 1568.04 L1227.61 1546.72 Q1227.61 1541.56 1225.79 1539.11 Q1223.98 1536.63 1220.19 1536.63 Q1215.71 1536.63 1213.06 1539.68 Q1210.42 1542.71 1210.42 1547.9 L1210.42 1568.04 L1204.53 1568.04 L1204.53 1532.4 L1210.42 1532.4 L1210.42 1537.93 Q1212.43 1534.66 1215.23 1533.1 Q1218.03 1531.54 1221.88 1531.54 Q1225.76 1531.54 1228.47 1533.51 Q1231.21 1535.48 1232.51 1539.24 Z" fill="#000000" fill-rule="evenodd" fill-opacity="1" /><path clip-path="url(#clip450)" d="M1298.75 1548.76 L1298.75 1551.62 L1271.82 1551.62 Q1272.2 1557.67 1275.45 1560.85 Q1278.73 1564 1284.55 1564 Q1287.92 1564 1291.08 1563.17 Q1294.26 1562.35 1297.38 1560.69 L1297.38 1566.23 Q1294.23 1567.57 1290.92 1568.27 Q1287.61 1568.97 1284.2 1568.97 Q1275.67 1568.97 1270.67 1564 Q1265.71 1559.04 1265.71 1550.57 Q1265.71 1541.82 1270.42 1536.69 Q1275.16 1531.54 1283.18 1531.54 Q1290.38 1531.54 1294.54 1536.18 Q1298.75 1540.8 1298.75 1548.76 M1292.89 1547.04 Q1292.83 1542.23 1290.18 1539.37 Q1287.57 1536.5 1283.25 1536.5 Q1278.34 1536.5 1275.38 1539.27 Q1272.46 1542.04 1272.01 1547.07 L1292.89 1547.04 Z" fill="#000000" fill-rule="evenodd" fill-opacity="1" /><path clip-path="url(#clip450)" d="M1334.74 1562.7 L1334.74 1581.6 L1328.86 1581.6 L1328.86 1532.4 L1334.74 1532.4 L1334.74 1537.81 Q1336.59 1534.62 1339.39 1533.1 Q1342.22 1531.54 1346.14 1531.54 Q1352.63 1531.54 1356.67 1536.69 Q1360.75 1541.85 1360.75 1550.25 Q1360.75 1558.65 1356.67 1563.81 Q1352.63 1568.97 1346.14 1568.97 Q1342.22 1568.97 1339.39 1567.44 Q1336.59 1565.88 1334.74 1562.7 M1354.67 1550.25 Q1354.67 1543.79 1352 1540.13 Q1349.35 1536.44 1344.71 1536.44 Q1340.06 1536.44 1337.39 1540.13 Q1334.74 1543.79 1334.74 1550.25 Q1334.74 1556.71 1337.39 1560.4 Q1340.06 1564.07 1344.71 1564.07 Q1349.35 1564.07 1352 1560.4 Q1354.67 1556.71 1354.67 1550.25 Z" fill="#000000" fill-rule="evenodd" fill-opacity="1" /><path clip-path="url(#clip450)" d="M1391.11 1537.87 Q1390.13 1537.3 1388.95 1537.04 Q1387.8 1536.76 1386.4 1536.76 Q1381.44 1536.76 1378.76 1540 Q1376.12 1543.22 1376.12 1549.27 L1376.12 1568.04 L1370.23 1568.04 L1370.23 1532.4 L1376.12 1532.4 L1376.12 1537.93 Q1377.97 1534.69 1380.93 1533.13 Q1383.89 1531.54 1388.12 1531.54 Q1388.73 1531.54 1389.46 1531.63 Q1390.19 1531.7 1391.08 1531.85 L1391.11 1537.87 Z" fill="#000000" fill-rule="evenodd" fill-opacity="1" /><path clip-path="url(#clip450)" d="M1409.64 1536.5 Q1404.93 1536.5 1402.19 1540.19 Q1399.45 1543.85 1399.45 1550.25 Q1399.45 1556.65 1402.16 1560.34 Q1404.89 1564 1409.64 1564 Q1414.32 1564 1417.05 1560.31 Q1419.79 1556.62 1419.79 1550.25 Q1419.79 1543.92 1417.05 1540.23 Q1414.32 1536.5 1409.64 1536.5 M1409.64 1531.54 Q1417.28 1531.54 1421.64 1536.5 Q1426 1541.47 1426 1550.25 Q1426 1559 1421.64 1564 Q1417.28 1568.97 1409.64 1568.97 Q1401.97 1568.97 1397.61 1564 Q1393.28 1559 1393.28 1550.25 Q1393.28 1541.47 1397.61 1536.5 Q1401.97 1531.54 1409.64 1531.54 Z" fill="#000000" fill-rule="evenodd" fill-opacity="1" /><path clip-path="url(#clip450)" d="M1461.29 1550.25 Q1461.29 1543.79 1458.62 1540.13 Q1455.98 1536.44 1451.33 1536.44 Q1446.68 1536.44 1444.01 1540.13 Q1441.37 1543.79 1441.37 1550.25 Q1441.37 1556.71 1444.01 1560.4 Q1446.68 1564.07 1451.33 1564.07 Q1455.98 1564.07 1458.62 1560.4 Q1461.29 1556.71 1461.29 1550.25 M1441.37 1537.81 Q1443.22 1534.62 1446.02 1533.1 Q1448.85 1531.54 1452.76 1531.54 Q1459.26 1531.54 1463.3 1536.69 Q1467.37 1541.85 1467.37 1550.25 Q1467.37 1558.65 1463.3 1563.81 Q1459.26 1568.97 1452.76 1568.97 Q1448.85 1568.97 1446.02 1567.44 Q1443.22 1565.88 1441.37 1562.7 L1441.37 1568.04 L1435.48 1568.04 L1435.48 1518.52 L1441.37 1518.52 L1441.37 1537.81 Z" fill="#000000" fill-rule="evenodd" fill-opacity="1" /><path clip-path="url(#clip450)" d="M1493.28 1550.12 Q1486.18 1550.12 1483.45 1551.75 Q1480.71 1553.37 1480.71 1557.29 Q1480.71 1560.4 1482.75 1562.25 Q1484.82 1564.07 1488.35 1564.07 Q1493.22 1564.07 1496.15 1560.63 Q1499.11 1557.16 1499.11 1551.43 L1499.11 1550.12 L1493.28 1550.12 M1504.96 1547.71 L1504.96 1568.04 L1499.11 1568.04 L1499.11 1562.63 Q1497.1 1565.88 1494.11 1567.44 Q1491.12 1568.97 1486.79 1568.97 Q1481.31 1568.97 1478.07 1565.91 Q1474.85 1562.82 1474.85 1557.67 Q1474.85 1551.65 1478.86 1548.6 Q1482.91 1545.54 1490.89 1545.54 L1499.11 1545.54 L1499.11 1544.97 Q1499.11 1540.93 1496.43 1538.73 Q1493.79 1536.5 1488.99 1536.5 Q1485.93 1536.5 1483.03 1537.23 Q1480.14 1537.97 1477.46 1539.43 L1477.46 1534.02 Q1480.68 1532.78 1483.7 1532.17 Q1486.73 1531.54 1489.59 1531.54 Q1497.32 1531.54 1501.14 1535.55 Q1504.96 1539.56 1504.96 1547.71 Z" fill="#000000" fill-rule="evenodd" fill-opacity="1" /><path clip-path="url(#clip450)" d="M1542.62 1550.25 Q1542.62 1543.79 1539.94 1540.13 Q1537.3 1536.44 1532.65 1536.44 Q1528.01 1536.44 1525.33 1540.13 Q1522.69 1543.79 1522.69 1550.25 Q1522.69 1556.71 1525.33 1560.4 Q1528.01 1564.07 1532.65 1564.07 Q1537.3 1564.07 1539.94 1560.4 Q1542.62 1556.71 1542.62 1550.25 M1522.69 1537.81 Q1524.54 1534.62 1527.34 1533.1 Q1530.17 1531.54 1534.09 1531.54 Q1540.58 1531.54 1544.62 1536.69 Q1548.7 1541.85 1548.7 1550.25 Q1548.7 1558.65 1544.62 1563.81 Q1540.58 1568.97 1534.09 1568.97 Q1530.17 1568.97 1527.34 1567.44 Q1524.54 1565.88 1522.69 1562.7 L1522.69 1568.04 L1516.8 1568.04 L1516.8 1518.52 L1522.69 1518.52 L1522.69 1537.81 Z" fill="#000000" fill-rule="evenodd" fill-opacity="1" /><path clip-path="url(#clip450)" d="M1558.4 1532.4 L1564.26 1532.4 L1564.26 1568.04 L1558.4 1568.04 L1558.4 1532.4 M1558.4 1518.52 L1564.26 1518.52 L1564.26 1525.93 L1558.4 1525.93 L1558.4 1518.52 Z" fill="#000000" fill-rule="evenodd" fill-opacity="1" /><path clip-path="url(#clip450)" d="M1576.51 1518.52 L1582.37 1518.52 L1582.37 1568.04 L1576.51 1568.04 L1576.51 1518.52 Z" fill="#000000" fill-rule="evenodd" fill-opacity="1" /><path clip-path="url(#clip450)" d="M1594.62 1532.4 L1600.48 1532.4 L1600.48 1568.04 L1594.62 1568.04 L1594.62 1532.4 M1594.62 1518.52 L1600.48 1518.52 L1600.48 1525.93 L1594.62 1525.93 L1594.62 1518.52 Z" fill="#000000" fill-rule="evenodd" fill-opacity="1" /><path clip-path="url(#clip450)" d="M1618.53 1522.27 L1618.53 1532.4 L1630.59 1532.4 L1630.59 1536.95 L1618.53 1536.95 L1618.53 1556.3 Q1618.53 1560.66 1619.7 1561.9 Q1620.91 1563.14 1624.57 1563.14 L1630.59 1563.14 L1630.59 1568.04 L1624.57 1568.04 Q1617.8 1568.04 1615.22 1565.53 Q1612.64 1562.98 1612.64 1556.3 L1612.64 1536.95 L1608.34 1536.95 L1608.34 1532.4 L1612.64 1532.4 L1612.64 1522.27 L1618.53 1522.27 Z" fill="#000000" fill-rule="evenodd" fill-opacity="1" /><path clip-path="url(#clip450)" d="M1653.12 1571.35 Q1650.64 1577.72 1648.29 1579.66 Q1645.93 1581.6 1641.98 1581.6 L1637.31 1581.6 L1637.31 1576.7 L1640.74 1576.7 Q1643.16 1576.7 1644.5 1575.56 Q1645.84 1574.41 1647.46 1570.14 L1648.51 1567.47 L1634.09 1532.4 L1640.3 1532.4 L1651.44 1560.28 L1662.58 1532.4 L1668.78 1532.4 L1653.12 1571.35 Z" fill="#000000" fill-rule="evenodd" fill-opacity="1" /><path clip-path="url(#clip450)" d="M1675.95 1518.58 L1681.04 1518.58 Q1685.81 1526.09 1688.17 1533.29 Q1690.56 1540.48 1690.56 1547.58 Q1690.56 1554.71 1688.17 1561.93 Q1685.81 1569.16 1681.04 1576.64 L1675.95 1576.64 Q1680.18 1569.35 1682.25 1562.16 Q1684.35 1554.93 1684.35 1547.58 Q1684.35 1540.23 1682.25 1533.06 Q1680.18 1525.9 1675.95 1518.58 Z" fill="#000000" fill-rule="evenodd" fill-opacity="1" /><polyline clip-path="url(#clip452)" style="stroke:#000000; stroke-linecap:butt; stroke-linejoin:round; stroke-width:2; stroke-opacity:0.1; fill:none" points="
  235.283,1384.24 2352.76,1384.24 
  "/>
<polyline clip-path="url(#clip452)" style="stroke:#000000; stroke-linecap:butt; stroke-linejoin:round; stroke-width:2; stroke-opacity:0.1; fill:none" points="
  235.283,1128.72 2352.76,1128.72 
  "/>
<polyline clip-path="url(#clip452)" style="stroke:#000000; stroke-linecap:butt; stroke-linejoin:round; stroke-width:2; stroke-opacity:0.1; fill:none" points="
  235.283,873.194 2352.76,873.194 
  "/>
<polyline clip-path="url(#clip452)" style="stroke:#000000; stroke-linecap:butt; stroke-linejoin:round; stroke-width:2; stroke-opacity:0.1; fill:none" points="
  235.283,617.672 2352.76,617.672 
  "/>
<polyline clip-path="url(#clip452)" style="stroke:#000000; stroke-linecap:butt; stroke-linejoin:round; stroke-width:2; stroke-opacity:0.1; fill:none" points="
  235.283,362.15 2352.76,362.15 
  "/>
<polyline clip-path="url(#clip452)" style="stroke:#000000; stroke-linecap:butt; stroke-linejoin:round; stroke-width:2; stroke-opacity:0.1; fill:none" points="
  235.283,106.627 2352.76,106.627 
  "/>
<polyline clip-path="url(#clip450)" style="stroke:#000000; stroke-linecap:butt; stroke-linejoin:round; stroke-width:4; stroke-opacity:1; fill:none" points="
  235.283,1423.18 235.283,47.2441 
  "/>
<polyline clip-path="url(#clip450)" style="stroke:#000000; stroke-linecap:butt; stroke-linejoin:round; stroke-width:4; stroke-opacity:1; fill:none" points="
  235.283,1384.24 254.18,1384.24 
  "/>
<polyline clip-path="url(#clip450)" style="stroke:#000000; stroke-linecap:butt; stroke-linejoin:round; stroke-width:4; stroke-opacity:1; fill:none" points="
  235.283,1128.72 254.18,1128.72 
  "/>
<polyline clip-path="url(#clip450)" style="stroke:#000000; stroke-linecap:butt; stroke-linejoin:round; stroke-width:4; stroke-opacity:1; fill:none" points="
  235.283,873.194 254.18,873.194 
  "/>
<polyline clip-path="url(#clip450)" style="stroke:#000000; stroke-linecap:butt; stroke-linejoin:round; stroke-width:4; stroke-opacity:1; fill:none" points="
  235.283,617.672 254.18,617.672 
  "/>
<polyline clip-path="url(#clip450)" style="stroke:#000000; stroke-linecap:butt; stroke-linejoin:round; stroke-width:4; stroke-opacity:1; fill:none" points="
  235.283,362.15 254.18,362.15 
  "/>
<polyline clip-path="url(#clip450)" style="stroke:#000000; stroke-linecap:butt; stroke-linejoin:round; stroke-width:4; stroke-opacity:1; fill:none" points="
  235.283,106.627 254.18,106.627 
  "/>
<path clip-path="url(#clip450)" d="M187.338 1370.04 Q183.727 1370.04 181.899 1373.6 Q180.093 1377.14 180.093 1384.27 Q180.093 1391.38 181.899 1394.94 Q183.727 1398.49 187.338 1398.49 Q190.973 1398.49 192.778 1394.94 Q194.607 1391.38 194.607 1384.27 Q194.607 1377.14 192.778 1373.6 Q190.973 1370.04 187.338 1370.04 M187.338 1366.33 Q193.149 1366.33 196.204 1370.94 Q199.283 1375.52 199.283 1384.27 Q199.283 1393 196.204 1397.61 Q193.149 1402.19 187.338 1402.19 Q181.528 1402.19 178.45 1397.61 Q175.394 1393 175.394 1384.27 Q175.394 1375.52 178.45 1370.94 Q181.528 1366.33 187.338 1366.33 Z" fill="#000000" fill-rule="evenodd" fill-opacity="1" /><path clip-path="url(#clip450)" d="M117.825 1142.06 L125.464 1142.06 L125.464 1115.7 L117.154 1117.36 L117.154 1113.1 L125.418 1111.44 L130.093 1111.44 L130.093 1142.06 L137.732 1142.06 L137.732 1146 L117.825 1146 L117.825 1142.06 Z" fill="#000000" fill-rule="evenodd" fill-opacity="1" /><path clip-path="url(#clip450)" d="M157.177 1114.51 Q153.566 1114.51 151.737 1118.08 Q149.931 1121.62 149.931 1128.75 Q149.931 1135.86 151.737 1139.42 Q153.566 1142.96 157.177 1142.96 Q160.811 1142.96 162.616 1139.42 Q164.445 1135.86 164.445 1128.75 Q164.445 1121.62 162.616 1118.08 Q160.811 1114.51 157.177 1114.51 M157.177 1110.81 Q162.987 1110.81 166.042 1115.42 Q169.121 1120 169.121 1128.75 Q169.121 1137.48 166.042 1142.08 Q162.987 1146.67 157.177 1146.67 Q151.366 1146.67 148.288 1142.08 Q145.232 1137.48 145.232 1128.75 Q145.232 1120 148.288 1115.42 Q151.366 1110.81 157.177 1110.81 Z" fill="#000000" fill-rule="evenodd" fill-opacity="1" /><path clip-path="url(#clip450)" d="M187.338 1114.51 Q183.727 1114.51 181.899 1118.08 Q180.093 1121.62 180.093 1128.75 Q180.093 1135.86 181.899 1139.42 Q183.727 1142.96 187.338 1142.96 Q190.973 1142.96 192.778 1139.42 Q194.607 1135.86 194.607 1128.75 Q194.607 1121.62 192.778 1118.08 Q190.973 1114.51 187.338 1114.51 M187.338 1110.81 Q193.149 1110.81 196.204 1115.42 Q199.283 1120 199.283 1128.75 Q199.283 1137.48 196.204 1142.08 Q193.149 1146.67 187.338 1146.67 Q181.528 1146.67 178.45 1142.08 Q175.394 1137.48 175.394 1128.75 Q175.394 1120 178.45 1115.42 Q181.528 1110.81 187.338 1110.81 Z" fill="#000000" fill-rule="evenodd" fill-opacity="1" /><path clip-path="url(#clip450)" d="M121.043 886.539 L137.362 886.539 L137.362 890.474 L115.418 890.474 L115.418 886.539 Q118.08 883.784 122.663 879.155 Q127.269 874.502 128.45 873.159 Q130.695 870.636 131.575 868.9 Q132.478 867.141 132.478 865.451 Q132.478 862.696 130.533 860.96 Q128.612 859.224 125.51 859.224 Q123.311 859.224 120.857 859.988 Q118.427 860.752 115.649 862.303 L115.649 857.581 Q118.473 856.446 120.927 855.868 Q123.38 855.289 125.418 855.289 Q130.788 855.289 133.982 857.974 Q137.177 860.659 137.177 865.15 Q137.177 867.28 136.367 869.201 Q135.579 871.099 133.473 873.692 Q132.894 874.363 129.792 877.58 Q126.691 880.775 121.043 886.539 Z" fill="#000000" fill-rule="evenodd" fill-opacity="1" /><path clip-path="url(#clip450)" d="M157.177 858.993 Q153.566 858.993 151.737 862.557 Q149.931 866.099 149.931 873.229 Q149.931 880.335 151.737 883.9 Q153.566 887.442 157.177 887.442 Q160.811 887.442 162.616 883.9 Q164.445 880.335 164.445 873.229 Q164.445 866.099 162.616 862.557 Q160.811 858.993 157.177 858.993 M157.177 855.289 Q162.987 855.289 166.042 859.895 Q169.121 864.479 169.121 873.229 Q169.121 881.955 166.042 886.562 Q162.987 891.145 157.177 891.145 Q151.366 891.145 148.288 886.562 Q145.232 881.955 145.232 873.229 Q145.232 864.479 148.288 859.895 Q151.366 855.289 157.177 855.289 Z" fill="#000000" fill-rule="evenodd" fill-opacity="1" /><path clip-path="url(#clip450)" d="M187.338 858.993 Q183.727 858.993 181.899 862.557 Q180.093 866.099 180.093 873.229 Q180.093 880.335 181.899 883.9 Q183.727 887.442 187.338 887.442 Q190.973 887.442 192.778 883.9 Q194.607 880.335 194.607 873.229 Q194.607 866.099 192.778 862.557 Q190.973 858.993 187.338 858.993 M187.338 855.289 Q193.149 855.289 196.204 859.895 Q199.283 864.479 199.283 873.229 Q199.283 881.955 196.204 886.562 Q193.149 891.145 187.338 891.145 Q181.528 891.145 178.45 886.562 Q175.394 881.955 175.394 873.229 Q175.394 864.479 178.45 859.895 Q181.528 855.289 187.338 855.289 Z" fill="#000000" fill-rule="evenodd" fill-opacity="1" /><path clip-path="url(#clip450)" d="M131.181 616.318 Q134.538 617.035 136.413 619.304 Q138.311 621.572 138.311 624.906 Q138.311 630.021 134.792 632.822 Q131.274 635.623 124.793 635.623 Q122.617 635.623 120.302 635.183 Q118.01 634.767 115.556 633.91 L115.556 629.396 Q117.501 630.531 119.816 631.109 Q122.13 631.688 124.654 631.688 Q129.052 631.688 131.343 629.952 Q133.658 628.216 133.658 624.906 Q133.658 621.85 131.505 620.137 Q129.376 618.401 125.556 618.401 L121.529 618.401 L121.529 614.558 L125.742 614.558 Q129.191 614.558 131.019 613.193 Q132.848 611.804 132.848 609.211 Q132.848 606.549 130.95 605.137 Q129.075 603.702 125.556 603.702 Q123.635 603.702 121.436 604.119 Q119.237 604.535 116.598 605.415 L116.598 601.248 Q119.26 600.508 121.575 600.137 Q123.913 599.767 125.973 599.767 Q131.297 599.767 134.399 602.197 Q137.501 604.605 137.501 608.725 Q137.501 611.595 135.857 613.586 Q134.214 615.554 131.181 616.318 Z" fill="#000000" fill-rule="evenodd" fill-opacity="1" /><path clip-path="url(#clip450)" d="M157.177 603.47 Q153.566 603.47 151.737 607.035 Q149.931 610.577 149.931 617.706 Q149.931 624.813 151.737 628.378 Q153.566 631.919 157.177 631.919 Q160.811 631.919 162.616 628.378 Q164.445 624.813 164.445 617.706 Q164.445 610.577 162.616 607.035 Q160.811 603.47 157.177 603.47 M157.177 599.767 Q162.987 599.767 166.042 604.373 Q169.121 608.957 169.121 617.706 Q169.121 626.433 166.042 631.04 Q162.987 635.623 157.177 635.623 Q151.366 635.623 148.288 631.04 Q145.232 626.433 145.232 617.706 Q145.232 608.957 148.288 604.373 Q151.366 599.767 157.177 599.767 Z" fill="#000000" fill-rule="evenodd" fill-opacity="1" /><path clip-path="url(#clip450)" d="M187.338 603.47 Q183.727 603.47 181.899 607.035 Q180.093 610.577 180.093 617.706 Q180.093 624.813 181.899 628.378 Q183.727 631.919 187.338 631.919 Q190.973 631.919 192.778 628.378 Q194.607 624.813 194.607 617.706 Q194.607 610.577 192.778 607.035 Q190.973 603.47 187.338 603.47 M187.338 599.767 Q193.149 599.767 196.204 604.373 Q199.283 608.957 199.283 617.706 Q199.283 626.433 196.204 631.04 Q193.149 635.623 187.338 635.623 Q181.528 635.623 178.45 631.04 Q175.394 626.433 175.394 617.706 Q175.394 608.957 178.45 604.373 Q181.528 599.767 187.338 599.767 Z" fill="#000000" fill-rule="evenodd" fill-opacity="1" /><path clip-path="url(#clip450)" d="M129.862 348.944 L118.056 367.393 L129.862 367.393 L129.862 348.944 M128.635 344.87 L134.515 344.87 L134.515 367.393 L139.445 367.393 L139.445 371.282 L134.515 371.282 L134.515 379.43 L129.862 379.43 L129.862 371.282 L114.26 371.282 L114.26 366.768 L128.635 344.87 Z" fill="#000000" fill-rule="evenodd" fill-opacity="1" /><path clip-path="url(#clip450)" d="M157.177 347.948 Q153.566 347.948 151.737 351.513 Q149.931 355.055 149.931 362.184 Q149.931 369.291 151.737 372.856 Q153.566 376.397 157.177 376.397 Q160.811 376.397 162.616 372.856 Q164.445 369.291 164.445 362.184 Q164.445 355.055 162.616 351.513 Q160.811 347.948 157.177 347.948 M157.177 344.245 Q162.987 344.245 166.042 348.851 Q169.121 353.434 169.121 362.184 Q169.121 370.911 166.042 375.518 Q162.987 380.101 157.177 380.101 Q151.366 380.101 148.288 375.518 Q145.232 370.911 145.232 362.184 Q145.232 353.434 148.288 348.851 Q151.366 344.245 157.177 344.245 Z" fill="#000000" fill-rule="evenodd" fill-opacity="1" /><path clip-path="url(#clip450)" d="M187.338 347.948 Q183.727 347.948 181.899 351.513 Q180.093 355.055 180.093 362.184 Q180.093 369.291 181.899 372.856 Q183.727 376.397 187.338 376.397 Q190.973 376.397 192.778 372.856 Q194.607 369.291 194.607 362.184 Q194.607 355.055 192.778 351.513 Q190.973 347.948 187.338 347.948 M187.338 344.245 Q193.149 344.245 196.204 348.851 Q199.283 353.434 199.283 362.184 Q199.283 370.911 196.204 375.518 Q193.149 380.101 187.338 380.101 Q181.528 380.101 178.45 375.518 Q175.394 370.911 175.394 362.184 Q175.394 353.434 178.45 348.851 Q181.528 344.245 187.338 344.245 Z" fill="#000000" fill-rule="evenodd" fill-opacity="1" /><path clip-path="url(#clip450)" d="M117.061 89.3474 L135.417 89.3474 L135.417 93.2826 L121.343 93.2826 L121.343 101.755 Q122.362 101.408 123.38 101.246 Q124.399 101.06 125.418 101.06 Q131.205 101.06 134.584 104.232 Q137.964 107.403 137.964 112.82 Q137.964 118.398 134.492 121.5 Q131.019 124.579 124.7 124.579 Q122.524 124.579 120.255 124.208 Q118.01 123.838 115.603 123.097 L115.603 118.398 Q117.686 119.532 119.908 120.088 Q122.13 120.644 124.607 120.644 Q128.612 120.644 130.95 118.537 Q133.288 116.431 133.288 112.82 Q133.288 109.208 130.95 107.102 Q128.612 104.996 124.607 104.996 Q122.732 104.996 120.857 105.412 Q119.006 105.829 117.061 106.708 L117.061 89.3474 Z" fill="#000000" fill-rule="evenodd" fill-opacity="1" /><path clip-path="url(#clip450)" d="M157.177 92.4261 Q153.566 92.4261 151.737 95.9909 Q149.931 99.5326 149.931 106.662 Q149.931 113.769 151.737 117.333 Q153.566 120.875 157.177 120.875 Q160.811 120.875 162.616 117.333 Q164.445 113.769 164.445 106.662 Q164.445 99.5326 162.616 95.9909 Q160.811 92.4261 157.177 92.4261 M157.177 88.7224 Q162.987 88.7224 166.042 93.3289 Q169.121 97.9122 169.121 106.662 Q169.121 115.389 166.042 119.995 Q162.987 124.579 157.177 124.579 Q151.366 124.579 148.288 119.995 Q145.232 115.389 145.232 106.662 Q145.232 97.9122 148.288 93.3289 Q151.366 88.7224 157.177 88.7224 Z" fill="#000000" fill-rule="evenodd" fill-opacity="1" /><path clip-path="url(#clip450)" d="M187.338 92.4261 Q183.727 92.4261 181.899 95.9909 Q180.093 99.5326 180.093 106.662 Q180.093 113.769 181.899 117.333 Q183.727 120.875 187.338 120.875 Q190.973 120.875 192.778 117.333 Q194.607 113.769 194.607 106.662 Q194.607 99.5326 192.778 95.9909 Q190.973 92.4261 187.338 92.4261 M187.338 88.7224 Q193.149 88.7224 196.204 93.3289 Q199.283 97.9122 199.283 106.662 Q199.283 115.389 196.204 119.995 Q193.149 124.579 187.338 124.579 Q181.528 124.579 178.45 119.995 Q175.394 115.389 175.394 106.662 Q175.394 97.9122 178.45 93.3289 Q181.528 88.7224 187.338 88.7224 Z" fill="#000000" fill-rule="evenodd" fill-opacity="1" /><path clip-path="url(#clip450)" d="M29.7248 812.555 L35.1993 812.555 Q33.8307 815.038 33.1623 817.552 Q32.4621 820.035 32.4621 822.581 Q32.4621 828.279 36.0905 831.43 Q39.6872 834.581 46.212 834.581 Q52.7369 834.581 56.3653 831.43 Q59.9619 828.279 59.9619 822.581 Q59.9619 820.035 59.2935 817.552 Q58.5933 815.038 57.2247 812.555 L62.6355 812.555 Q63.7814 815.006 64.3543 817.648 Q64.9272 820.258 64.9272 823.218 Q64.9272 831.27 59.8664 836.013 Q54.8057 840.755 46.212 840.755 Q37.491 840.755 32.4939 835.981 Q27.4968 831.175 27.4968 822.836 Q27.4968 820.13 28.0697 817.552 Q28.6108 814.974 29.7248 812.555 Z" fill="#000000" fill-rule="evenodd" fill-opacity="1" /><path clip-path="url(#clip450)" d="M32.4621 788.557 Q32.4621 793.267 36.1542 796.004 Q39.8145 798.742 46.212 798.742 Q52.6095 798.742 56.3017 796.036 Q59.9619 793.299 59.9619 788.557 Q59.9619 783.878 56.2698 781.141 Q52.5777 778.403 46.212 778.403 Q39.8781 778.403 36.186 781.141 Q32.4621 783.878 32.4621 788.557 M27.4968 788.557 Q27.4968 780.918 32.4621 776.557 Q37.4273 772.197 46.212 772.197 Q54.9649 772.197 59.9619 776.557 Q64.9272 780.918 64.9272 788.557 Q64.9272 796.227 59.9619 800.588 Q54.9649 804.916 46.212 804.916 Q37.4273 804.916 32.4621 800.588 Q27.4968 796.227 27.4968 788.557 Z" fill="#000000" fill-rule="evenodd" fill-opacity="1" /><path clip-path="url(#clip450)" d="M49.9359 763.094 L28.3562 763.094 L28.3562 757.237 L49.7131 757.237 Q54.7739 757.237 57.3202 755.264 Q59.8346 753.291 59.8346 749.344 Q59.8346 744.601 56.8109 741.864 Q53.7872 739.095 48.5673 739.095 L28.3562 739.095 L28.3562 733.239 L64.0042 733.239 L64.0042 739.095 L58.5296 739.095 Q61.7762 741.228 63.3676 744.06 Q64.9272 746.861 64.9272 750.585 Q64.9272 756.728 61.1078 759.911 Q57.2883 763.094 49.9359 763.094 M27.4968 748.357 L27.4968 748.357 Z" fill="#000000" fill-rule="evenodd" fill-opacity="1" /><path clip-path="url(#clip450)" d="M42.4881 691.543 L64.0042 691.543 L64.0042 697.4 L42.679 697.4 Q37.6183 697.4 35.1038 699.373 Q32.5894 701.346 32.5894 705.293 Q32.5894 710.036 35.6131 712.773 Q38.6368 715.51 43.8567 715.51 L64.0042 715.51 L64.0042 721.398 L28.3562 721.398 L28.3562 715.51 L33.8944 715.51 Q30.6797 713.409 29.0883 710.577 Q27.4968 707.712 27.4968 703.988 Q27.4968 697.845 31.3163 694.694 Q35.1038 691.543 42.4881 691.543 Z" fill="#000000" fill-rule="evenodd" fill-opacity="1" /><path clip-path="url(#clip450)" d="M18.2347 674.069 L28.3562 674.069 L28.3562 662.006 L32.9077 662.006 L32.9077 674.069 L52.2594 674.069 Q56.6199 674.069 57.8613 672.892 Q59.1026 671.682 59.1026 668.022 L59.1026 662.006 L64.0042 662.006 L64.0042 668.022 Q64.0042 674.801 61.4897 677.38 Q58.9434 679.958 52.2594 679.958 L32.9077 679.958 L32.9077 684.254 L28.3562 684.254 L28.3562 679.958 L18.2347 679.958 L18.2347 674.069 Z" fill="#000000" fill-rule="evenodd" fill-opacity="1" /><path clip-path="url(#clip450)" d="M29.4065 631.578 L34.9447 631.578 Q33.6716 634.061 33.035 636.734 Q32.3984 639.408 32.3984 642.273 Q32.3984 646.633 33.7352 648.829 Q35.072 650.994 37.7456 650.994 Q39.7826 650.994 40.9603 649.434 Q42.1061 647.874 43.1565 643.164 L43.6021 641.159 Q44.9389 634.92 47.3897 632.31 Q49.8086 629.669 54.1691 629.669 Q59.1344 629.669 62.0308 633.615 Q64.9272 637.53 64.9272 644.405 Q64.9272 647.27 64.3543 650.389 Q63.8132 653.476 62.6992 656.914 L56.6518 656.914 Q58.3387 653.667 59.198 650.516 Q60.0256 647.365 60.0256 644.278 Q60.0256 640.14 58.6251 637.912 Q57.1929 635.684 54.6147 635.684 Q52.2276 635.684 50.9545 637.307 Q49.6813 638.899 48.5037 644.342 L48.0262 646.379 Q46.8804 651.821 44.5251 654.24 Q42.138 656.659 38.0002 656.659 Q32.9713 656.659 30.2341 653.094 Q27.4968 649.53 27.4968 642.973 Q27.4968 639.726 27.9743 636.862 Q28.4517 633.997 29.4065 631.578 Z" fill="#000000" fill-rule="evenodd" fill-opacity="1" /><path clip-path="url(#clip452)" d="
M351.748 1379.13 L351.748 1384.24 L407.175 1384.24 L407.175 1379.13 L351.748 1379.13 L351.748 1379.13  Z
  " fill="#009af9" fill-rule="evenodd" fill-opacity="1"/>
<polyline clip-path="url(#clip452)" style="stroke:#000000; stroke-linecap:butt; stroke-linejoin:round; stroke-width:4; stroke-opacity:1; fill:none" points="
  351.748,1379.13 351.748,1384.24 407.175,1384.24 407.175,1379.13 351.748,1379.13 
  "/>
<path clip-path="url(#clip452)" d="
M407.175 1361.24 L407.175 1384.24 L462.603 1384.24 L462.603 1361.24 L407.175 1361.24 L407.175 1361.24  Z
  " fill="#009af9" fill-rule="evenodd" fill-opacity="1"/>
<polyline clip-path="url(#clip452)" style="stroke:#000000; stroke-linecap:butt; stroke-linejoin:round; stroke-width:4; stroke-opacity:1; fill:none" points="
  407.175,1361.24 407.175,1384.24 462.603,1384.24 462.603,1361.24 407.175,1361.24 
  "/>
<path clip-path="url(#clip452)" d="
M462.603 1333.13 L462.603 1384.24 L518.031 1384.24 L518.031 1333.13 L462.603 1333.13 L462.603 1333.13  Z
  " fill="#009af9" fill-rule="evenodd" fill-opacity="1"/>
<polyline clip-path="url(#clip452)" style="stroke:#000000; stroke-linecap:butt; stroke-linejoin:round; stroke-width:4; stroke-opacity:1; fill:none" points="
  462.603,1333.13 462.603,1384.24 518.031,1384.24 518.031,1333.13 462.603,1333.13 
  "/>
<path clip-path="url(#clip452)" d="
M518.031 1276.92 L518.031 1384.24 L573.459 1384.24 L573.459 1276.92 L518.031 1276.92 L518.031 1276.92  Z
  " fill="#009af9" fill-rule="evenodd" fill-opacity="1"/>
<polyline clip-path="url(#clip452)" style="stroke:#000000; stroke-linecap:butt; stroke-linejoin:round; stroke-width:4; stroke-opacity:1; fill:none" points="
  518.031,1276.92 518.031,1384.24 573.459,1384.24 573.459,1276.92 518.031,1276.92 
  "/>
<path clip-path="url(#clip452)" d="
M573.459 1202.82 L573.459 1384.24 L628.886 1384.24 L628.886 1202.82 L573.459 1202.82 L573.459 1202.82  Z
  " fill="#009af9" fill-rule="evenodd" fill-opacity="1"/>
<polyline clip-path="url(#clip452)" style="stroke:#000000; stroke-linecap:butt; stroke-linejoin:round; stroke-width:4; stroke-opacity:1; fill:none" points="
  573.459,1202.82 573.459,1384.24 628.886,1384.24 628.886,1202.82 573.459,1202.82 
  "/>
<path clip-path="url(#clip452)" d="
M628.886 1100.61 L628.886 1384.24 L684.314 1384.24 L684.314 1100.61 L628.886 1100.61 L628.886 1100.61  Z
  " fill="#009af9" fill-rule="evenodd" fill-opacity="1"/>
<polyline clip-path="url(#clip452)" style="stroke:#000000; stroke-linecap:butt; stroke-linejoin:round; stroke-width:4; stroke-opacity:1; fill:none" points="
  628.886,1100.61 628.886,1384.24 684.314,1384.24 684.314,1100.61 628.886,1100.61 
  "/>
<path clip-path="url(#clip452)" d="
M684.314 1054.61 L684.314 1384.24 L739.742 1384.24 L739.742 1054.61 L684.314 1054.61 L684.314 1054.61  Z
  " fill="#009af9" fill-rule="evenodd" fill-opacity="1"/>
<polyline clip-path="url(#clip452)" style="stroke:#000000; stroke-linecap:butt; stroke-linejoin:round; stroke-width:4; stroke-opacity:1; fill:none" points="
  684.314,1054.61 684.314,1384.24 739.742,1384.24 739.742,1054.61 684.314,1054.61 
  "/>
<path clip-path="url(#clip452)" d="
M739.742 995.845 L739.742 1384.24 L795.17 1384.24 L795.17 995.845 L739.742 995.845 L739.742 995.845  Z
  " fill="#009af9" fill-rule="evenodd" fill-opacity="1"/>
<polyline clip-path="url(#clip452)" style="stroke:#000000; stroke-linecap:butt; stroke-linejoin:round; stroke-width:4; stroke-opacity:1; fill:none" points="
  739.742,995.845 739.742,1384.24 795.17,1384.24 795.17,995.845 739.742,995.845 
  "/>
<path clip-path="url(#clip452)" d="
M795.17 919.188 L795.17 1384.24 L850.597 1384.24 L850.597 919.188 L795.17 919.188 L795.17 919.188  Z
  " fill="#009af9" fill-rule="evenodd" fill-opacity="1"/>
<polyline clip-path="url(#clip452)" style="stroke:#000000; stroke-linecap:butt; stroke-linejoin:round; stroke-width:4; stroke-opacity:1; fill:none" points="
  795.17,919.188 795.17,1384.24 850.597,1384.24 850.597,919.188 795.17,919.188 
  "/>
<path clip-path="url(#clip452)" d="
M850.597 878.304 L850.597 1384.24 L906.025 1384.24 L906.025 878.304 L850.597 878.304 L850.597 878.304  Z
  " fill="#009af9" fill-rule="evenodd" fill-opacity="1"/>
<polyline clip-path="url(#clip452)" style="stroke:#000000; stroke-linecap:butt; stroke-linejoin:round; stroke-width:4; stroke-opacity:1; fill:none" points="
  850.597,878.304 850.597,1384.24 906.025,1384.24 906.025,878.304 850.597,878.304 
  "/>
<path clip-path="url(#clip452)" d="
M906.025 796.537 L906.025 1384.24 L961.453 1384.24 L961.453 796.537 L906.025 796.537 L906.025 796.537  Z
  " fill="#009af9" fill-rule="evenodd" fill-opacity="1"/>
<polyline clip-path="url(#clip452)" style="stroke:#000000; stroke-linecap:butt; stroke-linejoin:round; stroke-width:4; stroke-opacity:1; fill:none" points="
  906.025,796.537 906.025,1384.24 961.453,1384.24 961.453,796.537 906.025,796.537 
  "/>
<path clip-path="url(#clip452)" d="
M961.453 742.878 L961.453 1384.24 L1016.88 1384.24 L1016.88 742.878 L961.453 742.878 L961.453 742.878  Z
  " fill="#009af9" fill-rule="evenodd" fill-opacity="1"/>
<polyline clip-path="url(#clip452)" style="stroke:#000000; stroke-linecap:butt; stroke-linejoin:round; stroke-width:4; stroke-opacity:1; fill:none" points="
  961.453,742.878 961.453,1384.24 1016.88,1384.24 1016.88,742.878 961.453,742.878 
  "/>
<path clip-path="url(#clip452)" d="
M1016.88 620.227 L1016.88 1384.24 L1072.31 1384.24 L1072.31 620.227 L1016.88 620.227 L1016.88 620.227  Z
  " fill="#009af9" fill-rule="evenodd" fill-opacity="1"/>
<polyline clip-path="url(#clip452)" style="stroke:#000000; stroke-linecap:butt; stroke-linejoin:round; stroke-width:4; stroke-opacity:1; fill:none" points="
  1016.88,620.227 1016.88,1384.24 1072.31,1384.24 1072.31,620.227 1016.88,620.227 
  "/>
<path clip-path="url(#clip452)" d="
M1072.31 472.024 L1072.31 1384.24 L1127.74 1384.24 L1127.74 472.024 L1072.31 472.024 L1072.31 472.024  Z
  " fill="#009af9" fill-rule="evenodd" fill-opacity="1"/>
<polyline clip-path="url(#clip452)" style="stroke:#000000; stroke-linecap:butt; stroke-linejoin:round; stroke-width:4; stroke-opacity:1; fill:none" points="
  1072.31,472.024 1072.31,1384.24 1127.74,1384.24 1127.74,472.024 1072.31,472.024 
  "/>
<path clip-path="url(#clip452)" d="
M1127.74 426.03 L1127.74 1384.24 L1183.16 1384.24 L1183.16 426.03 L1127.74 426.03 L1127.74 426.03  Z
  " fill="#009af9" fill-rule="evenodd" fill-opacity="1"/>
<polyline clip-path="url(#clip452)" style="stroke:#000000; stroke-linecap:butt; stroke-linejoin:round; stroke-width:4; stroke-opacity:1; fill:none" points="
  1127.74,426.03 1127.74,1384.24 1183.16,1384.24 1183.16,426.03 1127.74,426.03 
  "/>
<path clip-path="url(#clip452)" d="
M1183.16 308.49 L1183.16 1384.24 L1238.59 1384.24 L1238.59 308.49 L1183.16 308.49 L1183.16 308.49  Z
  " fill="#009af9" fill-rule="evenodd" fill-opacity="1"/>
<polyline clip-path="url(#clip452)" style="stroke:#000000; stroke-linecap:butt; stroke-linejoin:round; stroke-width:4; stroke-opacity:1; fill:none" points="
  1183.16,308.49 1183.16,1384.24 1238.59,1384.24 1238.59,308.49 1183.16,308.49 
  "/>
<path clip-path="url(#clip452)" d="
M1238.59 249.72 L1238.59 1384.24 L1294.02 1384.24 L1294.02 249.72 L1238.59 249.72 L1238.59 249.72  Z
  " fill="#009af9" fill-rule="evenodd" fill-opacity="1"/>
<polyline clip-path="url(#clip452)" style="stroke:#000000; stroke-linecap:butt; stroke-linejoin:round; stroke-width:4; stroke-opacity:1; fill:none" points="
  1238.59,249.72 1238.59,1384.24 1294.02,1384.24 1294.02,249.72 1238.59,249.72 
  "/>
<path clip-path="url(#clip452)" d="
M1294.02 190.95 L1294.02 1384.24 L1349.45 1384.24 L1349.45 190.95 L1294.02 190.95 L1294.02 190.95  Z
  " fill="#009af9" fill-rule="evenodd" fill-opacity="1"/>
<polyline clip-path="url(#clip452)" style="stroke:#000000; stroke-linecap:butt; stroke-linejoin:round; stroke-width:4; stroke-opacity:1; fill:none" points="
  1294.02,190.95 1294.02,1384.24 1349.45,1384.24 1349.45,190.95 1294.02,190.95 
  "/>
<path clip-path="url(#clip452)" d="
M1349.45 132.18 L1349.45 1384.24 L1404.87 1384.24 L1404.87 132.18 L1349.45 132.18 L1349.45 132.18  Z
  " fill="#009af9" fill-rule="evenodd" fill-opacity="1"/>
<polyline clip-path="url(#clip452)" style="stroke:#000000; stroke-linecap:butt; stroke-linejoin:round; stroke-width:4; stroke-opacity:1; fill:none" points="
  1349.45,132.18 1349.45,1384.24 1404.87,1384.24 1404.87,132.18 1349.45,132.18 
  "/>
<path clip-path="url(#clip452)" d="
M1404.87 86.1857 L1404.87 1384.24 L1460.3 1384.24 L1460.3 86.1857 L1404.87 86.1857 L1404.87 86.1857  Z
  " fill="#009af9" fill-rule="evenodd" fill-opacity="1"/>
<polyline clip-path="url(#clip452)" style="stroke:#000000; stroke-linecap:butt; stroke-linejoin:round; stroke-width:4; stroke-opacity:1; fill:none" points="
  1404.87,86.1857 1404.87,1384.24 1460.3,1384.24 1460.3,86.1857 1404.87,86.1857 
  "/>
<path clip-path="url(#clip452)" d="
M1460.3 121.959 L1460.3 1384.24 L1515.73 1384.24 L1515.73 121.959 L1460.3 121.959 L1460.3 121.959  Z
  " fill="#009af9" fill-rule="evenodd" fill-opacity="1"/>
<polyline clip-path="url(#clip452)" style="stroke:#000000; stroke-linecap:butt; stroke-linejoin:round; stroke-width:4; stroke-opacity:1; fill:none" points="
  1460.3,121.959 1460.3,1384.24 1515.73,1384.24 1515.73,121.959 1460.3,121.959 
  "/>
<path clip-path="url(#clip452)" d="
M1515.73 147.511 L1515.73 1384.24 L1571.16 1384.24 L1571.16 147.511 L1515.73 147.511 L1515.73 147.511  Z
  " fill="#009af9" fill-rule="evenodd" fill-opacity="1"/>
<polyline clip-path="url(#clip452)" style="stroke:#000000; stroke-linecap:butt; stroke-linejoin:round; stroke-width:4; stroke-opacity:1; fill:none" points="
  1515.73,147.511 1515.73,1384.24 1571.16,1384.24 1571.16,147.511 1515.73,147.511 
  "/>
<path clip-path="url(#clip452)" d="
M1571.16 244.609 L1571.16 1384.24 L1626.59 1384.24 L1626.59 244.609 L1571.16 244.609 L1571.16 244.609  Z
  " fill="#009af9" fill-rule="evenodd" fill-opacity="1"/>
<polyline clip-path="url(#clip452)" style="stroke:#000000; stroke-linecap:butt; stroke-linejoin:round; stroke-width:4; stroke-opacity:1; fill:none" points="
  1571.16,244.609 1571.16,1384.24 1626.59,1384.24 1626.59,244.609 1571.16,244.609 
  "/>
<path clip-path="url(#clip452)" d="
M1626.59 336.597 L1626.59 1384.24 L1682.01 1384.24 L1682.01 336.597 L1626.59 336.597 L1626.59 336.597  Z
  " fill="#009af9" fill-rule="evenodd" fill-opacity="1"/>
<polyline clip-path="url(#clip452)" style="stroke:#000000; stroke-linecap:butt; stroke-linejoin:round; stroke-width:4; stroke-opacity:1; fill:none" points="
  1626.59,336.597 1626.59,1384.24 1682.01,1384.24 1682.01,336.597 1626.59,336.597 
  "/>
<path clip-path="url(#clip452)" d="
M1682.01 438.806 L1682.01 1384.24 L1737.44 1384.24 L1737.44 438.806 L1682.01 438.806 L1682.01 438.806  Z
  " fill="#009af9" fill-rule="evenodd" fill-opacity="1"/>
<polyline clip-path="url(#clip452)" style="stroke:#000000; stroke-linecap:butt; stroke-linejoin:round; stroke-width:4; stroke-opacity:1; fill:none" points="
  1682.01,438.806 1682.01,1384.24 1737.44,1384.24 1737.44,438.806 1682.01,438.806 
  "/>
<path clip-path="url(#clip452)" d="
M1737.44 569.123 L1737.44 1384.24 L1792.87 1384.24 L1792.87 569.123 L1737.44 569.123 L1737.44 569.123  Z
  " fill="#009af9" fill-rule="evenodd" fill-opacity="1"/>
<polyline clip-path="url(#clip452)" style="stroke:#000000; stroke-linecap:butt; stroke-linejoin:round; stroke-width:4; stroke-opacity:1; fill:none" points="
  1737.44,569.123 1737.44,1384.24 1792.87,1384.24 1792.87,569.123 1737.44,569.123 
  "/>
<path clip-path="url(#clip452)" d="
M1792.87 663.666 L1792.87 1384.24 L1848.3 1384.24 L1848.3 663.666 L1792.87 663.666 L1792.87 663.666  Z
  " fill="#009af9" fill-rule="evenodd" fill-opacity="1"/>
<polyline clip-path="url(#clip452)" style="stroke:#000000; stroke-linecap:butt; stroke-linejoin:round; stroke-width:4; stroke-opacity:1; fill:none" points="
  1792.87,663.666 1792.87,1384.24 1848.3,1384.24 1848.3,663.666 1792.87,663.666 
  "/>
<path clip-path="url(#clip452)" d="
M1848.3 814.424 L1848.3 1384.24 L1903.72 1384.24 L1903.72 814.424 L1848.3 814.424 L1848.3 814.424  Z
  " fill="#009af9" fill-rule="evenodd" fill-opacity="1"/>
<polyline clip-path="url(#clip452)" style="stroke:#000000; stroke-linecap:butt; stroke-linejoin:round; stroke-width:4; stroke-opacity:1; fill:none" points="
  1848.3,814.424 1848.3,1384.24 1903.72,1384.24 1903.72,814.424 1848.3,814.424 
  "/>
<path clip-path="url(#clip452)" d="
M1903.72 939.63 L1903.72 1384.24 L1959.15 1384.24 L1959.15 939.63 L1903.72 939.63 L1903.72 939.63  Z
  " fill="#009af9" fill-rule="evenodd" fill-opacity="1"/>
<polyline clip-path="url(#clip452)" style="stroke:#000000; stroke-linecap:butt; stroke-linejoin:round; stroke-width:4; stroke-opacity:1; fill:none" points="
  1903.72,939.63 1903.72,1384.24 1959.15,1384.24 1959.15,939.63 1903.72,939.63 
  "/>
<path clip-path="url(#clip452)" d="
M1959.15 1087.83 L1959.15 1384.24 L2014.58 1384.24 L2014.58 1087.83 L1959.15 1087.83 L1959.15 1087.83  Z
  " fill="#009af9" fill-rule="evenodd" fill-opacity="1"/>
<polyline clip-path="url(#clip452)" style="stroke:#000000; stroke-linecap:butt; stroke-linejoin:round; stroke-width:4; stroke-opacity:1; fill:none" points="
  1959.15,1087.83 1959.15,1384.24 2014.58,1384.24 2014.58,1087.83 1959.15,1087.83 
  "/>
<path clip-path="url(#clip452)" d="
M2014.58 1207.93 L2014.58 1384.24 L2070.01 1384.24 L2070.01 1207.93 L2014.58 1207.93 L2014.58 1207.93  Z
  " fill="#009af9" fill-rule="evenodd" fill-opacity="1"/>
<polyline clip-path="url(#clip452)" style="stroke:#000000; stroke-linecap:butt; stroke-linejoin:round; stroke-width:4; stroke-opacity:1; fill:none" points="
  2014.58,1207.93 2014.58,1384.24 2070.01,1384.24 2070.01,1207.93 2014.58,1207.93 
  "/>
<path clip-path="url(#clip452)" d="
M2070.01 1297.36 L2070.01 1384.24 L2125.44 1384.24 L2125.44 1297.36 L2070.01 1297.36 L2070.01 1297.36  Z
  " fill="#009af9" fill-rule="evenodd" fill-opacity="1"/>
<polyline clip-path="url(#clip452)" style="stroke:#000000; stroke-linecap:butt; stroke-linejoin:round; stroke-width:4; stroke-opacity:1; fill:none" points="
  2070.01,1297.36 2070.01,1384.24 2125.44,1384.24 2125.44,1297.36 2070.01,1297.36 
  "/>
<path clip-path="url(#clip452)" d="
M2125.44 1356.13 L2125.44 1384.24 L2180.86 1384.24 L2180.86 1356.13 L2125.44 1356.13 L2125.44 1356.13  Z
  " fill="#009af9" fill-rule="evenodd" fill-opacity="1"/>
<polyline clip-path="url(#clip452)" style="stroke:#000000; stroke-linecap:butt; stroke-linejoin:round; stroke-width:4; stroke-opacity:1; fill:none" points="
  2125.44,1356.13 2125.44,1384.24 2180.86,1384.24 2180.86,1356.13 2125.44,1356.13 
  "/>
<path clip-path="url(#clip452)" d="
M2180.86 1379.13 L2180.86 1384.24 L2236.29 1384.24 L2236.29 1379.13 L2180.86 1379.13 L2180.86 1379.13  Z
  " fill="#009af9" fill-rule="evenodd" fill-opacity="1"/>
<polyline clip-path="url(#clip452)" style="stroke:#000000; stroke-linecap:butt; stroke-linejoin:round; stroke-width:4; stroke-opacity:1; fill:none" points="
  2180.86,1379.13 2180.86,1384.24 2236.29,1384.24 2236.29,1379.13 2180.86,1379.13 
  "/>
<circle clip-path="url(#clip452)" style="fill:#009af9; stroke:none; fill-opacity:0" cx="379.462" cy="1379.13" r="2"/>
<circle clip-path="url(#clip452)" style="fill:#009af9; stroke:none; fill-opacity:0" cx="434.889" cy="1361.24" r="2"/>
<circle clip-path="url(#clip452)" style="fill:#009af9; stroke:none; fill-opacity:0" cx="490.317" cy="1333.13" r="2"/>
<circle clip-path="url(#clip452)" style="fill:#009af9; stroke:none; fill-opacity:0" cx="545.745" cy="1276.92" r="2"/>
<circle clip-path="url(#clip452)" style="fill:#009af9; stroke:none; fill-opacity:0" cx="601.173" cy="1202.82" r="2"/>
<circle clip-path="url(#clip452)" style="fill:#009af9; stroke:none; fill-opacity:0" cx="656.6" cy="1100.61" r="2"/>
<circle clip-path="url(#clip452)" style="fill:#009af9; stroke:none; fill-opacity:0" cx="712.028" cy="1054.61" r="2"/>
<circle clip-path="url(#clip452)" style="fill:#009af9; stroke:none; fill-opacity:0" cx="767.456" cy="995.845" r="2"/>
<circle clip-path="url(#clip452)" style="fill:#009af9; stroke:none; fill-opacity:0" cx="822.884" cy="919.188" r="2"/>
<circle clip-path="url(#clip452)" style="fill:#009af9; stroke:none; fill-opacity:0" cx="878.311" cy="878.304" r="2"/>
<circle clip-path="url(#clip452)" style="fill:#009af9; stroke:none; fill-opacity:0" cx="933.739" cy="796.537" r="2"/>
<circle clip-path="url(#clip452)" style="fill:#009af9; stroke:none; fill-opacity:0" cx="989.167" cy="742.878" r="2"/>
<circle clip-path="url(#clip452)" style="fill:#009af9; stroke:none; fill-opacity:0" cx="1044.59" cy="620.227" r="2"/>
<circle clip-path="url(#clip452)" style="fill:#009af9; stroke:none; fill-opacity:0" cx="1100.02" cy="472.024" r="2"/>
<circle clip-path="url(#clip452)" style="fill:#009af9; stroke:none; fill-opacity:0" cx="1155.45" cy="426.03" r="2"/>
<circle clip-path="url(#clip452)" style="fill:#009af9; stroke:none; fill-opacity:0" cx="1210.88" cy="308.49" r="2"/>
<circle clip-path="url(#clip452)" style="fill:#009af9; stroke:none; fill-opacity:0" cx="1266.31" cy="249.72" r="2"/>
<circle clip-path="url(#clip452)" style="fill:#009af9; stroke:none; fill-opacity:0" cx="1321.73" cy="190.95" r="2"/>
<circle clip-path="url(#clip452)" style="fill:#009af9; stroke:none; fill-opacity:0" cx="1377.16" cy="132.18" r="2"/>
<circle clip-path="url(#clip452)" style="fill:#009af9; stroke:none; fill-opacity:0" cx="1432.59" cy="86.1857" r="2"/>
<circle clip-path="url(#clip452)" style="fill:#009af9; stroke:none; fill-opacity:0" cx="1488.02" cy="121.959" r="2"/>
<circle clip-path="url(#clip452)" style="fill:#009af9; stroke:none; fill-opacity:0" cx="1543.44" cy="147.511" r="2"/>
<circle clip-path="url(#clip452)" style="fill:#009af9; stroke:none; fill-opacity:0" cx="1598.87" cy="244.609" r="2"/>
<circle clip-path="url(#clip452)" style="fill:#009af9; stroke:none; fill-opacity:0" cx="1654.3" cy="336.597" r="2"/>
<circle clip-path="url(#clip452)" style="fill:#009af9; stroke:none; fill-opacity:0" cx="1709.73" cy="438.806" r="2"/>
<circle clip-path="url(#clip452)" style="fill:#009af9; stroke:none; fill-opacity:0" cx="1765.16" cy="569.123" r="2"/>
<circle clip-path="url(#clip452)" style="fill:#009af9; stroke:none; fill-opacity:0" cx="1820.58" cy="663.666" r="2"/>
<circle clip-path="url(#clip452)" style="fill:#009af9; stroke:none; fill-opacity:0" cx="1876.01" cy="814.424" r="2"/>
<circle clip-path="url(#clip452)" style="fill:#009af9; stroke:none; fill-opacity:0" cx="1931.44" cy="939.63" r="2"/>
<circle clip-path="url(#clip452)" style="fill:#009af9; stroke:none; fill-opacity:0" cx="1986.87" cy="1087.83" r="2"/>
<circle clip-path="url(#clip452)" style="fill:#009af9; stroke:none; fill-opacity:0" cx="2042.29" cy="1207.93" r="2"/>
<circle clip-path="url(#clip452)" style="fill:#009af9; stroke:none; fill-opacity:0" cx="2097.72" cy="1297.36" r="2"/>
<circle clip-path="url(#clip452)" style="fill:#009af9; stroke:none; fill-opacity:0" cx="2153.15" cy="1356.13" r="2"/>
<circle clip-path="url(#clip452)" style="fill:#009af9; stroke:none; fill-opacity:0" cx="2208.58" cy="1379.13" r="2"/>
</svg>
