<?xml version="1.0" encoding="UTF-8" standalone="no"?>
<!-- Created with Inkscape (http://www.inkscape.org/) -->

<svg
   width="121.96465mm"
   height="86.944572mm"
   viewBox="0 0 121.96465 86.944572"
   version="1.1"
   id="svg5"
   inkscape:version="1.1.1 (3bf5ae0, 2021-09-20)"
   sodipodi:docname="drawing.svg"
   xmlns:inkscape="http://www.inkscape.org/namespaces/inkscape"
   xmlns:sodipodi="http://sodipodi.sourceforge.net/DTD/sodipodi-0.dtd"
   xmlns="http://www.w3.org/2000/svg"
   xmlns:svg="http://www.w3.org/2000/svg">
  <sodipodi:namedview
     id="namedview7"
     pagecolor="#ffffff"
     bordercolor="#666666"
     borderopacity="1.0"
     inkscape:pageshadow="2"
     inkscape:pageopacity="0.0"
     inkscape:pagecheckerboard="0"
     inkscape:document-units="mm"
     showgrid="false"
     inkscape:zoom="0.75187991"
     inkscape:cx="260.01493"
     inkscape:cy="44.554987"
     inkscape:window-width="1852"
     inkscape:window-height="1016"
     inkscape:window-x="68"
     inkscape:window-y="27"
     inkscape:window-maximized="1"
     inkscape:current-layer="g145"
     fit-margin-top="0"
     fit-margin-left="0"
     fit-margin-right="0"
     fit-margin-bottom="0" />
  <defs
     id="defs2">
    <style
       id="style9">
      @font-face {
        font-family: &quot;Virgil&quot;;
        src: url(&quot;https://excalidraw.com/Virgil.woff2&quot;);
      }
      @font-face {
        font-family: &quot;Cascadia&quot;;
        src: url(&quot;https://excalidraw.com/Cascadia.woff2&quot;);
      }
    </style>
  </defs>
  <g
     inkscape:label="Layer 1"
     inkscape:groupmode="layer"
     id="layer1"
     transform="translate(-36.352973,-80.632904)">
    <!-- svg-source:excalidraw -->
    <g
       stroke-linecap="round"
       transform="matrix(0.26458333,0,0,0.26458333,60.362336,98.350938)"
       id="g15">
      <path
         d="m 1.58,-0.91 c 89.35,0.94 178.35,0.32 287.4,3.82 M -0.89,-0.25 c 111.41,2.75 220.7,2.43 289.06,1.14 m 0.92,1.45 c 0.28,56.3 2.56,113.4 1.84,193.84 M 287.14,1.37 c 0.95,71.11 2.3,144.6 -0.81,194.05 m 1.38,-2.26 c -92.09,-1.78 -183.98,-1.27 -289.94,2.11 m 290,0.85 C 186.95,194.66 86.16,194.78 0.37,194.15 m -4.31,3.72 C 3.17,154.4 3.19,112.11 0.32,0.14 M -1.65,196.91 C -1.4,125.66 -2,58.01 0.32,1.41"
         stroke="#000000"
         stroke-width="2"
         fill="none"
         id="path13" />
    </g>
    <g
       stroke-linecap="round"
       transform="matrix(0.26458333,0,0,0.26458333,91.375762,117.51681)"
       id="g19">
      <path
         d="m 15.16,1.36 c 4.37,-1.51 12.1,-1.29 16.45,0.47 4.35,1.75 7.67,6.13 9.66,10.06 1.98,3.92 3.17,9.35 2.24,13.49 -0.94,4.14 -3.93,8.69 -7.84,11.34 -3.91,2.64 -10.79,4.79 -15.62,4.53 C 15.23,40.99 9.9,38.41 6.71,35.15 3.53,31.88 1.58,25.98 0.93,21.66 0.28,17.33 0.04,12.84 2.84,9.21 5.63,5.58 15.31,1.39 17.69,-0.14 20.07,-1.66 17.31,-0.26 17.11,0.06 M 31.3,3.67 c 3.96,1.68 7.63,4.96 9.33,8.64 1.7,3.69 1.98,9.59 0.9,13.47 -1.09,3.89 -3.44,7.26 -7.41,9.85 -3.97,2.6 -11.7,6.21 -16.42,5.71 C 12.99,40.85 8.59,36.03 5.83,32.69 3.07,29.35 1.52,25.54 1.15,21.3 0.78,17.07 0.93,10.62 3.6,7.28 6.26,3.95 12.43,2.24 17.13,1.3 c 4.7,-0.93 12,0.27 14.67,0.37 2.68,0.1 1.74,-0.11 1.4,0.23"
         stroke="#5f3dc4"
         stroke-width="2"
         fill="none"
         id="path17" />
    </g>
    <g
       stroke-linecap="round"
       id="g25"
       transform="matrix(0.26458333,0,0,0.26458333,33.640994,77.499248)">
      <g
         transform="translate(238.21655,190.58873)"
         id="g23">
        <path
           d="M -0.93,-0.68 C -1.41,7.73 -2.04,41.48 -2.37,49.85 M 0.78,1.58 c -0.7,8.14 -4.02,38.98 -4.21,46.65"
           stroke="#5f3dc4"
           stroke-width="2"
           fill="none"
           id="path21" />
      </g>
    </g>
    <g
       stroke-linecap="round"
       id="g31"
       transform="matrix(0.26458333,0,0,0.26458333,33.640994,77.499248)">
      <g
         transform="translate(235.94423,240.91415)"
         id="g29">
        <path
           d="m -0.68,-0.22 c 3.49,5 17.54,24.11 20.99,29.29 M 1.16,-1.38 c 3.47,5.22 15.62,26.52 18.7,31.6"
           stroke="#5f3dc4"
           stroke-width="2"
           fill="none"
           id="path27" />
      </g>
    </g>
    <g
       stroke-linecap="round"
       id="g37"
       transform="matrix(0.26458333,0,0,0.26458333,33.640994,77.499248)">
      <g
         transform="translate(233.12308,239.08507)"
         id="g35">
        <path
           d="m -0.22,0.95 c -2.73,4.84 -14.55,22.94 -17.1,27.42 M -1.79,0.4 C -4.06,4.96 -12.67,21.79 -15,26.6"
           stroke="#5f3dc4"
           stroke-width="2"
           fill="none"
           id="path33" />
      </g>
    </g>
    <g
       stroke-linecap="round"
       id="g43"
       transform="matrix(0.26458333,0,0,0.26458333,33.640994,77.499248)">
      <g
         transform="translate(210.73008,217.86017)"
         id="g41">
        <path
           d="m 0.95,-0.75 c 4.49,-2.52 21.18,-11.93 25.31,-14.6 M -0.01,1.47 c 4.45,-2.82 21.5,-15.55 25.67,-18.4"
           stroke="#5f3dc4"
           stroke-width="2"
           fill="none"
           id="path39" />
      </g>
    </g>
    <g
       stroke-linecap="round"
       id="g49"
       transform="matrix(0.26458333,0,0,0.26458333,33.640994,77.499248)">
      <g
         transform="translate(236.00262,200.59965)"
         id="g47">
        <path
           d="m -0.75,0.67 c 3.26,3.5 16.99,17.64 20.1,21.29 M 1.05,-0.03 c 3.22,3.64 15.24,20.16 17.9,23.6"
           stroke="#5f3dc4"
           stroke-width="2"
           fill="none"
           id="path45" />
      </g>
    </g>
    <g
       stroke-linecap="round"
       transform="matrix(0.26458333,0,0,0.26458333,52.65792,115.89691)"
       id="g53">
      <path
         d="m 10.38,0.72 c 2.79,-1.2 7.79,-1.36 10.81,-0.1 3.03,1.27 5.96,4.81 7.33,7.71 1.36,2.89 1.41,6.86 0.87,9.68 -0.54,2.82 -1.7,5.49 -4.11,7.25 -2.4,1.76 -6.75,3.44 -10.32,3.29 C 11.38,28.4 6.26,26.6 3.83,24.37 1.4,22.13 0.57,18.24 0.37,15.15 0.18,12.06 0.32,8.22 2.66,5.84 5,3.46 12.11,1.7 14.41,0.89 c 2.3,-0.82 2.13,0.1 2.02,0.07 M 13.31,0.03 c 2.78,-0.67 5.77,0.3 8.45,1.85 2.68,1.54 6.09,4.78 7.62,7.43 1.52,2.65 2.72,5.86 1.53,8.47 -1.19,2.61 -5.41,5.51 -8.67,7.2 -3.25,1.69 -7.82,3.37 -10.83,2.94 C 8.4,27.49 5.94,24.83 4.17,22.4 2.4,19.97 0.62,16.15 0.78,13.34 0.94,10.53 2.92,7.82 5.12,5.57 7.33,3.31 12.72,0.89 14,-0.19 15.29,-1.27 12.79,-1.36 12.81,-0.91"
         stroke="#2b8a3e"
         stroke-width="2"
         fill="none"
         id="path51" />
    </g>
    <g
       stroke-linecap="round"
       transform="matrix(0.26458333,0,0,0.26458333,136.3324,102.8331)"
       id="g57">
      <path
         d="m 8.07,2.27 c 2.72,-1.78 8.48,-3.18 11.79,-2.44 3.3,0.73 6.34,3.89 8.03,6.84 1.69,2.95 2.3,7.35 2.11,10.88 -0.19,3.53 -1.15,7.45 -3.25,10.29 -2.09,2.84 -5.94,6.15 -9.3,6.77 C 14.08,35.22 9.29,33.86 6.55,31.53 3.82,29.2 1.88,24.16 1.04,20.62 0.2,17.08 0.22,13.45 1.51,10.26 2.79,7.07 7.42,2.8 8.73,1.49 10.05,0.18 9.09,2.08 9.4,2.4 M 19.84,1.08 c 3.02,1.18 7.03,4.66 8.77,7.5 1.74,2.83 2.25,6.06 1.68,9.5 -0.56,3.44 -2.59,8.3 -5.08,11.13 -2.49,2.82 -6.35,5.8 -9.83,5.85 C 11.9,35.11 7.08,32.16 4.33,29.5 1.58,26.84 -0.71,22.45 -1.11,19.11 -1.5,15.77 0.24,12.31 1.98,9.44 3.72,6.57 6.36,3.08 9.34,1.89 c 2.98,-1.19 8.57,0.32 10.5,0.4 1.94,0.07 1.18,0.02 1.11,0.03"
         stroke="#c92a2a"
         stroke-width="2"
         fill="none"
         id="path55" />
    </g>
    <g
       stroke-linecap="round"
       id="g71"
       transform="matrix(0.26458333,0,0,0.26458333,33.640994,77.499248)">
      <g
         transform="translate(402.5,95.75)"
         id="g61">
        <path
           d="m -0.7,-0.65 c -7.44,-5.83 -23.05,-31.63 -43.76,-34.67 -20.7,-3.03 -62.3,3.25 -80.48,16.45 -18.18,13.21 -23.93,52.62 -28.57,62.77"
           stroke="#000000"
           stroke-width="2.5"
           fill="none"
           stroke-dasharray="8, 10"
           id="path59" />
      </g>
      <g
         transform="translate(402.5,95.75)"
         id="g65">
        <path
           d="m -156.11,14.85 c -0.1,9.73 3.84,17.76 3.97,29.97"
           stroke="#000000"
           stroke-width="2.5"
           fill="none"
           id="path63" />
      </g>
      <g
         transform="translate(402.5,95.75)"
         id="g69">
        <path
           d="m -136.5,20.88 c -6.29,7.71 -8.56,13.82 -15.64,23.94"
           stroke="#000000"
           stroke-width="2.5"
           fill="none"
           id="path67" />
      </g>
    </g>
    <g
       stroke-linecap="round"
       id="g85"
       transform="matrix(0.26458333,0,0,0.26458333,33.640994,77.499248)">
      <g
         transform="translate(89.374756,138.87513)"
         id="g75">
        <path
           d="m -0.13,1.06 c 5.19,-2.7 17.1,-13.91 30.12,-16.72 13.02,-2.81 31.08,-4.47 48.01,-0.14 16.93,4.32 44.68,21.75 53.57,26.08"
           stroke="#000000"
           stroke-width="2.5"
           fill="none"
           stroke-dasharray="8, 10"
           id="path73" />
      </g>
      <g
         transform="translate(89.374756,138.87513)"
         id="g79">
        <path
           d="m 104.19,5.82 c 5.16,-0.3 11.89,3.56 25.65,5.81"
           stroke="#000000"
           stroke-width="2.5"
           fill="none"
           id="path77" />
      </g>
      <g
         transform="translate(89.374756,138.87513)"
         id="g83">
        <path
           d="m 113.87,-11.88 c 3.27,3.29 8.03,10.75 15.97,23.51"
           stroke="#000000"
           stroke-width="2.5"
           fill="none"
           id="path81" />
      </g>
    </g>
    <g
       transform="matrix(0.26458333,0,0,0.26458333,126.57589,80.806538)"
       id="g91">
      <text
         x="49.5"
         y="14"
         font-family="Virgil, 'Segoe UI Emoji'"
         font-size="16px"
         fill="#c92a2a"
         text-anchor="middle"
         style="white-space:pre"
         direction="ltr"
         id="text87">Jacob heads</text>
      <text
         x="49.5"
         y="34"
         font-family="Virgil, 'Segoe UI Emoji'"
         font-size="16px"
         fill="#c92a2a"
         text-anchor="middle"
         style="white-space:pre"
         direction="ltr"
         id="text89">(-2 pt)</text>
    </g>
    <g
       stroke-linecap="round"
       id="g105"
       transform="matrix(0.26458333,0,0,0.26458333,33.640994,77.499248)">
      <g
         transform="translate(428.18163,53.5)"
         id="g95">
        <path
           d="M -0.25,0.43 C -2.55,6.4 -11.57,30.91 -13.86,36.94 M 1.82,-0.39 C -0.6,5.73 -11.86,28.7 -14.61,35.12"
           stroke="#c92a2a"
           stroke-width="2"
           fill="none"
           id="path93" />
      </g>
      <g
         transform="translate(428.18163,53.5)"
         id="g99">
        <path
           d="m -12.3,16.26 c -0.07,5.51 -1.03,9.36 -1.88,18.25 m 0.45,-18.96 c 0.26,4.86 0.02,9.91 -1.63,18.61"
           stroke="#c92a2a"
           stroke-width="2"
           fill="none"
           id="path97" />
      </g>
      <g
         transform="translate(428.18163,53.5)"
         id="g103">
        <path
           d="m -0.17,21.85 c -3.72,3.83 -8.27,6.02 -14.01,12.66 M -1.6,21.14 c -2.6,3.48 -5.7,7.2 -13.76,13.02"
           stroke="#c92a2a"
           stroke-width="2"
           fill="none"
           id="path101" />
      </g>
    </g>
    <g
       transform="matrix(0.26458333,0,0,0.26458333,42.405316,80.145078)"
       id="g113">
      <text
         x="0"
         y="14"
         font-family="Virgil, 'Segoe UI Emoji'"
         font-size="16px"
         fill="#000000"
         text-anchor="start"
         style="white-space:pre"
         direction="ltr"
         id="text107">New heads are</text>
      <text
         x="0"
         y="34"
         font-family="Virgil, 'Segoe UI Emoji'"
         font-size="16px"
         fill="#000000"
         text-anchor="start"
         style="white-space:pre"
         direction="ltr"
         id="text109">launched for collision </text>
      <text
         x="0"
         y="54"
         font-family="Virgil, 'Segoe UI Emoji'"
         font-size="16px"
         fill="#000000"
         text-anchor="start"
         style="white-space:pre"
         direction="ltr"
         id="text111">with current position</text>
    </g>
    <g
       stroke-linecap="round"
       id="g127"
       transform="matrix(0.26458333,0,0,0.26458333,33.640994,77.499248)">
      <g
         transform="translate(72.359545,77.625)"
         id="g117">
        <path
           d="M 0,0.74 C 6.29,7.5 32.08,33.34 38.7,39.72 M -1.46,0.08 C 5.13,7.1 34.22,34.49 40.99,41.1"
           stroke="#000000"
           stroke-width="2"
           fill="none"
           id="path115" />
      </g>
      <g
         transform="translate(72.359545,77.625)"
         id="g121">
        <path
           d="m 16.49,28.41 c 8.02,6.08 16.6,11.42 23.18,14.55 M 14.49,30.22 c 7.85,1.98 15.43,5.93 26.04,10.54"
           stroke="#000000"
           stroke-width="2"
           fill="none"
           id="path119" />
      </g>
      <g
         transform="translate(72.359545,77.625)"
         id="g125">
        <path
           d="m 29.79,14.53 c 2.85,11.37 6.35,22 9.88,28.43 M 27.79,16.33 c 4.24,5.7 8.16,13.47 12.74,24.43"
           stroke="#000000"
           stroke-width="2"
           fill="none"
           id="path123" />
      </g>
    </g>
    <g
       stroke-linecap="round"
       transform="matrix(0.26458333,0,0,0.26458333,100.44829,115.56618)"
       id="g131">
      <path
         d="m 22.4,-0.54 c 3.7,0.51 8.03,3.36 10.56,5.58 2.52,2.22 4.84,5.09 4.6,7.73 -0.25,2.63 -3.07,6.05 -6.06,8.08 -2.98,2.04 -8.04,3.84 -11.84,4.12 C 15.86,25.26 11.98,24.01 8.7,22.56 5.42,21.11 1.05,18.67 -0.01,16.25 -1.07,13.84 0.71,10.69 2.31,8.07 3.91,5.46 5.88,1.91 9.58,0.58 c 3.7,-1.33 12.05,-0.8 14.93,-0.48 2.88,0.32 2.31,2.11 2.35,2.4 M 25.02,2.41 c 3.26,1.03 7.37,2.1 9.03,4.22 1.65,2.13 1.67,5.78 0.9,8.53 -0.78,2.76 -2.42,6.43 -5.57,8 -3.15,1.57 -9.28,1.65 -13.32,1.43 C 12.02,24.36 7.57,23.72 5.14,21.8 2.7,19.89 1.8,15.73 1.43,13.09 1.07,10.46 1.09,8.22 2.92,6 c 1.83,-2.23 5.45,-5.34 9.5,-6.26 4.06,-0.92 12.37,0.41 14.82,0.76 2.45,0.34 0.28,1.1 -0.1,1.31"
         stroke="#2b8a3e"
         stroke-width="2"
         fill="none"
         id="path129" />
    </g>
    <g
       stroke-linecap="round"
       transform="matrix(0.26458333,0,0,0.26458333,107.3936,119.70029)"
       id="g135">
      <path
         d="m 15.68,-0.27 c 2.97,0.24 7.42,2.97 9.65,5.15 2.23,2.17 3.38,5.03 3.73,7.89 0.35,2.86 0.13,6.49 -1.64,9.29 -1.77,2.8 -5.82,6.35 -8.97,7.51 C 15.3,30.73 11.27,30.45 8.51,29.04 5.76,27.63 3.32,23.98 1.92,21.09 0.52,18.2 -0.47,14.66 0.12,11.71 0.7,8.76 2.53,5.39 5.44,3.39 8.35,1.38 15.35,0.23 17.58,-0.33 19.81,-0.9 18.83,-0.41 18.82,0 m -4.77,-1.36 c 3.27,-0.81 7.41,0.7 10.08,2.99 2.67,2.29 5.44,7.61 5.95,10.74 0.52,3.12 -1.34,5.29 -2.86,7.99 C 25.7,23.07 23.9,27.37 20.95,28.6 18,29.83 12.79,28.55 9.54,27.75 6.3,26.96 3.2,26.23 1.49,23.84 -0.23,21.45 -1.24,16.49 -0.75,13.44 -0.27,10.38 2.27,7.69 4.4,5.49 6.52,3.28 10.27,1.32 12,0.23 c 1.74,-1.08 2.77,-1.46 2.81,-1.27"
         stroke="#2b8a3e"
         stroke-width="2"
         fill="none"
         id="path133" />
    </g>
    <g
       stroke-linecap="round"
       transform="matrix(0.26458333,0,0,0.26458333,107.22823,110.93597)"
       id="g139">
      <path
         d="m 21.65,0.9 c 3.18,0.8 5.75,3.37 7.54,6.02 1.79,2.64 3.16,6.91 3.17,9.85 0.01,2.94 -0.68,5.7 -3.13,7.8 -2.46,2.1 -7.98,4.6 -11.61,4.81 C 13.99,29.6 10.41,27.79 7.44,25.85 4.48,23.91 0.72,20.71 -0.18,17.72 -1.07,14.74 0.43,10.65 2.06,7.93 3.7,5.22 5.92,2.68 9.62,1.42 c 3.69,-1.27 11.92,-1.44 14.6,-1.07 2.68,0.36 1.9,3.03 1.5,3.27 M 15.38,0.34 c 3.09,-0.1 8.3,1.22 11.01,3.11 2.7,1.89 4.39,5.15 5.22,8.24 0.83,3.09 1.4,7.3 -0.26,10.28 -1.65,2.99 -6.61,6.37 -9.68,7.64 -3.06,1.26 -5.44,1.06 -8.72,-0.04 C 9.67,28.47 4.07,25.71 1.99,23.02 -0.08,20.34 0.17,16.57 0.52,13.48 0.87,10.39 1.43,6.8 4.11,4.49 6.8,2.18 14.89,0.41 16.63,-0.4 c 1.74,-0.81 -2.19,-0.33 -2.08,0.03"
         stroke="#c92a2a"
         stroke-width="2"
         fill="none"
         id="path137" />
    </g>
    <g
       transform="matrix(0.26458333,0,0,0.26458333,36.286827,128.96071)"
       id="g145">
      <text
         x="41"
         y="14"
         font-family="Virgil, 'Segoe UI Emoji'"
         font-size="16px"
         fill="#2b8a3e"
         text-anchor="middle"
         style="white-space:pre"
         direction="ltr"
         id="text141">Erin heads</text>
      <text
         x="41"
         y="34"
         font-family="Virgil, 'Segoe UI Emoji'"
         font-size="16px"
         fill="#2b8a3e"
         text-anchor="middle"
         style="white-space:pre"
         direction="ltr"
         id="text143">(+1 pt)</text>
    </g>
    <g
       stroke-linecap="round"
       id="g159"
       transform="matrix(0.26458333,0,0,0.26458333,33.640994,77.499248)">
      <g
         transform="translate(58.75,184.5)"
         id="g149">
        <path
           d="M 0.12,-0.37 C 2.29,-2.97 10.1,-12.42 12.32,-15 M -1.27,-1.61 c 2.05,-3 10.14,-13.01 12.55,-15.18"
           stroke="#2b8a3e"
           stroke-width="2"
           fill="none"
           id="path147" />
      </g>
      <g
         transform="translate(58.75,184.5)"
         id="g153">
        <path
           d="m 7.11,-7.71 c 1.73,-1.34 1.96,-3.9 3.84,-9.63 m -3.55,10 c 0.86,-3.36 2.63,-6.5 4.31,-9.42"
           stroke="#2b8a3e"
           stroke-width="2"
           fill="none"
           id="path151" />
      </g>
      <g
         transform="translate(58.75,184.5)"
         id="g157">
        <path
           d="m 2.08,-12.35 c 2.98,-0.21 4.44,-1.63 8.87,-4.99 m -8.58,5.36 c 2.47,-1.88 5.82,-3.56 9.34,-4.78"
           stroke="#2b8a3e"
           stroke-width="2"
           fill="none"
           id="path155" />
      </g>
    </g>
    <g
       transform="matrix(0.26458333,0,0,0.26458333,112.28839,152.40941)"
       id="g167">
      <text
         x="89"
         y="14"
         font-family="Virgil, 'Segoe UI Emoji'"
         font-size="16px"
         fill="#000000"
         text-anchor="middle"
         style="white-space:pre"
         direction="ltr"
         id="text161">Heads stick to heads </text>
      <text
         x="89"
         y="34"
         font-family="Virgil, 'Segoe UI Emoji'"
         font-size="16px"
         fill="#000000"
         text-anchor="middle"
         style="white-space:pre"
         direction="ltr"
         id="text163">(including yours) and </text>
      <text
         x="89"
         y="54"
         font-family="Virgil, 'Segoe UI Emoji'"
         font-size="16px"
         fill="#000000"
         text-anchor="middle"
         style="white-space:pre"
         direction="ltr"
         id="text165">count for points</text>
    </g>
    <g
       stroke-linecap="round"
       id="g181"
       transform="matrix(0.26458333,0,0,0.26458333,33.640994,77.499248)">
      <g
         transform="translate(351.875,278.875)"
         id="g171">
        <path
           d="M -0.8,-0.32 C -8.94,-13.6 -39.93,-67.67 -48.07,-80.77 M 0.98,-1.54 c -8.3,-13.04 -41.61,-64.9 -49.64,-78.1"
           stroke="#000000"
           stroke-width="2"
           fill="none"
           id="path169" />
      </g>
      <g
         transform="translate(351.875,278.875)"
         id="g175">
        <path
           d="m -25.52,-60.08 c -9.14,-9.41 -14.64,-14.98 -23.1,-18.34 m 24.16,17.52 c -8.83,-6.67 -16.71,-13.62 -23.88,-18.26"
           stroke="#000000"
           stroke-width="2"
           fill="none"
           id="path173" />
      </g>
      <g
         transform="translate(351.875,278.875)"
         id="g179">
        <path
           d="m -42.9,-49.17 c -2.76,-13.24 -1.97,-22.76 -5.72,-29.25 m 6.78,28.43 c -2.68,-10.57 -4.34,-21.42 -6.5,-29.17"
           stroke="#000000"
           stroke-width="2"
           fill="none"
           id="path177" />
      </g>
    </g>
    <g
       stroke-linecap="round"
       transform="matrix(0.26458333,0,0,0.26458333,80.356489,121.27126)"
       id="g185">
      <path
         d="m 17.95,1.2 c 4.64,-0.93 11.53,0.01 15.88,1.87 4.36,1.86 8.45,5.8 10.23,9.29 1.79,3.49 2.07,7.82 0.49,11.67 -1.59,3.85 -5.95,9.11 -9.99,11.42 -4.04,2.32 -9.53,3.12 -14.26,2.46 C 15.56,37.25 9.41,34.43 6.17,31.5 2.93,28.57 0.94,24.27 0.86,20.35 0.77,16.43 2.47,11.2 5.64,7.99 8.81,4.78 17.53,2.28 19.87,1.08 22.21,-0.12 19.82,0.59 19.69,0.81 M 17.18,0.64 c 4.32,-0.98 11.38,-0.19 16,1.66 4.62,1.84 9.71,6.01 11.73,9.42 2.03,3.4 2.05,7.39 0.43,11.01 -1.62,3.61 -6.14,7.96 -10.17,10.68 -4.03,2.71 -9.16,5.61 -14.02,5.61 C 16.28,39.02 9.34,36.44 5.99,33.4 2.64,30.35 1.53,25.06 1.06,20.74 0.59,16.42 0.33,10.65 3.18,7.49 6.03,4.33 15.82,3.04 18.14,1.79 20.46,0.55 17.04,-0.27 17.09,0.03"
         stroke="#2b8a3e"
         stroke-width="2"
         fill="none"
         id="path183" />
    </g>
    <g
       stroke-linecap="round"
       transform="matrix(0.26458333,0,0,0.26458333,61.256879,151.78102)"
       id="g189">
      <path
         d="M -0.3,0.44 C 59.85,0.26 117.49,1.69 162.72,-0.38 M -0.44,0.33 C 56.35,0.35 111.25,0.8 163.99,-0.52 m -2.02,2.04 c 2.49,6.03 0.96,15.23 1.22,21.23 M 163.5,0.93 c -0.26,8.76 0.26,16.7 0.34,24.43 m 0.38,-1.2 C 102.64,24.76 44.99,21.93 1.99,23.69 m 162.24,1.12 C 104.9,24.45 45.17,24.28 -0.2,24.16 m 0.19,1.43 c 0.64,-5.21 -1.13,-11.12 -1.9,-25.7 m 1.49,24.86 C 0.87,18.58 0.17,11.49 0.82,0.13"
         stroke="#000000"
         stroke-width="2"
         fill="none"
         id="path187" />
    </g>
    <g
       transform="matrix(0.26458333,0,0,0.26458333,64.365734,152.57477)"
       id="g193">
      <text
         x="67"
         y="14"
         font-family="Virgil, 'Segoe UI Emoji'"
         font-size="16px"
         fill="#000000"
         text-anchor="middle"
         style="white-space:pre"
         direction="ltr"
         id="text191">Current score: +1</text>
    </g>
  </g>
</svg>
