<?xml version="1.0" encoding="utf-8"?>
<svg xmlns="http://www.w3.org/2000/svg" xmlns:xlink="http://www.w3.org/1999/xlink" width="600" height="400" viewBox="0 0 2400 1600">
<defs>
  <clipPath id="clip300">
    <rect x="0" y="0" width="2400" height="1600"/>
  </clipPath>
</defs>
<path clip-path="url(#clip300)" d="
M0 1600 L2400 1600 L2400 0 L0 0  Z
  " fill="#ffffff" fill-rule="evenodd" fill-opacity="1"/>
<defs>
  <clipPath id="clip301">
    <rect x="480" y="0" width="1681" height="1600"/>
  </clipPath>
</defs>
<path clip-path="url(#clip300)" d="
M249.542 1423.18 L2352.76 1423.18 L2352.76 47.2441 L249.542 47.2441  Z
  " fill="#ffffff" fill-rule="evenodd" fill-opacity="1"/>
<defs>
  <clipPath id="clip302">
    <rect x="249" y="47" width="2104" height="1377"/>
  </clipPath>
</defs>
<polyline clip-path="url(#clip302)" style="stroke:#000000; stroke-linecap:butt; stroke-linejoin:round; stroke-width:2; stroke-opacity:0.1; fill:none" points="
  600.078,1423.18 600.078,47.2441 
  "/>
<polyline clip-path="url(#clip302)" style="stroke:#000000; stroke-linecap:butt; stroke-linejoin:round; stroke-width:2; stroke-opacity:0.1; fill:none" points="
  1184.3,1423.18 1184.3,47.2441 
  "/>
<polyline clip-path="url(#clip302)" style="stroke:#000000; stroke-linecap:butt; stroke-linejoin:round; stroke-width:2; stroke-opacity:0.1; fill:none" points="
  1768.53,1423.18 1768.53,47.2441 
  "/>
<polyline clip-path="url(#clip302)" style="stroke:#000000; stroke-linecap:butt; stroke-linejoin:round; stroke-width:2; stroke-opacity:0.1; fill:none" points="
  2352.76,1423.18 2352.76,47.2441 
  "/>
<polyline clip-path="url(#clip300)" style="stroke:#000000; stroke-linecap:butt; stroke-linejoin:round; stroke-width:4; stroke-opacity:1; fill:none" points="
  249.542,1423.18 2352.76,1423.18 
  "/>
<polyline clip-path="url(#clip300)" style="stroke:#000000; stroke-linecap:butt; stroke-linejoin:round; stroke-width:4; stroke-opacity:1; fill:none" points="
  600.078,1423.18 600.078,1404.28 
  "/>
<polyline clip-path="url(#clip300)" style="stroke:#000000; stroke-linecap:butt; stroke-linejoin:round; stroke-width:4; stroke-opacity:1; fill:none" points="
  1184.3,1423.18 1184.3,1404.28 
  "/>
<polyline clip-path="url(#clip300)" style="stroke:#000000; stroke-linecap:butt; stroke-linejoin:round; stroke-width:4; stroke-opacity:1; fill:none" points="
  1768.53,1423.18 1768.53,1404.28 
  "/>
<polyline clip-path="url(#clip300)" style="stroke:#000000; stroke-linecap:butt; stroke-linejoin:round; stroke-width:4; stroke-opacity:1; fill:none" points="
  2352.76,1423.18 2352.76,1404.28 
  "/>
<path clip-path="url(#clip300)" d="M578.851 1481.64 L595.17 1481.64 L595.17 1485.58 L573.226 1485.58 L573.226 1481.64 Q575.888 1478.89 580.471 1474.26 Q585.078 1469.61 586.258 1468.27 Q588.504 1465.74 589.383 1464.01 Q590.286 1462.25 590.286 1460.56 Q590.286 1457.8 588.342 1456.07 Q586.42 1454.33 583.319 1454.33 Q581.119 1454.33 578.666 1455.09 Q576.235 1455.86 573.457 1457.41 L573.457 1452.69 Q576.282 1451.55 578.735 1450.97 Q581.189 1450.39 583.226 1450.39 Q588.596 1450.39 591.791 1453.08 Q594.985 1455.77 594.985 1460.26 Q594.985 1462.39 594.175 1464.31 Q593.388 1466.2 591.281 1468.8 Q590.703 1469.47 587.601 1472.69 Q584.499 1475.88 578.851 1481.64 Z" fill="#000000" fill-rule="evenodd" fill-opacity="1" /><path clip-path="url(#clip300)" d="M614.985 1454.1 Q611.374 1454.1 609.545 1457.66 Q607.74 1461.2 607.74 1468.33 Q607.74 1475.44 609.545 1479.01 Q611.374 1482.55 614.985 1482.55 Q618.619 1482.55 620.425 1479.01 Q622.253 1475.44 622.253 1468.33 Q622.253 1461.2 620.425 1457.66 Q618.619 1454.1 614.985 1454.1 M614.985 1450.39 Q620.795 1450.39 623.851 1455 Q626.929 1459.58 626.929 1468.33 Q626.929 1477.06 623.851 1481.67 Q620.795 1486.25 614.985 1486.25 Q609.175 1486.25 606.096 1481.67 Q603.041 1477.06 603.041 1468.33 Q603.041 1459.58 606.096 1455 Q609.175 1450.39 614.985 1450.39 Z" fill="#000000" fill-rule="evenodd" fill-opacity="1" /><path clip-path="url(#clip300)" d="M1163.57 1481.64 L1179.89 1481.64 L1179.89 1485.58 L1157.95 1485.58 L1157.95 1481.64 Q1160.61 1478.89 1165.2 1474.26 Q1169.8 1469.61 1170.98 1468.27 Q1173.23 1465.74 1174.11 1464.01 Q1175.01 1462.25 1175.01 1460.56 Q1175.01 1457.8 1173.07 1456.07 Q1171.14 1454.33 1168.04 1454.33 Q1165.84 1454.33 1163.39 1455.09 Q1160.96 1455.86 1158.18 1457.41 L1158.18 1452.69 Q1161.01 1451.55 1163.46 1450.97 Q1165.91 1450.39 1167.95 1450.39 Q1173.32 1450.39 1176.51 1453.08 Q1179.71 1455.77 1179.71 1460.26 Q1179.71 1462.39 1178.9 1464.31 Q1178.11 1466.2 1176.01 1468.8 Q1175.43 1469.47 1172.32 1472.69 Q1169.22 1475.88 1163.57 1481.64 Z" fill="#000000" fill-rule="evenodd" fill-opacity="1" /><path clip-path="url(#clip300)" d="M1189.76 1451.02 L1208.11 1451.02 L1208.11 1454.96 L1194.04 1454.96 L1194.04 1463.43 Q1195.06 1463.08 1196.07 1462.92 Q1197.09 1462.73 1198.11 1462.73 Q1203.9 1462.73 1207.28 1465.9 Q1210.66 1469.08 1210.66 1474.49 Q1210.66 1480.07 1207.19 1483.17 Q1203.71 1486.25 1197.39 1486.25 Q1195.22 1486.25 1192.95 1485.88 Q1190.7 1485.51 1188.3 1484.77 L1188.3 1480.07 Q1190.38 1481.2 1192.6 1481.76 Q1194.82 1482.32 1197.3 1482.32 Q1201.31 1482.32 1203.64 1480.21 Q1205.98 1478.1 1205.98 1474.49 Q1205.98 1470.88 1203.64 1468.77 Q1201.31 1466.67 1197.3 1466.67 Q1195.43 1466.67 1193.55 1467.08 Q1191.7 1467.5 1189.76 1468.38 L1189.76 1451.02 Z" fill="#000000" fill-rule="evenodd" fill-opacity="1" /><path clip-path="url(#clip300)" d="M1757.37 1466.95 Q1760.73 1467.66 1762.6 1469.93 Q1764.5 1472.2 1764.5 1475.53 Q1764.5 1480.65 1760.98 1483.45 Q1757.47 1486.25 1750.98 1486.25 Q1748.81 1486.25 1746.49 1485.81 Q1744.2 1485.39 1741.75 1484.54 L1741.75 1480.02 Q1743.69 1481.16 1746.01 1481.74 Q1748.32 1482.32 1750.84 1482.32 Q1755.24 1482.32 1757.53 1480.58 Q1759.85 1478.84 1759.85 1475.53 Q1759.85 1472.48 1757.7 1470.77 Q1755.57 1469.03 1751.75 1469.03 L1747.72 1469.03 L1747.72 1465.19 L1751.93 1465.19 Q1755.38 1465.19 1757.21 1463.82 Q1759.04 1462.43 1759.04 1459.84 Q1759.04 1457.18 1757.14 1455.77 Q1755.27 1454.33 1751.75 1454.33 Q1749.83 1454.33 1747.63 1454.75 Q1745.43 1455.16 1742.79 1456.04 L1742.79 1451.88 Q1745.45 1451.14 1747.77 1450.77 Q1750.1 1450.39 1752.16 1450.39 Q1757.49 1450.39 1760.59 1452.83 Q1763.69 1455.23 1763.69 1459.35 Q1763.69 1462.22 1762.05 1464.21 Q1760.4 1466.18 1757.37 1466.95 Z" fill="#000000" fill-rule="evenodd" fill-opacity="1" /><path clip-path="url(#clip300)" d="M1783.37 1454.1 Q1779.76 1454.1 1777.93 1457.66 Q1776.12 1461.2 1776.12 1468.33 Q1776.12 1475.44 1777.93 1479.01 Q1779.76 1482.55 1783.37 1482.55 Q1787 1482.55 1788.81 1479.01 Q1790.64 1475.44 1790.64 1468.33 Q1790.64 1461.2 1788.81 1457.66 Q1787 1454.1 1783.37 1454.1 M1783.37 1450.39 Q1789.18 1450.39 1792.23 1455 Q1795.31 1459.58 1795.31 1468.33 Q1795.31 1477.06 1792.23 1481.67 Q1789.18 1486.25 1783.37 1486.25 Q1777.56 1486.25 1774.48 1481.67 Q1771.42 1477.06 1771.42 1468.33 Q1771.42 1459.58 1774.48 1455 Q1777.56 1450.39 1783.37 1450.39 Z" fill="#000000" fill-rule="evenodd" fill-opacity="1" /><path clip-path="url(#clip300)" d="M2342.1 1466.95 Q2345.45 1467.66 2347.33 1469.93 Q2349.23 1472.2 2349.23 1475.53 Q2349.23 1480.65 2345.71 1483.45 Q2342.19 1486.25 2335.71 1486.25 Q2333.53 1486.25 2331.22 1485.81 Q2328.93 1485.39 2326.47 1484.54 L2326.47 1480.02 Q2328.42 1481.16 2330.73 1481.74 Q2333.05 1482.32 2335.57 1482.32 Q2339.97 1482.32 2342.26 1480.58 Q2344.57 1478.84 2344.57 1475.53 Q2344.57 1472.48 2342.42 1470.77 Q2340.29 1469.03 2336.47 1469.03 L2332.44 1469.03 L2332.44 1465.19 L2336.66 1465.19 Q2340.11 1465.19 2341.93 1463.82 Q2343.76 1462.43 2343.76 1459.84 Q2343.76 1457.18 2341.86 1455.77 Q2339.99 1454.33 2336.47 1454.33 Q2334.55 1454.33 2332.35 1454.75 Q2330.15 1455.16 2327.51 1456.04 L2327.51 1451.88 Q2330.18 1451.14 2332.49 1450.77 Q2334.83 1450.39 2336.89 1450.39 Q2342.21 1450.39 2345.31 1452.83 Q2348.42 1455.23 2348.42 1459.35 Q2348.42 1462.22 2346.77 1464.21 Q2345.13 1466.18 2342.1 1466.95 Z" fill="#000000" fill-rule="evenodd" fill-opacity="1" /><path clip-path="url(#clip300)" d="M2358.14 1451.02 L2376.49 1451.02 L2376.49 1454.96 L2362.42 1454.96 L2362.42 1463.43 Q2363.44 1463.08 2364.46 1462.92 Q2365.48 1462.73 2366.49 1462.73 Q2372.28 1462.73 2375.66 1465.9 Q2379.04 1469.08 2379.04 1474.49 Q2379.04 1480.07 2375.57 1483.17 Q2372.1 1486.25 2365.78 1486.25 Q2363.6 1486.25 2361.33 1485.88 Q2359.09 1485.51 2356.68 1484.77 L2356.68 1480.07 Q2358.76 1481.2 2360.99 1481.76 Q2363.21 1482.32 2365.68 1482.32 Q2369.69 1482.32 2372.03 1480.21 Q2374.36 1478.1 2374.36 1474.49 Q2374.36 1470.88 2372.03 1468.77 Q2369.69 1466.67 2365.68 1466.67 Q2363.81 1466.67 2361.93 1467.08 Q2360.08 1467.5 2358.14 1468.38 L2358.14 1451.02 Z" fill="#000000" fill-rule="evenodd" fill-opacity="1" /><path clip-path="url(#clip300)" d="M1043.1 1524.18 L1043.1 1530.96 Q1039.85 1527.94 1036.16 1526.44 Q1032.5 1524.95 1028.36 1524.95 Q1020.21 1524.95 1015.89 1529.95 Q1011.56 1534.91 1011.56 1544.33 Q1011.56 1553.72 1015.89 1558.72 Q1020.21 1563.68 1028.36 1563.68 Q1032.5 1563.68 1036.16 1562.19 Q1039.85 1560.69 1043.1 1557.67 L1043.1 1564.38 Q1039.73 1566.68 1035.94 1567.82 Q1032.18 1568.97 1027.98 1568.97 Q1017.19 1568.97 1010.98 1562.38 Q1004.78 1555.76 1004.78 1544.33 Q1004.78 1532.87 1010.98 1526.28 Q1017.19 1519.66 1027.98 1519.66 Q1032.25 1519.66 1036 1520.81 Q1039.79 1521.92 1043.1 1524.18 Z" fill="#000000" fill-rule="evenodd" fill-opacity="1" /><path clip-path="url(#clip300)" d="M1068.98 1550.12 Q1061.88 1550.12 1059.14 1551.75 Q1056.4 1553.37 1056.4 1557.29 Q1056.4 1560.4 1058.44 1562.25 Q1060.51 1564.07 1064.04 1564.07 Q1068.91 1564.07 1071.84 1560.63 Q1074.8 1557.16 1074.8 1551.43 L1074.8 1550.12 L1068.98 1550.12 M1080.66 1547.71 L1080.66 1568.04 L1074.8 1568.04 L1074.8 1562.63 Q1072.8 1565.88 1069.8 1567.44 Q1066.81 1568.97 1062.48 1568.97 Q1057.01 1568.97 1053.76 1565.91 Q1050.55 1562.82 1050.55 1557.67 Q1050.55 1551.65 1054.56 1548.6 Q1058.6 1545.54 1066.59 1545.54 L1074.8 1545.54 L1074.8 1544.97 Q1074.8 1540.93 1072.13 1538.73 Q1069.48 1536.5 1064.68 1536.5 Q1061.62 1536.5 1058.73 1537.23 Q1055.83 1537.97 1053.16 1539.43 L1053.16 1534.02 Q1056.37 1532.78 1059.4 1532.17 Q1062.42 1531.54 1065.28 1531.54 Q1073.02 1531.54 1076.84 1535.55 Q1080.66 1539.56 1080.66 1547.71 Z" fill="#000000" fill-rule="evenodd" fill-opacity="1" /><path clip-path="url(#clip300)" d="M1113.38 1537.87 Q1112.39 1537.3 1111.21 1537.04 Q1110.07 1536.76 1108.67 1536.76 Q1103.7 1536.76 1101.03 1540 Q1098.39 1543.22 1098.39 1549.27 L1098.39 1568.04 L1092.5 1568.04 L1092.5 1532.4 L1098.39 1532.4 L1098.39 1537.93 Q1100.23 1534.69 1103.19 1533.13 Q1106.15 1531.54 1110.38 1531.54 Q1110.99 1531.54 1111.72 1531.63 Q1112.45 1531.7 1113.34 1531.85 L1113.38 1537.87 Z" fill="#000000" fill-rule="evenodd" fill-opacity="1" /><path clip-path="url(#clip300)" d="M1141.83 1537.81 L1141.83 1518.52 L1147.69 1518.52 L1147.69 1568.04 L1141.83 1568.04 L1141.83 1562.7 Q1139.99 1565.88 1137.15 1567.44 Q1134.35 1568.97 1130.4 1568.97 Q1123.94 1568.97 1119.87 1563.81 Q1115.83 1558.65 1115.83 1550.25 Q1115.83 1541.85 1119.87 1536.69 Q1123.94 1531.54 1130.4 1531.54 Q1134.35 1531.54 1137.15 1533.1 Q1139.99 1534.62 1141.83 1537.81 M1121.87 1550.25 Q1121.87 1556.71 1124.52 1560.4 Q1127.19 1564.07 1131.84 1564.07 Q1136.48 1564.07 1139.16 1560.4 Q1141.83 1556.71 1141.83 1550.25 Q1141.83 1543.79 1139.16 1540.13 Q1136.48 1536.44 1131.84 1536.44 Q1127.19 1536.44 1124.52 1540.13 Q1121.87 1543.79 1121.87 1550.25 Z" fill="#000000" fill-rule="evenodd" fill-opacity="1" /><path clip-path="url(#clip300)" d="M1182.48 1533.45 L1182.48 1538.98 Q1179.99 1537.71 1177.32 1537.07 Q1174.65 1536.44 1171.78 1536.44 Q1167.42 1536.44 1165.23 1537.77 Q1163.06 1539.11 1163.06 1541.79 Q1163.06 1543.82 1164.62 1545 Q1166.18 1546.15 1170.89 1547.2 L1172.9 1547.64 Q1179.13 1548.98 1181.74 1551.43 Q1184.39 1553.85 1184.39 1558.21 Q1184.39 1563.17 1180.44 1566.07 Q1176.52 1568.97 1169.65 1568.97 Q1166.78 1568.97 1163.67 1568.39 Q1160.58 1567.85 1157.14 1566.74 L1157.14 1560.69 Q1160.39 1562.38 1163.54 1563.24 Q1166.69 1564.07 1169.78 1564.07 Q1173.91 1564.07 1176.14 1562.66 Q1178.37 1561.23 1178.37 1558.65 Q1178.37 1556.27 1176.75 1554.99 Q1175.16 1553.72 1169.71 1552.54 L1167.68 1552.07 Q1162.23 1550.92 1159.81 1548.56 Q1157.4 1546.18 1157.4 1542.04 Q1157.4 1537.01 1160.96 1534.27 Q1164.52 1531.54 1171.08 1531.54 Q1174.33 1531.54 1177.19 1532.01 Q1180.06 1532.49 1182.48 1533.45 Z" fill="#000000" fill-rule="evenodd" fill-opacity="1" /><path clip-path="url(#clip300)" d="M1214.43 1532.4 L1220.29 1532.4 L1220.29 1568.04 L1214.43 1568.04 L1214.43 1532.4 M1214.43 1518.52 L1220.29 1518.52 L1220.29 1525.93 L1214.43 1525.93 L1214.43 1518.52 Z" fill="#000000" fill-rule="evenodd" fill-opacity="1" /><path clip-path="url(#clip300)" d="M1262.17 1546.53 L1262.17 1568.04 L1256.32 1568.04 L1256.32 1546.72 Q1256.32 1541.66 1254.35 1539.14 Q1252.37 1536.63 1248.43 1536.63 Q1243.68 1536.63 1240.95 1539.65 Q1238.21 1542.68 1238.21 1547.9 L1238.21 1568.04 L1232.32 1568.04 L1232.32 1532.4 L1238.21 1532.4 L1238.21 1537.93 Q1240.31 1534.72 1243.14 1533.13 Q1246.01 1531.54 1249.73 1531.54 Q1255.87 1531.54 1259.02 1535.36 Q1262.17 1539.14 1262.17 1546.53 Z" fill="#000000" fill-rule="evenodd" fill-opacity="1" /><path clip-path="url(#clip300)" d="M1294.83 1520.52 L1301.26 1520.52 L1301.26 1562.63 L1324.4 1562.63 L1324.4 1568.04 L1294.83 1568.04 L1294.83 1520.52 Z" fill="#000000" fill-rule="evenodd" fill-opacity="1" /><path clip-path="url(#clip300)" d="M1360.24 1548.76 L1360.24 1551.62 L1333.31 1551.62 Q1333.69 1557.67 1336.94 1560.85 Q1340.22 1564 1346.04 1564 Q1349.42 1564 1352.57 1563.17 Q1355.75 1562.35 1358.87 1560.69 L1358.87 1566.23 Q1355.72 1567.57 1352.41 1568.27 Q1349.1 1568.97 1345.69 1568.97 Q1337.16 1568.97 1332.17 1564 Q1327.2 1559.04 1327.2 1550.57 Q1327.2 1541.82 1331.91 1536.69 Q1336.65 1531.54 1344.67 1531.54 Q1351.87 1531.54 1356.04 1536.18 Q1360.24 1540.8 1360.24 1548.76 M1354.38 1547.04 Q1354.32 1542.23 1351.68 1539.37 Q1349.07 1536.5 1344.74 1536.5 Q1339.84 1536.5 1336.88 1539.27 Q1333.95 1542.04 1333.5 1547.07 L1354.38 1547.04 Z" fill="#000000" fill-rule="evenodd" fill-opacity="1" /><path clip-path="url(#clip300)" d="M1387.9 1518.52 L1387.9 1523.39 L1382.3 1523.39 Q1379.14 1523.39 1377.9 1524.66 Q1376.69 1525.93 1376.69 1529.24 L1376.69 1532.4 L1386.34 1532.4 L1386.34 1536.95 L1376.69 1536.95 L1376.69 1568.04 L1370.81 1568.04 L1370.81 1536.95 L1365.2 1536.95 L1365.2 1532.4 L1370.81 1532.4 L1370.81 1529.91 Q1370.81 1523.96 1373.57 1521.26 Q1376.34 1518.52 1382.36 1518.52 L1387.9 1518.52 Z" fill="#000000" fill-rule="evenodd" fill-opacity="1" /><path clip-path="url(#clip300)" d="M1397.45 1522.27 L1397.45 1532.4 L1409.51 1532.4 L1409.51 1536.95 L1397.45 1536.95 L1397.45 1556.3 Q1397.45 1560.66 1398.62 1561.9 Q1399.83 1563.14 1403.49 1563.14 L1409.51 1563.14 L1409.51 1568.04 L1403.49 1568.04 Q1396.71 1568.04 1394.14 1565.53 Q1391.56 1562.98 1391.56 1556.3 L1391.56 1536.95 L1387.26 1536.95 L1387.26 1532.4 L1391.56 1532.4 L1391.56 1522.27 L1397.45 1522.27 Z" fill="#000000" fill-rule="evenodd" fill-opacity="1" /><path clip-path="url(#clip300)" d="M1438.19 1520.52 L1444.62 1520.52 L1444.62 1540 L1467.98 1540 L1467.98 1520.52 L1474.41 1520.52 L1474.41 1568.04 L1467.98 1568.04 L1467.98 1545.41 L1444.62 1545.41 L1444.62 1568.04 L1438.19 1568.04 L1438.19 1520.52 Z" fill="#000000" fill-rule="evenodd" fill-opacity="1" /><path clip-path="url(#clip300)" d="M1503.15 1550.12 Q1496.05 1550.12 1493.31 1551.75 Q1490.58 1553.37 1490.58 1557.29 Q1490.58 1560.4 1492.61 1562.25 Q1494.68 1564.07 1498.22 1564.07 Q1503.09 1564.07 1506.01 1560.63 Q1508.97 1557.16 1508.97 1551.43 L1508.97 1550.12 L1503.15 1550.12 M1514.83 1547.71 L1514.83 1568.04 L1508.97 1568.04 L1508.97 1562.63 Q1506.97 1565.88 1503.98 1567.44 Q1500.98 1568.97 1496.66 1568.97 Q1491.18 1568.97 1487.93 1565.91 Q1484.72 1562.82 1484.72 1557.67 Q1484.72 1551.65 1488.73 1548.6 Q1492.77 1545.54 1500.76 1545.54 L1508.97 1545.54 L1508.97 1544.97 Q1508.97 1540.93 1506.3 1538.73 Q1503.66 1536.5 1498.85 1536.5 Q1495.8 1536.5 1492.9 1537.23 Q1490 1537.97 1487.33 1539.43 L1487.33 1534.02 Q1490.54 1532.78 1493.57 1532.17 Q1496.59 1531.54 1499.46 1531.54 Q1507.19 1531.54 1511.01 1535.55 Q1514.83 1539.56 1514.83 1547.71 Z" fill="#000000" fill-rule="evenodd" fill-opacity="1" /><path clip-path="url(#clip300)" d="M1556.53 1546.53 L1556.53 1568.04 L1550.67 1568.04 L1550.67 1546.72 Q1550.67 1541.66 1548.7 1539.14 Q1546.72 1536.63 1542.78 1536.63 Q1538.03 1536.63 1535.3 1539.65 Q1532.56 1542.68 1532.56 1547.9 L1532.56 1568.04 L1526.67 1568.04 L1526.67 1532.4 L1532.56 1532.4 L1532.56 1537.93 Q1534.66 1534.72 1537.49 1533.13 Q1540.36 1531.54 1544.08 1531.54 Q1550.22 1531.54 1553.37 1535.36 Q1556.53 1539.14 1556.53 1546.53 Z" fill="#000000" fill-rule="evenodd" fill-opacity="1" /><path clip-path="url(#clip300)" d="M1591.66 1537.81 L1591.66 1518.52 L1597.52 1518.52 L1597.52 1568.04 L1591.66 1568.04 L1591.66 1562.7 Q1589.82 1565.88 1586.99 1567.44 Q1584.18 1568.97 1580.24 1568.97 Q1573.78 1568.97 1569.7 1563.81 Q1565.66 1558.65 1565.66 1550.25 Q1565.66 1541.85 1569.7 1536.69 Q1573.78 1531.54 1580.24 1531.54 Q1584.18 1531.54 1586.99 1533.1 Q1589.82 1534.62 1591.66 1537.81 M1571.71 1550.25 Q1571.71 1556.71 1574.35 1560.4 Q1577.02 1564.07 1581.67 1564.07 Q1586.32 1564.07 1588.99 1560.4 Q1591.66 1556.71 1591.66 1550.25 Q1591.66 1543.79 1588.99 1540.13 Q1586.32 1536.44 1581.67 1536.44 Q1577.02 1536.44 1574.35 1540.13 Q1571.71 1543.79 1571.71 1550.25 Z" fill="#000000" fill-rule="evenodd" fill-opacity="1" /><polyline clip-path="url(#clip302)" style="stroke:#000000; stroke-linecap:butt; stroke-linejoin:round; stroke-width:2; stroke-opacity:0.1; fill:none" points="
  249.542,1384.24 2352.76,1384.24 
  "/>
<polyline clip-path="url(#clip302)" style="stroke:#000000; stroke-linecap:butt; stroke-linejoin:round; stroke-width:2; stroke-opacity:0.1; fill:none" points="
  249.542,1102.05 2352.76,1102.05 
  "/>
<polyline clip-path="url(#clip302)" style="stroke:#000000; stroke-linecap:butt; stroke-linejoin:round; stroke-width:2; stroke-opacity:0.1; fill:none" points="
  249.542,819.868 2352.76,819.868 
  "/>
<polyline clip-path="url(#clip302)" style="stroke:#000000; stroke-linecap:butt; stroke-linejoin:round; stroke-width:2; stroke-opacity:0.1; fill:none" points="
  249.542,537.682 2352.76,537.682 
  "/>
<polyline clip-path="url(#clip302)" style="stroke:#000000; stroke-linecap:butt; stroke-linejoin:round; stroke-width:2; stroke-opacity:0.1; fill:none" points="
  249.542,255.497 2352.76,255.497 
  "/>
<polyline clip-path="url(#clip300)" style="stroke:#000000; stroke-linecap:butt; stroke-linejoin:round; stroke-width:4; stroke-opacity:1; fill:none" points="
  249.542,1423.18 249.542,47.2441 
  "/>
<polyline clip-path="url(#clip300)" style="stroke:#000000; stroke-linecap:butt; stroke-linejoin:round; stroke-width:4; stroke-opacity:1; fill:none" points="
  249.542,1384.24 268.44,1384.24 
  "/>
<polyline clip-path="url(#clip300)" style="stroke:#000000; stroke-linecap:butt; stroke-linejoin:round; stroke-width:4; stroke-opacity:1; fill:none" points="
  249.542,1102.05 268.44,1102.05 
  "/>
<polyline clip-path="url(#clip300)" style="stroke:#000000; stroke-linecap:butt; stroke-linejoin:round; stroke-width:4; stroke-opacity:1; fill:none" points="
  249.542,819.868 268.44,819.868 
  "/>
<polyline clip-path="url(#clip300)" style="stroke:#000000; stroke-linecap:butt; stroke-linejoin:round; stroke-width:4; stroke-opacity:1; fill:none" points="
  249.542,537.682 268.44,537.682 
  "/>
<polyline clip-path="url(#clip300)" style="stroke:#000000; stroke-linecap:butt; stroke-linejoin:round; stroke-width:4; stroke-opacity:1; fill:none" points="
  249.542,255.497 268.44,255.497 
  "/>
<path clip-path="url(#clip300)" d="M126.205 1370.04 Q122.593 1370.04 120.765 1373.6 Q118.959 1377.14 118.959 1384.27 Q118.959 1391.38 120.765 1394.94 Q122.593 1398.49 126.205 1398.49 Q129.839 1398.49 131.644 1394.94 Q133.473 1391.38 133.473 1384.27 Q133.473 1377.14 131.644 1373.6 Q129.839 1370.04 126.205 1370.04 M126.205 1366.33 Q132.015 1366.33 135.07 1370.94 Q138.149 1375.52 138.149 1384.27 Q138.149 1393 135.07 1397.61 Q132.015 1402.19 126.205 1402.19 Q120.394 1402.19 117.316 1397.61 Q114.26 1393 114.26 1384.27 Q114.26 1375.52 117.316 1370.94 Q120.394 1366.33 126.205 1366.33 Z" fill="#000000" fill-rule="evenodd" fill-opacity="1" /><path clip-path="url(#clip300)" d="M146.366 1395.64 L151.251 1395.64 L151.251 1401.52 L146.366 1401.52 L146.366 1395.64 Z" fill="#000000" fill-rule="evenodd" fill-opacity="1" /><path clip-path="url(#clip300)" d="M171.436 1370.04 Q167.825 1370.04 165.996 1373.6 Q164.19 1377.14 164.19 1384.27 Q164.19 1391.38 165.996 1394.94 Q167.825 1398.49 171.436 1398.49 Q175.07 1398.49 176.876 1394.94 Q178.704 1391.38 178.704 1384.27 Q178.704 1377.14 176.876 1373.6 Q175.07 1370.04 171.436 1370.04 M171.436 1366.33 Q177.246 1366.33 180.301 1370.94 Q183.38 1375.52 183.38 1384.27 Q183.38 1393 180.301 1397.61 Q177.246 1402.19 171.436 1402.19 Q165.626 1402.19 162.547 1397.61 Q159.491 1393 159.491 1384.27 Q159.491 1375.52 162.547 1370.94 Q165.626 1366.33 171.436 1366.33 Z" fill="#000000" fill-rule="evenodd" fill-opacity="1" /><path clip-path="url(#clip300)" d="M201.598 1370.04 Q197.987 1370.04 196.158 1373.6 Q194.352 1377.14 194.352 1384.27 Q194.352 1391.38 196.158 1394.94 Q197.987 1398.49 201.598 1398.49 Q205.232 1398.49 207.037 1394.94 Q208.866 1391.38 208.866 1384.27 Q208.866 1377.14 207.037 1373.6 Q205.232 1370.04 201.598 1370.04 M201.598 1366.33 Q207.408 1366.33 210.463 1370.94 Q213.542 1375.52 213.542 1384.27 Q213.542 1393 210.463 1397.61 Q207.408 1402.19 201.598 1402.19 Q195.787 1402.19 192.709 1397.61 Q189.653 1393 189.653 1384.27 Q189.653 1375.52 192.709 1370.94 Q195.787 1366.33 201.598 1366.33 Z" fill="#000000" fill-rule="evenodd" fill-opacity="1" /><path clip-path="url(#clip300)" d="M127.2 1087.85 Q123.589 1087.85 121.76 1091.42 Q119.955 1094.96 119.955 1102.09 Q119.955 1109.19 121.76 1112.76 Q123.589 1116.3 127.2 1116.3 Q130.834 1116.3 132.64 1112.76 Q134.468 1109.19 134.468 1102.09 Q134.468 1094.96 132.64 1091.42 Q130.834 1087.85 127.2 1087.85 M127.2 1084.15 Q133.01 1084.15 136.066 1088.75 Q139.144 1093.34 139.144 1102.09 Q139.144 1110.81 136.066 1115.42 Q133.01 1120 127.2 1120 Q121.39 1120 118.311 1115.42 Q115.256 1110.81 115.256 1102.09 Q115.256 1093.34 118.311 1088.75 Q121.39 1084.15 127.2 1084.15 Z" fill="#000000" fill-rule="evenodd" fill-opacity="1" /><path clip-path="url(#clip300)" d="M147.362 1113.45 L152.246 1113.45 L152.246 1119.33 L147.362 1119.33 L147.362 1113.45 Z" fill="#000000" fill-rule="evenodd" fill-opacity="1" /><path clip-path="url(#clip300)" d="M172.431 1087.85 Q168.82 1087.85 166.991 1091.42 Q165.186 1094.96 165.186 1102.09 Q165.186 1109.19 166.991 1112.76 Q168.82 1116.3 172.431 1116.3 Q176.065 1116.3 177.871 1112.76 Q179.7 1109.19 179.7 1102.09 Q179.7 1094.96 177.871 1091.42 Q176.065 1087.85 172.431 1087.85 M172.431 1084.15 Q178.241 1084.15 181.297 1088.75 Q184.376 1093.34 184.376 1102.09 Q184.376 1110.81 181.297 1115.42 Q178.241 1120 172.431 1120 Q166.621 1120 163.542 1115.42 Q160.487 1110.81 160.487 1102.09 Q160.487 1093.34 163.542 1088.75 Q166.621 1084.15 172.431 1084.15 Z" fill="#000000" fill-rule="evenodd" fill-opacity="1" /><path clip-path="url(#clip300)" d="M192.639 1084.77 L210.996 1084.77 L210.996 1088.71 L196.922 1088.71 L196.922 1097.18 Q197.94 1096.83 198.959 1096.67 Q199.977 1096.49 200.996 1096.49 Q206.783 1096.49 210.162 1099.66 Q213.542 1102.83 213.542 1108.25 Q213.542 1113.82 210.07 1116.93 Q206.598 1120 200.278 1120 Q198.102 1120 195.834 1119.63 Q193.588 1119.26 191.181 1118.52 L191.181 1113.82 Q193.264 1114.96 195.487 1115.51 Q197.709 1116.07 200.186 1116.07 Q204.19 1116.07 206.528 1113.96 Q208.866 1111.86 208.866 1108.25 Q208.866 1104.63 206.528 1102.53 Q204.19 1100.42 200.186 1100.42 Q198.311 1100.42 196.436 1100.84 Q194.584 1101.25 192.639 1102.13 L192.639 1084.77 Z" fill="#000000" fill-rule="evenodd" fill-opacity="1" /><path clip-path="url(#clip300)" d="M126.205 805.666 Q122.593 805.666 120.765 809.231 Q118.959 812.773 118.959 819.902 Q118.959 827.009 120.765 830.574 Q122.593 834.115 126.205 834.115 Q129.839 834.115 131.644 830.574 Q133.473 827.009 133.473 819.902 Q133.473 812.773 131.644 809.231 Q129.839 805.666 126.205 805.666 M126.205 801.963 Q132.015 801.963 135.07 806.569 Q138.149 811.152 138.149 819.902 Q138.149 828.629 135.07 833.236 Q132.015 837.819 126.205 837.819 Q120.394 837.819 117.316 833.236 Q114.26 828.629 114.26 819.902 Q114.26 811.152 117.316 806.569 Q120.394 801.963 126.205 801.963 Z" fill="#000000" fill-rule="evenodd" fill-opacity="1" /><path clip-path="url(#clip300)" d="M146.366 831.268 L151.251 831.268 L151.251 837.148 L146.366 837.148 L146.366 831.268 Z" fill="#000000" fill-rule="evenodd" fill-opacity="1" /><path clip-path="url(#clip300)" d="M162.246 833.212 L169.885 833.212 L169.885 806.847 L161.575 808.513 L161.575 804.254 L169.839 802.588 L174.514 802.588 L174.514 833.212 L182.153 833.212 L182.153 837.148 L162.246 837.148 L162.246 833.212 Z" fill="#000000" fill-rule="evenodd" fill-opacity="1" /><path clip-path="url(#clip300)" d="M201.598 805.666 Q197.987 805.666 196.158 809.231 Q194.352 812.773 194.352 819.902 Q194.352 827.009 196.158 830.574 Q197.987 834.115 201.598 834.115 Q205.232 834.115 207.037 830.574 Q208.866 827.009 208.866 819.902 Q208.866 812.773 207.037 809.231 Q205.232 805.666 201.598 805.666 M201.598 801.963 Q207.408 801.963 210.463 806.569 Q213.542 811.152 213.542 819.902 Q213.542 828.629 210.463 833.236 Q207.408 837.819 201.598 837.819 Q195.787 837.819 192.709 833.236 Q189.653 828.629 189.653 819.902 Q189.653 811.152 192.709 806.569 Q195.787 801.963 201.598 801.963 Z" fill="#000000" fill-rule="evenodd" fill-opacity="1" /><path clip-path="url(#clip300)" d="M127.2 523.481 Q123.589 523.481 121.76 527.046 Q119.955 530.587 119.955 537.717 Q119.955 544.823 121.76 548.388 Q123.589 551.93 127.2 551.93 Q130.834 551.93 132.64 548.388 Q134.468 544.823 134.468 537.717 Q134.468 530.587 132.64 527.046 Q130.834 523.481 127.2 523.481 M127.2 519.777 Q133.01 519.777 136.066 524.384 Q139.144 528.967 139.144 537.717 Q139.144 546.444 136.066 551.05 Q133.01 555.634 127.2 555.634 Q121.39 555.634 118.311 551.05 Q115.256 546.444 115.256 537.717 Q115.256 528.967 118.311 524.384 Q121.39 519.777 127.2 519.777 Z" fill="#000000" fill-rule="evenodd" fill-opacity="1" /><path clip-path="url(#clip300)" d="M147.362 549.083 L152.246 549.083 L152.246 554.962 L147.362 554.962 L147.362 549.083 Z" fill="#000000" fill-rule="evenodd" fill-opacity="1" /><path clip-path="url(#clip300)" d="M163.241 551.027 L170.88 551.027 L170.88 524.661 L162.57 526.328 L162.57 522.069 L170.834 520.402 L175.51 520.402 L175.51 551.027 L183.149 551.027 L183.149 554.962 L163.241 554.962 L163.241 551.027 Z" fill="#000000" fill-rule="evenodd" fill-opacity="1" /><path clip-path="url(#clip300)" d="M192.639 520.402 L210.996 520.402 L210.996 524.337 L196.922 524.337 L196.922 532.81 Q197.94 532.462 198.959 532.3 Q199.977 532.115 200.996 532.115 Q206.783 532.115 210.162 535.286 Q213.542 538.458 213.542 543.874 Q213.542 549.453 210.07 552.555 Q206.598 555.634 200.278 555.634 Q198.102 555.634 195.834 555.263 Q193.588 554.893 191.181 554.152 L191.181 549.453 Q193.264 550.587 195.487 551.143 Q197.709 551.698 200.186 551.698 Q204.19 551.698 206.528 549.592 Q208.866 547.485 208.866 543.874 Q208.866 540.263 206.528 538.157 Q204.19 536.05 200.186 536.05 Q198.311 536.05 196.436 536.467 Q194.584 536.884 192.639 537.763 L192.639 520.402 Z" fill="#000000" fill-rule="evenodd" fill-opacity="1" /><path clip-path="url(#clip300)" d="M126.205 241.296 Q122.593 241.296 120.765 244.86 Q118.959 248.402 118.959 255.532 Q118.959 262.638 120.765 266.203 Q122.593 269.744 126.205 269.744 Q129.839 269.744 131.644 266.203 Q133.473 262.638 133.473 255.532 Q133.473 248.402 131.644 244.86 Q129.839 241.296 126.205 241.296 M126.205 237.592 Q132.015 237.592 135.07 242.198 Q138.149 246.782 138.149 255.532 Q138.149 264.258 135.07 268.865 Q132.015 273.448 126.205 273.448 Q120.394 273.448 117.316 268.865 Q114.26 264.258 114.26 255.532 Q114.26 246.782 117.316 242.198 Q120.394 237.592 126.205 237.592 Z" fill="#000000" fill-rule="evenodd" fill-opacity="1" /><path clip-path="url(#clip300)" d="M146.366 266.897 L151.251 266.897 L151.251 272.777 L146.366 272.777 L146.366 266.897 Z" fill="#000000" fill-rule="evenodd" fill-opacity="1" /><path clip-path="url(#clip300)" d="M165.464 268.842 L181.783 268.842 L181.783 272.777 L159.839 272.777 L159.839 268.842 Q162.501 266.087 167.084 261.457 Q171.69 256.805 172.871 255.462 Q175.116 252.939 175.996 251.203 Q176.899 249.444 176.899 247.754 Q176.899 244.999 174.954 243.263 Q173.033 241.527 169.931 241.527 Q167.732 241.527 165.278 242.291 Q162.848 243.055 160.07 244.606 L160.07 239.884 Q162.894 238.749 165.348 238.171 Q167.802 237.592 169.839 237.592 Q175.209 237.592 178.403 240.277 Q181.598 242.962 181.598 247.453 Q181.598 249.583 180.788 251.504 Q180.001 253.402 177.894 255.995 Q177.315 256.666 174.214 259.883 Q171.112 263.078 165.464 268.842 Z" fill="#000000" fill-rule="evenodd" fill-opacity="1" /><path clip-path="url(#clip300)" d="M201.598 241.296 Q197.987 241.296 196.158 244.86 Q194.352 248.402 194.352 255.532 Q194.352 262.638 196.158 266.203 Q197.987 269.744 201.598 269.744 Q205.232 269.744 207.037 266.203 Q208.866 262.638 208.866 255.532 Q208.866 248.402 207.037 244.86 Q205.232 241.296 201.598 241.296 M201.598 237.592 Q207.408 237.592 210.463 242.198 Q213.542 246.782 213.542 255.532 Q213.542 264.258 210.463 268.865 Q207.408 273.448 201.598 273.448 Q195.787 273.448 192.709 268.865 Q189.653 264.258 189.653 255.532 Q189.653 246.782 192.709 242.198 Q195.787 237.592 201.598 237.592 Z" fill="#000000" fill-rule="evenodd" fill-opacity="1" /><path clip-path="url(#clip300)" d="M58.657 779.836 L77.5631 779.836 L77.5631 785.724 L28.3562 785.724 L28.3562 779.836 L33.7671 779.836 Q30.5842 777.99 29.0564 775.189 Q27.4968 772.356 27.4968 768.441 Q27.4968 761.948 32.6531 757.906 Q37.8093 753.832 46.212 753.832 Q54.6147 753.832 59.771 757.906 Q64.9272 761.948 64.9272 768.441 Q64.9272 772.356 63.3994 775.189 Q61.8398 777.99 58.657 779.836 M46.212 759.911 Q39.7508 759.911 36.0905 762.585 Q32.3984 765.226 32.3984 769.873 Q32.3984 774.52 36.0905 777.194 Q39.7508 779.836 46.212 779.836 Q52.6732 779.836 56.3653 777.194 Q60.0256 774.52 60.0256 769.873 Q60.0256 765.226 56.3653 762.585 Q52.6732 759.911 46.212 759.911 Z" fill="#000000" fill-rule="evenodd" fill-opacity="1" /><path clip-path="url(#clip300)" d="M33.7671 720.666 L14.479 720.666 L14.479 714.81 L64.0042 714.81 L64.0042 720.666 L58.657 720.666 Q61.8398 722.512 63.3994 725.345 Q64.9272 728.146 64.9272 732.093 Q64.9272 738.554 59.771 742.628 Q54.6147 746.67 46.212 746.67 Q37.8093 746.67 32.6531 742.628 Q27.4968 738.554 27.4968 732.093 Q27.4968 728.146 29.0564 725.345 Q30.5842 722.512 33.7671 720.666 M46.212 740.623 Q52.6732 740.623 56.3653 737.981 Q60.0256 735.307 60.0256 730.66 Q60.0256 726.014 56.3653 723.34 Q52.6732 720.666 46.212 720.666 Q39.7508 720.666 36.0905 723.34 Q32.3984 726.014 32.3984 730.66 Q32.3984 735.307 36.0905 737.981 Q39.7508 740.623 46.212 740.623 Z" fill="#000000" fill-rule="evenodd" fill-opacity="1" /><path clip-path="url(#clip300)" d="M14.479 684.7 L19.3487 684.7 L19.3487 690.302 Q19.3487 693.453 20.6219 694.694 Q21.895 695.904 25.2052 695.904 L28.3562 695.904 L28.3562 686.26 L32.9077 686.26 L32.9077 695.904 L64.0042 695.904 L64.0042 701.792 L32.9077 701.792 L32.9077 707.394 L28.3562 707.394 L28.3562 701.792 L25.8736 701.792 Q19.9216 701.792 17.2162 699.023 Q14.479 696.254 14.479 690.238 L14.479 684.7 Z" fill="#000000" fill-rule="evenodd" fill-opacity="1" /><path clip-path="url(#clip302)" d="
M307.965 1384.24 L307.965 1384.24 L424.81 1384.24 L424.81 1384.24 L307.965 1384.24 L307.965 1384.24  Z
  " fill="#009af9" fill-rule="evenodd" fill-opacity="1"/>
<polyline clip-path="url(#clip302)" style="stroke:#000000; stroke-linecap:butt; stroke-linejoin:round; stroke-width:4; stroke-opacity:1; fill:none" points="
  307.965,1384.24 307.965,1384.24 424.81,1384.24 307.965,1384.24 
  "/>
<path clip-path="url(#clip302)" d="
M424.81 1384.24 L424.81 1384.24 L541.655 1384.24 L541.655 1384.24 L424.81 1384.24 L424.81 1384.24  Z
  " fill="#009af9" fill-rule="evenodd" fill-opacity="1"/>
<polyline clip-path="url(#clip302)" style="stroke:#000000; stroke-linecap:butt; stroke-linejoin:round; stroke-width:4; stroke-opacity:1; fill:none" points="
  424.81,1384.24 424.81,1384.24 541.655,1384.24 424.81,1384.24 
  "/>
<path clip-path="url(#clip302)" d="
M541.655 1271.36 L541.655 1384.24 L658.5 1384.24 L658.5 1271.36 L541.655 1271.36 L541.655 1271.36  Z
  " fill="#009af9" fill-rule="evenodd" fill-opacity="1"/>
<polyline clip-path="url(#clip302)" style="stroke:#000000; stroke-linecap:butt; stroke-linejoin:round; stroke-width:4; stroke-opacity:1; fill:none" points="
  541.655,1271.36 541.655,1384.24 658.5,1384.24 658.5,1271.36 541.655,1271.36 
  "/>
<path clip-path="url(#clip302)" d="
M658.5 819.868 L658.5 1384.24 L775.346 1384.24 L775.346 819.868 L658.5 819.868 L658.5 819.868  Z
  " fill="#009af9" fill-rule="evenodd" fill-opacity="1"/>
<polyline clip-path="url(#clip302)" style="stroke:#000000; stroke-linecap:butt; stroke-linejoin:round; stroke-width:4; stroke-opacity:1; fill:none" points="
  658.5,819.868 658.5,1384.24 775.346,1384.24 775.346,819.868 658.5,819.868 
  "/>
<path clip-path="url(#clip302)" d="
M775.346 650.556 L775.346 1384.24 L892.191 1384.24 L892.191 650.556 L775.346 650.556 L775.346 650.556  Z
  " fill="#009af9" fill-rule="evenodd" fill-opacity="1"/>
<polyline clip-path="url(#clip302)" style="stroke:#000000; stroke-linecap:butt; stroke-linejoin:round; stroke-width:4; stroke-opacity:1; fill:none" points="
  775.346,650.556 775.346,1384.24 892.191,1384.24 892.191,650.556 775.346,650.556 
  "/>
<path clip-path="url(#clip302)" d="
M892.191 368.371 L892.191 1384.24 L1009.04 1384.24 L1009.04 368.371 L892.191 368.371 L892.191 368.371  Z
  " fill="#009af9" fill-rule="evenodd" fill-opacity="1"/>
<polyline clip-path="url(#clip302)" style="stroke:#000000; stroke-linecap:butt; stroke-linejoin:round; stroke-width:4; stroke-opacity:1; fill:none" points="
  892.191,368.371 892.191,1384.24 1009.04,1384.24 1009.04,368.371 892.191,368.371 
  "/>
<path clip-path="url(#clip302)" d="
M1009.04 86.1857 L1009.04 1384.24 L1125.88 1384.24 L1125.88 86.1857 L1009.04 86.1857 L1009.04 86.1857  Z
  " fill="#009af9" fill-rule="evenodd" fill-opacity="1"/>
<polyline clip-path="url(#clip302)" style="stroke:#000000; stroke-linecap:butt; stroke-linejoin:round; stroke-width:4; stroke-opacity:1; fill:none" points="
  1009.04,86.1857 1009.04,1384.24 1125.88,1384.24 1125.88,86.1857 1009.04,86.1857 
  "/>
<path clip-path="url(#clip302)" d="
M1125.88 368.371 L1125.88 1384.24 L1242.73 1384.24 L1242.73 368.371 L1125.88 368.371 L1125.88 368.371  Z
  " fill="#009af9" fill-rule="evenodd" fill-opacity="1"/>
<polyline clip-path="url(#clip302)" style="stroke:#000000; stroke-linecap:butt; stroke-linejoin:round; stroke-width:4; stroke-opacity:1; fill:none" points="
  1125.88,368.371 1125.88,1384.24 1242.73,1384.24 1242.73,368.371 1125.88,368.371 
  "/>
<path clip-path="url(#clip302)" d="
M1242.73 876.305 L1242.73 1384.24 L1359.57 1384.24 L1359.57 876.305 L1242.73 876.305 L1242.73 876.305  Z
  " fill="#009af9" fill-rule="evenodd" fill-opacity="1"/>
<polyline clip-path="url(#clip302)" style="stroke:#000000; stroke-linecap:butt; stroke-linejoin:round; stroke-width:4; stroke-opacity:1; fill:none" points="
  1242.73,876.305 1242.73,1384.24 1359.57,1384.24 1359.57,876.305 1242.73,876.305 
  "/>
<path clip-path="url(#clip302)" d="
M1359.57 1102.05 L1359.57 1384.24 L1476.42 1384.24 L1476.42 1102.05 L1359.57 1102.05 L1359.57 1102.05  Z
  " fill="#009af9" fill-rule="evenodd" fill-opacity="1"/>
<polyline clip-path="url(#clip302)" style="stroke:#000000; stroke-linecap:butt; stroke-linejoin:round; stroke-width:4; stroke-opacity:1; fill:none" points="
  1359.57,1102.05 1359.57,1384.24 1476.42,1384.24 1476.42,1102.05 1359.57,1102.05 
  "/>
<path clip-path="url(#clip302)" d="
M1476.42 1327.8 L1476.42 1384.24 L1593.26 1384.24 L1593.26 1327.8 L1476.42 1327.8 L1476.42 1327.8  Z
  " fill="#009af9" fill-rule="evenodd" fill-opacity="1"/>
<polyline clip-path="url(#clip302)" style="stroke:#000000; stroke-linecap:butt; stroke-linejoin:round; stroke-width:4; stroke-opacity:1; fill:none" points="
  1476.42,1327.8 1476.42,1384.24 1593.26,1384.24 1593.26,1327.8 1476.42,1327.8 
  "/>
<path clip-path="url(#clip302)" d="
M1593.26 1384.24 L1593.26 1384.24 L1710.11 1384.24 L1710.11 1384.24 L1593.26 1384.24 L1593.26 1384.24  Z
  " fill="#009af9" fill-rule="evenodd" fill-opacity="1"/>
<polyline clip-path="url(#clip302)" style="stroke:#000000; stroke-linecap:butt; stroke-linejoin:round; stroke-width:4; stroke-opacity:1; fill:none" points="
  1593.26,1384.24 1593.26,1384.24 1710.11,1384.24 1593.26,1384.24 
  "/>
<path clip-path="url(#clip302)" d="
M1710.11 1327.8 L1710.11 1384.24 L1826.95 1384.24 L1826.95 1327.8 L1710.11 1327.8 L1710.11 1327.8  Z
  " fill="#009af9" fill-rule="evenodd" fill-opacity="1"/>
<polyline clip-path="url(#clip302)" style="stroke:#000000; stroke-linecap:butt; stroke-linejoin:round; stroke-width:4; stroke-opacity:1; fill:none" points="
  1710.11,1327.8 1710.11,1384.24 1826.95,1384.24 1826.95,1327.8 1710.11,1327.8 
  "/>
<path clip-path="url(#clip302)" d="
M1826.95 1384.24 L1826.95 1384.24 L1943.8 1384.24 L1943.8 1384.24 L1826.95 1384.24 L1826.95 1384.24  Z
  " fill="#009af9" fill-rule="evenodd" fill-opacity="1"/>
<polyline clip-path="url(#clip302)" style="stroke:#000000; stroke-linecap:butt; stroke-linejoin:round; stroke-width:4; stroke-opacity:1; fill:none" points="
  1826.95,1384.24 1826.95,1384.24 1943.8,1384.24 1826.95,1384.24 
  "/>
<path clip-path="url(#clip302)" d="
M1943.8 1384.24 L1943.8 1384.24 L2060.64 1384.24 L2060.64 1384.24 L1943.8 1384.24 L1943.8 1384.24  Z
  " fill="#009af9" fill-rule="evenodd" fill-opacity="1"/>
<polyline clip-path="url(#clip302)" style="stroke:#000000; stroke-linecap:butt; stroke-linejoin:round; stroke-width:4; stroke-opacity:1; fill:none" points="
  1943.8,1384.24 1943.8,1384.24 2060.64,1384.24 1943.8,1384.24 
  "/>
<path clip-path="url(#clip302)" d="
M2060.64 1384.24 L2060.64 1384.24 L2177.49 1384.24 L2177.49 1384.24 L2060.64 1384.24 L2060.64 1384.24  Z
  " fill="#009af9" fill-rule="evenodd" fill-opacity="1"/>
<polyline clip-path="url(#clip302)" style="stroke:#000000; stroke-linecap:butt; stroke-linejoin:round; stroke-width:4; stroke-opacity:1; fill:none" points="
  2060.64,1384.24 2060.64,1384.24 2177.49,1384.24 2060.64,1384.24 
  "/>
<path clip-path="url(#clip302)" d="
M2177.49 1384.24 L2177.49 1384.24 L2294.33 1384.24 L2294.33 1384.24 L2177.49 1384.24 L2177.49 1384.24  Z
  " fill="#009af9" fill-rule="evenodd" fill-opacity="1"/>
<polyline clip-path="url(#clip302)" style="stroke:#000000; stroke-linecap:butt; stroke-linejoin:round; stroke-width:4; stroke-opacity:1; fill:none" points="
  2177.49,1384.24 2177.49,1384.24 2294.33,1384.24 2177.49,1384.24 
  "/>
<circle clip-path="url(#clip302)" style="fill:#009af9; stroke:none; fill-opacity:0" cx="366.387" cy="1384.24" r="2"/>
<circle clip-path="url(#clip302)" style="fill:#009af9; stroke:none; fill-opacity:0" cx="483.232" cy="1384.24" r="2"/>
<circle clip-path="url(#clip302)" style="fill:#009af9; stroke:none; fill-opacity:0" cx="600.078" cy="1271.36" r="2"/>
<circle clip-path="url(#clip302)" style="fill:#009af9; stroke:none; fill-opacity:0" cx="716.923" cy="819.868" r="2"/>
<circle clip-path="url(#clip302)" style="fill:#009af9; stroke:none; fill-opacity:0" cx="833.768" cy="650.556" r="2"/>
<circle clip-path="url(#clip302)" style="fill:#009af9; stroke:none; fill-opacity:0" cx="950.613" cy="368.371" r="2"/>
<circle clip-path="url(#clip302)" style="fill:#009af9; stroke:none; fill-opacity:0" cx="1067.46" cy="86.1857" r="2"/>
<circle clip-path="url(#clip302)" style="fill:#009af9; stroke:none; fill-opacity:0" cx="1184.3" cy="368.371" r="2"/>
<circle clip-path="url(#clip302)" style="fill:#009af9; stroke:none; fill-opacity:0" cx="1301.15" cy="876.305" r="2"/>
<circle clip-path="url(#clip302)" style="fill:#009af9; stroke:none; fill-opacity:0" cx="1417.99" cy="1102.05" r="2"/>
<circle clip-path="url(#clip302)" style="fill:#009af9; stroke:none; fill-opacity:0" cx="1534.84" cy="1327.8" r="2"/>
<circle clip-path="url(#clip302)" style="fill:#009af9; stroke:none; fill-opacity:0" cx="1651.68" cy="1384.24" r="2"/>
<circle clip-path="url(#clip302)" style="fill:#009af9; stroke:none; fill-opacity:0" cx="1768.53" cy="1327.8" r="2"/>
<circle clip-path="url(#clip302)" style="fill:#009af9; stroke:none; fill-opacity:0" cx="1885.38" cy="1384.24" r="2"/>
<circle clip-path="url(#clip302)" style="fill:#009af9; stroke:none; fill-opacity:0" cx="2002.22" cy="1384.24" r="2"/>
<circle clip-path="url(#clip302)" style="fill:#009af9; stroke:none; fill-opacity:0" cx="2119.07" cy="1384.24" r="2"/>
<circle clip-path="url(#clip302)" style="fill:#009af9; stroke:none; fill-opacity:0" cx="2235.91" cy="1384.24" r="2"/>
<polyline clip-path="url(#clip302)" style="stroke:#e26f46; stroke-linecap:butt; stroke-linejoin:round; stroke-width:8; stroke-opacity:1; fill:none" points="
  -1736.83,1384.24 -1700.74,1384.24 -1367.04,1384.24 -1166.5,1384.24 -996.942,1384.24 -812.759,1384.24 -642.958,1384.24 -460.913,1384.24 -249.997,1384.24 -62.5596,1384.24 
  101.806,1384.24 191.408,1384.21 281.009,1383.86 371.143,1381.14 461.277,1366.85 486.191,1357.92 511.104,1345.4 536.018,1328.32 560.931,1305.64 585.845,1276.3 
  610.759,1239.3 635.672,1193.82 660.586,1139.32 684.291,1078.92 707.995,1010.45 731.7,934.593 755.405,852.517 802.814,676.553 850.224,499.847 874.871,414.513 
  899.519,337.483 924.166,271.431 948.813,218.628 961.137,197.762 973.461,180.813 985.784,167.899 998.108,159.097 1010.43,154.442 1022.76,153.923 1035.08,157.491 
  1047.4,165.058 1068.15,186.46 1088.9,218.002 1109.65,258.639 1130.39,307.148 1171.89,422.351 1213.39,552.419 1264.05,716.014 1314.71,870.314 1340.04,940.533 
  1365.37,1005 1390.7,1063.26 1416.03,1115.16 1439.84,1158.2 1463.66,1195.88 1487.47,1228.51 1511.28,1256.47 1535.09,1280.2 1558.9,1300.13 1582.71,1316.73 
  1606.53,1330.44 1682.82,1359.38 1759.12,1373.48 1835.41,1379.86 1911.71,1382.55 1923.45,1382.79 1935.19,1382.99 1946.94,1383.17 1958.68,1383.33 
  "/>
<polyline clip-path="url(#clip302)" style="stroke:#3da44d; stroke-linecap:butt; stroke-linejoin:round; stroke-width:8; stroke-opacity:1; fill:none" points="
  243.315,1383.02 251.124,1382.85 258.933,1382.65 331.136,1379.14 403.34,1369.58 446.731,1358.06 490.123,1339.35 526.81,1315.63 563.497,1282.39 583.423,1259.55 
  603.349,1232.89 623.275,1202.1 643.201,1166.92 661.571,1130.43 679.941,1089.98 698.311,1045.56 716.682,997.264 756.071,881.756 795.46,753.305 841.097,596.652 
  886.733,444.415 907.012,382.233 927.29,325.398 947.568,275.248 967.846,233.009 985.628,203.324 1003.41,181.131 1021.19,166.876 1038.97,160.85 1058.36,163.795 
  1077.75,176.593 1097.14,198.933 1116.52,230.281 1136.03,270.156 1155.53,317.466 1175.03,371.137 1194.53,429.992 1237.66,572.347 1280.78,720.704 1321.82,856.692 
  1362.85,979.812 1384.18,1037.03 1405.51,1089.08 1426.85,1135.78 1448.18,1177.14 1484.09,1235.17 1520.01,1279.9 1563.85,1319.24 1607.7,1345.4 1648.92,1361.19 
  1690.14,1371.06 1756.17,1379.25 1822.2,1382.52 1832.36,1382.79 1842.53,1383.02 
  "/>
<polyline clip-path="url(#clip302)" style="stroke:#c271d2; stroke-linecap:butt; stroke-linejoin:round; stroke-width:8; stroke-opacity:1; fill:none" points="
  -1736.83,1384.24 -1701.21,1384.24 -1371.85,1384.24 -1173.92,1384.24 -1006.58,1384.24 -824.791,1384.24 -657.201,1384.24 -477.527,1384.24 -269.357,1384.24 -84.3597,1384.24 
  77.866,1384.24 166.301,1384.2 254.735,1383.86 343.696,1381.61 432.656,1370.97 481.835,1355.46 531.013,1326.79 555.602,1305.45 580.192,1278.24 604.781,1244.3 
  629.37,1202.87 652.766,1155.99 676.162,1101.56 699.558,1039.63 722.954,970.572 769.747,814.504 816.539,644.068 840.865,554.943 865.192,468.851 889.518,388.51 
  913.845,316.578 938.171,255.491 962.497,207.332 986.824,173.705 1011.15,155.649 1031.63,152.851 1052.11,161.31 1072.58,180.632 1093.06,210.148 1113.54,248.945 
  1134.02,295.912 1154.49,349.793 1174.97,409.235 1224.97,569.11 1274.98,734.552 1299.98,814.233 1324.98,889.788 1349.98,960.094 1374.98,1024.38 1398.48,1078.92 
  1421.98,1127.63 1445.48,1170.56 1468.99,1207.92 1492.49,1240.05 1515.99,1267.37 1539.49,1290.34 1562.99,1309.44 1600.64,1333.19 1638.3,1350.14 1675.95,1361.93 
  1713.6,1369.94 1788.9,1378.7 1864.2,1382.25 1875.79,1382.55 1887.38,1382.81 1898.97,1383.03 1910.56,1383.22 
  "/>
<polyline clip-path="url(#clip302)" style="stroke:#ac8d18; stroke-linecap:butt; stroke-linejoin:round; stroke-width:8; stroke-opacity:1; fill:none" points="
  -1736.83,1384.24 -1700.81,1384.24 -1367.83,1384.24 -1167.73,1384.24 -998.538,1384.24 -814.753,1384.24 -645.318,1384.24 -463.667,1384.24 -253.205,1384.24 -66.1725,1384.24 
  97.8386,1384.24 187.247,1384.22 276.655,1383.95 366.594,1381.65 456.534,1369 481.394,1360.92 506.253,1349.48 531.113,1333.72 555.973,1312.6 580.833,1285.03 
  605.693,1250 630.553,1206.6 655.413,1154.2 679.066,1095.73 702.72,1028.99 726.373,954.577 750.027,873.523 797.334,697.965 844.641,519.073 869.235,431.547 
  893.83,351.665 918.424,282.2 943.018,225.556 955.315,202.657 967.612,183.628 979.909,168.609 992.206,157.699 1004.5,150.953 1016.8,148.382 1029.1,149.958 
  1041.39,155.609 1062.1,174.007 1082.8,202.883 1103.5,241.245 1124.21,287.907 1144.91,341.547 1165.61,400.76 1186.32,464.114 1207.02,530.206 1257.57,695.005 
  1308.12,852.003 1333.4,923.891 1358.68,990.119 1383.95,1050.17 1409.23,1103.81 1432.99,1148.41 1456.75,1187.54 1480.51,1221.48 1504.27,1250.62 1528.03,1275.38 
  1551.79,1296.22 1575.55,1313.59 1599.31,1327.94 1675.44,1358.27 1751.57,1373.05 1827.71,1379.71 1903.84,1382.51 1915.55,1382.76 1927.27,1382.97 1938.99,1383.15 
  1950.7,1383.31 
  "/>
<path clip-path="url(#clip300)" d="
M1665.53 404.149 L2282.65 404.149 L2282.65 93.1086 L1665.53 93.1086  Z
  " fill="#ffffff" fill-rule="evenodd" fill-opacity="1"/>
<polyline clip-path="url(#clip300)" style="stroke:#000000; stroke-linecap:butt; stroke-linejoin:round; stroke-width:4; stroke-opacity:1; fill:none" points="
  1665.53,404.149 2282.65,404.149 2282.65,93.1086 1665.53,93.1086 1665.53,404.149 
  "/>
<path clip-path="url(#clip300)" d="
M1688.9 165.685 L1829.12 165.685 L1829.12 124.213 L1688.9 124.213 L1688.9 165.685  Z
  " fill="#009af9" fill-rule="evenodd" fill-opacity="1"/>
<polyline clip-path="url(#clip300)" style="stroke:#000000; stroke-linecap:butt; stroke-linejoin:round; stroke-width:4; stroke-opacity:1; fill:none" points="
  1688.9,165.685 1829.12,165.685 1829.12,124.213 1688.9,124.213 1688.9,165.685 
  "/>
<path clip-path="url(#clip300)" d="M1852.49 127.669 L1859.45 127.669 L1868.27 151.187 L1877.14 127.669 L1884.11 127.669 L1884.11 162.229 L1879.55 162.229 L1879.55 131.882 L1870.63 155.585 L1865.94 155.585 L1857.02 131.882 L1857.02 162.229 L1852.49 162.229 L1852.49 127.669 Z" fill="#000000" fill-rule="evenodd" fill-opacity="1" /><path clip-path="url(#clip300)" d="M1915.38 148.201 L1915.38 150.284 L1895.8 150.284 Q1896.07 154.682 1898.44 156.997 Q1900.82 159.289 1905.06 159.289 Q1907.51 159.289 1909.8 158.687 Q1912.12 158.085 1914.38 156.881 L1914.38 160.909 Q1912.09 161.881 1909.69 162.391 Q1907.28 162.9 1904.8 162.9 Q1898.6 162.9 1894.96 159.289 Q1891.35 155.678 1891.35 149.52 Q1891.35 143.155 1894.78 139.428 Q1898.23 135.678 1904.06 135.678 Q1909.29 135.678 1912.32 139.057 Q1915.38 142.414 1915.38 148.201 M1911.12 146.951 Q1911.07 143.456 1909.15 141.372 Q1907.26 139.289 1904.11 139.289 Q1900.54 139.289 1898.39 141.303 Q1896.26 143.317 1895.94 146.974 L1911.12 146.951 Z" fill="#000000" fill-rule="evenodd" fill-opacity="1" /><path clip-path="url(#clip300)" d="M1934.15 149.196 Q1928.99 149.196 1927 150.377 Q1925.01 151.557 1925.01 154.405 Q1925.01 156.673 1926.49 158.016 Q1928 159.335 1930.57 159.335 Q1934.11 159.335 1936.24 156.835 Q1938.39 154.312 1938.39 150.145 L1938.39 149.196 L1934.15 149.196 M1942.65 147.437 L1942.65 162.229 L1938.39 162.229 L1938.39 158.293 Q1936.93 160.655 1934.75 161.789 Q1932.58 162.9 1929.43 162.9 Q1925.45 162.9 1923.09 160.678 Q1920.75 158.432 1920.75 154.682 Q1920.75 150.307 1923.67 148.085 Q1926.61 145.863 1932.42 145.863 L1938.39 145.863 L1938.39 145.446 Q1938.39 142.507 1936.44 140.909 Q1934.52 139.289 1931.03 139.289 Q1928.81 139.289 1926.7 139.821 Q1924.59 140.354 1922.65 141.419 L1922.65 137.483 Q1924.99 136.581 1927.19 136.141 Q1929.38 135.678 1931.47 135.678 Q1937.09 135.678 1939.87 138.594 Q1942.65 141.511 1942.65 147.437 Z" fill="#000000" fill-rule="evenodd" fill-opacity="1" /><path clip-path="url(#clip300)" d="M1967.95 137.067 L1967.95 141.094 Q1966.14 140.169 1964.2 139.706 Q1962.25 139.243 1960.17 139.243 Q1957 139.243 1955.4 140.215 Q1953.83 141.187 1953.83 143.131 Q1953.83 144.613 1954.96 145.469 Q1956.1 146.303 1959.52 147.067 L1960.98 147.391 Q1965.52 148.363 1967.42 150.145 Q1969.34 151.905 1969.34 155.076 Q1969.34 158.687 1966.47 160.793 Q1963.62 162.9 1958.62 162.9 Q1956.54 162.9 1954.27 162.483 Q1952.02 162.09 1949.52 161.28 L1949.52 156.881 Q1951.88 158.108 1954.18 158.733 Q1956.47 159.335 1958.71 159.335 Q1961.72 159.335 1963.34 158.317 Q1964.96 157.275 1964.96 155.4 Q1964.96 153.664 1963.78 152.738 Q1962.63 151.812 1958.67 150.956 L1957.19 150.608 Q1953.23 149.775 1951.47 148.062 Q1949.71 146.326 1949.71 143.317 Q1949.71 139.659 1952.3 137.669 Q1954.89 135.678 1959.66 135.678 Q1962.02 135.678 1964.11 136.025 Q1966.19 136.372 1967.95 137.067 Z" fill="#000000" fill-rule="evenodd" fill-opacity="1" /><path clip-path="url(#clip300)" d="M1975.68 151.997 L1975.68 136.303 L1979.94 136.303 L1979.94 151.835 Q1979.94 155.516 1981.38 157.368 Q1982.81 159.196 1985.68 159.196 Q1989.13 159.196 1991.12 156.997 Q1993.13 154.798 1993.13 151.002 L1993.13 136.303 L1997.39 136.303 L1997.39 162.229 L1993.13 162.229 L1993.13 158.247 Q1991.58 160.608 1989.52 161.766 Q1987.49 162.9 1984.78 162.9 Q1980.31 162.9 1978 160.122 Q1975.68 157.344 1975.68 151.997 M1986.4 135.678 L1986.4 135.678 Z" fill="#000000" fill-rule="evenodd" fill-opacity="1" /><path clip-path="url(#clip300)" d="M2021.19 140.284 Q2020.47 139.868 2019.62 139.682 Q2018.78 139.474 2017.76 139.474 Q2014.15 139.474 2012.21 141.835 Q2010.29 144.173 2010.29 148.571 L2010.29 162.229 L2006 162.229 L2006 136.303 L2010.29 136.303 L2010.29 140.331 Q2011.63 137.969 2013.78 136.835 Q2015.94 135.678 2019.01 135.678 Q2019.45 135.678 2019.99 135.747 Q2020.52 135.794 2021.17 135.909 L2021.19 140.284 Z" fill="#000000" fill-rule="evenodd" fill-opacity="1" /><path clip-path="url(#clip300)" d="M2046.79 148.201 L2046.79 150.284 L2027.21 150.284 Q2027.49 154.682 2029.85 156.997 Q2032.23 159.289 2036.47 159.289 Q2038.92 159.289 2041.21 158.687 Q2043.53 158.085 2045.8 156.881 L2045.8 160.909 Q2043.5 161.881 2041.1 162.391 Q2038.69 162.9 2036.21 162.9 Q2030.01 162.9 2026.37 159.289 Q2022.76 155.678 2022.76 149.52 Q2022.76 143.155 2026.19 139.428 Q2029.64 135.678 2035.47 135.678 Q2040.7 135.678 2043.74 139.057 Q2046.79 142.414 2046.79 148.201 M2042.53 146.951 Q2042.49 143.456 2040.56 141.372 Q2038.67 139.289 2035.52 139.289 Q2031.95 139.289 2029.8 141.303 Q2027.67 143.317 2027.35 146.974 L2042.53 146.951 Z" fill="#000000" fill-rule="evenodd" fill-opacity="1" /><path clip-path="url(#clip300)" d="M2070.84 140.238 L2070.84 126.21 L2075.1 126.21 L2075.1 162.229 L2070.84 162.229 L2070.84 158.34 Q2069.5 160.655 2067.44 161.789 Q2065.4 162.9 2062.53 162.9 Q2057.83 162.9 2054.87 159.15 Q2051.93 155.4 2051.93 149.289 Q2051.93 143.178 2054.87 139.428 Q2057.83 135.678 2062.53 135.678 Q2065.4 135.678 2067.44 136.812 Q2069.5 137.923 2070.84 140.238 M2056.33 149.289 Q2056.33 153.988 2058.25 156.673 Q2060.19 159.335 2063.57 159.335 Q2066.95 159.335 2068.9 156.673 Q2070.84 153.988 2070.84 149.289 Q2070.84 144.59 2068.9 141.928 Q2066.95 139.243 2063.57 139.243 Q2060.19 139.243 2058.25 141.928 Q2056.33 144.59 2056.33 149.289 Z" fill="#000000" fill-rule="evenodd" fill-opacity="1" /><polyline clip-path="url(#clip300)" style="stroke:#e26f46; stroke-linecap:butt; stroke-linejoin:round; stroke-width:4; stroke-opacity:1; fill:none" points="
  1688.9,196.789 1829.12,196.789 
  "/>
<path clip-path="url(#clip300)" d="M1852.49 179.509 L1857.16 179.509 L1857.16 210.133 L1873.99 210.133 L1873.99 214.069 L1852.49 214.069 L1852.49 179.509 Z" fill="#000000" fill-rule="evenodd" fill-opacity="1" /><path clip-path="url(#clip300)" d="M1887.93 191.129 Q1884.5 191.129 1882.51 193.814 Q1880.52 196.476 1880.52 201.129 Q1880.52 205.782 1882.49 208.467 Q1884.48 211.129 1887.93 211.129 Q1891.33 211.129 1893.32 208.444 Q1895.31 205.758 1895.31 201.129 Q1895.31 196.522 1893.32 193.837 Q1891.33 191.129 1887.93 191.129 M1887.93 187.518 Q1893.48 187.518 1896.65 191.129 Q1899.82 194.74 1899.82 201.129 Q1899.82 207.495 1896.65 211.129 Q1893.48 214.74 1887.93 214.74 Q1882.35 214.74 1879.18 211.129 Q1876.03 207.495 1876.03 201.129 Q1876.03 194.74 1879.18 191.129 Q1882.35 187.518 1887.93 187.518 Z" fill="#000000" fill-rule="evenodd" fill-opacity="1" /><path clip-path="url(#clip300)" d="M1923.94 200.805 Q1923.94 196.175 1922.02 193.629 Q1920.13 191.083 1916.68 191.083 Q1913.25 191.083 1911.33 193.629 Q1909.43 196.175 1909.43 200.805 Q1909.43 205.411 1911.33 207.958 Q1913.25 210.504 1916.68 210.504 Q1920.13 210.504 1922.02 207.958 Q1923.94 205.411 1923.94 200.805 M1928.2 210.851 Q1928.2 217.471 1925.26 220.689 Q1922.32 223.93 1916.26 223.93 Q1914.01 223.93 1912.02 223.582 Q1910.03 223.258 1908.16 222.564 L1908.16 218.42 Q1910.03 219.439 1911.86 219.925 Q1913.69 220.411 1915.59 220.411 Q1919.78 220.411 1921.86 218.212 Q1923.94 216.036 1923.94 211.615 L1923.94 209.508 Q1922.63 211.8 1920.57 212.934 Q1918.5 214.069 1915.63 214.069 Q1910.87 214.069 1907.95 210.434 Q1905.03 206.8 1905.03 200.805 Q1905.03 194.786 1907.95 191.152 Q1910.87 187.518 1915.63 187.518 Q1918.5 187.518 1920.57 188.652 Q1922.63 189.786 1923.94 192.078 L1923.94 188.143 L1928.2 188.143 L1928.2 210.851 Z" fill="#000000" fill-rule="evenodd" fill-opacity="1" /><path clip-path="url(#clip300)" d="M1937.16 179.509 L1943.46 179.509 L1958.78 208.421 L1958.78 179.509 L1963.32 179.509 L1963.32 214.069 L1957.02 214.069 L1941.7 185.157 L1941.7 214.069 L1937.16 214.069 L1937.16 179.509 Z" fill="#000000" fill-rule="evenodd" fill-opacity="1" /><path clip-path="url(#clip300)" d="M1982.49 191.129 Q1979.06 191.129 1977.07 193.814 Q1975.08 196.476 1975.08 201.129 Q1975.08 205.782 1977.05 208.467 Q1979.04 211.129 1982.49 211.129 Q1985.89 211.129 1987.88 208.444 Q1989.87 205.758 1989.87 201.129 Q1989.87 196.522 1987.88 193.837 Q1985.89 191.129 1982.49 191.129 M1982.49 187.518 Q1988.04 187.518 1991.21 191.129 Q1994.38 194.74 1994.38 201.129 Q1994.38 207.495 1991.21 211.129 Q1988.04 214.74 1982.49 214.74 Q1976.91 214.74 1973.74 211.129 Q1970.59 207.495 1970.59 201.129 Q1970.59 194.74 1973.74 191.129 Q1976.91 187.518 1982.49 187.518 Z" fill="#000000" fill-rule="evenodd" fill-opacity="1" /><path clip-path="url(#clip300)" d="M2016.47 192.124 Q2015.75 191.708 2014.89 191.522 Q2014.06 191.314 2013.04 191.314 Q2009.43 191.314 2007.49 193.675 Q2005.56 196.013 2005.56 200.411 L2005.56 214.069 L2001.28 214.069 L2001.28 188.143 L2005.56 188.143 L2005.56 192.171 Q2006.91 189.809 2009.06 188.675 Q2011.21 187.518 2014.29 187.518 Q2014.73 187.518 2015.26 187.587 Q2015.8 187.634 2016.44 187.749 L2016.47 192.124 Z" fill="#000000" fill-rule="evenodd" fill-opacity="1" /><path clip-path="url(#clip300)" d="M2040.29 193.12 Q2041.88 190.249 2044.11 188.884 Q2046.33 187.518 2049.34 187.518 Q2053.39 187.518 2055.59 190.365 Q2057.79 193.189 2057.79 198.421 L2057.79 214.069 L2053.5 214.069 L2053.5 198.559 Q2053.5 194.833 2052.18 193.027 Q2050.87 191.222 2048.16 191.222 Q2044.85 191.222 2042.93 193.421 Q2041 195.62 2041 199.416 L2041 214.069 L2036.72 214.069 L2036.72 198.559 Q2036.72 194.809 2035.4 193.027 Q2034.08 191.222 2031.33 191.222 Q2028.06 191.222 2026.14 193.444 Q2024.22 195.643 2024.22 199.416 L2024.22 214.069 L2019.94 214.069 L2019.94 188.143 L2024.22 188.143 L2024.22 192.171 Q2025.68 189.786 2027.72 188.652 Q2029.75 187.518 2032.56 187.518 Q2035.38 187.518 2037.35 188.953 Q2039.34 190.388 2040.29 193.12 Z" fill="#000000" fill-rule="evenodd" fill-opacity="1" /><path clip-path="url(#clip300)" d="M2078.06 201.036 Q2072.9 201.036 2070.91 202.217 Q2068.92 203.397 2068.92 206.245 Q2068.92 208.513 2070.4 209.856 Q2071.91 211.175 2074.48 211.175 Q2078.02 211.175 2080.15 208.675 Q2082.3 206.152 2082.3 201.985 L2082.3 201.036 L2078.06 201.036 M2086.56 199.277 L2086.56 214.069 L2082.3 214.069 L2082.3 210.133 Q2080.84 212.495 2078.67 213.629 Q2076.49 214.74 2073.34 214.74 Q2069.36 214.74 2067 212.518 Q2064.66 210.272 2064.66 206.522 Q2064.66 202.147 2067.58 199.925 Q2070.52 197.703 2076.33 197.703 L2082.3 197.703 L2082.3 197.286 Q2082.3 194.347 2080.36 192.749 Q2078.43 191.129 2074.94 191.129 Q2072.72 191.129 2070.61 191.661 Q2068.5 192.194 2066.56 193.259 L2066.56 189.323 Q2068.9 188.421 2071.1 187.981 Q2073.3 187.518 2075.38 187.518 Q2081 187.518 2083.78 190.434 Q2086.56 193.351 2086.56 199.277 Z" fill="#000000" fill-rule="evenodd" fill-opacity="1" /><path clip-path="url(#clip300)" d="M2095.33 178.05 L2099.59 178.05 L2099.59 214.069 L2095.33 214.069 L2095.33 178.05 Z" fill="#000000" fill-rule="evenodd" fill-opacity="1" /><polyline clip-path="url(#clip300)" style="stroke:#3da44d; stroke-linecap:butt; stroke-linejoin:round; stroke-width:4; stroke-opacity:1; fill:none" points="
  1688.9,248.629 1829.12,248.629 
  "/>
<path clip-path="url(#clip300)" d="M1852.49 231.349 L1858.78 231.349 L1874.11 260.261 L1874.11 231.349 L1878.64 231.349 L1878.64 265.909 L1872.35 265.909 L1857.02 236.997 L1857.02 265.909 L1852.49 265.909 L1852.49 231.349 Z" fill="#000000" fill-rule="evenodd" fill-opacity="1" /><path clip-path="url(#clip300)" d="M1897.81 242.969 Q1894.38 242.969 1892.39 245.654 Q1890.4 248.316 1890.4 252.969 Q1890.4 257.622 1892.37 260.307 Q1894.36 262.969 1897.81 262.969 Q1901.21 262.969 1903.2 260.284 Q1905.19 257.598 1905.19 252.969 Q1905.19 248.362 1903.2 245.677 Q1901.21 242.969 1897.81 242.969 M1897.81 239.358 Q1903.37 239.358 1906.54 242.969 Q1909.71 246.58 1909.71 252.969 Q1909.71 259.335 1906.54 262.969 Q1903.37 266.58 1897.81 266.58 Q1892.23 266.58 1889.06 262.969 Q1885.91 259.335 1885.91 252.969 Q1885.91 246.58 1889.06 242.969 Q1892.23 239.358 1897.81 239.358 Z" fill="#000000" fill-rule="evenodd" fill-opacity="1" /><path clip-path="url(#clip300)" d="M1931.79 243.964 Q1931.07 243.548 1930.22 243.362 Q1929.38 243.154 1928.37 243.154 Q1924.75 243.154 1922.81 245.515 Q1920.89 247.853 1920.89 252.251 L1920.89 265.909 L1916.61 265.909 L1916.61 239.983 L1920.89 239.983 L1920.89 244.011 Q1922.23 241.649 1924.38 240.515 Q1926.54 239.358 1929.62 239.358 Q1930.06 239.358 1930.59 239.427 Q1931.12 239.474 1931.77 239.589 L1931.79 243.964 Z" fill="#000000" fill-rule="evenodd" fill-opacity="1" /><path clip-path="url(#clip300)" d="M1955.61 244.96 Q1957.21 242.089 1959.43 240.724 Q1961.65 239.358 1964.66 239.358 Q1968.71 239.358 1970.91 242.205 Q1973.11 245.029 1973.11 250.261 L1973.11 265.909 L1968.83 265.909 L1968.83 250.399 Q1968.83 246.673 1967.51 244.867 Q1966.19 243.062 1963.48 243.062 Q1960.17 243.062 1958.25 245.261 Q1956.33 247.46 1956.33 251.256 L1956.33 265.909 L1952.05 265.909 L1952.05 250.399 Q1952.05 246.649 1950.73 244.867 Q1949.41 243.062 1946.65 243.062 Q1943.39 243.062 1941.47 245.284 Q1939.55 247.483 1939.55 251.256 L1939.55 265.909 L1935.26 265.909 L1935.26 239.983 L1939.55 239.983 L1939.55 244.011 Q1941 241.626 1943.04 240.492 Q1945.08 239.358 1947.88 239.358 Q1950.7 239.358 1952.67 240.793 Q1954.66 242.228 1955.61 244.96 Z" fill="#000000" fill-rule="evenodd" fill-opacity="1" /><path clip-path="url(#clip300)" d="M1993.39 252.876 Q1988.23 252.876 1986.24 254.057 Q1984.25 255.237 1984.25 258.085 Q1984.25 260.353 1985.73 261.696 Q1987.23 263.015 1989.8 263.015 Q1993.34 263.015 1995.47 260.515 Q1997.62 257.992 1997.62 253.825 L1997.62 252.876 L1993.39 252.876 M2001.88 251.117 L2001.88 265.909 L1997.62 265.909 L1997.62 261.973 Q1996.17 264.335 1993.99 265.469 Q1991.81 266.58 1988.67 266.58 Q1984.69 266.58 1982.32 264.358 Q1979.99 262.112 1979.99 258.362 Q1979.99 253.987 1982.9 251.765 Q1985.84 249.543 1991.65 249.543 L1997.62 249.543 L1997.62 249.126 Q1997.62 246.187 1995.68 244.589 Q1993.76 242.969 1990.26 242.969 Q1988.04 242.969 1985.94 243.501 Q1983.83 244.034 1981.88 245.099 L1981.88 241.163 Q1984.22 240.261 1986.42 239.821 Q1988.62 239.358 1990.7 239.358 Q1996.33 239.358 1999.11 242.274 Q2001.88 245.191 2001.88 251.117 Z" fill="#000000" fill-rule="evenodd" fill-opacity="1" /><path clip-path="url(#clip300)" d="M2010.66 229.89 L2014.92 229.89 L2014.92 265.909 L2010.66 265.909 L2010.66 229.89 Z" fill="#000000" fill-rule="evenodd" fill-opacity="1" /><polyline clip-path="url(#clip300)" style="stroke:#c271d2; stroke-linecap:butt; stroke-linejoin:round; stroke-width:4; stroke-opacity:1; fill:none" points="
  1688.9,300.469 1829.12,300.469 
  "/>
<path clip-path="url(#clip300)" d="M1878.04 312.818 L1878.04 303.536 L1870.4 303.536 L1870.4 299.693 L1882.67 299.693 L1882.67 314.531 Q1879.96 316.452 1876.7 317.448 Q1873.44 318.42 1869.73 318.42 Q1861.63 318.42 1857.05 313.698 Q1852.49 308.952 1852.49 300.503 Q1852.49 292.031 1857.05 287.309 Q1861.63 282.564 1869.73 282.564 Q1873.11 282.564 1876.14 283.397 Q1879.2 284.23 1881.77 285.851 L1881.77 290.827 Q1879.18 288.628 1876.26 287.517 Q1873.34 286.406 1870.13 286.406 Q1863.78 286.406 1860.59 289.948 Q1857.42 293.489 1857.42 300.503 Q1857.42 307.494 1860.59 311.036 Q1863.78 314.577 1870.13 314.577 Q1872.6 314.577 1874.55 314.161 Q1876.49 313.721 1878.04 312.818 Z" fill="#000000" fill-rule="evenodd" fill-opacity="1" /><path clip-path="url(#clip300)" d="M1902.81 304.716 Q1897.65 304.716 1895.66 305.897 Q1893.67 307.077 1893.67 309.925 Q1893.67 312.193 1895.15 313.536 Q1896.65 314.855 1899.22 314.855 Q1902.76 314.855 1904.89 312.355 Q1907.05 309.832 1907.05 305.665 L1907.05 304.716 L1902.81 304.716 M1911.31 302.957 L1911.31 317.749 L1907.05 317.749 L1907.05 313.813 Q1905.59 316.175 1903.41 317.309 Q1901.24 318.42 1898.09 318.42 Q1894.11 318.42 1891.75 316.198 Q1889.41 313.952 1889.41 310.202 Q1889.41 305.827 1892.32 303.605 Q1895.26 301.383 1901.07 301.383 L1907.05 301.383 L1907.05 300.966 Q1907.05 298.027 1905.1 296.429 Q1903.18 294.809 1899.69 294.809 Q1897.46 294.809 1895.36 295.341 Q1893.25 295.874 1891.31 296.939 L1891.31 293.003 Q1893.64 292.101 1895.84 291.661 Q1898.04 291.198 1900.13 291.198 Q1905.75 291.198 1908.53 294.114 Q1911.31 297.031 1911.31 302.957 Z" fill="#000000" fill-rule="evenodd" fill-opacity="1" /><path clip-path="url(#clip300)" d="M1940.26 296.8 Q1941.86 293.929 1944.08 292.564 Q1946.31 291.198 1949.32 291.198 Q1953.37 291.198 1955.56 294.045 Q1957.76 296.869 1957.76 302.101 L1957.76 317.749 L1953.48 317.749 L1953.48 302.239 Q1953.48 298.513 1952.16 296.707 Q1950.84 294.902 1948.13 294.902 Q1944.82 294.902 1942.9 297.101 Q1940.98 299.3 1940.98 303.096 L1940.98 317.749 L1936.7 317.749 L1936.7 302.239 Q1936.7 298.489 1935.38 296.707 Q1934.06 294.902 1931.31 294.902 Q1928.04 294.902 1926.12 297.124 Q1924.2 299.323 1924.2 303.096 L1924.2 317.749 L1919.92 317.749 L1919.92 291.823 L1924.2 291.823 L1924.2 295.851 Q1925.66 293.466 1927.69 292.332 Q1929.73 291.198 1932.53 291.198 Q1935.36 291.198 1937.32 292.633 Q1939.32 294.068 1940.26 296.8 Z" fill="#000000" fill-rule="evenodd" fill-opacity="1" /><path clip-path="url(#clip300)" d="M1986.44 296.8 Q1988.04 293.929 1990.26 292.564 Q1992.49 291.198 1995.5 291.198 Q1999.55 291.198 2001.75 294.045 Q2003.94 296.869 2003.94 302.101 L2003.94 317.749 L1999.66 317.749 L1999.66 302.239 Q1999.66 298.513 1998.34 296.707 Q1997.02 294.902 1994.31 294.902 Q1991 294.902 1989.08 297.101 Q1987.16 299.3 1987.16 303.096 L1987.16 317.749 L1982.88 317.749 L1982.88 302.239 Q1982.88 298.489 1981.56 296.707 Q1980.24 294.902 1977.49 294.902 Q1974.22 294.902 1972.3 297.124 Q1970.38 299.323 1970.38 303.096 L1970.38 317.749 L1966.1 317.749 L1966.1 291.823 L1970.38 291.823 L1970.38 295.851 Q1971.84 293.466 1973.88 292.332 Q1975.91 291.198 1978.71 291.198 Q1981.54 291.198 1983.5 292.633 Q1985.5 294.068 1986.44 296.8 Z" fill="#000000" fill-rule="evenodd" fill-opacity="1" /><path clip-path="url(#clip300)" d="M2024.22 304.716 Q2019.06 304.716 2017.07 305.897 Q2015.08 307.077 2015.08 309.925 Q2015.08 312.193 2016.56 313.536 Q2018.06 314.855 2020.63 314.855 Q2024.18 314.855 2026.31 312.355 Q2028.46 309.832 2028.46 305.665 L2028.46 304.716 L2024.22 304.716 M2032.72 302.957 L2032.72 317.749 L2028.46 317.749 L2028.46 313.813 Q2027 316.175 2024.82 317.309 Q2022.65 318.42 2019.5 318.42 Q2015.52 318.42 2013.16 316.198 Q2010.82 313.952 2010.82 310.202 Q2010.82 305.827 2013.74 303.605 Q2016.68 301.383 2022.49 301.383 L2028.46 301.383 L2028.46 300.966 Q2028.46 298.027 2026.51 296.429 Q2024.59 294.809 2021.1 294.809 Q2018.87 294.809 2016.77 295.341 Q2014.66 295.874 2012.72 296.939 L2012.72 293.003 Q2015.06 292.101 2017.25 291.661 Q2019.45 291.198 2021.54 291.198 Q2027.16 291.198 2029.94 294.114 Q2032.72 297.031 2032.72 302.957 Z" fill="#000000" fill-rule="evenodd" fill-opacity="1" /><polyline clip-path="url(#clip300)" style="stroke:#ac8d18; stroke-linecap:butt; stroke-linejoin:round; stroke-width:4; stroke-opacity:1; fill:none" points="
  1688.9,352.309 1829.12,352.309 
  "/>
<path clip-path="url(#clip300)" d="M1852.49 335.029 L1857.16 335.029 L1857.16 369.589 L1852.49 369.589 L1852.49 335.029 Z" fill="#000000" fill-rule="evenodd" fill-opacity="1" /><path clip-path="url(#clip300)" d="M1887.83 353.941 L1887.83 369.589 L1883.57 369.589 L1883.57 354.079 Q1883.57 350.399 1882.14 348.57 Q1880.7 346.742 1877.83 346.742 Q1874.38 346.742 1872.39 348.941 Q1870.4 351.14 1870.4 354.936 L1870.4 369.589 L1866.12 369.589 L1866.12 343.663 L1870.4 343.663 L1870.4 347.691 Q1871.93 345.353 1873.99 344.195 Q1876.07 343.038 1878.78 343.038 Q1883.25 343.038 1885.54 345.816 Q1887.83 348.57 1887.83 353.941 Z" fill="#000000" fill-rule="evenodd" fill-opacity="1" /><path clip-path="url(#clip300)" d="M1893.27 343.663 L1897.79 343.663 L1905.89 365.422 L1913.99 343.663 L1918.5 343.663 L1908.78 369.589 L1903 369.589 L1893.27 343.663 Z" fill="#000000" fill-rule="evenodd" fill-opacity="1" /><path clip-path="url(#clip300)" d="M1946.56 355.561 L1946.56 357.644 L1926.98 357.644 Q1927.25 362.042 1929.62 364.357 Q1932 366.649 1936.24 366.649 Q1938.69 366.649 1940.98 366.047 Q1943.3 365.445 1945.57 364.241 L1945.57 368.269 Q1943.27 369.241 1940.87 369.751 Q1938.46 370.26 1935.98 370.26 Q1929.78 370.26 1926.14 366.649 Q1922.53 363.038 1922.53 356.88 Q1922.53 350.515 1925.96 346.788 Q1929.41 343.038 1935.24 343.038 Q1940.47 343.038 1943.5 346.417 Q1946.56 349.774 1946.56 355.561 M1942.3 354.311 Q1942.25 350.816 1940.33 348.732 Q1938.44 346.649 1935.29 346.649 Q1931.72 346.649 1929.57 348.663 Q1927.44 350.677 1927.12 354.334 L1942.3 354.311 Z" fill="#000000" fill-rule="evenodd" fill-opacity="1" /><path clip-path="url(#clip300)" d="M1968.57 347.644 Q1967.86 347.228 1967 347.042 Q1966.17 346.834 1965.15 346.834 Q1961.54 346.834 1959.59 349.195 Q1957.67 351.533 1957.67 355.931 L1957.67 369.589 L1953.39 369.589 L1953.39 343.663 L1957.67 343.663 L1957.67 347.691 Q1959.01 345.329 1961.17 344.195 Q1963.32 343.038 1966.4 343.038 Q1966.84 343.038 1967.37 343.107 Q1967.9 343.154 1968.55 343.269 L1968.57 347.644 Z" fill="#000000" fill-rule="evenodd" fill-opacity="1" /><path clip-path="url(#clip300)" d="M1989.57 344.427 L1989.57 348.454 Q1987.76 347.529 1985.82 347.066 Q1983.88 346.603 1981.79 346.603 Q1978.62 346.603 1977.02 347.575 Q1975.45 348.547 1975.45 350.491 Q1975.45 351.973 1976.58 352.829 Q1977.72 353.663 1981.14 354.427 L1982.6 354.751 Q1987.14 355.723 1989.04 357.505 Q1990.96 359.265 1990.96 362.436 Q1990.96 366.047 1988.09 368.153 Q1985.24 370.26 1980.24 370.26 Q1978.16 370.26 1975.89 369.843 Q1973.64 369.45 1971.14 368.64 L1971.14 364.241 Q1973.5 365.468 1975.8 366.093 Q1978.09 366.695 1980.33 366.695 Q1983.34 366.695 1984.96 365.677 Q1986.58 364.635 1986.58 362.76 Q1986.58 361.024 1985.4 360.098 Q1984.25 359.172 1980.29 358.316 L1978.81 357.968 Q1974.85 357.135 1973.09 355.422 Q1971.33 353.686 1971.33 350.677 Q1971.33 347.019 1973.92 345.029 Q1976.51 343.038 1981.28 343.038 Q1983.64 343.038 1985.73 343.385 Q1987.81 343.732 1989.57 344.427 Z" fill="#000000" fill-rule="evenodd" fill-opacity="1" /><path clip-path="url(#clip300)" d="M2019.92 355.561 L2019.92 357.644 L2000.33 357.644 Q2000.61 362.042 2002.97 364.357 Q2005.36 366.649 2009.59 366.649 Q2012.05 366.649 2014.34 366.047 Q2016.65 365.445 2018.92 364.241 L2018.92 368.269 Q2016.63 369.241 2014.22 369.751 Q2011.81 370.26 2009.34 370.26 Q2003.13 370.26 1999.5 366.649 Q1995.89 363.038 1995.89 356.88 Q1995.89 350.515 1999.31 346.788 Q2002.76 343.038 2008.6 343.038 Q2013.83 343.038 2016.86 346.417 Q2019.92 349.774 2019.92 355.561 M2015.66 354.311 Q2015.61 350.816 2013.69 348.732 Q2011.79 346.649 2008.64 346.649 Q2005.08 346.649 2002.93 348.663 Q2000.8 350.677 2000.47 354.334 L2015.66 354.311 Z" fill="#000000" fill-rule="evenodd" fill-opacity="1" /><path clip-path="url(#clip300)" d="M2050.66 364.658 L2050.66 355.376 L2043.02 355.376 L2043.02 351.533 L2055.29 351.533 L2055.29 366.371 Q2052.58 368.292 2049.31 369.288 Q2046.05 370.26 2042.35 370.26 Q2034.25 370.26 2029.66 365.538 Q2025.1 360.792 2025.1 352.343 Q2025.1 343.871 2029.66 339.149 Q2034.25 334.404 2042.35 334.404 Q2045.73 334.404 2048.76 335.237 Q2051.81 336.07 2054.38 337.691 L2054.38 342.667 Q2051.79 340.468 2048.87 339.357 Q2045.96 338.246 2042.74 338.246 Q2036.4 338.246 2033.2 341.788 Q2030.03 345.329 2030.03 352.343 Q2030.03 359.334 2033.2 362.876 Q2036.4 366.417 2042.74 366.417 Q2045.22 366.417 2047.16 366.001 Q2049.11 365.561 2050.66 364.658 Z" fill="#000000" fill-rule="evenodd" fill-opacity="1" /><path clip-path="url(#clip300)" d="M2075.43 356.556 Q2070.26 356.556 2068.27 357.737 Q2066.28 358.917 2066.28 361.765 Q2066.28 364.033 2067.76 365.376 Q2069.27 366.695 2071.84 366.695 Q2075.38 366.695 2077.51 364.195 Q2079.66 361.672 2079.66 357.505 L2079.66 356.556 L2075.43 356.556 M2083.92 354.797 L2083.92 369.589 L2079.66 369.589 L2079.66 365.653 Q2078.2 368.015 2076.03 369.149 Q2073.85 370.26 2070.7 370.26 Q2066.72 370.26 2064.36 368.038 Q2062.02 365.792 2062.02 362.042 Q2062.02 357.667 2064.94 355.445 Q2067.88 353.223 2073.69 353.223 L2079.66 353.223 L2079.66 352.806 Q2079.66 349.867 2077.72 348.269 Q2075.8 346.649 2072.3 346.649 Q2070.08 346.649 2067.97 347.181 Q2065.87 347.714 2063.92 348.779 L2063.92 344.843 Q2066.26 343.941 2068.46 343.501 Q2070.66 343.038 2072.74 343.038 Q2078.37 343.038 2081.14 345.954 Q2083.92 348.871 2083.92 354.797 Z" fill="#000000" fill-rule="evenodd" fill-opacity="1" /><path clip-path="url(#clip300)" d="M2092.25 359.357 L2092.25 343.663 L2096.51 343.663 L2096.51 359.195 Q2096.51 362.876 2097.95 364.728 Q2099.38 366.556 2102.25 366.556 Q2105.7 366.556 2107.69 364.357 Q2109.71 362.158 2109.71 358.362 L2109.71 343.663 L2113.97 343.663 L2113.97 369.589 L2109.71 369.589 L2109.71 365.607 Q2108.16 367.968 2106.1 369.126 Q2104.06 370.26 2101.35 370.26 Q2096.88 370.26 2094.57 367.482 Q2092.25 364.704 2092.25 359.357 M2102.97 343.038 L2102.97 343.038 Z" fill="#000000" fill-rule="evenodd" fill-opacity="1" /><path clip-path="url(#clip300)" d="M2139.27 344.427 L2139.27 348.454 Q2137.46 347.529 2135.52 347.066 Q2133.57 346.603 2131.49 346.603 Q2128.32 346.603 2126.72 347.575 Q2125.15 348.547 2125.15 350.491 Q2125.15 351.973 2126.28 352.829 Q2127.42 353.663 2130.84 354.427 L2132.3 354.751 Q2136.84 355.723 2138.74 357.505 Q2140.66 359.265 2140.66 362.436 Q2140.66 366.047 2137.79 368.153 Q2134.94 370.26 2129.94 370.26 Q2127.86 370.26 2125.59 369.843 Q2123.34 369.45 2120.84 368.64 L2120.84 364.241 Q2123.2 365.468 2125.49 366.093 Q2127.79 366.695 2130.03 366.695 Q2133.04 366.695 2134.66 365.677 Q2136.28 364.635 2136.28 362.76 Q2136.28 361.024 2135.1 360.098 Q2133.94 359.172 2129.99 358.316 L2128.5 357.968 Q2124.55 357.135 2122.79 355.422 Q2121.03 353.686 2121.03 350.677 Q2121.03 347.019 2123.62 345.029 Q2126.21 343.038 2130.98 343.038 Q2133.34 343.038 2135.43 343.385 Q2137.51 343.732 2139.27 344.427 Z" fill="#000000" fill-rule="evenodd" fill-opacity="1" /><path clip-path="url(#clip300)" d="M2163.97 344.427 L2163.97 348.454 Q2162.16 347.529 2160.22 347.066 Q2158.27 346.603 2156.19 346.603 Q2153.02 346.603 2151.42 347.575 Q2149.85 348.547 2149.85 350.491 Q2149.85 351.973 2150.98 352.829 Q2152.11 353.663 2155.54 354.427 L2157 354.751 Q2161.54 355.723 2163.43 357.505 Q2165.36 359.265 2165.36 362.436 Q2165.36 366.047 2162.49 368.153 Q2159.64 370.26 2154.64 370.26 Q2152.55 370.26 2150.29 369.843 Q2148.04 369.45 2145.54 368.64 L2145.54 364.241 Q2147.9 365.468 2150.19 366.093 Q2152.49 366.695 2154.73 366.695 Q2157.74 366.695 2159.36 365.677 Q2160.98 364.635 2160.98 362.76 Q2160.98 361.024 2159.8 360.098 Q2158.64 359.172 2154.68 358.316 L2153.2 357.968 Q2149.24 357.135 2147.49 355.422 Q2145.73 353.686 2145.73 350.677 Q2145.73 347.019 2148.32 345.029 Q2150.91 343.038 2155.68 343.038 Q2158.04 343.038 2160.12 343.385 Q2162.21 343.732 2163.97 344.427 Z" fill="#000000" fill-rule="evenodd" fill-opacity="1" /><path clip-path="url(#clip300)" d="M2172.14 343.663 L2176.4 343.663 L2176.4 369.589 L2172.14 369.589 L2172.14 343.663 M2172.14 333.57 L2176.4 333.57 L2176.4 338.964 L2172.14 338.964 L2172.14 333.57 Z" fill="#000000" fill-rule="evenodd" fill-opacity="1" /><path clip-path="url(#clip300)" d="M2197.09 356.556 Q2191.93 356.556 2189.94 357.737 Q2187.95 358.917 2187.95 361.765 Q2187.95 364.033 2189.43 365.376 Q2190.93 366.695 2193.5 366.695 Q2197.05 366.695 2199.17 364.195 Q2201.33 361.672 2201.33 357.505 L2201.33 356.556 L2197.09 356.556 M2205.59 354.797 L2205.59 369.589 L2201.33 369.589 L2201.33 365.653 Q2199.87 368.015 2197.69 369.149 Q2195.52 370.26 2192.37 370.26 Q2188.39 370.26 2186.03 368.038 Q2183.69 365.792 2183.69 362.042 Q2183.69 357.667 2186.61 355.445 Q2189.55 353.223 2195.36 353.223 L2201.33 353.223 L2201.33 352.806 Q2201.33 349.867 2199.38 348.269 Q2197.46 346.649 2193.97 346.649 Q2191.74 346.649 2189.64 347.181 Q2187.53 347.714 2185.59 348.779 L2185.59 344.843 Q2187.92 343.941 2190.12 343.501 Q2192.32 343.038 2194.41 343.038 Q2200.03 343.038 2202.81 345.954 Q2205.59 348.871 2205.59 354.797 Z" fill="#000000" fill-rule="evenodd" fill-opacity="1" /><path clip-path="url(#clip300)" d="M2235.91 353.941 L2235.91 369.589 L2231.65 369.589 L2231.65 354.079 Q2231.65 350.399 2230.22 348.57 Q2228.78 346.742 2225.91 346.742 Q2222.46 346.742 2220.47 348.941 Q2218.48 351.14 2218.48 354.936 L2218.48 369.589 L2214.2 369.589 L2214.2 343.663 L2218.48 343.663 L2218.48 347.691 Q2220.01 345.353 2222.07 344.195 Q2224.15 343.038 2226.86 343.038 Q2231.33 343.038 2233.62 345.816 Q2235.91 348.57 2235.91 353.941 Z" fill="#000000" fill-rule="evenodd" fill-opacity="1" /></svg>
