<?xml version="1.0" encoding="utf-8"?>
<svg xmlns="http://www.w3.org/2000/svg" xmlns:xlink="http://www.w3.org/1999/xlink" width="500" height="500" viewBox="0 0 2000 2000">
<defs>
  <clipPath id="clip090">
    <rect x="0" y="0" width="2000" height="2000"/>
  </clipPath>
</defs>
<path clip-path="url(#clip090)" d="
M0 2000 L2000 2000 L2000 0 L0 0  Z
  " fill="#ffffff" fill-rule="evenodd" fill-opacity="1"/>
<defs>
  <clipPath id="clip091">
    <rect x="400" y="200" width="1401" height="1401"/>
  </clipPath>
</defs>
<path clip-path="url(#clip090)" d="
M239.626 1769.26 L1952.76 1769.26 L1952.76 56.1271 L239.626 56.1271  Z
  " fill="#ffffff" fill-rule="evenodd" fill-opacity="1"/>
<defs>
  <clipPath id="clip092">
    <rect x="239" y="56" width="1714" height="1714"/>
  </clipPath>
</defs>
<polyline clip-path="url(#clip092)" style="stroke:#000000; stroke-linecap:butt; stroke-linejoin:round; stroke-width:2; stroke-opacity:0.1; fill:none" points="
  317.496,1769.26 317.496,56.1271 
  "/>
<polyline clip-path="url(#clip092)" style="stroke:#000000; stroke-linecap:butt; stroke-linejoin:round; stroke-width:2; stroke-opacity:0.1; fill:none" points="
  473.235,1769.26 473.235,56.1271 
  "/>
<polyline clip-path="url(#clip092)" style="stroke:#000000; stroke-linecap:butt; stroke-linejoin:round; stroke-width:2; stroke-opacity:0.1; fill:none" points="
  628.974,1769.26 628.974,56.1271 
  "/>
<polyline clip-path="url(#clip092)" style="stroke:#000000; stroke-linecap:butt; stroke-linejoin:round; stroke-width:2; stroke-opacity:0.1; fill:none" points="
  784.713,1769.26 784.713,56.1271 
  "/>
<polyline clip-path="url(#clip092)" style="stroke:#000000; stroke-linecap:butt; stroke-linejoin:round; stroke-width:2; stroke-opacity:0.1; fill:none" points="
  940.452,1769.26 940.452,56.1271 
  "/>
<polyline clip-path="url(#clip092)" style="stroke:#000000; stroke-linecap:butt; stroke-linejoin:round; stroke-width:2; stroke-opacity:0.1; fill:none" points="
  1096.19,1769.26 1096.19,56.1271 
  "/>
<polyline clip-path="url(#clip092)" style="stroke:#000000; stroke-linecap:butt; stroke-linejoin:round; stroke-width:2; stroke-opacity:0.1; fill:none" points="
  1251.93,1769.26 1251.93,56.1271 
  "/>
<polyline clip-path="url(#clip092)" style="stroke:#000000; stroke-linecap:butt; stroke-linejoin:round; stroke-width:2; stroke-opacity:0.1; fill:none" points="
  1407.67,1769.26 1407.67,56.1271 
  "/>
<polyline clip-path="url(#clip092)" style="stroke:#000000; stroke-linecap:butt; stroke-linejoin:round; stroke-width:2; stroke-opacity:0.1; fill:none" points="
  1563.41,1769.26 1563.41,56.1271 
  "/>
<polyline clip-path="url(#clip092)" style="stroke:#000000; stroke-linecap:butt; stroke-linejoin:round; stroke-width:2; stroke-opacity:0.1; fill:none" points="
  1719.15,1769.26 1719.15,56.1271 
  "/>
<polyline clip-path="url(#clip092)" style="stroke:#000000; stroke-linecap:butt; stroke-linejoin:round; stroke-width:2; stroke-opacity:0.1; fill:none" points="
  1874.89,1769.26 1874.89,56.1271 
  "/>
<polyline clip-path="url(#clip090)" style="stroke:#000000; stroke-linecap:butt; stroke-linejoin:round; stroke-width:4; stroke-opacity:1; fill:none" points="
  239.626,1769.26 1952.76,1769.26 
  "/>
<polyline clip-path="url(#clip090)" style="stroke:#000000; stroke-linecap:butt; stroke-linejoin:round; stroke-width:4; stroke-opacity:1; fill:none" points="
  317.496,1769.26 317.496,1750.55 
  "/>
<polyline clip-path="url(#clip090)" style="stroke:#000000; stroke-linecap:butt; stroke-linejoin:round; stroke-width:4; stroke-opacity:1; fill:none" points="
  473.235,1769.26 473.235,1750.55 
  "/>
<polyline clip-path="url(#clip090)" style="stroke:#000000; stroke-linecap:butt; stroke-linejoin:round; stroke-width:4; stroke-opacity:1; fill:none" points="
  628.974,1769.26 628.974,1750.55 
  "/>
<polyline clip-path="url(#clip090)" style="stroke:#000000; stroke-linecap:butt; stroke-linejoin:round; stroke-width:4; stroke-opacity:1; fill:none" points="
  784.713,1769.26 784.713,1750.55 
  "/>
<polyline clip-path="url(#clip090)" style="stroke:#000000; stroke-linecap:butt; stroke-linejoin:round; stroke-width:4; stroke-opacity:1; fill:none" points="
  940.452,1769.26 940.452,1750.55 
  "/>
<polyline clip-path="url(#clip090)" style="stroke:#000000; stroke-linecap:butt; stroke-linejoin:round; stroke-width:4; stroke-opacity:1; fill:none" points="
  1096.19,1769.26 1096.19,1750.55 
  "/>
<polyline clip-path="url(#clip090)" style="stroke:#000000; stroke-linecap:butt; stroke-linejoin:round; stroke-width:4; stroke-opacity:1; fill:none" points="
  1251.93,1769.26 1251.93,1750.55 
  "/>
<polyline clip-path="url(#clip090)" style="stroke:#000000; stroke-linecap:butt; stroke-linejoin:round; stroke-width:4; stroke-opacity:1; fill:none" points="
  1407.67,1769.26 1407.67,1750.55 
  "/>
<polyline clip-path="url(#clip090)" style="stroke:#000000; stroke-linecap:butt; stroke-linejoin:round; stroke-width:4; stroke-opacity:1; fill:none" points="
  1563.41,1769.26 1563.41,1750.55 
  "/>
<polyline clip-path="url(#clip090)" style="stroke:#000000; stroke-linecap:butt; stroke-linejoin:round; stroke-width:4; stroke-opacity:1; fill:none" points="
  1719.15,1769.26 1719.15,1750.55 
  "/>
<polyline clip-path="url(#clip090)" style="stroke:#000000; stroke-linecap:butt; stroke-linejoin:round; stroke-width:4; stroke-opacity:1; fill:none" points="
  1874.89,1769.26 1874.89,1750.55 
  "/>
<path clip-path="url(#clip090)" d="M294.88 1796.98 Q291.269 1796.98 289.44 1800.54 Q287.635 1804.08 287.635 1811.21 Q287.635 1818.32 289.44 1821.88 Q291.269 1825.42 294.88 1825.42 Q298.514 1825.42 300.32 1821.88 Q302.149 1818.32 302.149 1811.21 Q302.149 1804.08 300.32 1800.54 Q298.514 1796.98 294.88 1796.98 M294.88 1793.27 Q300.69 1793.27 303.746 1797.88 Q306.825 1802.46 306.825 1811.21 Q306.825 1819.94 303.746 1824.54 Q300.69 1829.13 294.88 1829.13 Q289.07 1829.13 285.991 1824.54 Q282.936 1819.94 282.936 1811.21 Q282.936 1802.46 285.991 1797.88 Q289.07 1793.27 294.88 1793.27 Z" fill="#000000" fill-rule="evenodd" fill-opacity="1" /><path clip-path="url(#clip090)" d="M315.042 1822.58 L319.926 1822.58 L319.926 1828.46 L315.042 1828.46 L315.042 1822.58 Z" fill="#000000" fill-rule="evenodd" fill-opacity="1" /><path clip-path="url(#clip090)" d="M340.111 1796.98 Q336.5 1796.98 334.672 1800.54 Q332.866 1804.08 332.866 1811.21 Q332.866 1818.32 334.672 1821.88 Q336.5 1825.42 340.111 1825.42 Q343.746 1825.42 345.551 1821.88 Q347.38 1818.32 347.38 1811.21 Q347.38 1804.08 345.551 1800.54 Q343.746 1796.98 340.111 1796.98 M340.111 1793.27 Q345.922 1793.27 348.977 1797.88 Q352.056 1802.46 352.056 1811.21 Q352.056 1819.94 348.977 1824.54 Q345.922 1829.13 340.111 1829.13 Q334.301 1829.13 331.223 1824.54 Q328.167 1819.94 328.167 1811.21 Q328.167 1802.46 331.223 1797.88 Q334.301 1793.27 340.111 1793.27 Z" fill="#000000" fill-rule="evenodd" fill-opacity="1" /><path clip-path="url(#clip090)" d="M451.233 1796.98 Q447.622 1796.98 445.793 1800.54 Q443.987 1804.08 443.987 1811.21 Q443.987 1818.32 445.793 1821.88 Q447.622 1825.42 451.233 1825.42 Q454.867 1825.42 456.672 1821.88 Q458.501 1818.32 458.501 1811.21 Q458.501 1804.08 456.672 1800.54 Q454.867 1796.98 451.233 1796.98 M451.233 1793.27 Q457.043 1793.27 460.098 1797.88 Q463.177 1802.46 463.177 1811.21 Q463.177 1819.94 460.098 1824.54 Q457.043 1829.13 451.233 1829.13 Q445.423 1829.13 442.344 1824.54 Q439.288 1819.94 439.288 1811.21 Q439.288 1802.46 442.344 1797.88 Q445.423 1793.27 451.233 1793.27 Z" fill="#000000" fill-rule="evenodd" fill-opacity="1" /><path clip-path="url(#clip090)" d="M471.395 1822.58 L476.279 1822.58 L476.279 1828.46 L471.395 1828.46 L471.395 1822.58 Z" fill="#000000" fill-rule="evenodd" fill-opacity="1" /><path clip-path="url(#clip090)" d="M487.274 1824.52 L494.913 1824.52 L494.913 1798.16 L486.603 1799.82 L486.603 1795.56 L494.867 1793.9 L499.543 1793.9 L499.543 1824.52 L507.181 1824.52 L507.181 1828.46 L487.274 1828.46 L487.274 1824.52 Z" fill="#000000" fill-rule="evenodd" fill-opacity="1" /><path clip-path="url(#clip090)" d="M607.157 1796.98 Q603.546 1796.98 601.717 1800.54 Q599.912 1804.08 599.912 1811.21 Q599.912 1818.32 601.717 1821.88 Q603.546 1825.42 607.157 1825.42 Q610.791 1825.42 612.597 1821.88 Q614.425 1818.32 614.425 1811.21 Q614.425 1804.08 612.597 1800.54 Q610.791 1796.98 607.157 1796.98 M607.157 1793.27 Q612.967 1793.27 616.023 1797.88 Q619.101 1802.46 619.101 1811.21 Q619.101 1819.94 616.023 1824.54 Q612.967 1829.13 607.157 1829.13 Q601.347 1829.13 598.268 1824.54 Q595.213 1819.94 595.213 1811.21 Q595.213 1802.46 598.268 1797.88 Q601.347 1793.27 607.157 1793.27 Z" fill="#000000" fill-rule="evenodd" fill-opacity="1" /><path clip-path="url(#clip090)" d="M627.319 1822.58 L632.203 1822.58 L632.203 1828.46 L627.319 1828.46 L627.319 1822.58 Z" fill="#000000" fill-rule="evenodd" fill-opacity="1" /><path clip-path="url(#clip090)" d="M646.416 1824.52 L662.735 1824.52 L662.735 1828.46 L640.791 1828.46 L640.791 1824.52 Q643.453 1821.77 648.036 1817.14 Q652.643 1812.48 653.823 1811.14 Q656.069 1808.62 656.948 1806.88 Q657.851 1805.12 657.851 1803.43 Q657.851 1800.68 655.907 1798.94 Q653.985 1797.21 650.884 1797.21 Q648.684 1797.21 646.231 1797.97 Q643.8 1798.73 641.022 1800.29 L641.022 1795.56 Q643.847 1794.43 646.3 1793.85 Q648.754 1793.27 650.791 1793.27 Q656.161 1793.27 659.356 1795.96 Q662.55 1798.64 662.55 1803.13 Q662.55 1805.26 661.74 1807.18 Q660.953 1809.08 658.846 1811.67 Q658.268 1812.35 655.166 1815.56 Q652.064 1818.76 646.416 1824.52 Z" fill="#000000" fill-rule="evenodd" fill-opacity="1" /><path clip-path="url(#clip090)" d="M762.421 1796.98 Q758.81 1796.98 756.982 1800.54 Q755.176 1804.08 755.176 1811.21 Q755.176 1818.32 756.982 1821.88 Q758.81 1825.42 762.421 1825.42 Q766.056 1825.42 767.861 1821.88 Q769.69 1818.32 769.69 1811.21 Q769.69 1804.08 767.861 1800.54 Q766.056 1796.98 762.421 1796.98 M762.421 1793.27 Q768.232 1793.27 771.287 1797.88 Q774.366 1802.46 774.366 1811.21 Q774.366 1819.94 771.287 1824.54 Q768.232 1829.13 762.421 1829.13 Q756.611 1829.13 753.533 1824.54 Q750.477 1819.94 750.477 1811.21 Q750.477 1802.46 753.533 1797.88 Q756.611 1793.27 762.421 1793.27 Z" fill="#000000" fill-rule="evenodd" fill-opacity="1" /><path clip-path="url(#clip090)" d="M782.583 1822.58 L787.468 1822.58 L787.468 1828.46 L782.583 1828.46 L782.583 1822.58 Z" fill="#000000" fill-rule="evenodd" fill-opacity="1" /><path clip-path="url(#clip090)" d="M811.819 1809.82 Q815.176 1810.54 817.051 1812.81 Q818.949 1815.08 818.949 1818.41 Q818.949 1823.53 815.43 1826.33 Q811.912 1829.13 805.43 1829.13 Q803.255 1829.13 800.94 1828.69 Q798.648 1828.27 796.194 1827.42 L796.194 1822.9 Q798.139 1824.04 800.454 1824.61 Q802.768 1825.19 805.292 1825.19 Q809.69 1825.19 811.981 1823.46 Q814.296 1821.72 814.296 1818.41 Q814.296 1815.36 812.143 1813.64 Q810.014 1811.91 806.194 1811.91 L802.167 1811.91 L802.167 1808.06 L806.38 1808.06 Q809.829 1808.06 811.657 1806.7 Q813.486 1805.31 813.486 1802.72 Q813.486 1800.05 811.588 1798.64 Q809.713 1797.21 806.194 1797.21 Q804.273 1797.21 802.074 1797.62 Q799.875 1798.04 797.236 1798.92 L797.236 1794.75 Q799.898 1794.01 802.213 1793.64 Q804.551 1793.27 806.611 1793.27 Q811.935 1793.27 815.037 1795.7 Q818.139 1798.11 818.139 1802.23 Q818.139 1805.1 816.495 1807.09 Q814.852 1809.06 811.819 1809.82 Z" fill="#000000" fill-rule="evenodd" fill-opacity="1" /><path clip-path="url(#clip090)" d="M917.593 1796.98 Q913.982 1796.98 912.154 1800.54 Q910.348 1804.08 910.348 1811.21 Q910.348 1818.32 912.154 1821.88 Q913.982 1825.42 917.593 1825.42 Q921.228 1825.42 923.033 1821.88 Q924.862 1818.32 924.862 1811.21 Q924.862 1804.08 923.033 1800.54 Q921.228 1796.98 917.593 1796.98 M917.593 1793.27 Q923.404 1793.27 926.459 1797.88 Q929.538 1802.46 929.538 1811.21 Q929.538 1819.94 926.459 1824.54 Q923.404 1829.13 917.593 1829.13 Q911.783 1829.13 908.705 1824.54 Q905.649 1819.94 905.649 1811.21 Q905.649 1802.46 908.705 1797.88 Q911.783 1793.27 917.593 1793.27 Z" fill="#000000" fill-rule="evenodd" fill-opacity="1" /><path clip-path="url(#clip090)" d="M937.755 1822.58 L942.64 1822.58 L942.64 1828.46 L937.755 1828.46 L937.755 1822.58 Z" fill="#000000" fill-rule="evenodd" fill-opacity="1" /><path clip-path="url(#clip090)" d="M965.672 1797.97 L953.866 1816.42 L965.672 1816.42 L965.672 1797.97 M964.445 1793.9 L970.325 1793.9 L970.325 1816.42 L975.255 1816.42 L975.255 1820.31 L970.325 1820.31 L970.325 1828.46 L965.672 1828.46 L965.672 1820.31 L950.07 1820.31 L950.07 1815.79 L964.445 1793.9 Z" fill="#000000" fill-rule="evenodd" fill-opacity="1" /><path clip-path="url(#clip090)" d="M1074.07 1796.98 Q1070.46 1796.98 1068.63 1800.54 Q1066.83 1804.08 1066.83 1811.21 Q1066.83 1818.32 1068.63 1821.88 Q1070.46 1825.42 1074.07 1825.42 Q1077.71 1825.42 1079.51 1821.88 Q1081.34 1818.32 1081.34 1811.21 Q1081.34 1804.08 1079.51 1800.54 Q1077.71 1796.98 1074.07 1796.98 M1074.07 1793.27 Q1079.88 1793.27 1082.94 1797.88 Q1086.02 1802.46 1086.02 1811.21 Q1086.02 1819.94 1082.94 1824.54 Q1079.88 1829.13 1074.07 1829.13 Q1068.26 1829.13 1065.18 1824.54 Q1062.13 1819.94 1062.13 1811.21 Q1062.13 1802.46 1065.18 1797.88 Q1068.26 1793.27 1074.07 1793.27 Z" fill="#000000" fill-rule="evenodd" fill-opacity="1" /><path clip-path="url(#clip090)" d="M1094.24 1822.58 L1099.12 1822.58 L1099.12 1828.46 L1094.24 1828.46 L1094.24 1822.58 Z" fill="#000000" fill-rule="evenodd" fill-opacity="1" /><path clip-path="url(#clip090)" d="M1109.35 1793.9 L1127.71 1793.9 L1127.71 1797.83 L1113.63 1797.83 L1113.63 1806.3 Q1114.65 1805.96 1115.67 1805.79 Q1116.69 1805.61 1117.71 1805.61 Q1123.49 1805.61 1126.87 1808.78 Q1130.25 1811.95 1130.25 1817.37 Q1130.25 1822.95 1126.78 1826.05 Q1123.31 1829.13 1116.99 1829.13 Q1114.81 1829.13 1112.55 1828.76 Q1110.3 1828.39 1107.89 1827.65 L1107.89 1822.95 Q1109.98 1824.08 1112.2 1824.64 Q1114.42 1825.19 1116.9 1825.19 Q1120.9 1825.19 1123.24 1823.09 Q1125.58 1820.98 1125.58 1817.37 Q1125.58 1813.76 1123.24 1811.65 Q1120.9 1809.54 1116.9 1809.54 Q1115.02 1809.54 1113.15 1809.96 Q1111.3 1810.38 1109.35 1811.26 L1109.35 1793.9 Z" fill="#000000" fill-rule="evenodd" fill-opacity="1" /><path clip-path="url(#clip090)" d="M1229.23 1796.98 Q1225.62 1796.98 1223.79 1800.54 Q1221.99 1804.08 1221.99 1811.21 Q1221.99 1818.32 1223.79 1821.88 Q1225.62 1825.42 1229.23 1825.42 Q1232.87 1825.42 1234.67 1821.88 Q1236.5 1818.32 1236.5 1811.21 Q1236.5 1804.08 1234.67 1800.54 Q1232.87 1796.98 1229.23 1796.98 M1229.23 1793.27 Q1235.04 1793.27 1238.1 1797.88 Q1241.18 1802.46 1241.18 1811.21 Q1241.18 1819.94 1238.1 1824.54 Q1235.04 1829.13 1229.23 1829.13 Q1223.42 1829.13 1220.34 1824.54 Q1217.29 1819.94 1217.29 1811.21 Q1217.29 1802.46 1220.34 1797.88 Q1223.42 1793.27 1229.23 1793.27 Z" fill="#000000" fill-rule="evenodd" fill-opacity="1" /><path clip-path="url(#clip090)" d="M1249.4 1822.58 L1254.28 1822.58 L1254.28 1828.46 L1249.4 1828.46 L1249.4 1822.58 Z" fill="#000000" fill-rule="evenodd" fill-opacity="1" /><path clip-path="url(#clip090)" d="M1275.04 1809.31 Q1271.9 1809.31 1270.04 1811.47 Q1268.21 1813.62 1268.21 1817.37 Q1268.21 1821.1 1270.04 1823.27 Q1271.9 1825.42 1275.04 1825.42 Q1278.19 1825.42 1280.02 1823.27 Q1281.87 1821.1 1281.87 1817.37 Q1281.87 1813.62 1280.02 1811.47 Q1278.19 1809.31 1275.04 1809.31 M1284.33 1794.66 L1284.33 1798.92 Q1282.57 1798.09 1280.76 1797.65 Q1278.98 1797.21 1277.22 1797.21 Q1272.59 1797.21 1270.14 1800.33 Q1267.71 1803.46 1267.36 1809.78 Q1268.72 1807.76 1270.78 1806.7 Q1272.84 1805.61 1275.32 1805.61 Q1280.53 1805.61 1283.54 1808.78 Q1286.57 1811.93 1286.57 1817.37 Q1286.57 1822.69 1283.42 1825.91 Q1280.27 1829.13 1275.04 1829.13 Q1269.05 1829.13 1265.88 1824.54 Q1262.71 1819.94 1262.71 1811.21 Q1262.71 1803.02 1266.59 1798.16 Q1270.48 1793.27 1277.03 1793.27 Q1278.79 1793.27 1280.58 1793.62 Q1282.38 1793.97 1284.33 1794.66 Z" fill="#000000" fill-rule="evenodd" fill-opacity="1" /><path clip-path="url(#clip090)" d="M1385.5 1796.98 Q1381.89 1796.98 1380.07 1800.54 Q1378.26 1804.08 1378.26 1811.21 Q1378.26 1818.32 1380.07 1821.88 Q1381.89 1825.42 1385.5 1825.42 Q1389.14 1825.42 1390.94 1821.88 Q1392.77 1818.32 1392.77 1811.21 Q1392.77 1804.08 1390.94 1800.54 Q1389.14 1796.98 1385.5 1796.98 M1385.5 1793.27 Q1391.32 1793.27 1394.37 1797.88 Q1397.45 1802.46 1397.45 1811.21 Q1397.45 1819.94 1394.37 1824.54 Q1391.32 1829.13 1385.5 1829.13 Q1379.69 1829.13 1376.62 1824.54 Q1373.56 1819.94 1373.56 1811.21 Q1373.56 1802.46 1376.62 1797.88 Q1379.69 1793.27 1385.5 1793.27 Z" fill="#000000" fill-rule="evenodd" fill-opacity="1" /><path clip-path="url(#clip090)" d="M1405.67 1822.58 L1410.55 1822.58 L1410.55 1828.46 L1405.67 1828.46 L1405.67 1822.58 Z" fill="#000000" fill-rule="evenodd" fill-opacity="1" /><path clip-path="url(#clip090)" d="M1419.56 1793.9 L1441.78 1793.9 L1441.78 1795.89 L1429.23 1828.46 L1424.35 1828.46 L1436.15 1797.83 L1419.56 1797.83 L1419.56 1793.9 Z" fill="#000000" fill-rule="evenodd" fill-opacity="1" /><path clip-path="url(#clip090)" d="M1540.84 1796.98 Q1537.23 1796.98 1535.4 1800.54 Q1533.59 1804.08 1533.59 1811.21 Q1533.59 1818.32 1535.4 1821.88 Q1537.23 1825.42 1540.84 1825.42 Q1544.47 1825.42 1546.28 1821.88 Q1548.11 1818.32 1548.11 1811.21 Q1548.11 1804.08 1546.28 1800.54 Q1544.47 1796.98 1540.84 1796.98 M1540.84 1793.27 Q1546.65 1793.27 1549.7 1797.88 Q1552.78 1802.46 1552.78 1811.21 Q1552.78 1819.94 1549.7 1824.54 Q1546.65 1829.13 1540.84 1829.13 Q1535.03 1829.13 1531.95 1824.54 Q1528.89 1819.94 1528.89 1811.21 Q1528.89 1802.46 1531.95 1797.88 Q1535.03 1793.27 1540.84 1793.27 Z" fill="#000000" fill-rule="evenodd" fill-opacity="1" /><path clip-path="url(#clip090)" d="M1561 1822.58 L1565.89 1822.58 L1565.89 1828.46 L1561 1828.46 L1561 1822.58 Z" fill="#000000" fill-rule="evenodd" fill-opacity="1" /><path clip-path="url(#clip090)" d="M1586.07 1812.04 Q1582.74 1812.04 1580.82 1813.83 Q1578.92 1815.61 1578.92 1818.73 Q1578.92 1821.86 1580.82 1823.64 Q1582.74 1825.42 1586.07 1825.42 Q1589.4 1825.42 1591.32 1823.64 Q1593.25 1821.84 1593.25 1818.73 Q1593.25 1815.61 1591.32 1813.83 Q1589.43 1812.04 1586.07 1812.04 M1581.39 1810.05 Q1578.39 1809.31 1576.7 1807.25 Q1575.03 1805.19 1575.03 1802.23 Q1575.03 1798.09 1577.97 1795.68 Q1580.93 1793.27 1586.07 1793.27 Q1591.23 1793.27 1594.17 1795.68 Q1597.11 1798.09 1597.11 1802.23 Q1597.11 1805.19 1595.42 1807.25 Q1593.76 1809.31 1590.77 1810.05 Q1594.15 1810.84 1596.02 1813.13 Q1597.92 1815.42 1597.92 1818.73 Q1597.92 1823.76 1594.84 1826.44 Q1591.79 1829.13 1586.07 1829.13 Q1580.35 1829.13 1577.27 1826.44 Q1574.22 1823.76 1574.22 1818.73 Q1574.22 1815.42 1576.12 1813.13 Q1578.01 1810.84 1581.39 1810.05 M1579.68 1802.67 Q1579.68 1805.36 1581.35 1806.86 Q1583.04 1808.36 1586.07 1808.36 Q1589.08 1808.36 1590.77 1806.86 Q1592.48 1805.36 1592.48 1802.67 Q1592.48 1799.98 1590.77 1798.48 Q1589.08 1796.98 1586.07 1796.98 Q1583.04 1796.98 1581.35 1798.48 Q1579.68 1799.98 1579.68 1802.67 Z" fill="#000000" fill-rule="evenodd" fill-opacity="1" /><path clip-path="url(#clip090)" d="M1696.62 1796.98 Q1693.01 1796.98 1691.18 1800.54 Q1689.38 1804.08 1689.38 1811.21 Q1689.38 1818.32 1691.18 1821.88 Q1693.01 1825.42 1696.62 1825.42 Q1700.26 1825.42 1702.06 1821.88 Q1703.89 1818.32 1703.89 1811.21 Q1703.89 1804.08 1702.06 1800.54 Q1700.26 1796.98 1696.62 1796.98 M1696.62 1793.27 Q1702.43 1793.27 1705.49 1797.88 Q1708.57 1802.46 1708.57 1811.21 Q1708.57 1819.94 1705.49 1824.54 Q1702.43 1829.13 1696.62 1829.13 Q1690.81 1829.13 1687.74 1824.54 Q1684.68 1819.94 1684.68 1811.21 Q1684.68 1802.46 1687.74 1797.88 Q1690.81 1793.27 1696.62 1793.27 Z" fill="#000000" fill-rule="evenodd" fill-opacity="1" /><path clip-path="url(#clip090)" d="M1716.79 1822.58 L1721.67 1822.58 L1721.67 1828.46 L1716.79 1828.46 L1716.79 1822.58 Z" fill="#000000" fill-rule="evenodd" fill-opacity="1" /><path clip-path="url(#clip090)" d="M1731.99 1827.74 L1731.99 1823.48 Q1733.75 1824.31 1735.56 1824.75 Q1737.36 1825.19 1739.1 1825.19 Q1743.73 1825.19 1746.16 1822.09 Q1748.61 1818.97 1748.96 1812.62 Q1747.62 1814.61 1745.56 1815.68 Q1743.5 1816.74 1741 1816.74 Q1735.81 1816.74 1732.78 1813.62 Q1729.77 1810.47 1729.77 1805.03 Q1729.77 1799.71 1732.92 1796.49 Q1736.07 1793.27 1741.3 1793.27 Q1747.3 1793.27 1750.44 1797.88 Q1753.61 1802.46 1753.61 1811.21 Q1753.61 1819.38 1749.73 1824.27 Q1745.86 1829.13 1739.31 1829.13 Q1737.55 1829.13 1735.74 1828.78 Q1733.94 1828.43 1731.99 1827.74 M1741.3 1813.09 Q1744.45 1813.09 1746.28 1810.93 Q1748.13 1808.78 1748.13 1805.03 Q1748.13 1801.3 1746.28 1799.15 Q1744.45 1796.98 1741.3 1796.98 Q1738.15 1796.98 1736.3 1799.15 Q1734.47 1801.3 1734.47 1805.03 Q1734.47 1808.78 1736.3 1810.93 Q1738.15 1813.09 1741.3 1813.09 Z" fill="#000000" fill-rule="evenodd" fill-opacity="1" /><path clip-path="url(#clip090)" d="M1842.04 1824.52 L1849.68 1824.52 L1849.68 1798.16 L1841.37 1799.82 L1841.37 1795.56 L1849.63 1793.9 L1854.31 1793.9 L1854.31 1824.52 L1861.95 1824.52 L1861.95 1828.46 L1842.04 1828.46 L1842.04 1824.52 Z" fill="#000000" fill-rule="evenodd" fill-opacity="1" /><path clip-path="url(#clip090)" d="M1871.39 1822.58 L1876.28 1822.58 L1876.28 1828.46 L1871.39 1828.46 L1871.39 1822.58 Z" fill="#000000" fill-rule="evenodd" fill-opacity="1" /><path clip-path="url(#clip090)" d="M1896.46 1796.98 Q1892.85 1796.98 1891.02 1800.54 Q1889.22 1804.08 1889.22 1811.21 Q1889.22 1818.32 1891.02 1821.88 Q1892.85 1825.42 1896.46 1825.42 Q1900.09 1825.42 1901.9 1821.88 Q1903.73 1818.32 1903.73 1811.21 Q1903.73 1804.08 1901.9 1800.54 Q1900.09 1796.98 1896.46 1796.98 M1896.46 1793.27 Q1902.27 1793.27 1905.33 1797.88 Q1908.4 1802.46 1908.4 1811.21 Q1908.4 1819.94 1905.33 1824.54 Q1902.27 1829.13 1896.46 1829.13 Q1890.65 1829.13 1887.57 1824.54 Q1884.52 1819.94 1884.52 1811.21 Q1884.52 1802.46 1887.57 1797.88 Q1890.65 1793.27 1896.46 1793.27 Z" fill="#000000" fill-rule="evenodd" fill-opacity="1" /><path clip-path="url(#clip090)" d="M771.142 1865.88 L771.142 1883.74 L779.227 1883.74 Q783.714 1883.74 786.165 1881.42 Q788.616 1879.09 788.616 1874.8 Q788.616 1870.53 786.165 1868.21 Q783.714 1865.88 779.227 1865.88 L771.142 1865.88 M764.713 1860.6 L779.227 1860.6 Q787.216 1860.6 791.29 1864.23 Q795.396 1867.83 795.396 1874.8 Q795.396 1881.83 791.29 1885.43 Q787.216 1889.02 779.227 1889.02 L771.142 1889.02 L771.142 1908.12 L764.713 1908.12 L764.713 1860.6 Z" fill="#000000" fill-rule="evenodd" fill-opacity="1" /><path clip-path="url(#clip090)" d="M823.277 1877.95 Q822.291 1877.37 821.113 1877.12 Q819.967 1876.83 818.567 1876.83 Q813.601 1876.83 810.928 1880.08 Q808.286 1883.29 808.286 1889.34 L808.286 1908.12 L802.398 1908.12 L802.398 1872.47 L808.286 1872.47 L808.286 1878.01 Q810.132 1874.76 813.092 1873.2 Q816.052 1871.61 820.285 1871.61 Q820.89 1871.61 821.622 1871.71 Q822.354 1871.77 823.245 1871.93 L823.277 1877.95 Z" fill="#000000" fill-rule="evenodd" fill-opacity="1" /><path clip-path="url(#clip090)" d="M858.48 1888.83 L858.48 1891.7 L831.553 1891.7 Q831.935 1897.74 835.181 1900.93 Q838.46 1904.08 844.284 1904.08 Q847.658 1904.08 850.809 1903.25 Q853.992 1902.42 857.111 1900.77 L857.111 1906.31 Q853.96 1907.64 850.65 1908.34 Q847.34 1909.04 843.934 1909.04 Q835.404 1909.04 830.407 1904.08 Q825.442 1899.11 825.442 1890.65 Q825.442 1881.89 830.152 1876.77 Q834.895 1871.61 842.916 1871.61 Q850.109 1871.61 854.278 1876.26 Q858.48 1880.88 858.48 1888.83 M852.623 1887.11 Q852.56 1882.31 849.918 1879.44 Q847.308 1876.58 842.979 1876.58 Q838.078 1876.58 835.118 1879.35 Q832.189 1882.12 831.744 1887.15 L852.623 1887.11 Z" fill="#000000" fill-rule="evenodd" fill-opacity="1" /><path clip-path="url(#clip090)" d="M891.55 1877.88 L891.55 1858.6 L897.406 1858.6 L897.406 1908.12 L891.55 1908.12 L891.55 1902.77 Q889.703 1905.96 886.871 1907.52 Q884.07 1909.04 880.123 1909.04 Q873.662 1909.04 869.588 1903.89 Q865.546 1898.73 865.546 1890.33 Q865.546 1881.93 869.588 1876.77 Q873.662 1871.61 880.123 1871.61 Q884.07 1871.61 886.871 1873.17 Q889.703 1874.7 891.55 1877.88 M871.593 1890.33 Q871.593 1896.79 874.235 1900.48 Q876.908 1904.14 881.555 1904.14 Q886.202 1904.14 888.876 1900.48 Q891.55 1896.79 891.55 1890.33 Q891.55 1883.87 888.876 1880.21 Q886.202 1876.52 881.555 1876.52 Q876.908 1876.52 874.235 1880.21 Q871.593 1883.87 871.593 1890.33 Z" fill="#000000" fill-rule="evenodd" fill-opacity="1" /><path clip-path="url(#clip090)" d="M909.469 1872.47 L915.325 1872.47 L915.325 1908.12 L909.469 1908.12 L909.469 1872.47 M909.469 1858.6 L915.325 1858.6 L915.325 1866.01 L909.469 1866.01 L909.469 1858.6 Z" fill="#000000" fill-rule="evenodd" fill-opacity="1" /><path clip-path="url(#clip090)" d="M953.233 1873.84 L953.233 1879.32 Q950.751 1877.95 948.236 1877.28 Q945.754 1876.58 943.207 1876.58 Q937.51 1876.58 934.359 1880.21 Q931.208 1883.8 931.208 1890.33 Q931.208 1896.85 934.359 1900.48 Q937.51 1904.08 943.207 1904.08 Q945.754 1904.08 948.236 1903.41 Q950.751 1902.71 953.233 1901.34 L953.233 1906.75 Q950.782 1907.9 948.141 1908.47 Q945.531 1909.04 942.571 1909.04 Q934.518 1909.04 929.776 1903.98 Q925.033 1898.92 925.033 1890.33 Q925.033 1881.61 929.807 1876.61 Q934.614 1871.61 942.953 1871.61 Q945.658 1871.61 948.236 1872.19 Q950.814 1872.73 953.233 1873.84 Z" fill="#000000" fill-rule="evenodd" fill-opacity="1" /><path clip-path="url(#clip090)" d="M969.211 1862.35 L969.211 1872.47 L981.274 1872.47 L981.274 1877.02 L969.211 1877.02 L969.211 1896.38 Q969.211 1900.74 970.389 1901.98 Q971.598 1903.22 975.259 1903.22 L981.274 1903.22 L981.274 1908.12 L975.259 1908.12 Q968.479 1908.12 965.901 1905.61 Q963.323 1903.06 963.323 1896.38 L963.323 1877.02 L959.026 1877.02 L959.026 1872.47 L963.323 1872.47 L963.323 1862.35 L969.211 1862.35 Z" fill="#000000" fill-rule="evenodd" fill-opacity="1" /><path clip-path="url(#clip090)" d="M1019.47 1888.83 L1019.47 1891.7 L992.541 1891.7 Q992.923 1897.74 996.17 1900.93 Q999.448 1904.08 1005.27 1904.08 Q1008.65 1904.08 1011.8 1903.25 Q1014.98 1902.42 1018.1 1900.77 L1018.1 1906.31 Q1014.95 1907.64 1011.64 1908.34 Q1008.33 1909.04 1004.92 1909.04 Q996.393 1909.04 991.396 1904.08 Q986.43 1899.11 986.43 1890.65 Q986.43 1881.89 991.141 1876.77 Q995.883 1871.61 1003.9 1871.61 Q1011.1 1871.61 1015.27 1876.26 Q1019.47 1880.88 1019.47 1888.83 M1013.61 1887.11 Q1013.55 1882.31 1010.91 1879.44 Q1008.3 1876.58 1003.97 1876.58 Q999.066 1876.58 996.106 1879.35 Q993.178 1882.12 992.732 1887.15 L1013.61 1887.11 Z" fill="#000000" fill-rule="evenodd" fill-opacity="1" /><path clip-path="url(#clip090)" d="M1052.54 1877.88 L1052.54 1858.6 L1058.39 1858.6 L1058.39 1908.12 L1052.54 1908.12 L1052.54 1902.77 Q1050.69 1905.96 1047.86 1907.52 Q1045.06 1909.04 1041.11 1909.04 Q1034.65 1909.04 1030.58 1903.89 Q1026.53 1898.73 1026.53 1890.33 Q1026.53 1881.93 1030.58 1876.77 Q1034.65 1871.61 1041.11 1871.61 Q1045.06 1871.61 1047.86 1873.17 Q1050.69 1874.7 1052.54 1877.88 M1032.58 1890.33 Q1032.58 1896.79 1035.22 1900.48 Q1037.9 1904.14 1042.54 1904.14 Q1047.19 1904.14 1049.86 1900.48 Q1052.54 1896.79 1052.54 1890.33 Q1052.54 1883.87 1049.86 1880.21 Q1047.19 1876.52 1042.54 1876.52 Q1037.9 1876.52 1035.22 1880.21 Q1032.58 1883.87 1032.58 1890.33 Z" fill="#000000" fill-rule="evenodd" fill-opacity="1" /><path clip-path="url(#clip090)" d="M1097.86 1865.88 L1097.86 1883.74 L1105.95 1883.74 Q1110.43 1883.74 1112.89 1881.42 Q1115.34 1879.09 1115.34 1874.8 Q1115.34 1870.53 1112.89 1868.21 Q1110.43 1865.88 1105.95 1865.88 L1097.86 1865.88 M1091.43 1860.6 L1105.95 1860.6 Q1113.94 1860.6 1118.01 1864.23 Q1122.12 1867.83 1122.12 1874.8 Q1122.12 1881.83 1118.01 1885.43 Q1113.94 1889.02 1105.95 1889.02 L1097.86 1889.02 L1097.86 1908.12 L1091.43 1908.12 L1091.43 1860.6 Z" fill="#000000" fill-rule="evenodd" fill-opacity="1" /><path clip-path="url(#clip090)" d="M1150 1877.95 Q1149.01 1877.37 1147.83 1877.12 Q1146.69 1876.83 1145.29 1876.83 Q1140.32 1876.83 1137.65 1880.08 Q1135.01 1883.29 1135.01 1889.34 L1135.01 1908.12 L1129.12 1908.12 L1129.12 1872.47 L1135.01 1872.47 L1135.01 1878.01 Q1136.85 1874.76 1139.81 1873.2 Q1142.77 1871.61 1147.01 1871.61 Q1147.61 1871.61 1148.34 1871.71 Q1149.07 1871.77 1149.97 1871.93 L1150 1877.95 Z" fill="#000000" fill-rule="evenodd" fill-opacity="1" /><path clip-path="url(#clip090)" d="M1168.52 1876.58 Q1163.81 1876.58 1161.07 1880.27 Q1158.34 1883.93 1158.34 1890.33 Q1158.34 1896.73 1161.04 1900.42 Q1163.78 1904.08 1168.52 1904.08 Q1173.2 1904.08 1175.94 1900.39 Q1178.67 1896.69 1178.67 1890.33 Q1178.67 1883.99 1175.94 1880.3 Q1173.2 1876.58 1168.52 1876.58 M1168.52 1871.61 Q1176.16 1871.61 1180.52 1876.58 Q1184.88 1881.54 1184.88 1890.33 Q1184.88 1899.08 1180.52 1904.08 Q1176.16 1909.04 1168.52 1909.04 Q1160.85 1909.04 1156.49 1904.08 Q1152.16 1899.08 1152.16 1890.33 Q1152.16 1881.54 1156.49 1876.58 Q1160.85 1871.61 1168.52 1871.61 Z" fill="#000000" fill-rule="evenodd" fill-opacity="1" /><path clip-path="url(#clip090)" d="M1220.18 1890.33 Q1220.18 1883.87 1217.51 1880.21 Q1214.86 1876.52 1210.22 1876.52 Q1205.57 1876.52 1202.9 1880.21 Q1200.25 1883.87 1200.25 1890.33 Q1200.25 1896.79 1202.9 1900.48 Q1205.57 1904.14 1210.22 1904.14 Q1214.86 1904.14 1217.51 1900.48 Q1220.18 1896.79 1220.18 1890.33 M1200.25 1877.88 Q1202.1 1874.7 1204.9 1873.17 Q1207.73 1871.61 1211.65 1871.61 Q1218.14 1871.61 1222.18 1876.77 Q1226.26 1881.93 1226.26 1890.33 Q1226.26 1898.73 1222.18 1903.89 Q1218.14 1909.04 1211.65 1909.04 Q1207.73 1909.04 1204.9 1907.52 Q1202.1 1905.96 1200.25 1902.77 L1200.25 1908.12 L1194.37 1908.12 L1194.37 1858.6 L1200.25 1858.6 L1200.25 1877.88 Z" fill="#000000" fill-rule="evenodd" fill-opacity="1" /><path clip-path="url(#clip090)" d="M1252.17 1890.2 Q1245.07 1890.2 1242.33 1891.82 Q1239.59 1893.45 1239.59 1897.36 Q1239.59 1900.48 1241.63 1902.33 Q1243.7 1904.14 1247.23 1904.14 Q1252.1 1904.14 1255.03 1900.7 Q1257.99 1897.24 1257.99 1891.51 L1257.99 1890.2 L1252.17 1890.2 M1263.85 1887.78 L1263.85 1908.12 L1257.99 1908.12 L1257.99 1902.71 Q1255.99 1905.96 1252.99 1907.52 Q1250 1909.04 1245.67 1909.04 Q1240.2 1909.04 1236.95 1905.99 Q1233.74 1902.9 1233.74 1897.74 Q1233.74 1891.73 1237.75 1888.67 Q1241.79 1885.62 1249.78 1885.62 L1257.99 1885.62 L1257.99 1885.05 Q1257.99 1881 1255.32 1878.81 Q1252.68 1876.58 1247.87 1876.58 Q1244.81 1876.58 1241.92 1877.31 Q1239.02 1878.04 1236.35 1879.51 L1236.35 1874.1 Q1239.56 1872.85 1242.59 1872.25 Q1245.61 1871.61 1248.47 1871.61 Q1256.21 1871.61 1260.03 1875.62 Q1263.85 1879.63 1263.85 1887.78 Z" fill="#000000" fill-rule="evenodd" fill-opacity="1" /><path clip-path="url(#clip090)" d="M1301.5 1890.33 Q1301.5 1883.87 1298.83 1880.21 Q1296.19 1876.52 1291.54 1876.52 Q1286.89 1876.52 1284.22 1880.21 Q1281.58 1883.87 1281.58 1890.33 Q1281.58 1896.79 1284.22 1900.48 Q1286.89 1904.14 1291.54 1904.14 Q1296.19 1904.14 1298.83 1900.48 Q1301.5 1896.79 1301.5 1890.33 M1281.58 1877.88 Q1283.42 1874.7 1286.22 1873.17 Q1289.06 1871.61 1292.97 1871.61 Q1299.46 1871.61 1303.51 1876.77 Q1307.58 1881.93 1307.58 1890.33 Q1307.58 1898.73 1303.51 1903.89 Q1299.46 1909.04 1292.97 1909.04 Q1289.06 1909.04 1286.22 1907.52 Q1283.42 1905.96 1281.58 1902.77 L1281.58 1908.12 L1275.69 1908.12 L1275.69 1858.6 L1281.58 1858.6 L1281.58 1877.88 Z" fill="#000000" fill-rule="evenodd" fill-opacity="1" /><path clip-path="url(#clip090)" d="M1317.29 1872.47 L1323.14 1872.47 L1323.14 1908.12 L1317.29 1908.12 L1317.29 1872.47 M1317.29 1858.6 L1323.14 1858.6 L1323.14 1866.01 L1317.29 1866.01 L1317.29 1858.6 Z" fill="#000000" fill-rule="evenodd" fill-opacity="1" /><path clip-path="url(#clip090)" d="M1335.4 1858.6 L1341.25 1858.6 L1341.25 1908.12 L1335.4 1908.12 L1335.4 1858.6 Z" fill="#000000" fill-rule="evenodd" fill-opacity="1" /><path clip-path="url(#clip090)" d="M1353.51 1872.47 L1359.37 1872.47 L1359.37 1908.12 L1353.51 1908.12 L1353.51 1872.47 M1353.51 1858.6 L1359.37 1858.6 L1359.37 1866.01 L1353.51 1866.01 L1353.51 1858.6 Z" fill="#000000" fill-rule="evenodd" fill-opacity="1" /><path clip-path="url(#clip090)" d="M1377.41 1862.35 L1377.41 1872.47 L1389.48 1872.47 L1389.48 1877.02 L1377.41 1877.02 L1377.41 1896.38 Q1377.41 1900.74 1378.59 1901.98 Q1379.8 1903.22 1383.46 1903.22 L1389.48 1903.22 L1389.48 1908.12 L1383.46 1908.12 Q1376.68 1908.12 1374.1 1905.61 Q1371.52 1903.06 1371.52 1896.38 L1371.52 1877.02 L1367.23 1877.02 L1367.23 1872.47 L1371.52 1872.47 L1371.52 1862.35 L1377.41 1862.35 Z" fill="#000000" fill-rule="evenodd" fill-opacity="1" /><path clip-path="url(#clip090)" d="M1412.01 1911.43 Q1409.53 1917.8 1407.17 1919.74 Q1404.82 1921.68 1400.87 1921.68 L1396.19 1921.68 L1396.19 1916.78 L1399.63 1916.78 Q1402.05 1916.78 1403.38 1915.63 Q1404.72 1914.49 1406.34 1910.22 L1407.39 1907.55 L1392.98 1872.47 L1399.18 1872.47 L1410.32 1900.35 L1421.46 1872.47 L1427.67 1872.47 L1412.01 1911.43 Z" fill="#000000" fill-rule="evenodd" fill-opacity="1" /><polyline clip-path="url(#clip092)" style="stroke:#000000; stroke-linecap:butt; stroke-linejoin:round; stroke-width:2; stroke-opacity:0.1; fill:none" points="
  239.626,1691.39 1952.76,1691.39 
  "/>
<polyline clip-path="url(#clip092)" style="stroke:#000000; stroke-linecap:butt; stroke-linejoin:round; stroke-width:2; stroke-opacity:0.1; fill:none" points="
  239.626,1535.65 1952.76,1535.65 
  "/>
<polyline clip-path="url(#clip092)" style="stroke:#000000; stroke-linecap:butt; stroke-linejoin:round; stroke-width:2; stroke-opacity:0.1; fill:none" points="
  239.626,1379.91 1952.76,1379.91 
  "/>
<polyline clip-path="url(#clip092)" style="stroke:#000000; stroke-linecap:butt; stroke-linejoin:round; stroke-width:2; stroke-opacity:0.1; fill:none" points="
  239.626,1224.17 1952.76,1224.17 
  "/>
<polyline clip-path="url(#clip092)" style="stroke:#000000; stroke-linecap:butt; stroke-linejoin:round; stroke-width:2; stroke-opacity:0.1; fill:none" points="
  239.626,1068.43 1952.76,1068.43 
  "/>
<polyline clip-path="url(#clip092)" style="stroke:#000000; stroke-linecap:butt; stroke-linejoin:round; stroke-width:2; stroke-opacity:0.1; fill:none" points="
  239.626,912.692 1952.76,912.692 
  "/>
<polyline clip-path="url(#clip092)" style="stroke:#000000; stroke-linecap:butt; stroke-linejoin:round; stroke-width:2; stroke-opacity:0.1; fill:none" points="
  239.626,756.953 1952.76,756.953 
  "/>
<polyline clip-path="url(#clip092)" style="stroke:#000000; stroke-linecap:butt; stroke-linejoin:round; stroke-width:2; stroke-opacity:0.1; fill:none" points="
  239.626,601.214 1952.76,601.214 
  "/>
<polyline clip-path="url(#clip092)" style="stroke:#000000; stroke-linecap:butt; stroke-linejoin:round; stroke-width:2; stroke-opacity:0.1; fill:none" points="
  239.626,445.475 1952.76,445.475 
  "/>
<polyline clip-path="url(#clip092)" style="stroke:#000000; stroke-linecap:butt; stroke-linejoin:round; stroke-width:2; stroke-opacity:0.1; fill:none" points="
  239.626,289.736 1952.76,289.736 
  "/>
<polyline clip-path="url(#clip092)" style="stroke:#000000; stroke-linecap:butt; stroke-linejoin:round; stroke-width:2; stroke-opacity:0.1; fill:none" points="
  239.626,133.997 1952.76,133.997 
  "/>
<polyline clip-path="url(#clip090)" style="stroke:#000000; stroke-linecap:butt; stroke-linejoin:round; stroke-width:4; stroke-opacity:1; fill:none" points="
  239.626,1769.26 239.626,56.1271 
  "/>
<polyline clip-path="url(#clip090)" style="stroke:#000000; stroke-linecap:butt; stroke-linejoin:round; stroke-width:4; stroke-opacity:1; fill:none" points="
  239.626,1691.39 258.524,1691.39 
  "/>
<polyline clip-path="url(#clip090)" style="stroke:#000000; stroke-linecap:butt; stroke-linejoin:round; stroke-width:4; stroke-opacity:1; fill:none" points="
  239.626,1535.65 258.524,1535.65 
  "/>
<polyline clip-path="url(#clip090)" style="stroke:#000000; stroke-linecap:butt; stroke-linejoin:round; stroke-width:4; stroke-opacity:1; fill:none" points="
  239.626,1379.91 258.524,1379.91 
  "/>
<polyline clip-path="url(#clip090)" style="stroke:#000000; stroke-linecap:butt; stroke-linejoin:round; stroke-width:4; stroke-opacity:1; fill:none" points="
  239.626,1224.17 258.524,1224.17 
  "/>
<polyline clip-path="url(#clip090)" style="stroke:#000000; stroke-linecap:butt; stroke-linejoin:round; stroke-width:4; stroke-opacity:1; fill:none" points="
  239.626,1068.43 258.524,1068.43 
  "/>
<polyline clip-path="url(#clip090)" style="stroke:#000000; stroke-linecap:butt; stroke-linejoin:round; stroke-width:4; stroke-opacity:1; fill:none" points="
  239.626,912.692 258.524,912.692 
  "/>
<polyline clip-path="url(#clip090)" style="stroke:#000000; stroke-linecap:butt; stroke-linejoin:round; stroke-width:4; stroke-opacity:1; fill:none" points="
  239.626,756.953 258.524,756.953 
  "/>
<polyline clip-path="url(#clip090)" style="stroke:#000000; stroke-linecap:butt; stroke-linejoin:round; stroke-width:4; stroke-opacity:1; fill:none" points="
  239.626,601.214 258.524,601.214 
  "/>
<polyline clip-path="url(#clip090)" style="stroke:#000000; stroke-linecap:butt; stroke-linejoin:round; stroke-width:4; stroke-opacity:1; fill:none" points="
  239.626,445.475 258.524,445.475 
  "/>
<polyline clip-path="url(#clip090)" style="stroke:#000000; stroke-linecap:butt; stroke-linejoin:round; stroke-width:4; stroke-opacity:1; fill:none" points="
  239.626,289.736 258.524,289.736 
  "/>
<polyline clip-path="url(#clip090)" style="stroke:#000000; stroke-linecap:butt; stroke-linejoin:round; stroke-width:4; stroke-opacity:1; fill:none" points="
  239.626,133.997 258.524,133.997 
  "/>
<path clip-path="url(#clip090)" d="M152.451 1677.19 Q148.84 1677.19 147.011 1680.75 Q145.205 1684.29 145.205 1691.42 Q145.205 1698.53 147.011 1702.09 Q148.84 1705.63 152.451 1705.63 Q156.085 1705.63 157.89 1702.09 Q159.719 1698.53 159.719 1691.42 Q159.719 1684.29 157.89 1680.75 Q156.085 1677.19 152.451 1677.19 M152.451 1673.48 Q158.261 1673.48 161.316 1678.09 Q164.395 1682.67 164.395 1691.42 Q164.395 1700.15 161.316 1704.76 Q158.261 1709.34 152.451 1709.34 Q146.64 1709.34 143.562 1704.76 Q140.506 1700.15 140.506 1691.42 Q140.506 1682.67 143.562 1678.09 Q146.64 1673.48 152.451 1673.48 Z" fill="#000000" fill-rule="evenodd" fill-opacity="1" /><path clip-path="url(#clip090)" d="M172.613 1702.79 L177.497 1702.79 L177.497 1708.67 L172.613 1708.67 L172.613 1702.79 Z" fill="#000000" fill-rule="evenodd" fill-opacity="1" /><path clip-path="url(#clip090)" d="M197.682 1677.19 Q194.071 1677.19 192.242 1680.75 Q190.437 1684.29 190.437 1691.42 Q190.437 1698.53 192.242 1702.09 Q194.071 1705.63 197.682 1705.63 Q201.316 1705.63 203.122 1702.09 Q204.95 1698.53 204.95 1691.42 Q204.95 1684.29 203.122 1680.75 Q201.316 1677.19 197.682 1677.19 M197.682 1673.48 Q203.492 1673.48 206.548 1678.09 Q209.626 1682.67 209.626 1691.42 Q209.626 1700.15 206.548 1704.76 Q203.492 1709.34 197.682 1709.34 Q191.872 1709.34 188.793 1704.76 Q185.738 1700.15 185.738 1691.42 Q185.738 1682.67 188.793 1678.09 Q191.872 1673.48 197.682 1673.48 Z" fill="#000000" fill-rule="evenodd" fill-opacity="1" /><path clip-path="url(#clip090)" d="M153.677 1521.45 Q150.066 1521.45 148.238 1525.01 Q146.432 1528.55 146.432 1535.68 Q146.432 1542.79 148.238 1546.35 Q150.066 1549.9 153.677 1549.9 Q157.312 1549.9 159.117 1546.35 Q160.946 1542.79 160.946 1535.68 Q160.946 1528.55 159.117 1525.01 Q157.312 1521.45 153.677 1521.45 M153.677 1517.74 Q159.488 1517.74 162.543 1522.35 Q165.622 1526.93 165.622 1535.68 Q165.622 1544.41 162.543 1549.02 Q159.488 1553.6 153.677 1553.6 Q147.867 1553.6 144.789 1549.02 Q141.733 1544.41 141.733 1535.68 Q141.733 1526.93 144.789 1522.35 Q147.867 1517.74 153.677 1517.74 Z" fill="#000000" fill-rule="evenodd" fill-opacity="1" /><path clip-path="url(#clip090)" d="M173.839 1547.05 L178.724 1547.05 L178.724 1552.93 L173.839 1552.93 L173.839 1547.05 Z" fill="#000000" fill-rule="evenodd" fill-opacity="1" /><path clip-path="url(#clip090)" d="M189.719 1548.99 L197.358 1548.99 L197.358 1522.63 L189.048 1524.29 L189.048 1520.03 L197.312 1518.37 L201.987 1518.37 L201.987 1548.99 L209.626 1548.99 L209.626 1552.93 L189.719 1552.93 L189.719 1548.99 Z" fill="#000000" fill-rule="evenodd" fill-opacity="1" /><path clip-path="url(#clip090)" d="M154.048 1365.71 Q150.437 1365.71 148.608 1369.27 Q146.803 1372.81 146.803 1379.94 Q146.803 1387.05 148.608 1390.62 Q150.437 1394.16 154.048 1394.16 Q157.682 1394.16 159.488 1390.62 Q161.316 1387.05 161.316 1379.94 Q161.316 1372.81 159.488 1369.27 Q157.682 1365.71 154.048 1365.71 M154.048 1362 Q159.858 1362 162.914 1366.61 Q165.992 1371.19 165.992 1379.94 Q165.992 1388.67 162.914 1393.28 Q159.858 1397.86 154.048 1397.86 Q148.238 1397.86 145.159 1393.28 Q142.103 1388.67 142.103 1379.94 Q142.103 1371.19 145.159 1366.61 Q148.238 1362 154.048 1362 Z" fill="#000000" fill-rule="evenodd" fill-opacity="1" /><path clip-path="url(#clip090)" d="M174.21 1391.31 L179.094 1391.31 L179.094 1397.19 L174.21 1397.19 L174.21 1391.31 Z" fill="#000000" fill-rule="evenodd" fill-opacity="1" /><path clip-path="url(#clip090)" d="M193.307 1393.25 L209.626 1393.25 L209.626 1397.19 L187.682 1397.19 L187.682 1393.25 Q190.344 1390.5 194.927 1385.87 Q199.534 1381.22 200.714 1379.87 Q202.96 1377.35 203.839 1375.62 Q204.742 1373.86 204.742 1372.17 Q204.742 1369.41 202.798 1367.68 Q200.876 1365.94 197.774 1365.94 Q195.575 1365.94 193.122 1366.7 Q190.691 1367.47 187.913 1369.02 L187.913 1364.3 Q190.737 1363.16 193.191 1362.58 Q195.645 1362 197.682 1362 Q203.052 1362 206.247 1364.69 Q209.441 1367.37 209.441 1371.87 Q209.441 1373.99 208.631 1375.92 Q207.844 1377.81 205.737 1380.41 Q205.159 1381.08 202.057 1384.3 Q198.955 1387.49 193.307 1393.25 Z" fill="#000000" fill-rule="evenodd" fill-opacity="1" /><path clip-path="url(#clip090)" d="M153.099 1209.97 Q149.488 1209.97 147.659 1213.53 Q145.853 1217.08 145.853 1224.2 Q145.853 1231.31 147.659 1234.88 Q149.488 1238.42 153.099 1238.42 Q156.733 1238.42 158.539 1234.88 Q160.367 1231.31 160.367 1224.2 Q160.367 1217.08 158.539 1213.53 Q156.733 1209.97 153.099 1209.97 M153.099 1206.27 Q158.909 1206.27 161.964 1210.87 Q165.043 1215.45 165.043 1224.2 Q165.043 1232.93 161.964 1237.54 Q158.909 1242.12 153.099 1242.12 Q147.289 1242.12 144.21 1237.54 Q141.154 1232.93 141.154 1224.2 Q141.154 1215.45 144.21 1210.87 Q147.289 1206.27 153.099 1206.27 Z" fill="#000000" fill-rule="evenodd" fill-opacity="1" /><path clip-path="url(#clip090)" d="M173.261 1235.57 L178.145 1235.57 L178.145 1241.45 L173.261 1241.45 L173.261 1235.57 Z" fill="#000000" fill-rule="evenodd" fill-opacity="1" /><path clip-path="url(#clip090)" d="M202.497 1222.82 Q205.853 1223.53 207.728 1225.8 Q209.626 1228.07 209.626 1231.4 Q209.626 1236.52 206.108 1239.32 Q202.589 1242.12 196.108 1242.12 Q193.932 1242.12 191.617 1241.68 Q189.325 1241.26 186.872 1240.41 L186.872 1235.89 Q188.816 1237.03 191.131 1237.61 Q193.446 1238.19 195.969 1238.19 Q200.367 1238.19 202.659 1236.45 Q204.974 1234.71 204.974 1231.4 Q204.974 1228.35 202.821 1226.64 Q200.691 1224.9 196.872 1224.9 L192.844 1224.9 L192.844 1221.06 L197.057 1221.06 Q200.506 1221.06 202.335 1219.69 Q204.163 1218.3 204.163 1215.71 Q204.163 1213.05 202.265 1211.64 Q200.39 1210.2 196.872 1210.2 Q194.95 1210.2 192.751 1210.62 Q190.552 1211.03 187.913 1211.91 L187.913 1207.75 Q190.575 1207.01 192.89 1206.64 Q195.228 1206.27 197.288 1206.27 Q202.612 1206.27 205.714 1208.7 Q208.816 1211.1 208.816 1215.22 Q208.816 1218.09 207.173 1220.08 Q205.529 1222.05 202.497 1222.82 Z" fill="#000000" fill-rule="evenodd" fill-opacity="1" /><path clip-path="url(#clip090)" d="M151.965 1054.23 Q148.353 1054.23 146.525 1057.79 Q144.719 1061.34 144.719 1068.47 Q144.719 1075.57 146.525 1079.14 Q148.353 1082.68 151.965 1082.68 Q155.599 1082.68 157.404 1079.14 Q159.233 1075.57 159.233 1068.47 Q159.233 1061.34 157.404 1057.79 Q155.599 1054.23 151.965 1054.23 M151.965 1050.53 Q157.775 1050.53 160.83 1055.13 Q163.909 1059.72 163.909 1068.47 Q163.909 1077.19 160.83 1081.8 Q157.775 1086.38 151.965 1086.38 Q146.154 1086.38 143.076 1081.8 Q140.02 1077.19 140.02 1068.47 Q140.02 1059.72 143.076 1055.13 Q146.154 1050.53 151.965 1050.53 Z" fill="#000000" fill-rule="evenodd" fill-opacity="1" /><path clip-path="url(#clip090)" d="M172.126 1079.83 L177.011 1079.83 L177.011 1085.71 L172.126 1085.71 L172.126 1079.83 Z" fill="#000000" fill-rule="evenodd" fill-opacity="1" /><path clip-path="url(#clip090)" d="M200.043 1055.23 L188.237 1073.67 L200.043 1073.67 L200.043 1055.23 M198.816 1051.15 L204.696 1051.15 L204.696 1073.67 L209.626 1073.67 L209.626 1077.56 L204.696 1077.56 L204.696 1085.71 L200.043 1085.71 L200.043 1077.56 L184.441 1077.56 L184.441 1073.05 L198.816 1051.15 Z" fill="#000000" fill-rule="evenodd" fill-opacity="1" /><path clip-path="url(#clip090)" d="M153.446 898.491 Q149.835 898.491 148.006 902.055 Q146.201 905.597 146.201 912.727 Q146.201 919.833 148.006 923.398 Q149.835 926.94 153.446 926.94 Q157.08 926.94 158.886 923.398 Q160.714 919.833 160.714 912.727 Q160.714 905.597 158.886 902.055 Q157.08 898.491 153.446 898.491 M153.446 894.787 Q159.256 894.787 162.312 899.393 Q165.39 903.977 165.39 912.727 Q165.39 921.453 162.312 926.06 Q159.256 930.643 153.446 930.643 Q147.636 930.643 144.557 926.06 Q141.502 921.453 141.502 912.727 Q141.502 903.977 144.557 899.393 Q147.636 894.787 153.446 894.787 Z" fill="#000000" fill-rule="evenodd" fill-opacity="1" /><path clip-path="url(#clip090)" d="M173.608 924.092 L178.492 924.092 L178.492 929.972 L173.608 929.972 L173.608 924.092 Z" fill="#000000" fill-rule="evenodd" fill-opacity="1" /><path clip-path="url(#clip090)" d="M188.724 895.412 L207.08 895.412 L207.08 899.347 L193.006 899.347 L193.006 907.819 Q194.024 907.472 195.043 907.31 Q196.062 907.125 197.08 907.125 Q202.867 907.125 206.247 910.296 Q209.626 913.467 209.626 918.884 Q209.626 924.463 206.154 927.565 Q202.682 930.643 196.362 930.643 Q194.187 930.643 191.918 930.273 Q189.673 929.903 187.265 929.162 L187.265 924.463 Q189.349 925.597 191.571 926.153 Q193.793 926.708 196.27 926.708 Q200.274 926.708 202.612 924.602 Q204.95 922.495 204.95 918.884 Q204.95 915.273 202.612 913.167 Q200.274 911.06 196.27 911.06 Q194.395 911.06 192.52 911.477 Q190.668 911.893 188.724 912.773 L188.724 895.412 Z" fill="#000000" fill-rule="evenodd" fill-opacity="1" /><path clip-path="url(#clip090)" d="M152.289 742.752 Q148.678 742.752 146.849 746.316 Q145.043 749.858 145.043 756.988 Q145.043 764.094 146.849 767.659 Q148.678 771.201 152.289 771.201 Q155.923 771.201 157.728 767.659 Q159.557 764.094 159.557 756.988 Q159.557 749.858 157.728 746.316 Q155.923 742.752 152.289 742.752 M152.289 739.048 Q158.099 739.048 161.154 743.654 Q164.233 748.238 164.233 756.988 Q164.233 765.714 161.154 770.321 Q158.099 774.904 152.289 774.904 Q146.478 774.904 143.4 770.321 Q140.344 765.714 140.344 756.988 Q140.344 748.238 143.4 743.654 Q146.478 739.048 152.289 739.048 Z" fill="#000000" fill-rule="evenodd" fill-opacity="1" /><path clip-path="url(#clip090)" d="M172.451 768.353 L177.335 768.353 L177.335 774.233 L172.451 774.233 L172.451 768.353 Z" fill="#000000" fill-rule="evenodd" fill-opacity="1" /><path clip-path="url(#clip090)" d="M198.099 755.089 Q194.95 755.089 193.099 757.242 Q191.27 759.395 191.27 763.145 Q191.27 766.872 193.099 769.048 Q194.95 771.201 198.099 771.201 Q201.247 771.201 203.075 769.048 Q204.927 766.872 204.927 763.145 Q204.927 759.395 203.075 757.242 Q201.247 755.089 198.099 755.089 M207.381 740.437 L207.381 744.696 Q205.622 743.863 203.816 743.423 Q202.034 742.983 200.274 742.983 Q195.645 742.983 193.191 746.108 Q190.761 749.233 190.413 755.552 Q191.779 753.539 193.839 752.474 Q195.899 751.386 198.376 751.386 Q203.585 751.386 206.594 754.557 Q209.626 757.705 209.626 763.145 Q209.626 768.469 206.478 771.687 Q203.33 774.904 198.099 774.904 Q192.103 774.904 188.932 770.321 Q185.761 765.714 185.761 756.988 Q185.761 748.793 189.65 743.932 Q193.538 739.048 200.089 739.048 Q201.849 739.048 203.631 739.395 Q205.436 739.742 207.381 740.437 Z" fill="#000000" fill-rule="evenodd" fill-opacity="1" /><path clip-path="url(#clip090)" d="M153.353 587.013 Q149.742 587.013 147.914 590.577 Q146.108 594.119 146.108 601.249 Q146.108 608.355 147.914 611.92 Q149.742 615.461 153.353 615.461 Q156.988 615.461 158.793 611.92 Q160.622 608.355 160.622 601.249 Q160.622 594.119 158.793 590.577 Q156.988 587.013 153.353 587.013 M153.353 583.309 Q159.164 583.309 162.219 587.915 Q165.298 592.499 165.298 601.249 Q165.298 609.975 162.219 614.582 Q159.164 619.165 153.353 619.165 Q147.543 619.165 144.465 614.582 Q141.409 609.975 141.409 601.249 Q141.409 592.499 144.465 587.915 Q147.543 583.309 153.353 583.309 Z" fill="#000000" fill-rule="evenodd" fill-opacity="1" /><path clip-path="url(#clip090)" d="M173.515 612.614 L178.4 612.614 L178.4 618.494 L173.515 618.494 L173.515 612.614 Z" fill="#000000" fill-rule="evenodd" fill-opacity="1" /><path clip-path="url(#clip090)" d="M187.404 583.934 L209.626 583.934 L209.626 585.925 L197.08 618.494 L192.196 618.494 L204.001 587.869 L187.404 587.869 L187.404 583.934 Z" fill="#000000" fill-rule="evenodd" fill-opacity="1" /><path clip-path="url(#clip090)" d="M152.543 431.273 Q148.932 431.273 147.103 434.838 Q145.298 438.38 145.298 445.51 Q145.298 452.616 147.103 456.181 Q148.932 459.722 152.543 459.722 Q156.177 459.722 157.983 456.181 Q159.812 452.616 159.812 445.51 Q159.812 438.38 157.983 434.838 Q156.177 431.273 152.543 431.273 M152.543 427.57 Q158.353 427.57 161.409 432.176 Q164.488 436.76 164.488 445.51 Q164.488 454.236 161.409 458.843 Q158.353 463.426 152.543 463.426 Q146.733 463.426 143.654 458.843 Q140.599 454.236 140.599 445.51 Q140.599 436.76 143.654 432.176 Q146.733 427.57 152.543 427.57 Z" fill="#000000" fill-rule="evenodd" fill-opacity="1" /><path clip-path="url(#clip090)" d="M172.705 456.875 L177.589 456.875 L177.589 462.755 L172.705 462.755 L172.705 456.875 Z" fill="#000000" fill-rule="evenodd" fill-opacity="1" /><path clip-path="url(#clip090)" d="M197.774 446.343 Q194.441 446.343 192.52 448.125 Q190.622 449.908 190.622 453.033 Q190.622 456.158 192.52 457.94 Q194.441 459.722 197.774 459.722 Q201.108 459.722 203.029 457.94 Q204.95 456.134 204.95 453.033 Q204.95 449.908 203.029 448.125 Q201.131 446.343 197.774 446.343 M193.099 444.352 Q190.089 443.611 188.4 441.551 Q186.733 439.491 186.733 436.528 Q186.733 432.385 189.673 429.977 Q192.636 427.57 197.774 427.57 Q202.936 427.57 205.876 429.977 Q208.816 432.385 208.816 436.528 Q208.816 439.491 207.126 441.551 Q205.46 443.611 202.474 444.352 Q205.853 445.139 207.728 447.431 Q209.626 449.722 209.626 453.033 Q209.626 458.056 206.548 460.741 Q203.492 463.426 197.774 463.426 Q192.057 463.426 188.978 460.741 Q185.923 458.056 185.923 453.033 Q185.923 449.722 187.821 447.431 Q189.719 445.139 193.099 444.352 M191.386 436.968 Q191.386 439.653 193.052 441.158 Q194.742 442.662 197.774 442.662 Q200.784 442.662 202.474 441.158 Q204.186 439.653 204.186 436.968 Q204.186 434.283 202.474 432.778 Q200.784 431.273 197.774 431.273 Q194.742 431.273 193.052 432.778 Q191.386 434.283 191.386 436.968 Z" fill="#000000" fill-rule="evenodd" fill-opacity="1" /><path clip-path="url(#clip090)" d="M152.636 275.534 Q149.025 275.534 147.196 279.099 Q145.39 282.641 145.39 289.77 Q145.39 296.877 147.196 300.442 Q149.025 303.983 152.636 303.983 Q156.27 303.983 158.076 300.442 Q159.904 296.877 159.904 289.77 Q159.904 282.641 158.076 279.099 Q156.27 275.534 152.636 275.534 M152.636 271.831 Q158.446 271.831 161.502 276.437 Q164.58 281.021 164.58 289.77 Q164.58 298.497 161.502 303.104 Q158.446 307.687 152.636 307.687 Q146.826 307.687 143.747 303.104 Q140.691 298.497 140.691 289.77 Q140.691 281.021 143.747 276.437 Q146.826 271.831 152.636 271.831 Z" fill="#000000" fill-rule="evenodd" fill-opacity="1" /><path clip-path="url(#clip090)" d="M172.798 301.136 L177.682 301.136 L177.682 307.016 L172.798 307.016 L172.798 301.136 Z" fill="#000000" fill-rule="evenodd" fill-opacity="1" /><path clip-path="url(#clip090)" d="M188.006 306.298 L188.006 302.039 Q189.765 302.872 191.571 303.312 Q193.376 303.752 195.112 303.752 Q199.742 303.752 202.173 300.65 Q204.626 297.525 204.974 291.182 Q203.631 293.173 201.571 294.238 Q199.511 295.303 197.011 295.303 Q191.825 295.303 188.793 292.178 Q185.784 289.03 185.784 283.59 Q185.784 278.266 188.932 275.048 Q192.08 271.831 197.312 271.831 Q203.307 271.831 206.455 276.437 Q209.626 281.021 209.626 289.77 Q209.626 297.942 205.737 302.826 Q201.872 307.687 195.321 307.687 Q193.562 307.687 191.756 307.34 Q189.95 306.993 188.006 306.298 M197.312 291.645 Q200.46 291.645 202.288 289.493 Q204.14 287.34 204.14 283.59 Q204.14 279.863 202.288 277.71 Q200.46 275.534 197.312 275.534 Q194.163 275.534 192.312 277.71 Q190.483 279.863 190.483 283.59 Q190.483 287.34 192.312 289.493 Q194.163 291.645 197.312 291.645 Z" fill="#000000" fill-rule="evenodd" fill-opacity="1" /><path clip-path="url(#clip090)" d="M143.261 147.342 L150.9 147.342 L150.9 120.976 L142.59 122.643 L142.59 118.383 L150.853 116.717 L155.529 116.717 L155.529 147.342 L163.168 147.342 L163.168 151.277 L143.261 151.277 L143.261 147.342 Z" fill="#000000" fill-rule="evenodd" fill-opacity="1" /><path clip-path="url(#clip090)" d="M172.613 145.397 L177.497 145.397 L177.497 151.277 L172.613 151.277 L172.613 145.397 Z" fill="#000000" fill-rule="evenodd" fill-opacity="1" /><path clip-path="url(#clip090)" d="M197.682 119.795 Q194.071 119.795 192.242 123.36 Q190.437 126.902 190.437 134.031 Q190.437 141.138 192.242 144.703 Q194.071 148.244 197.682 148.244 Q201.316 148.244 203.122 144.703 Q204.95 141.138 204.95 134.031 Q204.95 126.902 203.122 123.36 Q201.316 119.795 197.682 119.795 M197.682 116.092 Q203.492 116.092 206.548 120.698 Q209.626 125.281 209.626 134.031 Q209.626 142.758 206.548 147.365 Q203.492 151.948 197.682 151.948 Q191.872 151.948 188.793 147.365 Q185.738 142.758 185.738 134.031 Q185.738 125.281 188.793 120.698 Q191.872 116.092 197.682 116.092 Z" fill="#000000" fill-rule="evenodd" fill-opacity="1" /><path clip-path="url(#clip090)" d="M52.6047 1227.32 Q52.6047 1234.32 57.8245 1238.46 Q63.0444 1242.56 72.0519 1242.56 Q81.0275 1242.56 86.2474 1238.46 Q91.4673 1234.32 91.4673 1227.32 Q91.4673 1220.31 86.2474 1216.24 Q81.0275 1212.13 72.0519 1212.13 Q63.0444 1212.13 57.8245 1216.24 Q52.6047 1220.31 52.6047 1227.32 M47.3848 1227.32 Q47.3848 1217.32 54.1006 1211.34 Q60.7846 1205.36 72.0519 1205.36 Q83.2874 1205.36 90.0032 1211.34 Q96.6872 1217.32 96.6872 1227.32 Q96.6872 1237.34 90.0032 1243.36 Q83.3192 1249.34 72.0519 1249.34 Q60.7846 1249.34 54.1006 1243.36 Q47.3848 1237.34 47.3848 1227.32 Z" fill="#000000" fill-rule="evenodd" fill-opacity="1" /><path clip-path="url(#clip090)" d="M77.972 1169.96 Q71.5108 1169.96 67.8505 1172.64 Q64.1584 1175.28 64.1584 1179.92 Q64.1584 1184.57 67.8505 1187.24 Q71.5108 1189.89 77.972 1189.89 Q84.4332 1189.89 88.1253 1187.24 Q91.7856 1184.57 91.7856 1179.92 Q91.7856 1175.28 88.1253 1172.64 Q84.4332 1169.96 77.972 1169.96 M65.5271 1189.89 Q62.3442 1188.04 60.8164 1185.24 Q59.2568 1182.41 59.2568 1178.49 Q59.2568 1172 64.4131 1167.96 Q69.5693 1163.88 77.972 1163.88 Q86.3747 1163.88 91.531 1167.96 Q96.6872 1172 96.6872 1178.49 Q96.6872 1182.41 95.1594 1185.24 Q93.5998 1188.04 90.417 1189.89 L95.7642 1189.89 L95.7642 1195.77 L46.239 1195.77 L46.239 1189.89 L65.5271 1189.89 Z" fill="#000000" fill-rule="evenodd" fill-opacity="1" /><path clip-path="url(#clip090)" d="M61.1665 1131.45 L66.7047 1131.45 Q65.4316 1133.93 64.795 1136.61 Q64.1584 1139.28 64.1584 1142.14 Q64.1584 1146.5 65.4952 1148.7 Q66.832 1150.86 69.5056 1150.86 Q71.5426 1150.86 72.7203 1149.31 Q73.8661 1147.75 74.9165 1143.04 L75.3621 1141.03 Q76.6989 1134.79 79.1497 1132.18 Q81.5686 1129.54 85.9291 1129.54 Q90.8944 1129.54 93.7908 1133.49 Q96.6872 1137.4 96.6872 1144.28 Q96.6872 1147.14 96.1143 1150.26 Q95.5732 1153.35 94.4592 1156.78 L88.4118 1156.78 Q90.0987 1153.54 90.958 1150.39 Q91.7856 1147.24 91.7856 1144.15 Q91.7856 1140.01 90.3851 1137.78 Q88.9529 1135.56 86.3747 1135.56 Q83.9876 1135.56 82.7145 1137.18 Q81.4413 1138.77 80.2637 1144.21 L79.7862 1146.25 Q78.6404 1151.69 76.2851 1154.11 Q73.898 1156.53 69.7602 1156.53 Q64.7313 1156.53 61.9941 1152.97 Q59.2568 1149.4 59.2568 1142.84 Q59.2568 1139.6 59.7343 1136.73 Q60.2117 1133.87 61.1665 1131.45 Z" fill="#000000" fill-rule="evenodd" fill-opacity="1" /><path clip-path="url(#clip090)" d="M76.4761 1089.72 L79.3406 1089.72 L79.3406 1116.65 Q85.3881 1116.27 88.5709 1113.02 Q91.7219 1109.74 91.7219 1103.92 Q91.7219 1100.54 90.8944 1097.39 Q90.0669 1094.21 88.4118 1091.09 L93.9499 1091.09 Q95.2867 1094.24 95.987 1097.55 Q96.6872 1100.86 96.6872 1104.27 Q96.6872 1112.8 91.7219 1117.8 Q86.7567 1122.76 78.2903 1122.76 Q69.5374 1122.76 64.4131 1118.05 Q59.2568 1113.31 59.2568 1105.29 Q59.2568 1098.09 63.9038 1093.92 Q68.5189 1089.72 76.4761 1089.72 M74.7573 1095.58 Q69.9512 1095.64 67.0866 1098.28 Q64.2221 1100.89 64.2221 1105.22 Q64.2221 1110.12 66.9912 1113.08 Q69.7602 1116.01 74.7892 1116.46 L74.7573 1095.58 Z" fill="#000000" fill-rule="evenodd" fill-opacity="1" /><path clip-path="url(#clip090)" d="M65.5907 1059.45 Q65.0178 1060.44 64.7632 1061.62 Q64.4767 1062.76 64.4767 1064.16 Q64.4767 1069.13 67.7232 1071.8 Q70.9379 1074.44 76.9853 1074.44 L95.7642 1074.44 L95.7642 1080.33 L60.1162 1080.33 L60.1162 1074.44 L65.6544 1074.44 Q62.4079 1072.6 60.8483 1069.64 Q59.2568 1066.68 59.2568 1062.45 Q59.2568 1061.84 59.3523 1061.11 Q59.416 1060.38 59.5751 1059.49 L65.5907 1059.45 Z" fill="#000000" fill-rule="evenodd" fill-opacity="1" /><path clip-path="url(#clip090)" d="M60.1162 1057.51 L60.1162 1051.31 L90.035 1040.17 L60.1162 1029.03 L60.1162 1022.82 L95.7642 1036.19 L95.7642 1044.14 L60.1162 1057.51 Z" fill="#000000" fill-rule="evenodd" fill-opacity="1" /><path clip-path="url(#clip090)" d="M76.4761 984.243 L79.3406 984.243 L79.3406 1011.17 Q85.3881 1010.79 88.5709 1007.54 Q91.7219 1004.26 91.7219 998.438 Q91.7219 995.064 90.8944 991.913 Q90.0669 988.73 88.4118 985.611 L93.9499 985.611 Q95.2867 988.762 95.987 992.072 Q96.6872 995.382 96.6872 998.788 Q96.6872 1007.32 91.7219 1012.32 Q86.7567 1017.28 78.2903 1017.28 Q69.5374 1017.28 64.4131 1012.57 Q59.2568 1007.83 59.2568 999.807 Q59.2568 992.613 63.9038 988.444 Q68.5189 984.243 76.4761 984.243 M74.7573 990.099 Q69.9512 990.163 67.0866 992.804 Q64.2221 995.414 64.2221 999.743 Q64.2221 1004.64 66.9912 1007.6 Q69.7602 1010.53 74.7892 1010.98 L74.7573 990.099 Z" fill="#000000" fill-rule="evenodd" fill-opacity="1" /><path clip-path="url(#clip090)" d="M65.5271 951.173 L46.239 951.173 L46.239 945.316 L95.7642 945.316 L95.7642 951.173 L90.417 951.173 Q93.5998 953.019 95.1594 955.851 Q96.6872 958.652 96.6872 962.599 Q96.6872 969.06 91.531 973.134 Q86.3747 977.177 77.972 977.177 Q69.5693 977.177 64.4131 973.134 Q59.2568 969.06 59.2568 962.599 Q59.2568 958.652 60.8164 955.851 Q62.3442 953.019 65.5271 951.173 M77.972 971.129 Q84.4332 971.129 88.1253 968.487 Q91.7856 965.814 91.7856 961.167 Q91.7856 956.52 88.1253 953.846 Q84.4332 951.173 77.972 951.173 Q71.5108 951.173 67.8505 953.846 Q64.1584 956.52 64.1584 961.167 Q64.1584 965.814 67.8505 968.487 Q71.5108 971.129 77.972 971.129 Z" fill="#000000" fill-rule="evenodd" fill-opacity="1" /><path clip-path="url(#clip090)" d="M53.5277 905.849 L71.3835 905.849 L71.3835 897.764 Q71.3835 893.277 69.06 890.826 Q66.7365 888.375 62.4397 888.375 Q58.1747 888.375 55.8512 890.826 Q53.5277 893.277 53.5277 897.764 L53.5277 905.849 M48.2442 912.278 L48.2442 897.764 Q48.2442 889.775 51.8726 885.701 Q55.4692 881.595 62.4397 881.595 Q69.4738 881.595 73.0704 885.701 Q76.667 889.775 76.667 897.764 L76.667 905.849 L95.7642 905.849 L95.7642 912.278 L48.2442 912.278 Z" fill="#000000" fill-rule="evenodd" fill-opacity="1" /><path clip-path="url(#clip090)" d="M65.5907 853.714 Q65.0178 854.7 64.7632 855.878 Q64.4767 857.024 64.4767 858.424 Q64.4767 863.39 67.7232 866.063 Q70.9379 868.705 76.9853 868.705 L95.7642 868.705 L95.7642 874.593 L60.1162 874.593 L60.1162 868.705 L65.6544 868.705 Q62.4079 866.859 60.8483 863.899 Q59.2568 860.939 59.2568 856.706 Q59.2568 856.101 59.3523 855.369 Q59.416 854.637 59.5751 853.746 L65.5907 853.714 Z" fill="#000000" fill-rule="evenodd" fill-opacity="1" /><path clip-path="url(#clip090)" d="M64.2221 835.189 Q64.2221 839.9 67.9142 842.637 Q71.5745 845.375 77.972 845.375 Q84.3695 845.375 88.0617 842.669 Q91.7219 839.932 91.7219 835.189 Q91.7219 830.511 88.0298 827.773 Q84.3377 825.036 77.972 825.036 Q71.6381 825.036 67.946 827.773 Q64.2221 830.511 64.2221 835.189 M59.2568 835.189 Q59.2568 827.551 64.2221 823.19 Q69.1873 818.83 77.972 818.83 Q86.7249 818.83 91.7219 823.19 Q96.6872 827.551 96.6872 835.189 Q96.6872 842.86 91.7219 847.221 Q86.7249 851.549 77.972 851.549 Q69.1873 851.549 64.2221 847.221 Q59.2568 842.86 59.2568 835.189 Z" fill="#000000" fill-rule="evenodd" fill-opacity="1" /><path clip-path="url(#clip090)" d="M77.972 783.532 Q71.5108 783.532 67.8505 786.205 Q64.1584 788.847 64.1584 793.494 Q64.1584 798.141 67.8505 800.815 Q71.5108 803.456 77.972 803.456 Q84.4332 803.456 88.1253 800.815 Q91.7856 798.141 91.7856 793.494 Q91.7856 788.847 88.1253 786.205 Q84.4332 783.532 77.972 783.532 M65.5271 803.456 Q62.3442 801.61 60.8164 798.809 Q59.2568 795.977 59.2568 792.062 Q59.2568 785.569 64.4131 781.527 Q69.5693 777.453 77.972 777.453 Q86.3747 777.453 91.531 781.527 Q96.6872 785.569 96.6872 792.062 Q96.6872 795.977 95.1594 798.809 Q93.5998 801.61 90.417 803.456 L95.7642 803.456 L95.7642 809.345 L46.239 809.345 L46.239 803.456 L65.5271 803.456 Z" fill="#000000" fill-rule="evenodd" fill-opacity="1" /><path clip-path="url(#clip090)" d="M77.8447 751.544 Q77.8447 758.642 79.4679 761.379 Q81.0912 764.116 85.0061 764.116 Q88.1253 764.116 89.9714 762.079 Q91.7856 760.01 91.7856 756.478 Q91.7856 751.608 88.3481 748.68 Q84.8788 745.719 79.1497 745.719 L77.8447 745.719 L77.8447 751.544 M75.4257 739.863 L95.7642 739.863 L95.7642 745.719 L90.3533 745.719 Q93.5998 747.725 95.1594 750.717 Q96.6872 753.708 96.6872 758.037 Q96.6872 763.512 93.6316 766.758 Q90.5443 769.973 85.3881 769.973 Q79.3725 769.973 76.3169 765.962 Q73.2614 761.92 73.2614 753.931 L73.2614 745.719 L72.6885 745.719 Q68.6462 745.719 66.4501 748.393 Q64.2221 751.035 64.2221 755.841 Q64.2221 758.896 64.9541 761.793 Q65.6862 764.689 67.1503 767.363 L61.7395 767.363 Q60.4981 764.148 59.8934 761.124 Q59.2568 758.101 59.2568 755.236 Q59.2568 747.502 63.2672 743.682 Q67.2776 739.863 75.4257 739.863 Z" fill="#000000" fill-rule="evenodd" fill-opacity="1" /><path clip-path="url(#clip090)" d="M77.972 702.21 Q71.5108 702.21 67.8505 704.883 Q64.1584 707.525 64.1584 712.172 Q64.1584 716.819 67.8505 719.493 Q71.5108 722.135 77.972 722.135 Q84.4332 722.135 88.1253 719.493 Q91.7856 716.819 91.7856 712.172 Q91.7856 707.525 88.1253 704.883 Q84.4332 702.21 77.972 702.21 M65.5271 722.135 Q62.3442 720.288 60.8164 717.488 Q59.2568 714.655 59.2568 710.74 Q59.2568 704.247 64.4131 700.205 Q69.5693 696.131 77.972 696.131 Q86.3747 696.131 91.531 700.205 Q96.6872 704.247 96.6872 710.74 Q96.6872 714.655 95.1594 717.488 Q93.5998 720.288 90.417 722.135 L95.7642 722.135 L95.7642 728.023 L46.239 728.023 L46.239 722.135 L65.5271 722.135 Z" fill="#000000" fill-rule="evenodd" fill-opacity="1" /><path clip-path="url(#clip090)" d="M60.1162 686.423 L60.1162 680.566 L95.7642 680.566 L95.7642 686.423 L60.1162 686.423 M46.239 686.423 L46.239 680.566 L53.655 680.566 L53.655 686.423 L46.239 686.423 Z" fill="#000000" fill-rule="evenodd" fill-opacity="1" /><path clip-path="url(#clip090)" d="M46.239 668.312 L46.239 662.456 L95.7642 662.456 L95.7642 668.312 L46.239 668.312 Z" fill="#000000" fill-rule="evenodd" fill-opacity="1" /><path clip-path="url(#clip090)" d="M60.1162 650.202 L60.1162 644.346 L95.7642 644.346 L95.7642 650.202 L60.1162 650.202 M46.239 650.202 L46.239 644.346 L53.655 644.346 L53.655 650.202 L46.239 650.202 Z" fill="#000000" fill-rule="evenodd" fill-opacity="1" /><path clip-path="url(#clip090)" d="M49.9947 626.299 L60.1162 626.299 L60.1162 614.236 L64.6677 614.236 L64.6677 626.299 L84.0194 626.299 Q88.3799 626.299 89.6213 625.121 Q90.8626 623.912 90.8626 620.251 L90.8626 614.236 L95.7642 614.236 L95.7642 620.251 Q95.7642 627.031 93.2497 629.609 Q90.7034 632.187 84.0194 632.187 L64.6677 632.187 L64.6677 636.484 L60.1162 636.484 L60.1162 632.187 L49.9947 632.187 L49.9947 626.299 Z" fill="#000000" fill-rule="evenodd" fill-opacity="1" /><path clip-path="url(#clip090)" d="M99.0743 591.701 Q105.44 594.184 107.382 596.539 Q109.323 598.894 109.323 602.841 L109.323 607.52 L104.422 607.52 L104.422 604.083 Q104.422 601.664 103.276 600.327 Q102.13 598.99 97.8648 597.367 L95.1912 596.316 L60.1162 610.735 L60.1162 604.528 L87.998 593.388 L60.1162 582.248 L60.1162 576.042 L99.0743 591.701 Z" fill="#000000" fill-rule="evenodd" fill-opacity="1" /><path clip-path="url(#clip092)" d="
M317.496 1691.39 L317.496 1535.65 L473.235 1535.65 L473.235 1691.39 L317.496 1691.39 L317.496 1691.39 L473.235 1691.39 L473.235 1691.39 L317.496 1691.39 L317.496 1691.39 
   Z
  " fill="#009af9" fill-rule="evenodd" fill-opacity="1"/>
<path clip-path="url(#clip092)" d="
M473.235 1535.65 L473.235 1379.91 L628.974 1379.91 L628.974 1535.65 L473.235 1535.65 L473.235 1691.39 L628.974 1691.39 L628.974 1691.39 L473.235 1691.39 L473.235 1691.39 
   Z
  " fill="#009af9" fill-rule="evenodd" fill-opacity="1"/>
<path clip-path="url(#clip092)" d="
M628.974 1379.91 L628.974 1224.17 L784.713 1224.17 L784.713 1379.91 L628.974 1379.91 L628.974 1691.39 L784.713 1691.39 L784.713 1691.39 L628.974 1691.39 L628.974 1691.39 
   Z
  " fill="#009af9" fill-rule="evenodd" fill-opacity="1"/>
<path clip-path="url(#clip092)" d="
M784.713 1224.17 L784.713 1068.43 L940.452 1068.43 L940.452 1224.17 L784.713 1224.17 L784.713 1691.39 L940.452 1691.39 L940.452 1691.39 L784.713 1691.39 L784.713 1691.39 
   Z
  " fill="#009af9" fill-rule="evenodd" fill-opacity="1"/>
<path clip-path="url(#clip092)" d="
M940.452 1068.43 L940.452 912.692 L1096.19 912.692 L1096.19 1068.43 L940.452 1068.43 L940.452 1691.39 L1096.19 1691.39 L1096.19 1691.39 L940.452 1691.39 L940.452 1691.39 
   Z
  " fill="#009af9" fill-rule="evenodd" fill-opacity="1"/>
<path clip-path="url(#clip092)" d="
M1096.19 912.692 L1096.19 756.953 L1251.93 756.953 L1251.93 912.692 L1096.19 912.692 L1096.19 1691.39 L1251.93 1691.39 L1251.93 1691.39 L1096.19 1691.39 L1096.19 1691.39 
   Z
  " fill="#009af9" fill-rule="evenodd" fill-opacity="1"/>
<path clip-path="url(#clip092)" d="
M1251.93 756.953 L1251.93 601.214 L1407.67 601.214 L1407.67 756.953 L1251.93 756.953 L1251.93 1691.39 L1407.67 1691.39 L1407.67 1691.39 L1251.93 1691.39 L1251.93 1691.39 
   Z
  " fill="#009af9" fill-rule="evenodd" fill-opacity="1"/>
<path clip-path="url(#clip092)" d="
M1407.67 601.214 L1407.67 445.475 L1563.41 445.475 L1563.41 601.214 L1407.67 601.214 L1407.67 1691.39 L1563.41 1691.39 L1563.41 1691.39 L1407.67 1691.39 L1407.67 1691.39 
   Z
  " fill="#009af9" fill-rule="evenodd" fill-opacity="1"/>
<path clip-path="url(#clip092)" d="
M1563.41 445.475 L1563.41 289.736 L1719.15 289.736 L1719.15 445.475 L1563.41 445.475 L1563.41 1691.39 L1719.15 1691.39 L1719.15 1691.39 L1563.41 1691.39 L1563.41 1691.39 
   Z
  " fill="#009af9" fill-rule="evenodd" fill-opacity="1"/>
<path clip-path="url(#clip092)" d="
M1719.15 289.736 L1719.15 133.997 L1874.89 133.997 L1874.89 289.736 L1719.15 289.736 L1719.15 1691.39 L1874.89 1691.39 L1874.89 1691.39 L1719.15 1691.39 L1719.15 1691.39 
   Z
  " fill="#009af9" fill-rule="evenodd" fill-opacity="1"/>
<polyline clip-path="url(#clip092)" style="stroke:#009af9; stroke-linecap:butt; stroke-linejoin:round; stroke-width:4; stroke-opacity:1; fill:none" points="
  317.496,1691.39 317.496,1535.65 473.235,1535.65 473.235,1691.39 317.496,1691.39 
  "/>
<polyline clip-path="url(#clip092)" style="stroke:#009af9; stroke-linecap:butt; stroke-linejoin:round; stroke-width:4; stroke-opacity:1; fill:none" points="
  473.235,1535.65 473.235,1379.91 628.974,1379.91 628.974,1535.65 473.235,1535.65 
  "/>
<polyline clip-path="url(#clip092)" style="stroke:#009af9; stroke-linecap:butt; stroke-linejoin:round; stroke-width:4; stroke-opacity:1; fill:none" points="
  628.974,1379.91 628.974,1224.17 784.713,1224.17 784.713,1379.91 628.974,1379.91 
  "/>
<polyline clip-path="url(#clip092)" style="stroke:#009af9; stroke-linecap:butt; stroke-linejoin:round; stroke-width:4; stroke-opacity:1; fill:none" points="
  784.713,1224.17 784.713,1068.43 940.452,1068.43 940.452,1224.17 784.713,1224.17 
  "/>
<polyline clip-path="url(#clip092)" style="stroke:#009af9; stroke-linecap:butt; stroke-linejoin:round; stroke-width:4; stroke-opacity:1; fill:none" points="
  940.452,1068.43 940.452,912.692 1096.19,912.692 1096.19,1068.43 940.452,1068.43 
  "/>
<polyline clip-path="url(#clip092)" style="stroke:#009af9; stroke-linecap:butt; stroke-linejoin:round; stroke-width:4; stroke-opacity:1; fill:none" points="
  1096.19,912.692 1096.19,756.953 1251.93,756.953 1251.93,912.692 1096.19,912.692 
  "/>
<polyline clip-path="url(#clip092)" style="stroke:#009af9; stroke-linecap:butt; stroke-linejoin:round; stroke-width:4; stroke-opacity:1; fill:none" points="
  1251.93,756.953 1251.93,601.214 1407.67,601.214 1407.67,756.953 1251.93,756.953 
  "/>
<polyline clip-path="url(#clip092)" style="stroke:#009af9; stroke-linecap:butt; stroke-linejoin:round; stroke-width:4; stroke-opacity:1; fill:none" points="
  1407.67,601.214 1407.67,445.475 1563.41,445.475 1563.41,601.214 1407.67,601.214 
  "/>
<polyline clip-path="url(#clip092)" style="stroke:#009af9; stroke-linecap:butt; stroke-linejoin:round; stroke-width:4; stroke-opacity:1; fill:none" points="
  1563.41,445.475 1563.41,289.736 1719.15,289.736 1719.15,445.475 1563.41,445.475 
  "/>
<polyline clip-path="url(#clip092)" style="stroke:#009af9; stroke-linecap:butt; stroke-linejoin:round; stroke-width:4; stroke-opacity:1; fill:none" points="
  1719.15,289.736 1719.15,133.997 1874.89,133.997 1874.89,289.736 1719.15,289.736 
  "/>
<circle clip-path="url(#clip092)" cx="318.154" cy="1691.39" r="22" fill="#e26f46" fill-rule="evenodd" fill-opacity="1" stroke="#000000" stroke-opacity="1" stroke-width="4"/>
<circle clip-path="url(#clip092)" cx="548.367" cy="1161.87" r="17" fill="#e26f46" fill-rule="evenodd" fill-opacity="1" stroke="#000000" stroke-opacity="1" stroke-width="4"/>
<circle clip-path="url(#clip092)" cx="707.759" cy="1249.86" r="22" fill="#e26f46" fill-rule="evenodd" fill-opacity="1" stroke="#000000" stroke-opacity="1" stroke-width="4"/>
<circle clip-path="url(#clip092)" cx="873.822" cy="1140.52" r="28" fill="#e26f46" fill-rule="evenodd" fill-opacity="1" stroke="#000000" stroke-opacity="1" stroke-width="4"/>
<circle clip-path="url(#clip092)" cx="1009.29" cy="942.632" r="32" fill="#e26f46" fill-rule="evenodd" fill-opacity="1" stroke="#000000" stroke-opacity="1" stroke-width="4"/>
<circle clip-path="url(#clip092)" cx="1123.84" cy="740.605" r="27" fill="#e26f46" fill-rule="evenodd" fill-opacity="1" stroke="#000000" stroke-opacity="1" stroke-width="4"/>
<circle clip-path="url(#clip092)" cx="1294.19" cy="542.245" r="20" fill="#e26f46" fill-rule="evenodd" fill-opacity="1" stroke="#000000" stroke-opacity="1" stroke-width="4"/>
<circle clip-path="url(#clip092)" cx="1479.57" cy="523.344" r="13" fill="#e26f46" fill-rule="evenodd" fill-opacity="1" stroke="#000000" stroke-opacity="1" stroke-width="4"/>
<circle clip-path="url(#clip092)" style="fill:#e26f46; stroke:none; fill-opacity:1" cx="1586.89" cy="1691.39" r="2"/>
<circle clip-path="url(#clip092)" cx="1874.89" cy="133.997" r="16" fill="#e26f46" fill-rule="evenodd" fill-opacity="1" stroke="#000000" stroke-opacity="1" stroke-width="4"/>
<path clip-path="url(#clip090)" d="
M296.731 269.344 L945.455 269.344 L945.455 113.824 L296.731 113.824  Z
  " fill="#ffffff" fill-rule="evenodd" fill-opacity="1"/>
<polyline clip-path="url(#clip090)" style="stroke:#000000; stroke-linecap:butt; stroke-linejoin:round; stroke-width:4; stroke-opacity:1; fill:none" points="
  296.731,269.344 945.455,269.344 945.455,113.824 296.731,113.824 296.731,269.344 
  "/>
<path clip-path="url(#clip090)" d="
M315.765 186.4 L429.974 186.4 L429.974 144.928 L315.765 144.928 L315.765 186.4  Z
  " fill="#009af9" fill-rule="evenodd" fill-opacity="1"/>
<polyline clip-path="url(#clip090)" style="stroke:#009af9; stroke-linecap:butt; stroke-linejoin:round; stroke-width:4; stroke-opacity:1; fill:none" points="
  315.765,144.928 429.974,144.928 
  "/>
<path clip-path="url(#clip090)" d="M453.685 152.226 L453.685 165.212 L459.564 165.212 Q462.828 165.212 464.611 163.522 Q466.393 161.833 466.393 158.708 Q466.393 155.606 464.611 153.916 Q462.828 152.226 459.564 152.226 L453.685 152.226 M449.009 148.384 L459.564 148.384 Q465.374 148.384 468.337 151.023 Q471.323 153.638 471.323 158.708 Q471.323 163.823 468.337 166.439 Q465.374 169.055 459.564 169.055 L453.685 169.055 L453.685 182.944 L449.009 182.944 L449.009 148.384 Z" fill="#000000" fill-rule="evenodd" fill-opacity="1" /><path clip-path="url(#clip090)" d="M497.897 168.916 L497.897 170.999 L478.314 170.999 Q478.592 175.397 480.953 177.712 Q483.337 180.004 487.573 180.004 Q490.027 180.004 492.319 179.402 Q494.634 178.8 496.902 177.596 L496.902 181.624 Q494.61 182.596 492.203 183.106 Q489.796 183.615 487.319 183.615 Q481.115 183.615 477.481 180.004 Q473.87 176.393 473.87 170.235 Q473.87 163.87 477.296 160.143 Q480.745 156.393 486.578 156.393 Q491.809 156.393 494.842 159.773 Q497.897 163.129 497.897 168.916 M493.638 167.666 Q493.592 164.171 491.671 162.087 Q489.772 160.004 486.624 160.004 Q483.06 160.004 480.907 162.018 Q478.777 164.032 478.453 167.689 L493.638 167.666 Z" fill="#000000" fill-rule="evenodd" fill-opacity="1" /><path clip-path="url(#clip090)" d="M519.911 160.999 Q519.194 160.583 518.337 160.397 Q517.504 160.189 516.485 160.189 Q512.874 160.189 510.93 162.55 Q509.008 164.888 509.008 169.286 L509.008 182.944 L504.726 182.944 L504.726 157.018 L509.008 157.018 L509.008 161.046 Q510.351 158.685 512.504 157.55 Q514.657 156.393 517.735 156.393 Q518.175 156.393 518.707 156.462 Q519.24 156.509 519.888 156.624 L519.911 160.999 Z" fill="#000000" fill-rule="evenodd" fill-opacity="1" /><path clip-path="url(#clip090)" d="M537.504 146.925 L537.504 150.467 L533.43 150.467 Q531.138 150.467 530.235 151.393 Q529.356 152.319 529.356 154.726 L529.356 157.018 L536.369 157.018 L536.369 160.328 L529.356 160.328 L529.356 182.944 L525.073 182.944 L525.073 160.328 L520.999 160.328 L520.999 157.018 L525.073 157.018 L525.073 155.212 Q525.073 150.884 527.087 148.916 Q529.101 146.925 533.476 146.925 L537.504 146.925 Z" fill="#000000" fill-rule="evenodd" fill-opacity="1" /><path clip-path="url(#clip090)" d="M563.244 168.916 L563.244 170.999 L543.661 170.999 Q543.939 175.397 546.3 177.712 Q548.684 180.004 552.92 180.004 Q555.374 180.004 557.666 179.402 Q559.98 178.8 562.249 177.596 L562.249 181.624 Q559.957 182.596 557.55 183.106 Q555.142 183.615 552.666 183.615 Q546.462 183.615 542.828 180.004 Q539.217 176.393 539.217 170.235 Q539.217 163.87 542.643 160.143 Q546.092 156.393 551.925 156.393 Q557.156 156.393 560.189 159.773 Q563.244 163.129 563.244 168.916 M558.985 167.666 Q558.939 164.171 557.017 162.087 Q555.119 160.004 551.971 160.004 Q548.406 160.004 546.254 162.018 Q544.124 164.032 543.8 167.689 L558.985 167.666 Z" fill="#000000" fill-rule="evenodd" fill-opacity="1" /><path clip-path="url(#clip090)" d="M588.892 158.013 L588.892 161.995 Q587.087 160.999 585.258 160.513 Q583.453 160.004 581.601 160.004 Q577.457 160.004 575.166 162.643 Q572.874 165.259 572.874 170.004 Q572.874 174.749 575.166 177.388 Q577.457 180.004 581.601 180.004 Q583.453 180.004 585.258 179.518 Q587.087 179.009 588.892 178.013 L588.892 181.948 Q587.11 182.782 585.189 183.198 Q583.29 183.615 581.138 183.615 Q575.281 183.615 571.832 179.934 Q568.383 176.254 568.383 170.004 Q568.383 163.661 571.855 160.027 Q575.351 156.393 581.415 156.393 Q583.383 156.393 585.258 156.81 Q587.133 157.203 588.892 158.013 Z" fill="#000000" fill-rule="evenodd" fill-opacity="1" /><path clip-path="url(#clip090)" d="M600.513 149.657 L600.513 157.018 L609.286 157.018 L609.286 160.328 L600.513 160.328 L600.513 174.402 Q600.513 177.573 601.369 178.476 Q602.249 179.379 604.911 179.379 L609.286 179.379 L609.286 182.944 L604.911 182.944 Q599.98 182.944 598.105 181.115 Q596.23 179.263 596.23 174.402 L596.23 160.328 L593.105 160.328 L593.105 157.018 L596.23 157.018 L596.23 149.657 L600.513 149.657 Z" fill="#000000" fill-rule="evenodd" fill-opacity="1" /><path clip-path="url(#clip090)" d="M614.888 146.925 L619.147 146.925 L619.147 182.944 L614.888 182.944 L614.888 146.925 Z" fill="#000000" fill-rule="evenodd" fill-opacity="1" /><path clip-path="url(#clip090)" d="M638.846 185.351 Q637.04 189.981 635.327 191.393 Q633.614 192.805 630.744 192.805 L627.341 192.805 L627.341 189.24 L629.841 189.24 Q631.6 189.24 632.573 188.407 Q633.545 187.573 634.725 184.471 L635.489 182.527 L625.003 157.018 L629.517 157.018 L637.619 177.296 L645.721 157.018 L650.235 157.018 L638.846 185.351 Z" fill="#000000" fill-rule="evenodd" fill-opacity="1" /><path clip-path="url(#clip090)" d="M697.248 151.046 L697.248 155.976 Q694.887 153.777 692.202 152.689 Q689.54 151.601 686.531 151.601 Q680.605 151.601 677.457 155.235 Q674.308 158.847 674.308 165.698 Q674.308 172.527 677.457 176.161 Q680.605 179.772 686.531 179.772 Q689.54 179.772 692.202 178.684 Q694.887 177.596 697.248 175.397 L697.248 180.282 Q694.794 181.948 692.04 182.782 Q689.308 183.615 686.253 183.615 Q678.406 183.615 673.892 178.823 Q669.378 174.009 669.378 165.698 Q669.378 157.365 673.892 152.573 Q678.406 147.759 686.253 147.759 Q689.355 147.759 692.086 148.592 Q694.841 149.402 697.248 151.046 Z" fill="#000000" fill-rule="evenodd" fill-opacity="1" /><path clip-path="url(#clip090)" d="M716.068 169.911 Q710.906 169.911 708.915 171.092 Q706.924 172.272 706.924 175.12 Q706.924 177.388 708.406 178.731 Q709.91 180.05 712.48 180.05 Q716.021 180.05 718.151 177.55 Q720.304 175.027 720.304 170.86 L720.304 169.911 L716.068 169.911 M724.563 168.152 L724.563 182.944 L720.304 182.944 L720.304 179.009 Q718.845 181.37 716.669 182.504 Q714.493 183.615 711.345 183.615 Q707.364 183.615 705.003 181.393 Q702.665 179.147 702.665 175.397 Q702.665 171.022 705.581 168.8 Q708.521 166.578 714.331 166.578 L720.304 166.578 L720.304 166.161 Q720.304 163.222 718.359 161.624 Q716.438 160.004 712.943 160.004 Q710.72 160.004 708.614 160.536 Q706.507 161.069 704.563 162.134 L704.563 158.198 Q706.901 157.296 709.1 156.856 Q711.299 156.393 713.382 156.393 Q719.007 156.393 721.785 159.31 Q724.563 162.226 724.563 168.152 Z" fill="#000000" fill-rule="evenodd" fill-opacity="1" /><path clip-path="url(#clip090)" d="M733.336 146.925 L737.595 146.925 L737.595 182.944 L733.336 182.944 L733.336 146.925 Z" fill="#000000" fill-rule="evenodd" fill-opacity="1" /><path clip-path="url(#clip090)" d="M746.507 157.018 L750.766 157.018 L750.766 182.944 L746.507 182.944 L746.507 157.018 M746.507 146.925 L750.766 146.925 L750.766 152.319 L746.507 152.319 L746.507 146.925 Z" fill="#000000" fill-rule="evenodd" fill-opacity="1" /><path clip-path="url(#clip090)" d="M778.289 170.004 Q778.289 165.305 776.345 162.643 Q774.424 159.958 771.044 159.958 Q767.664 159.958 765.72 162.643 Q763.799 165.305 763.799 170.004 Q763.799 174.703 765.72 177.388 Q767.664 180.05 771.044 180.05 Q774.424 180.05 776.345 177.388 Q778.289 174.703 778.289 170.004 M763.799 160.953 Q765.141 158.638 767.178 157.527 Q769.239 156.393 772.086 156.393 Q776.808 156.393 779.748 160.143 Q782.711 163.893 782.711 170.004 Q782.711 176.115 779.748 179.865 Q776.808 183.615 772.086 183.615 Q769.239 183.615 767.178 182.504 Q765.141 181.37 763.799 179.055 L763.799 182.944 L759.516 182.944 L759.516 146.925 L763.799 146.925 L763.799 160.953 Z" fill="#000000" fill-rule="evenodd" fill-opacity="1" /><path clip-path="url(#clip090)" d="M804.794 160.999 Q804.076 160.583 803.22 160.397 Q802.387 160.189 801.368 160.189 Q797.757 160.189 795.812 162.55 Q793.891 164.888 793.891 169.286 L793.891 182.944 L789.609 182.944 L789.609 157.018 L793.891 157.018 L793.891 161.046 Q795.234 158.685 797.387 157.55 Q799.539 156.393 802.618 156.393 Q803.058 156.393 803.59 156.462 Q804.123 156.509 804.771 156.624 L804.794 160.999 Z" fill="#000000" fill-rule="evenodd" fill-opacity="1" /><path clip-path="url(#clip090)" d="M821.044 169.911 Q815.882 169.911 813.891 171.092 Q811.9 172.272 811.9 175.12 Q811.9 177.388 813.382 178.731 Q814.886 180.05 817.456 180.05 Q820.998 180.05 823.127 177.55 Q825.28 175.027 825.28 170.86 L825.28 169.911 L821.044 169.911 M829.539 168.152 L829.539 182.944 L825.28 182.944 L825.28 179.009 Q823.822 181.37 821.646 182.504 Q819.47 183.615 816.322 183.615 Q812.34 183.615 809.979 181.393 Q807.641 179.147 807.641 175.397 Q807.641 171.022 810.558 168.8 Q813.498 166.578 819.308 166.578 L825.28 166.578 L825.28 166.161 Q825.28 163.222 823.335 161.624 Q821.414 160.004 817.919 160.004 Q815.697 160.004 813.59 160.536 Q811.484 161.069 809.539 162.134 L809.539 158.198 Q811.877 157.296 814.076 156.856 Q816.275 156.393 818.359 156.393 Q823.984 156.393 826.761 159.31 Q829.539 162.226 829.539 168.152 Z" fill="#000000" fill-rule="evenodd" fill-opacity="1" /><path clip-path="url(#clip090)" d="M842.525 149.657 L842.525 157.018 L851.298 157.018 L851.298 160.328 L842.525 160.328 L842.525 174.402 Q842.525 177.573 843.382 178.476 Q844.261 179.379 846.923 179.379 L851.298 179.379 L851.298 182.944 L846.923 182.944 Q841.993 182.944 840.118 181.115 Q838.243 179.263 838.243 174.402 L838.243 160.328 L835.118 160.328 L835.118 157.018 L838.243 157.018 L838.243 149.657 L842.525 149.657 Z" fill="#000000" fill-rule="evenodd" fill-opacity="1" /><path clip-path="url(#clip090)" d="M879.076 168.916 L879.076 170.999 L859.493 170.999 Q859.77 175.397 862.132 177.712 Q864.516 180.004 868.752 180.004 Q871.206 180.004 873.497 179.402 Q875.812 178.8 878.081 177.596 L878.081 181.624 Q875.789 182.596 873.382 183.106 Q870.974 183.615 868.497 183.615 Q862.294 183.615 858.659 180.004 Q855.048 176.393 855.048 170.235 Q855.048 163.87 858.474 160.143 Q861.923 156.393 867.757 156.393 Q872.988 156.393 876.02 159.773 Q879.076 163.129 879.076 168.916 M874.817 167.666 Q874.77 164.171 872.849 162.087 Q870.951 160.004 867.803 160.004 Q864.238 160.004 862.085 162.018 Q859.956 164.032 859.632 167.689 L874.817 167.666 Z" fill="#000000" fill-rule="evenodd" fill-opacity="1" /><path clip-path="url(#clip090)" d="M903.127 160.953 L903.127 146.925 L907.386 146.925 L907.386 182.944 L903.127 182.944 L903.127 179.055 Q901.784 181.37 899.724 182.504 Q897.687 183.615 894.817 183.615 Q890.118 183.615 887.155 179.865 Q884.215 176.115 884.215 170.004 Q884.215 163.893 887.155 160.143 Q890.118 156.393 894.817 156.393 Q897.687 156.393 899.724 157.527 Q901.784 158.638 903.127 160.953 M888.613 170.004 Q888.613 174.703 890.534 177.388 Q892.479 180.05 895.858 180.05 Q899.238 180.05 901.182 177.388 Q903.127 174.703 903.127 170.004 Q903.127 165.305 901.182 162.643 Q899.238 159.958 895.858 159.958 Q892.479 159.958 890.534 162.643 Q888.613 165.305 888.613 170.004 Z" fill="#000000" fill-rule="evenodd" fill-opacity="1" /><circle clip-path="url(#clip090)" cx="372.87" cy="217.504" r="23" fill="#e26f46" fill-rule="evenodd" fill-opacity="1" stroke="#000000" stroke-opacity="1" stroke-width="4.00951"/>
<path clip-path="url(#clip090)" d="M464.842 204.83 L458.499 222.029 L471.208 222.029 L464.842 204.83 M462.203 200.224 L467.504 200.224 L480.675 234.784 L475.814 234.784 L472.666 225.918 L457.087 225.918 L453.939 234.784 L449.009 234.784 L462.203 200.224 Z" fill="#000000" fill-rule="evenodd" fill-opacity="1" /><path clip-path="url(#clip090)" d="M503.36 209.853 L503.36 213.835 Q501.555 212.839 499.726 212.353 Q497.921 211.844 496.069 211.844 Q491.925 211.844 489.634 214.483 Q487.342 217.099 487.342 221.844 Q487.342 226.589 489.634 229.228 Q491.925 231.844 496.069 231.844 Q497.921 231.844 499.726 231.358 Q501.555 230.849 503.36 229.853 L503.36 233.788 Q501.578 234.622 499.657 235.038 Q497.759 235.455 495.606 235.455 Q489.749 235.455 486.3 231.774 Q482.851 228.094 482.851 221.844 Q482.851 215.501 486.323 211.867 Q489.819 208.233 495.884 208.233 Q497.851 208.233 499.726 208.65 Q501.601 209.043 503.36 209.853 Z" fill="#000000" fill-rule="evenodd" fill-opacity="1" /><path clip-path="url(#clip090)" d="M514.981 201.497 L514.981 208.858 L523.754 208.858 L523.754 212.168 L514.981 212.168 L514.981 226.242 Q514.981 229.413 515.837 230.316 Q516.717 231.219 519.379 231.219 L523.754 231.219 L523.754 234.784 L519.379 234.784 Q514.448 234.784 512.573 232.955 Q510.698 231.103 510.698 226.242 L510.698 212.168 L507.573 212.168 L507.573 208.858 L510.698 208.858 L510.698 201.497 L514.981 201.497 Z" fill="#000000" fill-rule="evenodd" fill-opacity="1" /><path clip-path="url(#clip090)" d="M528.916 224.552 L528.916 208.858 L533.175 208.858 L533.175 224.39 Q533.175 228.071 534.61 229.923 Q536.045 231.751 538.916 231.751 Q542.365 231.751 544.355 229.552 Q546.369 227.353 546.369 223.557 L546.369 208.858 L550.629 208.858 L550.629 234.784 L546.369 234.784 L546.369 230.802 Q544.818 233.163 542.758 234.321 Q540.721 235.455 538.013 235.455 Q533.545 235.455 531.231 232.677 Q528.916 229.899 528.916 224.552 M539.633 208.233 L539.633 208.233 Z" fill="#000000" fill-rule="evenodd" fill-opacity="1" /><path clip-path="url(#clip090)" d="M571.184 221.751 Q566.022 221.751 564.031 222.932 Q562.041 224.112 562.041 226.96 Q562.041 229.228 563.522 230.571 Q565.027 231.89 567.596 231.89 Q571.138 231.89 573.267 229.39 Q575.42 226.867 575.42 222.7 L575.42 221.751 L571.184 221.751 M579.679 219.992 L579.679 234.784 L575.42 234.784 L575.42 230.849 Q573.962 233.21 571.786 234.344 Q569.61 235.455 566.462 235.455 Q562.48 235.455 560.119 233.233 Q557.781 230.987 557.781 227.237 Q557.781 222.862 560.698 220.64 Q563.638 218.418 569.448 218.418 L575.42 218.418 L575.42 218.001 Q575.42 215.062 573.476 213.464 Q571.554 211.844 568.059 211.844 Q565.837 211.844 563.73 212.376 Q561.624 212.909 559.679 213.974 L559.679 210.038 Q562.017 209.136 564.216 208.696 Q566.416 208.233 568.499 208.233 Q574.124 208.233 576.902 211.15 Q579.679 214.066 579.679 219.992 Z" fill="#000000" fill-rule="evenodd" fill-opacity="1" /><path clip-path="url(#clip090)" d="M588.452 198.765 L592.712 198.765 L592.712 234.784 L588.452 234.784 L588.452 198.765 Z" fill="#000000" fill-rule="evenodd" fill-opacity="1" /></svg>
