<?xml version="1.0" encoding="utf-8"?>
<svg xmlns="http://www.w3.org/2000/svg" xmlns:xlink="http://www.w3.org/1999/xlink" width="600" height="400" viewBox="0 0 2400 1600">
<defs>
  <clipPath id="clip890">
    <rect x="0" y="0" width="2400" height="1600"/>
  </clipPath>
</defs>
<path clip-path="url(#clip890)" d="
M0 1600 L2400 1600 L2400 0 L0 0  Z
  " fill="#ffffff" fill-rule="evenodd" fill-opacity="1"/>
<defs>
  <clipPath id="clip891">
    <rect x="480" y="0" width="1681" height="1600"/>
  </clipPath>
</defs>
<path clip-path="url(#clip890)" d="
M249.542 1423.18 L2352.76 1423.18 L2352.76 47.2441 L249.542 47.2441  Z
  " fill="#ffffff" fill-rule="evenodd" fill-opacity="1"/>
<defs>
  <clipPath id="clip892">
    <rect x="249" y="47" width="2104" height="1377"/>
  </clipPath>
</defs>
<polyline clip-path="url(#clip892)" style="stroke:#000000; stroke-linecap:butt; stroke-linejoin:round; stroke-width:2; stroke-opacity:0.1; fill:none" points="
  625.202,1423.18 625.202,47.2441 
  "/>
<polyline clip-path="url(#clip892)" style="stroke:#000000; stroke-linecap:butt; stroke-linejoin:round; stroke-width:2; stroke-opacity:0.1; fill:none" points="
  1145.16,1423.18 1145.16,47.2441 
  "/>
<polyline clip-path="url(#clip892)" style="stroke:#000000; stroke-linecap:butt; stroke-linejoin:round; stroke-width:2; stroke-opacity:0.1; fill:none" points="
  1665.12,1423.18 1665.12,47.2441 
  "/>
<polyline clip-path="url(#clip892)" style="stroke:#000000; stroke-linecap:butt; stroke-linejoin:round; stroke-width:2; stroke-opacity:0.1; fill:none" points="
  2185.08,1423.18 2185.08,47.2441 
  "/>
<polyline clip-path="url(#clip890)" style="stroke:#000000; stroke-linecap:butt; stroke-linejoin:round; stroke-width:4; stroke-opacity:1; fill:none" points="
  249.542,1423.18 2352.76,1423.18 
  "/>
<polyline clip-path="url(#clip890)" style="stroke:#000000; stroke-linecap:butt; stroke-linejoin:round; stroke-width:4; stroke-opacity:1; fill:none" points="
  625.202,1423.18 625.202,1404.28 
  "/>
<polyline clip-path="url(#clip890)" style="stroke:#000000; stroke-linecap:butt; stroke-linejoin:round; stroke-width:4; stroke-opacity:1; fill:none" points="
  1145.16,1423.18 1145.16,1404.28 
  "/>
<polyline clip-path="url(#clip890)" style="stroke:#000000; stroke-linecap:butt; stroke-linejoin:round; stroke-width:4; stroke-opacity:1; fill:none" points="
  1665.12,1423.18 1665.12,1404.28 
  "/>
<polyline clip-path="url(#clip890)" style="stroke:#000000; stroke-linecap:butt; stroke-linejoin:round; stroke-width:4; stroke-opacity:1; fill:none" points="
  2185.08,1423.18 2185.08,1404.28 
  "/>
<path clip-path="url(#clip890)" d="M603.975 1481.64 L620.295 1481.64 L620.295 1485.58 L598.35 1485.58 L598.35 1481.64 Q601.012 1478.89 605.596 1474.26 Q610.202 1469.61 611.383 1468.27 Q613.628 1465.74 614.508 1464.01 Q615.41 1462.25 615.41 1460.56 Q615.41 1457.8 613.466 1456.07 Q611.545 1454.33 608.443 1454.33 Q606.244 1454.33 603.79 1455.09 Q601.36 1455.86 598.582 1457.41 L598.582 1452.69 Q601.406 1451.55 603.86 1450.97 Q606.313 1450.39 608.35 1450.39 Q613.721 1450.39 616.915 1453.08 Q620.11 1455.77 620.11 1460.26 Q620.11 1462.39 619.299 1464.31 Q618.512 1466.2 616.406 1468.8 Q615.827 1469.47 612.725 1472.69 Q609.623 1475.88 603.975 1481.64 Z" fill="#000000" fill-rule="evenodd" fill-opacity="1" /><path clip-path="url(#clip890)" d="M640.109 1454.1 Q636.498 1454.1 634.67 1457.66 Q632.864 1461.2 632.864 1468.33 Q632.864 1475.44 634.67 1479.01 Q636.498 1482.55 640.109 1482.55 Q643.744 1482.55 645.549 1479.01 Q647.378 1475.44 647.378 1468.33 Q647.378 1461.2 645.549 1457.66 Q643.744 1454.1 640.109 1454.1 M640.109 1450.39 Q645.92 1450.39 648.975 1455 Q652.054 1459.58 652.054 1468.33 Q652.054 1477.06 648.975 1481.67 Q645.92 1486.25 640.109 1486.25 Q634.299 1486.25 631.221 1481.67 Q628.165 1477.06 628.165 1468.33 Q628.165 1459.58 631.221 1455 Q634.299 1450.39 640.109 1450.39 Z" fill="#000000" fill-rule="evenodd" fill-opacity="1" /><path clip-path="url(#clip890)" d="M1134 1466.95 Q1137.36 1467.66 1139.24 1469.93 Q1141.13 1472.2 1141.13 1475.53 Q1141.13 1480.65 1137.61 1483.45 Q1134.1 1486.25 1127.62 1486.25 Q1125.44 1486.25 1123.12 1485.81 Q1120.83 1485.39 1118.38 1484.54 L1118.38 1480.02 Q1120.32 1481.16 1122.64 1481.74 Q1124.95 1482.32 1127.48 1482.32 Q1131.87 1482.32 1134.17 1480.58 Q1136.48 1478.84 1136.48 1475.53 Q1136.48 1472.48 1134.33 1470.77 Q1132.2 1469.03 1128.38 1469.03 L1124.35 1469.03 L1124.35 1465.19 L1128.56 1465.19 Q1132.01 1465.19 1133.84 1463.82 Q1135.67 1462.43 1135.67 1459.84 Q1135.67 1457.18 1133.77 1455.77 Q1131.9 1454.33 1128.38 1454.33 Q1126.46 1454.33 1124.26 1454.75 Q1122.06 1455.16 1119.42 1456.04 L1119.42 1451.88 Q1122.08 1451.14 1124.4 1450.77 Q1126.74 1450.39 1128.8 1450.39 Q1134.12 1450.39 1137.22 1452.83 Q1140.32 1455.23 1140.32 1459.35 Q1140.32 1462.22 1138.68 1464.21 Q1137.04 1466.18 1134 1466.95 Z" fill="#000000" fill-rule="evenodd" fill-opacity="1" /><path clip-path="url(#clip890)" d="M1160 1454.1 Q1156.39 1454.1 1154.56 1457.66 Q1152.75 1461.2 1152.75 1468.33 Q1152.75 1475.44 1154.56 1479.01 Q1156.39 1482.55 1160 1482.55 Q1163.63 1482.55 1165.44 1479.01 Q1167.27 1475.44 1167.27 1468.33 Q1167.27 1461.2 1165.44 1457.66 Q1163.63 1454.1 1160 1454.1 M1160 1450.39 Q1165.81 1450.39 1168.86 1455 Q1171.94 1459.58 1171.94 1468.33 Q1171.94 1477.06 1168.86 1481.67 Q1165.81 1486.25 1160 1486.25 Q1154.19 1486.25 1151.11 1481.67 Q1148.05 1477.06 1148.05 1468.33 Q1148.05 1459.58 1151.11 1455 Q1154.19 1450.39 1160 1450.39 Z" fill="#000000" fill-rule="evenodd" fill-opacity="1" /><path clip-path="url(#clip890)" d="M1653.29 1455.09 L1641.49 1473.54 L1653.29 1473.54 L1653.29 1455.09 M1652.06 1451.02 L1657.94 1451.02 L1657.94 1473.54 L1662.88 1473.54 L1662.88 1477.43 L1657.94 1477.43 L1657.94 1485.58 L1653.29 1485.58 L1653.29 1477.43 L1637.69 1477.43 L1637.69 1472.92 L1652.06 1451.02 Z" fill="#000000" fill-rule="evenodd" fill-opacity="1" /><path clip-path="url(#clip890)" d="M1680.61 1454.1 Q1677 1454.1 1675.17 1457.66 Q1673.36 1461.2 1673.36 1468.33 Q1673.36 1475.44 1675.17 1479.01 Q1677 1482.55 1680.61 1482.55 Q1684.24 1482.55 1686.05 1479.01 Q1687.87 1475.44 1687.87 1468.33 Q1687.87 1461.2 1686.05 1457.66 Q1684.24 1454.1 1680.61 1454.1 M1680.61 1450.39 Q1686.42 1450.39 1689.47 1455 Q1692.55 1459.58 1692.55 1468.33 Q1692.55 1477.06 1689.47 1481.67 Q1686.42 1486.25 1680.61 1486.25 Q1674.8 1486.25 1671.72 1481.67 Q1668.66 1477.06 1668.66 1468.33 Q1668.66 1459.58 1671.72 1455 Q1674.8 1450.39 1680.61 1450.39 Z" fill="#000000" fill-rule="evenodd" fill-opacity="1" /><path clip-path="url(#clip890)" d="M2159.78 1451.02 L2178.14 1451.02 L2178.14 1454.96 L2164.06 1454.96 L2164.06 1463.43 Q2165.08 1463.08 2166.1 1462.92 Q2167.12 1462.73 2168.14 1462.73 Q2173.92 1462.73 2177.3 1465.9 Q2180.68 1469.08 2180.68 1474.49 Q2180.68 1480.07 2177.21 1483.17 Q2173.74 1486.25 2167.42 1486.25 Q2165.24 1486.25 2162.97 1485.88 Q2160.73 1485.51 2158.32 1484.77 L2158.32 1480.07 Q2160.4 1481.2 2162.63 1481.76 Q2164.85 1482.32 2167.32 1482.32 Q2171.33 1482.32 2173.67 1480.21 Q2176.01 1478.1 2176.01 1474.49 Q2176.01 1470.88 2173.67 1468.77 Q2171.33 1466.67 2167.32 1466.67 Q2165.45 1466.67 2163.57 1467.08 Q2161.72 1467.5 2159.78 1468.38 L2159.78 1451.02 Z" fill="#000000" fill-rule="evenodd" fill-opacity="1" /><path clip-path="url(#clip890)" d="M2199.89 1454.1 Q2196.28 1454.1 2194.45 1457.66 Q2192.65 1461.2 2192.65 1468.33 Q2192.65 1475.44 2194.45 1479.01 Q2196.28 1482.55 2199.89 1482.55 Q2203.53 1482.55 2205.33 1479.01 Q2207.16 1475.44 2207.16 1468.33 Q2207.16 1461.2 2205.33 1457.66 Q2203.53 1454.1 2199.89 1454.1 M2199.89 1450.39 Q2205.7 1450.39 2208.76 1455 Q2211.84 1459.58 2211.84 1468.33 Q2211.84 1477.06 2208.76 1481.67 Q2205.7 1486.25 2199.89 1486.25 Q2194.08 1486.25 2191.01 1481.67 Q2187.95 1477.06 2187.95 1468.33 Q2187.95 1459.58 2191.01 1455 Q2194.08 1450.39 2199.89 1450.39 Z" fill="#000000" fill-rule="evenodd" fill-opacity="1" /><path clip-path="url(#clip890)" d="M1244.34 1522.08 L1244.34 1528.35 Q1240.67 1526.6 1237.43 1525.74 Q1234.18 1524.88 1231.16 1524.88 Q1225.91 1524.88 1223.04 1526.92 Q1220.21 1528.96 1220.21 1532.71 Q1220.21 1535.87 1222.09 1537.49 Q1224 1539.08 1229.28 1540.07 L1233.16 1540.86 Q1240.36 1542.23 1243.76 1545.7 Q1247.2 1549.14 1247.2 1554.93 Q1247.2 1561.84 1242.55 1565.4 Q1237.94 1568.97 1228.99 1568.97 Q1225.62 1568.97 1221.8 1568.2 Q1218.01 1567.44 1213.94 1565.94 L1213.94 1559.32 Q1217.85 1561.52 1221.61 1562.63 Q1225.37 1563.75 1228.99 1563.75 Q1234.5 1563.75 1237.49 1561.58 Q1240.48 1559.42 1240.48 1555.41 Q1240.48 1551.91 1238.32 1549.93 Q1236.19 1547.96 1231.29 1546.97 L1227.37 1546.21 Q1220.18 1544.78 1216.96 1541.72 Q1213.75 1538.67 1213.75 1533.22 Q1213.75 1526.92 1218.17 1523.29 Q1222.63 1519.66 1230.43 1519.66 Q1233.77 1519.66 1237.24 1520.27 Q1240.71 1520.87 1244.34 1522.08 Z" fill="#000000" fill-rule="evenodd" fill-opacity="1" /><path clip-path="url(#clip890)" d="M1282.62 1533.76 L1282.62 1539.24 Q1280.14 1537.87 1277.63 1537.2 Q1275.15 1536.5 1272.6 1536.5 Q1266.9 1536.5 1263.75 1540.13 Q1260.6 1543.73 1260.6 1550.25 Q1260.6 1556.78 1263.75 1560.4 Q1266.9 1564 1272.6 1564 Q1275.15 1564 1277.63 1563.33 Q1280.14 1562.63 1282.62 1561.26 L1282.62 1566.68 Q1280.17 1567.82 1277.53 1568.39 Q1274.92 1568.97 1271.96 1568.97 Q1263.91 1568.97 1259.17 1563.91 Q1254.42 1558.85 1254.42 1550.25 Q1254.42 1541.53 1259.2 1536.53 Q1264.01 1531.54 1272.34 1531.54 Q1275.05 1531.54 1277.63 1532.11 Q1280.21 1532.65 1282.62 1533.76 Z" fill="#000000" fill-rule="evenodd" fill-opacity="1" /><path clip-path="url(#clip890)" d="M1306.62 1536.5 Q1301.91 1536.5 1299.18 1540.19 Q1296.44 1543.85 1296.44 1550.25 Q1296.44 1556.65 1299.14 1560.34 Q1301.88 1564 1306.62 1564 Q1311.3 1564 1314.04 1560.31 Q1316.78 1556.62 1316.78 1550.25 Q1316.78 1543.92 1314.04 1540.23 Q1311.3 1536.5 1306.62 1536.5 M1306.62 1531.54 Q1314.26 1531.54 1318.62 1536.5 Q1322.98 1541.47 1322.98 1550.25 Q1322.98 1559 1318.62 1564 Q1314.26 1568.97 1306.62 1568.97 Q1298.95 1568.97 1294.59 1564 Q1290.26 1559 1290.26 1550.25 Q1290.26 1541.47 1294.59 1536.5 Q1298.95 1531.54 1306.62 1531.54 Z" fill="#000000" fill-rule="evenodd" fill-opacity="1" /><path clip-path="url(#clip890)" d="M1353.35 1537.87 Q1352.36 1537.3 1351.18 1537.04 Q1350.04 1536.76 1348.64 1536.76 Q1343.67 1536.76 1341 1540 Q1338.36 1543.22 1338.36 1549.27 L1338.36 1568.04 L1332.47 1568.04 L1332.47 1532.4 L1338.36 1532.4 L1338.36 1537.93 Q1340.2 1534.69 1343.16 1533.13 Q1346.12 1531.54 1350.36 1531.54 Q1350.96 1531.54 1351.69 1531.63 Q1352.42 1531.7 1353.32 1531.85 L1353.35 1537.87 Z" fill="#000000" fill-rule="evenodd" fill-opacity="1" /><path clip-path="url(#clip890)" d="M1388.55 1548.76 L1388.55 1551.62 L1361.62 1551.62 Q1362.01 1557.67 1365.25 1560.85 Q1368.53 1564 1374.35 1564 Q1377.73 1564 1380.88 1563.17 Q1384.06 1562.35 1387.18 1560.69 L1387.18 1566.23 Q1384.03 1567.57 1380.72 1568.27 Q1377.41 1568.97 1374 1568.97 Q1365.47 1568.97 1360.48 1564 Q1355.51 1559.04 1355.51 1550.57 Q1355.51 1541.82 1360.22 1536.69 Q1364.97 1531.54 1372.99 1531.54 Q1380.18 1531.54 1384.35 1536.18 Q1388.55 1540.8 1388.55 1548.76 M1382.69 1547.04 Q1382.63 1542.23 1379.99 1539.37 Q1377.38 1536.5 1373.05 1536.5 Q1368.15 1536.5 1365.19 1539.27 Q1362.26 1542.04 1361.81 1547.07 L1382.69 1547.04 Z" fill="#000000" fill-rule="evenodd" fill-opacity="1" /><polyline clip-path="url(#clip892)" style="stroke:#000000; stroke-linecap:butt; stroke-linejoin:round; stroke-width:2; stroke-opacity:0.1; fill:none" points="
  249.542,1384.24 2352.76,1384.24 
  "/>
<polyline clip-path="url(#clip892)" style="stroke:#000000; stroke-linecap:butt; stroke-linejoin:round; stroke-width:2; stroke-opacity:0.1; fill:none" points="
  249.542,1091.88 2352.76,1091.88 
  "/>
<polyline clip-path="url(#clip892)" style="stroke:#000000; stroke-linecap:butt; stroke-linejoin:round; stroke-width:2; stroke-opacity:0.1; fill:none" points="
  249.542,799.53 2352.76,799.53 
  "/>
<polyline clip-path="url(#clip892)" style="stroke:#000000; stroke-linecap:butt; stroke-linejoin:round; stroke-width:2; stroke-opacity:0.1; fill:none" points="
  249.542,507.176 2352.76,507.176 
  "/>
<polyline clip-path="url(#clip892)" style="stroke:#000000; stroke-linecap:butt; stroke-linejoin:round; stroke-width:2; stroke-opacity:0.1; fill:none" points="
  249.542,214.822 2352.76,214.822 
  "/>
<polyline clip-path="url(#clip890)" style="stroke:#000000; stroke-linecap:butt; stroke-linejoin:round; stroke-width:4; stroke-opacity:1; fill:none" points="
  249.542,1423.18 249.542,47.2441 
  "/>
<polyline clip-path="url(#clip890)" style="stroke:#000000; stroke-linecap:butt; stroke-linejoin:round; stroke-width:4; stroke-opacity:1; fill:none" points="
  249.542,1384.24 268.44,1384.24 
  "/>
<polyline clip-path="url(#clip890)" style="stroke:#000000; stroke-linecap:butt; stroke-linejoin:round; stroke-width:4; stroke-opacity:1; fill:none" points="
  249.542,1091.88 268.44,1091.88 
  "/>
<polyline clip-path="url(#clip890)" style="stroke:#000000; stroke-linecap:butt; stroke-linejoin:round; stroke-width:4; stroke-opacity:1; fill:none" points="
  249.542,799.53 268.44,799.53 
  "/>
<polyline clip-path="url(#clip890)" style="stroke:#000000; stroke-linecap:butt; stroke-linejoin:round; stroke-width:4; stroke-opacity:1; fill:none" points="
  249.542,507.176 268.44,507.176 
  "/>
<polyline clip-path="url(#clip890)" style="stroke:#000000; stroke-linecap:butt; stroke-linejoin:round; stroke-width:4; stroke-opacity:1; fill:none" points="
  249.542,214.822 268.44,214.822 
  "/>
<path clip-path="url(#clip890)" d="M126.205 1370.04 Q122.593 1370.04 120.765 1373.6 Q118.959 1377.14 118.959 1384.27 Q118.959 1391.38 120.765 1394.94 Q122.593 1398.49 126.205 1398.49 Q129.839 1398.49 131.644 1394.94 Q133.473 1391.38 133.473 1384.27 Q133.473 1377.14 131.644 1373.6 Q129.839 1370.04 126.205 1370.04 M126.205 1366.33 Q132.015 1366.33 135.07 1370.94 Q138.149 1375.52 138.149 1384.27 Q138.149 1393 135.07 1397.61 Q132.015 1402.19 126.205 1402.19 Q120.394 1402.19 117.316 1397.61 Q114.26 1393 114.26 1384.27 Q114.26 1375.52 117.316 1370.94 Q120.394 1366.33 126.205 1366.33 Z" fill="#000000" fill-rule="evenodd" fill-opacity="1" /><path clip-path="url(#clip890)" d="M146.366 1395.64 L151.251 1395.64 L151.251 1401.52 L146.366 1401.52 L146.366 1395.64 Z" fill="#000000" fill-rule="evenodd" fill-opacity="1" /><path clip-path="url(#clip890)" d="M171.436 1370.04 Q167.825 1370.04 165.996 1373.6 Q164.19 1377.14 164.19 1384.27 Q164.19 1391.38 165.996 1394.94 Q167.825 1398.49 171.436 1398.49 Q175.07 1398.49 176.876 1394.94 Q178.704 1391.38 178.704 1384.27 Q178.704 1377.14 176.876 1373.6 Q175.07 1370.04 171.436 1370.04 M171.436 1366.33 Q177.246 1366.33 180.301 1370.94 Q183.38 1375.52 183.38 1384.27 Q183.38 1393 180.301 1397.61 Q177.246 1402.19 171.436 1402.19 Q165.626 1402.19 162.547 1397.61 Q159.491 1393 159.491 1384.27 Q159.491 1375.52 162.547 1370.94 Q165.626 1366.33 171.436 1366.33 Z" fill="#000000" fill-rule="evenodd" fill-opacity="1" /><path clip-path="url(#clip890)" d="M201.598 1370.04 Q197.987 1370.04 196.158 1373.6 Q194.352 1377.14 194.352 1384.27 Q194.352 1391.38 196.158 1394.94 Q197.987 1398.49 201.598 1398.49 Q205.232 1398.49 207.037 1394.94 Q208.866 1391.38 208.866 1384.27 Q208.866 1377.14 207.037 1373.6 Q205.232 1370.04 201.598 1370.04 M201.598 1366.33 Q207.408 1366.33 210.463 1370.94 Q213.542 1375.52 213.542 1384.27 Q213.542 1393 210.463 1397.61 Q207.408 1402.19 201.598 1402.19 Q195.787 1402.19 192.709 1397.61 Q189.653 1393 189.653 1384.27 Q189.653 1375.52 192.709 1370.94 Q195.787 1366.33 201.598 1366.33 Z" fill="#000000" fill-rule="evenodd" fill-opacity="1" /><path clip-path="url(#clip890)" d="M127.2 1077.68 Q123.589 1077.68 121.76 1081.25 Q119.955 1084.79 119.955 1091.92 Q119.955 1099.03 121.76 1102.59 Q123.589 1106.13 127.2 1106.13 Q130.834 1106.13 132.64 1102.59 Q134.468 1099.03 134.468 1091.92 Q134.468 1084.79 132.64 1081.25 Q130.834 1077.68 127.2 1077.68 M127.2 1073.98 Q133.01 1073.98 136.066 1078.59 Q139.144 1083.17 139.144 1091.92 Q139.144 1100.65 136.066 1105.25 Q133.01 1109.84 127.2 1109.84 Q121.39 1109.84 118.311 1105.25 Q115.256 1100.65 115.256 1091.92 Q115.256 1083.17 118.311 1078.59 Q121.39 1073.98 127.2 1073.98 Z" fill="#000000" fill-rule="evenodd" fill-opacity="1" /><path clip-path="url(#clip890)" d="M147.362 1103.28 L152.246 1103.28 L152.246 1109.16 L147.362 1109.16 L147.362 1103.28 Z" fill="#000000" fill-rule="evenodd" fill-opacity="1" /><path clip-path="url(#clip890)" d="M172.431 1077.68 Q168.82 1077.68 166.991 1081.25 Q165.186 1084.79 165.186 1091.92 Q165.186 1099.03 166.991 1102.59 Q168.82 1106.13 172.431 1106.13 Q176.065 1106.13 177.871 1102.59 Q179.7 1099.03 179.7 1091.92 Q179.7 1084.79 177.871 1081.25 Q176.065 1077.68 172.431 1077.68 M172.431 1073.98 Q178.241 1073.98 181.297 1078.59 Q184.376 1083.17 184.376 1091.92 Q184.376 1100.65 181.297 1105.25 Q178.241 1109.84 172.431 1109.84 Q166.621 1109.84 163.542 1105.25 Q160.487 1100.65 160.487 1091.92 Q160.487 1083.17 163.542 1078.59 Q166.621 1073.98 172.431 1073.98 Z" fill="#000000" fill-rule="evenodd" fill-opacity="1" /><path clip-path="url(#clip890)" d="M192.639 1074.6 L210.996 1074.6 L210.996 1078.54 L196.922 1078.54 L196.922 1087.01 Q197.94 1086.66 198.959 1086.5 Q199.977 1086.32 200.996 1086.32 Q206.783 1086.32 210.162 1089.49 Q213.542 1092.66 213.542 1098.08 Q213.542 1103.65 210.07 1106.76 Q206.598 1109.84 200.278 1109.84 Q198.102 1109.84 195.834 1109.47 Q193.588 1109.09 191.181 1108.35 L191.181 1103.65 Q193.264 1104.79 195.487 1105.34 Q197.709 1105.9 200.186 1105.9 Q204.19 1105.9 206.528 1103.79 Q208.866 1101.69 208.866 1098.08 Q208.866 1094.47 206.528 1092.36 Q204.19 1090.25 200.186 1090.25 Q198.311 1090.25 196.436 1090.67 Q194.584 1091.09 192.639 1091.97 L192.639 1074.6 Z" fill="#000000" fill-rule="evenodd" fill-opacity="1" /><path clip-path="url(#clip890)" d="M126.205 785.329 Q122.593 785.329 120.765 788.893 Q118.959 792.435 118.959 799.565 Q118.959 806.671 120.765 810.236 Q122.593 813.777 126.205 813.777 Q129.839 813.777 131.644 810.236 Q133.473 806.671 133.473 799.565 Q133.473 792.435 131.644 788.893 Q129.839 785.329 126.205 785.329 M126.205 781.625 Q132.015 781.625 135.07 786.231 Q138.149 790.815 138.149 799.565 Q138.149 808.291 135.07 812.898 Q132.015 817.481 126.205 817.481 Q120.394 817.481 117.316 812.898 Q114.26 808.291 114.26 799.565 Q114.26 790.815 117.316 786.231 Q120.394 781.625 126.205 781.625 Z" fill="#000000" fill-rule="evenodd" fill-opacity="1" /><path clip-path="url(#clip890)" d="M146.366 810.93 L151.251 810.93 L151.251 816.81 L146.366 816.81 L146.366 810.93 Z" fill="#000000" fill-rule="evenodd" fill-opacity="1" /><path clip-path="url(#clip890)" d="M162.246 812.875 L169.885 812.875 L169.885 786.509 L161.575 788.176 L161.575 783.917 L169.839 782.25 L174.514 782.25 L174.514 812.875 L182.153 812.875 L182.153 816.81 L162.246 816.81 L162.246 812.875 Z" fill="#000000" fill-rule="evenodd" fill-opacity="1" /><path clip-path="url(#clip890)" d="M201.598 785.329 Q197.987 785.329 196.158 788.893 Q194.352 792.435 194.352 799.565 Q194.352 806.671 196.158 810.236 Q197.987 813.777 201.598 813.777 Q205.232 813.777 207.037 810.236 Q208.866 806.671 208.866 799.565 Q208.866 792.435 207.037 788.893 Q205.232 785.329 201.598 785.329 M201.598 781.625 Q207.408 781.625 210.463 786.231 Q213.542 790.815 213.542 799.565 Q213.542 808.291 210.463 812.898 Q207.408 817.481 201.598 817.481 Q195.787 817.481 192.709 812.898 Q189.653 808.291 189.653 799.565 Q189.653 790.815 192.709 786.231 Q195.787 781.625 201.598 781.625 Z" fill="#000000" fill-rule="evenodd" fill-opacity="1" /><path clip-path="url(#clip890)" d="M127.2 492.974 Q123.589 492.974 121.76 496.539 Q119.955 500.081 119.955 507.21 Q119.955 514.317 121.76 517.882 Q123.589 521.423 127.2 521.423 Q130.834 521.423 132.64 517.882 Q134.468 514.317 134.468 507.21 Q134.468 500.081 132.64 496.539 Q130.834 492.974 127.2 492.974 M127.2 489.271 Q133.01 489.271 136.066 493.877 Q139.144 498.46 139.144 507.21 Q139.144 515.937 136.066 520.544 Q133.01 525.127 127.2 525.127 Q121.39 525.127 118.311 520.544 Q115.256 515.937 115.256 507.21 Q115.256 498.46 118.311 493.877 Q121.39 489.271 127.2 489.271 Z" fill="#000000" fill-rule="evenodd" fill-opacity="1" /><path clip-path="url(#clip890)" d="M147.362 518.576 L152.246 518.576 L152.246 524.456 L147.362 524.456 L147.362 518.576 Z" fill="#000000" fill-rule="evenodd" fill-opacity="1" /><path clip-path="url(#clip890)" d="M163.241 520.521 L170.88 520.521 L170.88 494.155 L162.57 495.822 L162.57 491.562 L170.834 489.896 L175.51 489.896 L175.51 520.521 L183.149 520.521 L183.149 524.456 L163.241 524.456 L163.241 520.521 Z" fill="#000000" fill-rule="evenodd" fill-opacity="1" /><path clip-path="url(#clip890)" d="M192.639 489.896 L210.996 489.896 L210.996 493.831 L196.922 493.831 L196.922 502.303 Q197.94 501.956 198.959 501.794 Q199.977 501.609 200.996 501.609 Q206.783 501.609 210.162 504.78 Q213.542 507.951 213.542 513.368 Q213.542 518.946 210.07 522.048 Q206.598 525.127 200.278 525.127 Q198.102 525.127 195.834 524.757 Q193.588 524.386 191.181 523.646 L191.181 518.946 Q193.264 520.081 195.487 520.636 Q197.709 521.192 200.186 521.192 Q204.19 521.192 206.528 519.085 Q208.866 516.979 208.866 513.368 Q208.866 509.757 206.528 507.65 Q204.19 505.544 200.186 505.544 Q198.311 505.544 196.436 505.96 Q194.584 506.377 192.639 507.257 L192.639 489.896 Z" fill="#000000" fill-rule="evenodd" fill-opacity="1" /><path clip-path="url(#clip890)" d="M126.205 200.62 Q122.593 200.62 120.765 204.185 Q118.959 207.727 118.959 214.856 Q118.959 221.963 120.765 225.527 Q122.593 229.069 126.205 229.069 Q129.839 229.069 131.644 225.527 Q133.473 221.963 133.473 214.856 Q133.473 207.727 131.644 204.185 Q129.839 200.62 126.205 200.62 M126.205 196.917 Q132.015 196.917 135.07 201.523 Q138.149 206.106 138.149 214.856 Q138.149 223.583 135.07 228.189 Q132.015 232.773 126.205 232.773 Q120.394 232.773 117.316 228.189 Q114.26 223.583 114.26 214.856 Q114.26 206.106 117.316 201.523 Q120.394 196.917 126.205 196.917 Z" fill="#000000" fill-rule="evenodd" fill-opacity="1" /><path clip-path="url(#clip890)" d="M146.366 226.222 L151.251 226.222 L151.251 232.102 L146.366 232.102 L146.366 226.222 Z" fill="#000000" fill-rule="evenodd" fill-opacity="1" /><path clip-path="url(#clip890)" d="M165.464 228.166 L181.783 228.166 L181.783 232.102 L159.839 232.102 L159.839 228.166 Q162.501 225.412 167.084 220.782 Q171.69 216.129 172.871 214.787 Q175.116 212.264 175.996 210.528 Q176.899 208.768 176.899 207.079 Q176.899 204.324 174.954 202.588 Q173.033 200.852 169.931 200.852 Q167.732 200.852 165.278 201.616 Q162.848 202.379 160.07 203.93 L160.07 199.208 Q162.894 198.074 165.348 197.495 Q167.802 196.917 169.839 196.917 Q175.209 196.917 178.403 199.602 Q181.598 202.287 181.598 206.778 Q181.598 208.907 180.788 210.828 Q180.001 212.727 177.894 215.319 Q177.315 215.99 174.214 219.208 Q171.112 222.402 165.464 228.166 Z" fill="#000000" fill-rule="evenodd" fill-opacity="1" /><path clip-path="url(#clip890)" d="M201.598 200.62 Q197.987 200.62 196.158 204.185 Q194.352 207.727 194.352 214.856 Q194.352 221.963 196.158 225.527 Q197.987 229.069 201.598 229.069 Q205.232 229.069 207.037 225.527 Q208.866 221.963 208.866 214.856 Q208.866 207.727 207.037 204.185 Q205.232 200.62 201.598 200.62 M201.598 196.917 Q207.408 196.917 210.463 201.523 Q213.542 206.106 213.542 214.856 Q213.542 223.583 210.463 228.189 Q207.408 232.773 201.598 232.773 Q195.787 232.773 192.709 228.189 Q189.653 223.583 189.653 214.856 Q189.653 206.106 192.709 201.523 Q195.787 196.917 201.598 196.917 Z" fill="#000000" fill-rule="evenodd" fill-opacity="1" /><path clip-path="url(#clip890)" d="M16.4842 859.343 L16.4842 832.034 L21.895 832.034 L21.895 852.914 L35.8996 852.914 L35.8996 834.071 L41.3104 834.071 L41.3104 852.914 L64.0042 852.914 L64.0042 859.343 L16.4842 859.343 Z" fill="#000000" fill-rule="evenodd" fill-opacity="1" /><path clip-path="url(#clip890)" d="M33.8307 806.19 Q33.2578 807.176 33.0032 808.354 Q32.7167 809.5 32.7167 810.9 Q32.7167 815.865 35.9632 818.539 Q39.1779 821.181 45.2253 821.181 L64.0042 821.181 L64.0042 827.069 L28.3562 827.069 L28.3562 821.181 L33.8944 821.181 Q30.6479 819.335 29.0883 816.375 Q27.4968 813.415 27.4968 809.181 Q27.4968 808.577 27.5923 807.845 Q27.656 807.113 27.8151 806.221 L33.8307 806.19 Z" fill="#000000" fill-rule="evenodd" fill-opacity="1" /><path clip-path="url(#clip890)" d="M46.0847 783.846 Q46.0847 790.944 47.7079 793.681 Q49.3312 796.418 53.2461 796.418 Q56.3653 796.418 58.2114 794.381 Q60.0256 792.312 60.0256 788.779 Q60.0256 783.91 56.5881 780.981 Q53.1188 778.021 47.3897 778.021 L46.0847 778.021 L46.0847 783.846 M43.6657 772.165 L64.0042 772.165 L64.0042 778.021 L58.5933 778.021 Q61.8398 780.027 63.3994 783.018 Q64.9272 786.01 64.9272 790.339 Q64.9272 795.813 61.8716 799.06 Q58.7843 802.275 53.6281 802.275 Q47.6125 802.275 44.5569 798.264 Q41.5014 794.222 41.5014 786.233 L41.5014 778.021 L40.9285 778.021 Q36.8862 778.021 34.6901 780.695 Q32.4621 783.337 32.4621 788.143 Q32.4621 791.198 33.1941 794.095 Q33.9262 796.991 35.3903 799.665 L29.9795 799.665 Q28.7381 796.45 28.1334 793.426 Q27.4968 790.403 27.4968 787.538 Q27.4968 779.804 31.5072 775.984 Q35.5176 772.165 43.6657 772.165 Z" fill="#000000" fill-rule="evenodd" fill-opacity="1" /><path clip-path="url(#clip890)" d="M29.7248 734.448 L35.1993 734.448 Q33.8307 736.931 33.1623 739.445 Q32.4621 741.928 32.4621 744.474 Q32.4621 750.171 36.0905 753.322 Q39.6872 756.473 46.212 756.473 Q52.7369 756.473 56.3653 753.322 Q59.9619 750.171 59.9619 744.474 Q59.9619 741.928 59.2935 739.445 Q58.5933 736.931 57.2247 734.448 L62.6355 734.448 Q63.7814 736.899 64.3543 739.541 Q64.9272 742.151 64.9272 745.111 Q64.9272 753.163 59.8664 757.906 Q54.8057 762.648 46.212 762.648 Q37.491 762.648 32.4939 757.874 Q27.4968 753.068 27.4968 744.729 Q27.4968 742.023 28.0697 739.445 Q28.6108 736.867 29.7248 734.448 Z" fill="#000000" fill-rule="evenodd" fill-opacity="1" /><path clip-path="url(#clip890)" d="M18.2347 718.47 L28.3562 718.47 L28.3562 706.407 L32.9077 706.407 L32.9077 718.47 L52.2594 718.47 Q56.6199 718.47 57.8613 717.293 Q59.1026 716.083 59.1026 712.423 L59.1026 706.407 L64.0042 706.407 L64.0042 712.423 Q64.0042 719.202 61.4897 721.78 Q58.9434 724.358 52.2594 724.358 L32.9077 724.358 L32.9077 728.655 L28.3562 728.655 L28.3562 724.358 L18.2347 724.358 L18.2347 718.47 Z" fill="#000000" fill-rule="evenodd" fill-opacity="1" /><path clip-path="url(#clip890)" d="M28.3562 698.705 L28.3562 692.848 L64.0042 692.848 L64.0042 698.705 L28.3562 698.705 M14.479 698.705 L14.479 692.848 L21.895 692.848 L21.895 698.705 L14.479 698.705 Z" fill="#000000" fill-rule="evenodd" fill-opacity="1" /><path clip-path="url(#clip890)" d="M32.4621 666.781 Q32.4621 671.491 36.1542 674.228 Q39.8145 676.966 46.212 676.966 Q52.6095 676.966 56.3017 674.26 Q59.9619 671.523 59.9619 666.781 Q59.9619 662.102 56.2698 659.365 Q52.5777 656.627 46.212 656.627 Q39.8781 656.627 36.186 659.365 Q32.4621 662.102 32.4621 666.781 M27.4968 666.781 Q27.4968 659.142 32.4621 654.781 Q37.4273 650.421 46.212 650.421 Q54.9649 650.421 59.9619 654.781 Q64.9272 659.142 64.9272 666.781 Q64.9272 674.451 59.9619 678.812 Q54.9649 683.14 46.212 683.14 Q37.4273 683.14 32.4621 678.812 Q27.4968 674.451 27.4968 666.781 Z" fill="#000000" fill-rule="evenodd" fill-opacity="1" /><path clip-path="url(#clip890)" d="M42.4881 611.081 L64.0042 611.081 L64.0042 616.937 L42.679 616.937 Q37.6183 616.937 35.1038 618.911 Q32.5894 620.884 32.5894 624.831 Q32.5894 629.573 35.6131 632.31 Q38.6368 635.048 43.8567 635.048 L64.0042 635.048 L64.0042 640.936 L28.3562 640.936 L28.3562 635.048 L33.8944 635.048 Q30.6797 632.947 29.0883 630.114 Q27.4968 627.25 27.4968 623.526 Q27.4968 617.383 31.3163 614.232 Q35.1038 611.081 42.4881 611.081 Z" fill="#000000" fill-rule="evenodd" fill-opacity="1" /><path clip-path="url(#clip892)" d="
M365.223 1384.24 L365.223 1384.24 L469.214 1384.24 L469.214 1384.24 L365.223 1384.24 L365.223 1384.24  Z
  " fill="#009af9" fill-rule="evenodd" fill-opacity="0.5"/>
<polyline clip-path="url(#clip892)" style="stroke:#000000; stroke-linecap:butt; stroke-linejoin:round; stroke-width:8; stroke-opacity:0.5; fill:none" points="
  365.223,1384.24 365.223,1384.24 469.214,1384.24 365.223,1384.24 
  "/>
<path clip-path="url(#clip892)" d="
M469.214 1384.24 L469.214 1384.24 L573.206 1384.24 L573.206 1384.24 L469.214 1384.24 L469.214 1384.24  Z
  " fill="#009af9" fill-rule="evenodd" fill-opacity="0.5"/>
<polyline clip-path="url(#clip892)" style="stroke:#000000; stroke-linecap:butt; stroke-linejoin:round; stroke-width:8; stroke-opacity:0.5; fill:none" points="
  469.214,1384.24 469.214,1384.24 573.206,1384.24 469.214,1384.24 
  "/>
<path clip-path="url(#clip892)" d="
M573.206 1384.24 L573.206 1384.24 L677.198 1384.24 L677.198 1384.24 L573.206 1384.24 L573.206 1384.24  Z
  " fill="#009af9" fill-rule="evenodd" fill-opacity="0.5"/>
<polyline clip-path="url(#clip892)" style="stroke:#000000; stroke-linecap:butt; stroke-linejoin:round; stroke-width:8; stroke-opacity:0.5; fill:none" points="
  573.206,1384.24 573.206,1384.24 677.198,1384.24 573.206,1384.24 
  "/>
<path clip-path="url(#clip892)" d="
M677.198 1325.77 L677.198 1384.24 L781.19 1384.24 L781.19 1325.77 L677.198 1325.77 L677.198 1325.77  Z
  " fill="#009af9" fill-rule="evenodd" fill-opacity="0.5"/>
<polyline clip-path="url(#clip892)" style="stroke:#000000; stroke-linecap:butt; stroke-linejoin:round; stroke-width:8; stroke-opacity:0.5; fill:none" points="
  677.198,1325.77 677.198,1384.24 781.19,1384.24 781.19,1325.77 677.198,1325.77 
  "/>
<path clip-path="url(#clip892)" d="
M781.19 1208.83 L781.19 1384.24 L885.182 1384.24 L885.182 1208.83 L781.19 1208.83 L781.19 1208.83  Z
  " fill="#009af9" fill-rule="evenodd" fill-opacity="0.5"/>
<polyline clip-path="url(#clip892)" style="stroke:#000000; stroke-linecap:butt; stroke-linejoin:round; stroke-width:8; stroke-opacity:0.5; fill:none" points="
  781.19,1208.83 781.19,1384.24 885.182,1384.24 885.182,1208.83 781.19,1208.83 
  "/>
<path clip-path="url(#clip892)" d="
M885.182 1091.88 L885.182 1384.24 L989.173 1384.24 L989.173 1091.88 L885.182 1091.88 L885.182 1091.88  Z
  " fill="#009af9" fill-rule="evenodd" fill-opacity="0.5"/>
<polyline clip-path="url(#clip892)" style="stroke:#000000; stroke-linecap:butt; stroke-linejoin:round; stroke-width:8; stroke-opacity:0.5; fill:none" points="
  885.182,1091.88 885.182,1384.24 989.173,1384.24 989.173,1091.88 885.182,1091.88 
  "/>
<path clip-path="url(#clip892)" d="
M989.173 916.472 L989.173 1384.24 L1093.17 1384.24 L1093.17 916.472 L989.173 916.472 L989.173 916.472  Z
  " fill="#009af9" fill-rule="evenodd" fill-opacity="0.5"/>
<polyline clip-path="url(#clip892)" style="stroke:#000000; stroke-linecap:butt; stroke-linejoin:round; stroke-width:8; stroke-opacity:0.5; fill:none" points="
  989.173,916.472 989.173,1384.24 1093.17,1384.24 1093.17,916.472 989.173,916.472 
  "/>
<path clip-path="url(#clip892)" d="
M1093.17 974.942 L1093.17 1384.24 L1197.16 1384.24 L1197.16 974.942 L1093.17 974.942 L1093.17 974.942  Z
  " fill="#009af9" fill-rule="evenodd" fill-opacity="0.5"/>
<polyline clip-path="url(#clip892)" style="stroke:#000000; stroke-linecap:butt; stroke-linejoin:round; stroke-width:8; stroke-opacity:0.5; fill:none" points="
  1093.17,974.942 1093.17,1384.24 1197.16,1384.24 1197.16,974.942 1093.17,974.942 
  "/>
<path clip-path="url(#clip892)" d="
M1197.16 448.705 L1197.16 1384.24 L1301.15 1384.24 L1301.15 448.705 L1197.16 448.705 L1197.16 448.705  Z
  " fill="#009af9" fill-rule="evenodd" fill-opacity="0.5"/>
<polyline clip-path="url(#clip892)" style="stroke:#000000; stroke-linecap:butt; stroke-linejoin:round; stroke-width:8; stroke-opacity:0.5; fill:none" points="
  1197.16,448.705 1197.16,1384.24 1301.15,1384.24 1301.15,448.705 1197.16,448.705 
  "/>
<path clip-path="url(#clip892)" d="
M1301.15 448.705 L1301.15 1384.24 L1405.14 1384.24 L1405.14 448.705 L1301.15 448.705 L1301.15 448.705  Z
  " fill="#009af9" fill-rule="evenodd" fill-opacity="0.5"/>
<polyline clip-path="url(#clip892)" style="stroke:#000000; stroke-linecap:butt; stroke-linejoin:round; stroke-width:8; stroke-opacity:0.5; fill:none" points="
  1301.15,448.705 1301.15,1384.24 1405.14,1384.24 1405.14,448.705 1301.15,448.705 
  "/>
<path clip-path="url(#clip892)" d="
M1405.14 156.351 L1405.14 1384.24 L1509.13 1384.24 L1509.13 156.351 L1405.14 156.351 L1405.14 156.351  Z
  " fill="#009af9" fill-rule="evenodd" fill-opacity="0.5"/>
<polyline clip-path="url(#clip892)" style="stroke:#000000; stroke-linecap:butt; stroke-linejoin:round; stroke-width:8; stroke-opacity:0.5; fill:none" points="
  1405.14,156.351 1405.14,1384.24 1509.13,1384.24 1509.13,156.351 1405.14,156.351 
  "/>
<path clip-path="url(#clip892)" d="
M1509.13 682.588 L1509.13 1384.24 L1613.12 1384.24 L1613.12 682.588 L1509.13 682.588 L1509.13 682.588  Z
  " fill="#009af9" fill-rule="evenodd" fill-opacity="0.5"/>
<polyline clip-path="url(#clip892)" style="stroke:#000000; stroke-linecap:butt; stroke-linejoin:round; stroke-width:8; stroke-opacity:0.5; fill:none" points="
  1509.13,682.588 1509.13,1384.24 1613.12,1384.24 1613.12,682.588 1509.13,682.588 
  "/>
<path clip-path="url(#clip892)" d="
M1613.12 916.472 L1613.12 1384.24 L1717.12 1384.24 L1717.12 916.472 L1613.12 916.472 L1613.12 916.472  Z
  " fill="#009af9" fill-rule="evenodd" fill-opacity="0.5"/>
<polyline clip-path="url(#clip892)" style="stroke:#000000; stroke-linecap:butt; stroke-linejoin:round; stroke-width:8; stroke-opacity:0.5; fill:none" points="
  1613.12,916.472 1613.12,1384.24 1717.12,1384.24 1717.12,916.472 1613.12,916.472 
  "/>
<path clip-path="url(#clip892)" d="
M1717.12 1325.77 L1717.12 1384.24 L1821.11 1384.24 L1821.11 1325.77 L1717.12 1325.77 L1717.12 1325.77  Z
  " fill="#009af9" fill-rule="evenodd" fill-opacity="0.5"/>
<polyline clip-path="url(#clip892)" style="stroke:#000000; stroke-linecap:butt; stroke-linejoin:round; stroke-width:8; stroke-opacity:0.5; fill:none" points="
  1717.12,1325.77 1717.12,1384.24 1821.11,1384.24 1821.11,1325.77 1717.12,1325.77 
  "/>
<path clip-path="url(#clip892)" d="
M1821.11 1325.77 L1821.11 1384.24 L1925.1 1384.24 L1925.1 1325.77 L1821.11 1325.77 L1821.11 1325.77  Z
  " fill="#009af9" fill-rule="evenodd" fill-opacity="0.5"/>
<polyline clip-path="url(#clip892)" style="stroke:#000000; stroke-linecap:butt; stroke-linejoin:round; stroke-width:8; stroke-opacity:0.5; fill:none" points="
  1821.11,1325.77 1821.11,1384.24 1925.1,1384.24 1925.1,1325.77 1821.11,1325.77 
  "/>
<path clip-path="url(#clip892)" d="
M1925.1 1325.77 L1925.1 1384.24 L2029.09 1384.24 L2029.09 1325.77 L1925.1 1325.77 L1925.1 1325.77  Z
  " fill="#009af9" fill-rule="evenodd" fill-opacity="0.5"/>
<polyline clip-path="url(#clip892)" style="stroke:#000000; stroke-linecap:butt; stroke-linejoin:round; stroke-width:8; stroke-opacity:0.5; fill:none" points="
  1925.1,1325.77 1925.1,1384.24 2029.09,1384.24 2029.09,1325.77 1925.1,1325.77 
  "/>
<path clip-path="url(#clip892)" d="
M2029.09 1384.24 L2029.09 1384.24 L2133.08 1384.24 L2133.08 1384.24 L2029.09 1384.24 L2029.09 1384.24  Z
  " fill="#009af9" fill-rule="evenodd" fill-opacity="0.5"/>
<polyline clip-path="url(#clip892)" style="stroke:#000000; stroke-linecap:butt; stroke-linejoin:round; stroke-width:8; stroke-opacity:0.5; fill:none" points="
  2029.09,1384.24 2029.09,1384.24 2133.08,1384.24 2029.09,1384.24 
  "/>
<path clip-path="url(#clip892)" d="
M2133.08 1384.24 L2133.08 1384.24 L2237.08 1384.24 L2237.08 1384.24 L2133.08 1384.24 L2133.08 1384.24  Z
  " fill="#009af9" fill-rule="evenodd" fill-opacity="0.5"/>
<polyline clip-path="url(#clip892)" style="stroke:#000000; stroke-linecap:butt; stroke-linejoin:round; stroke-width:8; stroke-opacity:0.5; fill:none" points="
  2133.08,1384.24 2133.08,1384.24 2237.08,1384.24 2133.08,1384.24 
  "/>
<circle clip-path="url(#clip892)" style="fill:#009af9; stroke:none; fill-opacity:0" cx="417.218" cy="1384.24" r="2"/>
<circle clip-path="url(#clip892)" style="fill:#009af9; stroke:none; fill-opacity:0" cx="521.21" cy="1384.24" r="2"/>
<circle clip-path="url(#clip892)" style="fill:#009af9; stroke:none; fill-opacity:0" cx="625.202" cy="1384.24" r="2"/>
<circle clip-path="url(#clip892)" style="fill:#009af9; stroke:none; fill-opacity:0" cx="729.194" cy="1325.77" r="2"/>
<circle clip-path="url(#clip892)" style="fill:#009af9; stroke:none; fill-opacity:0" cx="833.186" cy="1208.83" r="2"/>
<circle clip-path="url(#clip892)" style="fill:#009af9; stroke:none; fill-opacity:0" cx="937.178" cy="1091.88" r="2"/>
<circle clip-path="url(#clip892)" style="fill:#009af9; stroke:none; fill-opacity:0" cx="1041.17" cy="916.472" r="2"/>
<circle clip-path="url(#clip892)" style="fill:#009af9; stroke:none; fill-opacity:0" cx="1145.16" cy="974.942" r="2"/>
<circle clip-path="url(#clip892)" style="fill:#009af9; stroke:none; fill-opacity:0" cx="1249.15" cy="448.705" r="2"/>
<circle clip-path="url(#clip892)" style="fill:#009af9; stroke:none; fill-opacity:0" cx="1353.14" cy="448.705" r="2"/>
<circle clip-path="url(#clip892)" style="fill:#009af9; stroke:none; fill-opacity:0" cx="1457.14" cy="156.351" r="2"/>
<circle clip-path="url(#clip892)" style="fill:#009af9; stroke:none; fill-opacity:0" cx="1561.13" cy="682.588" r="2"/>
<circle clip-path="url(#clip892)" style="fill:#009af9; stroke:none; fill-opacity:0" cx="1665.12" cy="916.472" r="2"/>
<circle clip-path="url(#clip892)" style="fill:#009af9; stroke:none; fill-opacity:0" cx="1769.11" cy="1325.77" r="2"/>
<circle clip-path="url(#clip892)" style="fill:#009af9; stroke:none; fill-opacity:0" cx="1873.1" cy="1325.77" r="2"/>
<circle clip-path="url(#clip892)" style="fill:#009af9; stroke:none; fill-opacity:0" cx="1977.1" cy="1325.77" r="2"/>
<circle clip-path="url(#clip892)" style="fill:#009af9; stroke:none; fill-opacity:0" cx="2081.09" cy="1384.24" r="2"/>
<circle clip-path="url(#clip892)" style="fill:#009af9; stroke:none; fill-opacity:0" cx="2185.08" cy="1384.24" r="2"/>
<path clip-path="url(#clip892)" d="
M365.223 1384.24 L365.223 1384.24 L469.214 1384.24 L469.214 1384.24 L365.223 1384.24 L365.223 1384.24  Z
  " fill="#e26f46" fill-rule="evenodd" fill-opacity="0.5"/>
<polyline clip-path="url(#clip892)" style="stroke:#000000; stroke-linecap:butt; stroke-linejoin:round; stroke-width:8; stroke-opacity:0.5; fill:none" points="
  365.223,1384.24 365.223,1384.24 469.214,1384.24 365.223,1384.24 
  "/>
<path clip-path="url(#clip892)" d="
M469.214 1343.31 L469.214 1384.24 L573.206 1384.24 L573.206 1343.31 L469.214 1343.31 L469.214 1343.31  Z
  " fill="#e26f46" fill-rule="evenodd" fill-opacity="0.5"/>
<polyline clip-path="url(#clip892)" style="stroke:#000000; stroke-linecap:butt; stroke-linejoin:round; stroke-width:8; stroke-opacity:0.5; fill:none" points="
  469.214,1343.31 469.214,1384.24 573.206,1384.24 573.206,1343.31 469.214,1343.31 
  "/>
<path clip-path="url(#clip892)" d="
M573.206 1214.67 L573.206 1384.24 L677.198 1384.24 L677.198 1214.67 L573.206 1214.67 L573.206 1214.67  Z
  " fill="#e26f46" fill-rule="evenodd" fill-opacity="0.5"/>
<polyline clip-path="url(#clip892)" style="stroke:#000000; stroke-linecap:butt; stroke-linejoin:round; stroke-width:8; stroke-opacity:0.5; fill:none" points="
  573.206,1214.67 573.206,1384.24 677.198,1384.24 677.198,1214.67 573.206,1214.67 
  "/>
<path clip-path="url(#clip892)" d="
M677.198 1010.02 L677.198 1384.24 L781.19 1384.24 L781.19 1010.02 L677.198 1010.02 L677.198 1010.02  Z
  " fill="#e26f46" fill-rule="evenodd" fill-opacity="0.5"/>
<polyline clip-path="url(#clip892)" style="stroke:#000000; stroke-linecap:butt; stroke-linejoin:round; stroke-width:8; stroke-opacity:0.5; fill:none" points="
  677.198,1010.02 677.198,1384.24 781.19,1384.24 781.19,1010.02 677.198,1010.02 
  "/>
<path clip-path="url(#clip892)" d="
M781.19 518.87 L781.19 1384.24 L885.182 1384.24 L885.182 518.87 L781.19 518.87 L781.19 518.87  Z
  " fill="#e26f46" fill-rule="evenodd" fill-opacity="0.5"/>
<polyline clip-path="url(#clip892)" style="stroke:#000000; stroke-linecap:butt; stroke-linejoin:round; stroke-width:8; stroke-opacity:0.5; fill:none" points="
  781.19,518.87 781.19,1384.24 885.182,1384.24 885.182,518.87 781.19,518.87 
  "/>
<path clip-path="url(#clip892)" d="
M885.182 92.0328 L885.182 1384.24 L989.173 1384.24 L989.173 92.0328 L885.182 92.0328 L885.182 92.0328  Z
  " fill="#e26f46" fill-rule="evenodd" fill-opacity="0.5"/>
<polyline clip-path="url(#clip892)" style="stroke:#000000; stroke-linecap:butt; stroke-linejoin:round; stroke-width:8; stroke-opacity:0.5; fill:none" points="
  885.182,92.0328 885.182,1384.24 989.173,1384.24 989.173,92.0328 885.182,92.0328 
  "/>
<path clip-path="url(#clip892)" d="
M989.173 86.1857 L989.173 1384.24 L1093.17 1384.24 L1093.17 86.1857 L989.173 86.1857 L989.173 86.1857  Z
  " fill="#e26f46" fill-rule="evenodd" fill-opacity="0.5"/>
<polyline clip-path="url(#clip892)" style="stroke:#000000; stroke-linecap:butt; stroke-linejoin:round; stroke-width:8; stroke-opacity:0.5; fill:none" points="
  989.173,86.1857 989.173,1384.24 1093.17,1384.24 1093.17,86.1857 989.173,86.1857 
  "/>
<path clip-path="url(#clip892)" d="
M1093.17 378.54 L1093.17 1384.24 L1197.16 1384.24 L1197.16 378.54 L1093.17 378.54 L1093.17 378.54  Z
  " fill="#e26f46" fill-rule="evenodd" fill-opacity="0.5"/>
<polyline clip-path="url(#clip892)" style="stroke:#000000; stroke-linecap:butt; stroke-linejoin:round; stroke-width:8; stroke-opacity:0.5; fill:none" points="
  1093.17,378.54 1093.17,1384.24 1197.16,1384.24 1197.16,378.54 1093.17,378.54 
  "/>
<path clip-path="url(#clip892)" d="
M1197.16 875.542 L1197.16 1384.24 L1301.15 1384.24 L1301.15 875.542 L1197.16 875.542 L1197.16 875.542  Z
  " fill="#e26f46" fill-rule="evenodd" fill-opacity="0.5"/>
<polyline clip-path="url(#clip892)" style="stroke:#000000; stroke-linecap:butt; stroke-linejoin:round; stroke-width:8; stroke-opacity:0.5; fill:none" points="
  1197.16,875.542 1197.16,1384.24 1301.15,1384.24 1301.15,875.542 1197.16,875.542 
  "/>
<path clip-path="url(#clip892)" d="
M1301.15 1167.9 L1301.15 1384.24 L1405.14 1384.24 L1405.14 1167.9 L1301.15 1167.9 L1301.15 1167.9  Z
  " fill="#e26f46" fill-rule="evenodd" fill-opacity="0.5"/>
<polyline clip-path="url(#clip892)" style="stroke:#000000; stroke-linecap:butt; stroke-linejoin:round; stroke-width:8; stroke-opacity:0.5; fill:none" points="
  1301.15,1167.9 1301.15,1384.24 1405.14,1384.24 1405.14,1167.9 1301.15,1167.9 
  "/>
<path clip-path="url(#clip892)" d="
M1405.14 1319.92 L1405.14 1384.24 L1509.13 1384.24 L1509.13 1319.92 L1405.14 1319.92 L1405.14 1319.92  Z
  " fill="#e26f46" fill-rule="evenodd" fill-opacity="0.5"/>
<polyline clip-path="url(#clip892)" style="stroke:#000000; stroke-linecap:butt; stroke-linejoin:round; stroke-width:8; stroke-opacity:0.5; fill:none" points="
  1405.14,1319.92 1405.14,1384.24 1509.13,1384.24 1509.13,1319.92 1405.14,1319.92 
  "/>
<path clip-path="url(#clip892)" d="
M1509.13 1372.54 L1509.13 1384.24 L1613.12 1384.24 L1613.12 1372.54 L1509.13 1372.54 L1509.13 1372.54  Z
  " fill="#e26f46" fill-rule="evenodd" fill-opacity="0.5"/>
<polyline clip-path="url(#clip892)" style="stroke:#000000; stroke-linecap:butt; stroke-linejoin:round; stroke-width:8; stroke-opacity:0.5; fill:none" points="
  1509.13,1372.54 1509.13,1384.24 1613.12,1384.24 1613.12,1372.54 1509.13,1372.54 
  "/>
<path clip-path="url(#clip892)" d="
M1613.12 1384.24 L1613.12 1384.24 L1717.12 1384.24 L1717.12 1384.24 L1613.12 1384.24 L1613.12 1384.24  Z
  " fill="#e26f46" fill-rule="evenodd" fill-opacity="0.5"/>
<polyline clip-path="url(#clip892)" style="stroke:#000000; stroke-linecap:butt; stroke-linejoin:round; stroke-width:8; stroke-opacity:0.5; fill:none" points="
  1613.12,1384.24 1613.12,1384.24 1717.12,1384.24 1613.12,1384.24 
  "/>
<path clip-path="url(#clip892)" d="
M1717.12 1384.24 L1717.12 1384.24 L1821.11 1384.24 L1821.11 1384.24 L1717.12 1384.24 L1717.12 1384.24  Z
  " fill="#e26f46" fill-rule="evenodd" fill-opacity="0.5"/>
<polyline clip-path="url(#clip892)" style="stroke:#000000; stroke-linecap:butt; stroke-linejoin:round; stroke-width:8; stroke-opacity:0.5; fill:none" points="
  1717.12,1384.24 1717.12,1384.24 1821.11,1384.24 1717.12,1384.24 
  "/>
<path clip-path="url(#clip892)" d="
M1821.11 1384.24 L1821.11 1384.24 L1925.1 1384.24 L1925.1 1384.24 L1821.11 1384.24 L1821.11 1384.24  Z
  " fill="#e26f46" fill-rule="evenodd" fill-opacity="0.5"/>
<polyline clip-path="url(#clip892)" style="stroke:#000000; stroke-linecap:butt; stroke-linejoin:round; stroke-width:8; stroke-opacity:0.5; fill:none" points="
  1821.11,1384.24 1821.11,1384.24 1925.1,1384.24 1821.11,1384.24 
  "/>
<path clip-path="url(#clip892)" d="
M1925.1 1384.24 L1925.1 1384.24 L2029.09 1384.24 L2029.09 1384.24 L1925.1 1384.24 L1925.1 1384.24  Z
  " fill="#e26f46" fill-rule="evenodd" fill-opacity="0.5"/>
<polyline clip-path="url(#clip892)" style="stroke:#000000; stroke-linecap:butt; stroke-linejoin:round; stroke-width:8; stroke-opacity:0.5; fill:none" points="
  1925.1,1384.24 1925.1,1384.24 2029.09,1384.24 1925.1,1384.24 
  "/>
<path clip-path="url(#clip892)" d="
M2029.09 1384.24 L2029.09 1384.24 L2133.08 1384.24 L2133.08 1384.24 L2029.09 1384.24 L2029.09 1384.24  Z
  " fill="#e26f46" fill-rule="evenodd" fill-opacity="0.5"/>
<polyline clip-path="url(#clip892)" style="stroke:#000000; stroke-linecap:butt; stroke-linejoin:round; stroke-width:8; stroke-opacity:0.5; fill:none" points="
  2029.09,1384.24 2029.09,1384.24 2133.08,1384.24 2029.09,1384.24 
  "/>
<path clip-path="url(#clip892)" d="
M2133.08 1384.24 L2133.08 1384.24 L2237.08 1384.24 L2237.08 1384.24 L2133.08 1384.24 L2133.08 1384.24  Z
  " fill="#e26f46" fill-rule="evenodd" fill-opacity="0.5"/>
<polyline clip-path="url(#clip892)" style="stroke:#000000; stroke-linecap:butt; stroke-linejoin:round; stroke-width:8; stroke-opacity:0.5; fill:none" points="
  2133.08,1384.24 2133.08,1384.24 2237.08,1384.24 2133.08,1384.24 
  "/>
<circle clip-path="url(#clip892)" style="fill:#e26f46; stroke:none; fill-opacity:0" cx="417.218" cy="1384.24" r="2"/>
<circle clip-path="url(#clip892)" style="fill:#e26f46; stroke:none; fill-opacity:0" cx="521.21" cy="1343.31" r="2"/>
<circle clip-path="url(#clip892)" style="fill:#e26f46; stroke:none; fill-opacity:0" cx="625.202" cy="1214.67" r="2"/>
<circle clip-path="url(#clip892)" style="fill:#e26f46; stroke:none; fill-opacity:0" cx="729.194" cy="1010.02" r="2"/>
<circle clip-path="url(#clip892)" style="fill:#e26f46; stroke:none; fill-opacity:0" cx="833.186" cy="518.87" r="2"/>
<circle clip-path="url(#clip892)" style="fill:#e26f46; stroke:none; fill-opacity:0" cx="937.178" cy="92.0328" r="2"/>
<circle clip-path="url(#clip892)" style="fill:#e26f46; stroke:none; fill-opacity:0" cx="1041.17" cy="86.1857" r="2"/>
<circle clip-path="url(#clip892)" style="fill:#e26f46; stroke:none; fill-opacity:0" cx="1145.16" cy="378.54" r="2"/>
<circle clip-path="url(#clip892)" style="fill:#e26f46; stroke:none; fill-opacity:0" cx="1249.15" cy="875.542" r="2"/>
<circle clip-path="url(#clip892)" style="fill:#e26f46; stroke:none; fill-opacity:0" cx="1353.14" cy="1167.9" r="2"/>
<circle clip-path="url(#clip892)" style="fill:#e26f46; stroke:none; fill-opacity:0" cx="1457.14" cy="1319.92" r="2"/>
<circle clip-path="url(#clip892)" style="fill:#e26f46; stroke:none; fill-opacity:0" cx="1561.13" cy="1372.54" r="2"/>
<circle clip-path="url(#clip892)" style="fill:#e26f46; stroke:none; fill-opacity:0" cx="1665.12" cy="1384.24" r="2"/>
<circle clip-path="url(#clip892)" style="fill:#e26f46; stroke:none; fill-opacity:0" cx="1769.11" cy="1384.24" r="2"/>
<circle clip-path="url(#clip892)" style="fill:#e26f46; stroke:none; fill-opacity:0" cx="1873.1" cy="1384.24" r="2"/>
<circle clip-path="url(#clip892)" style="fill:#e26f46; stroke:none; fill-opacity:0" cx="1977.1" cy="1384.24" r="2"/>
<circle clip-path="url(#clip892)" style="fill:#e26f46; stroke:none; fill-opacity:0" cx="2081.09" cy="1384.24" r="2"/>
<circle clip-path="url(#clip892)" style="fill:#e26f46; stroke:none; fill-opacity:0" cx="2185.08" cy="1384.24" r="2"/>
<path clip-path="url(#clip890)" d="
M1953.22 248.629 L2282.65 248.629 L2282.65 93.1086 L1953.22 93.1086  Z
  " fill="#ffffff" fill-rule="evenodd" fill-opacity="1"/>
<polyline clip-path="url(#clip890)" style="stroke:#000000; stroke-linecap:butt; stroke-linejoin:round; stroke-width:4; stroke-opacity:1; fill:none" points="
  1953.22,248.629 2282.65,248.629 2282.65,93.1086 1953.22,93.1086 1953.22,248.629 
  "/>
<path clip-path="url(#clip890)" d="
M1976.59 165.685 L2116.8 165.685 L2116.8 124.213 L1976.59 124.213 L1976.59 165.685  Z
  " fill="#009af9" fill-rule="evenodd" fill-opacity="0.5"/>
<polyline clip-path="url(#clip890)" style="stroke:#000000; stroke-linecap:butt; stroke-linejoin:round; stroke-width:8; stroke-opacity:1; fill:none" points="
  1976.59,165.685 2116.8,165.685 2116.8,124.213 1976.59,124.213 1976.59,165.685 
  "/>
<path clip-path="url(#clip890)" d="M2140.17 127.669 L2147.14 127.669 L2155.96 151.187 L2164.82 127.669 L2171.79 127.669 L2171.79 162.229 L2167.23 162.229 L2167.23 131.882 L2158.32 155.585 L2153.62 155.585 L2144.71 131.882 L2144.71 162.229 L2140.17 162.229 L2140.17 127.669 Z" fill="#000000" fill-rule="evenodd" fill-opacity="1" /><path clip-path="url(#clip890)" d="M2203.06 148.201 L2203.06 150.284 L2183.48 150.284 Q2183.76 154.682 2186.12 156.997 Q2188.5 159.289 2192.74 159.289 Q2195.19 159.289 2197.48 158.687 Q2199.8 158.085 2202.07 156.881 L2202.07 160.909 Q2199.78 161.881 2197.37 162.391 Q2194.96 162.9 2192.48 162.9 Q2186.28 162.9 2182.65 159.289 Q2179.04 155.678 2179.04 149.52 Q2179.04 143.155 2182.46 139.428 Q2185.91 135.678 2191.74 135.678 Q2196.98 135.678 2200.01 139.057 Q2203.06 142.414 2203.06 148.201 M2198.8 146.951 Q2198.76 143.456 2196.84 141.372 Q2194.94 139.289 2191.79 139.289 Q2188.23 139.289 2186.07 141.303 Q2183.94 143.317 2183.62 146.974 L2198.8 146.951 Z" fill="#000000" fill-rule="evenodd" fill-opacity="1" /><path clip-path="url(#clip890)" d="
M1976.59 217.525 L2116.8 217.525 L2116.8 176.053 L1976.59 176.053 L1976.59 217.525  Z
  " fill="#e26f46" fill-rule="evenodd" fill-opacity="0.5"/>
<polyline clip-path="url(#clip890)" style="stroke:#000000; stroke-linecap:butt; stroke-linejoin:round; stroke-width:8; stroke-opacity:1; fill:none" points="
  1976.59,217.525 2116.8,217.525 2116.8,176.053 1976.59,176.053 1976.59,217.525 
  "/>
<path clip-path="url(#clip890)" d="M2165.73 209.138 L2165.73 199.856 L2158.09 199.856 L2158.09 196.013 L2170.36 196.013 L2170.36 210.851 Q2167.65 212.772 2164.38 213.768 Q2161.12 214.74 2157.42 214.74 Q2149.31 214.74 2144.73 210.018 Q2140.17 205.272 2140.17 196.823 Q2140.17 188.351 2144.73 183.629 Q2149.31 178.884 2157.42 178.884 Q2160.8 178.884 2163.83 179.717 Q2166.88 180.55 2169.45 182.171 L2169.45 187.147 Q2166.86 184.948 2163.94 183.837 Q2161.03 182.726 2157.81 182.726 Q2151.47 182.726 2148.27 186.268 Q2145.1 189.809 2145.1 196.823 Q2145.1 203.814 2148.27 207.356 Q2151.47 210.897 2157.81 210.897 Q2160.29 210.897 2162.23 210.481 Q2164.17 210.041 2165.73 209.138 Z" fill="#000000" fill-rule="evenodd" fill-opacity="1" /><path clip-path="url(#clip890)" d="M2199.61 180.643 L2199.61 185.203 Q2196.95 183.93 2194.59 183.305 Q2192.23 182.68 2190.03 182.68 Q2186.21 182.68 2184.13 184.161 Q2182.07 185.643 2182.07 188.374 Q2182.07 190.666 2183.43 191.847 Q2184.82 193.004 2188.67 193.722 L2191.49 194.3 Q2196.72 195.296 2199.2 197.819 Q2201.7 200.319 2201.7 204.532 Q2201.7 209.555 2198.32 212.147 Q2194.96 214.74 2188.46 214.74 Q2186 214.74 2183.23 214.184 Q2180.47 213.629 2177.51 212.541 L2177.51 207.726 Q2180.36 209.323 2183.09 210.133 Q2185.82 210.944 2188.46 210.944 Q2192.46 210.944 2194.64 209.37 Q2196.81 207.796 2196.81 204.879 Q2196.81 202.333 2195.24 200.897 Q2193.69 199.462 2190.12 198.745 L2187.28 198.189 Q2182.05 197.147 2179.71 194.925 Q2177.37 192.703 2177.37 188.745 Q2177.37 184.161 2180.59 181.522 Q2183.83 178.884 2189.5 178.884 Q2191.93 178.884 2194.45 179.323 Q2196.98 179.763 2199.61 180.643 Z" fill="#000000" fill-rule="evenodd" fill-opacity="1" /><path clip-path="url(#clip890)" d="M2225.38 197.865 Q2226.88 198.374 2228.29 200.041 Q2229.73 201.708 2231.17 204.624 L2235.91 214.069 L2230.89 214.069 L2226.47 205.203 Q2224.75 201.731 2223.13 200.596 Q2221.54 199.462 2218.76 199.462 L2213.67 199.462 L2213.67 214.069 L2208.99 214.069 L2208.99 179.509 L2219.55 179.509 Q2225.47 179.509 2228.39 181.985 Q2231.3 184.462 2231.3 189.462 Q2231.3 192.726 2229.78 194.879 Q2228.27 197.032 2225.38 197.865 M2213.67 183.351 L2213.67 195.62 L2219.55 195.62 Q2222.92 195.62 2224.64 194.069 Q2226.37 192.495 2226.37 189.462 Q2226.37 186.43 2224.64 184.902 Q2222.92 183.351 2219.55 183.351 L2213.67 183.351 Z" fill="#000000" fill-rule="evenodd" fill-opacity="1" /></svg>
