<?xml version="1.0" encoding="utf-8"?>
<svg xmlns="http://www.w3.org/2000/svg" xmlns:xlink="http://www.w3.org/1999/xlink" width="600" height="400" viewBox="0 0 2400 1600">
<defs>
  <clipPath id="clip600">
    <rect x="0" y="0" width="2400" height="1600"/>
  </clipPath>
</defs>
<path clip-path="url(#clip600)" d="
M0 1600 L2400 1600 L2400 0 L0 0  Z
  " fill="#ffffff" fill-rule="evenodd" fill-opacity="1"/>
<defs>
  <clipPath id="clip601">
    <rect x="480" y="0" width="1681" height="1600"/>
  </clipPath>
</defs>
<path clip-path="url(#clip600)" d="
M205.121 1423.18 L2352.76 1423.18 L2352.76 47.2441 L205.121 47.2441  Z
  " fill="#ffffff" fill-rule="evenodd" fill-opacity="1"/>
<defs>
  <clipPath id="clip602">
    <rect x="205" y="47" width="2149" height="1377"/>
  </clipPath>
</defs>
<polyline clip-path="url(#clip602)" style="stroke:#000000; stroke-linecap:butt; stroke-linejoin:round; stroke-width:2; stroke-opacity:0.1; fill:none" points="
  245.438,1423.18 245.438,47.2441 
  "/>
<polyline clip-path="url(#clip602)" style="stroke:#000000; stroke-linecap:butt; stroke-linejoin:round; stroke-width:2; stroke-opacity:0.1; fill:none" points="
  757.072,1423.18 757.072,47.2441 
  "/>
<polyline clip-path="url(#clip602)" style="stroke:#000000; stroke-linecap:butt; stroke-linejoin:round; stroke-width:2; stroke-opacity:0.1; fill:none" points="
  1268.71,1423.18 1268.71,47.2441 
  "/>
<polyline clip-path="url(#clip602)" style="stroke:#000000; stroke-linecap:butt; stroke-linejoin:round; stroke-width:2; stroke-opacity:0.1; fill:none" points="
  1780.34,1423.18 1780.34,47.2441 
  "/>
<polyline clip-path="url(#clip602)" style="stroke:#000000; stroke-linecap:butt; stroke-linejoin:round; stroke-width:2; stroke-opacity:0.1; fill:none" points="
  2291.97,1423.18 2291.97,47.2441 
  "/>
<polyline clip-path="url(#clip600)" style="stroke:#000000; stroke-linecap:butt; stroke-linejoin:round; stroke-width:4; stroke-opacity:1; fill:none" points="
  205.121,1423.18 2352.76,1423.18 
  "/>
<polyline clip-path="url(#clip600)" style="stroke:#000000; stroke-linecap:butt; stroke-linejoin:round; stroke-width:4; stroke-opacity:1; fill:none" points="
  245.438,1423.18 245.438,1404.28 
  "/>
<polyline clip-path="url(#clip600)" style="stroke:#000000; stroke-linecap:butt; stroke-linejoin:round; stroke-width:4; stroke-opacity:1; fill:none" points="
  757.072,1423.18 757.072,1404.28 
  "/>
<polyline clip-path="url(#clip600)" style="stroke:#000000; stroke-linecap:butt; stroke-linejoin:round; stroke-width:4; stroke-opacity:1; fill:none" points="
  1268.71,1423.18 1268.71,1404.28 
  "/>
<polyline clip-path="url(#clip600)" style="stroke:#000000; stroke-linecap:butt; stroke-linejoin:round; stroke-width:4; stroke-opacity:1; fill:none" points="
  1780.34,1423.18 1780.34,1404.28 
  "/>
<polyline clip-path="url(#clip600)" style="stroke:#000000; stroke-linecap:butt; stroke-linejoin:round; stroke-width:4; stroke-opacity:1; fill:none" points="
  2291.97,1423.18 2291.97,1404.28 
  "/>
<path clip-path="url(#clip600)" d="M245.438 1454.1 Q241.827 1454.1 239.998 1457.66 Q238.192 1461.2 238.192 1468.33 Q238.192 1475.44 239.998 1479.01 Q241.827 1482.55 245.438 1482.55 Q249.072 1482.55 250.878 1479.01 Q252.706 1475.44 252.706 1468.33 Q252.706 1461.2 250.878 1457.66 Q249.072 1454.1 245.438 1454.1 M245.438 1450.39 Q251.248 1450.39 254.303 1455 Q257.382 1459.58 257.382 1468.33 Q257.382 1477.06 254.303 1481.67 Q251.248 1486.25 245.438 1486.25 Q239.628 1486.25 236.549 1481.67 Q233.493 1477.06 233.493 1468.33 Q233.493 1459.58 236.549 1455 Q239.628 1450.39 245.438 1450.39 Z" fill="#000000" fill-rule="evenodd" fill-opacity="1" /><path clip-path="url(#clip600)" d="M736.343 1481.64 L752.662 1481.64 L752.662 1485.58 L730.718 1485.58 L730.718 1481.64 Q733.38 1478.89 737.963 1474.26 Q742.57 1469.61 743.75 1468.27 Q745.995 1465.74 746.875 1464.01 Q747.778 1462.25 747.778 1460.56 Q747.778 1457.8 745.833 1456.07 Q743.912 1454.33 740.81 1454.33 Q738.611 1454.33 736.158 1455.09 Q733.727 1455.86 730.949 1457.41 L730.949 1452.69 Q733.773 1451.55 736.227 1450.97 Q738.681 1450.39 740.718 1450.39 Q746.088 1450.39 749.282 1453.08 Q752.477 1455.77 752.477 1460.26 Q752.477 1462.39 751.667 1464.31 Q750.88 1466.2 748.773 1468.8 Q748.194 1469.47 745.093 1472.69 Q741.991 1475.88 736.343 1481.64 Z" fill="#000000" fill-rule="evenodd" fill-opacity="1" /><path clip-path="url(#clip600)" d="M762.523 1451.02 L780.879 1451.02 L780.879 1454.96 L766.805 1454.96 L766.805 1463.43 Q767.824 1463.08 768.843 1462.92 Q769.861 1462.73 770.88 1462.73 Q776.667 1462.73 780.046 1465.9 Q783.426 1469.08 783.426 1474.49 Q783.426 1480.07 779.954 1483.17 Q776.481 1486.25 770.162 1486.25 Q767.986 1486.25 765.718 1485.88 Q763.472 1485.51 761.065 1484.77 L761.065 1480.07 Q763.148 1481.2 765.37 1481.76 Q767.593 1482.32 770.069 1482.32 Q774.074 1482.32 776.412 1480.21 Q778.75 1478.1 778.75 1474.49 Q778.75 1470.88 776.412 1468.77 Q774.074 1466.67 770.069 1466.67 Q768.194 1466.67 766.319 1467.08 Q764.468 1467.5 762.523 1468.38 L762.523 1451.02 Z" fill="#000000" fill-rule="evenodd" fill-opacity="1" /><path clip-path="url(#clip600)" d="M1243.4 1451.02 L1261.76 1451.02 L1261.76 1454.96 L1247.69 1454.96 L1247.69 1463.43 Q1248.71 1463.08 1249.72 1462.92 Q1250.74 1462.73 1251.76 1462.73 Q1257.55 1462.73 1260.93 1465.9 Q1264.31 1469.08 1264.31 1474.49 Q1264.31 1480.07 1260.84 1483.17 Q1257.36 1486.25 1251.04 1486.25 Q1248.87 1486.25 1246.6 1485.88 Q1244.35 1485.51 1241.95 1484.77 L1241.95 1480.07 Q1244.03 1481.2 1246.25 1481.76 Q1248.47 1482.32 1250.95 1482.32 Q1254.96 1482.32 1257.29 1480.21 Q1259.63 1478.1 1259.63 1474.49 Q1259.63 1470.88 1257.29 1468.77 Q1254.96 1466.67 1250.95 1466.67 Q1249.08 1466.67 1247.2 1467.08 Q1245.35 1467.5 1243.4 1468.38 L1243.4 1451.02 Z" fill="#000000" fill-rule="evenodd" fill-opacity="1" /><path clip-path="url(#clip600)" d="M1283.52 1454.1 Q1279.91 1454.1 1278.08 1457.66 Q1276.28 1461.2 1276.28 1468.33 Q1276.28 1475.44 1278.08 1479.01 Q1279.91 1482.55 1283.52 1482.55 Q1287.15 1482.55 1288.96 1479.01 Q1290.79 1475.44 1290.79 1468.33 Q1290.79 1461.2 1288.96 1457.66 Q1287.15 1454.1 1283.52 1454.1 M1283.52 1450.39 Q1289.33 1450.39 1292.39 1455 Q1295.46 1459.58 1295.46 1468.33 Q1295.46 1477.06 1292.39 1481.67 Q1289.33 1486.25 1283.52 1486.25 Q1277.71 1486.25 1274.63 1481.67 Q1271.58 1477.06 1271.58 1468.33 Q1271.58 1459.58 1274.63 1455 Q1277.71 1450.39 1283.52 1450.39 Z" fill="#000000" fill-rule="evenodd" fill-opacity="1" /><path clip-path="url(#clip600)" d="M1754.19 1451.02 L1776.42 1451.02 L1776.42 1453.01 L1763.87 1485.58 L1758.99 1485.58 L1770.79 1454.96 L1754.19 1454.96 L1754.19 1451.02 Z" fill="#000000" fill-rule="evenodd" fill-opacity="1" /><path clip-path="url(#clip600)" d="M1785.58 1451.02 L1803.94 1451.02 L1803.94 1454.96 L1789.87 1454.96 L1789.87 1463.43 Q1790.88 1463.08 1791.9 1462.92 Q1792.92 1462.73 1793.94 1462.73 Q1799.73 1462.73 1803.11 1465.9 Q1806.49 1469.08 1806.49 1474.49 Q1806.49 1480.07 1803.01 1483.17 Q1799.54 1486.25 1793.22 1486.25 Q1791.05 1486.25 1788.78 1485.88 Q1786.53 1485.51 1784.12 1484.77 L1784.12 1480.07 Q1786.21 1481.2 1788.43 1481.76 Q1790.65 1482.32 1793.13 1482.32 Q1797.13 1482.32 1799.47 1480.21 Q1801.81 1478.1 1801.81 1474.49 Q1801.81 1470.88 1799.47 1468.77 Q1797.13 1466.67 1793.13 1466.67 Q1791.25 1466.67 1789.38 1467.08 Q1787.53 1467.5 1785.58 1468.38 L1785.58 1451.02 Z" fill="#000000" fill-rule="evenodd" fill-opacity="1" /><path clip-path="url(#clip600)" d="M2251.58 1481.64 L2259.22 1481.64 L2259.22 1455.28 L2250.91 1456.95 L2250.91 1452.69 L2259.17 1451.02 L2263.85 1451.02 L2263.85 1481.64 L2271.49 1481.64 L2271.49 1485.58 L2251.58 1485.58 L2251.58 1481.64 Z" fill="#000000" fill-rule="evenodd" fill-opacity="1" /><path clip-path="url(#clip600)" d="M2290.93 1454.1 Q2287.32 1454.1 2285.49 1457.66 Q2283.69 1461.2 2283.69 1468.33 Q2283.69 1475.44 2285.49 1479.01 Q2287.32 1482.55 2290.93 1482.55 Q2294.57 1482.55 2296.37 1479.01 Q2298.2 1475.44 2298.2 1468.33 Q2298.2 1461.2 2296.37 1457.66 Q2294.57 1454.1 2290.93 1454.1 M2290.93 1450.39 Q2296.74 1450.39 2299.8 1455 Q2302.88 1459.58 2302.88 1468.33 Q2302.88 1477.06 2299.8 1481.67 Q2296.74 1486.25 2290.93 1486.25 Q2285.12 1486.25 2282.04 1481.67 Q2278.99 1477.06 2278.99 1468.33 Q2278.99 1459.58 2282.04 1455 Q2285.12 1450.39 2290.93 1450.39 Z" fill="#000000" fill-rule="evenodd" fill-opacity="1" /><path clip-path="url(#clip600)" d="M2321.09 1454.1 Q2317.48 1454.1 2315.65 1457.66 Q2313.85 1461.2 2313.85 1468.33 Q2313.85 1475.44 2315.65 1479.01 Q2317.48 1482.55 2321.09 1482.55 Q2324.73 1482.55 2326.53 1479.01 Q2328.36 1475.44 2328.36 1468.33 Q2328.36 1461.2 2326.53 1457.66 Q2324.73 1454.1 2321.09 1454.1 M2321.09 1450.39 Q2326.9 1450.39 2329.96 1455 Q2333.04 1459.58 2333.04 1468.33 Q2333.04 1477.06 2329.96 1481.67 Q2326.9 1486.25 2321.09 1486.25 Q2315.28 1486.25 2312.21 1481.67 Q2309.15 1477.06 2309.15 1468.33 Q2309.15 1459.58 2312.21 1455 Q2315.28 1450.39 2321.09 1450.39 Z" fill="#000000" fill-rule="evenodd" fill-opacity="1" /><path clip-path="url(#clip600)" d="M1238.26 1545.76 Q1240.33 1546.46 1242.27 1548.76 Q1244.25 1551.05 1246.22 1555.06 L1252.74 1568.04 L1245.84 1568.04 L1239.76 1555.85 Q1237.4 1551.08 1235.17 1549.52 Q1232.98 1547.96 1229.16 1547.96 L1222.16 1547.96 L1222.16 1568.04 L1215.73 1568.04 L1215.73 1520.52 L1230.24 1520.52 Q1238.39 1520.52 1242.4 1523.93 Q1246.41 1527.34 1246.41 1534.21 Q1246.41 1538.7 1244.31 1541.66 Q1242.24 1544.62 1238.26 1545.76 M1222.16 1525.81 L1222.16 1542.68 L1230.24 1542.68 Q1234.89 1542.68 1237.24 1540.54 Q1239.63 1538.38 1239.63 1534.21 Q1239.63 1530.04 1237.24 1527.94 Q1234.89 1525.81 1230.24 1525.81 L1222.16 1525.81 Z" fill="#000000" fill-rule="evenodd" fill-opacity="1" /><path clip-path="url(#clip600)" d="M1271.65 1536.5 Q1266.94 1536.5 1264.2 1540.19 Q1261.46 1543.85 1261.46 1550.25 Q1261.46 1556.65 1264.17 1560.34 Q1266.91 1564 1271.65 1564 Q1276.33 1564 1279.07 1560.31 Q1281.8 1556.62 1281.8 1550.25 Q1281.8 1543.92 1279.07 1540.23 Q1276.33 1536.5 1271.65 1536.5 M1271.65 1531.54 Q1279.29 1531.54 1283.65 1536.5 Q1288.01 1541.47 1288.01 1550.25 Q1288.01 1559 1283.65 1564 Q1279.29 1568.97 1271.65 1568.97 Q1263.98 1568.97 1259.62 1564 Q1255.29 1559 1255.29 1550.25 Q1255.29 1541.47 1259.62 1536.5 Q1263.98 1531.54 1271.65 1531.54 Z" fill="#000000" fill-rule="evenodd" fill-opacity="1" /><path clip-path="url(#clip600)" d="M1294.31 1532.4 L1300.17 1532.4 L1307.49 1560.21 L1314.78 1532.4 L1321.68 1532.4 L1329 1560.21 L1336.29 1532.4 L1342.15 1532.4 L1332.82 1568.04 L1325.92 1568.04 L1318.25 1538.83 L1310.54 1568.04 L1303.64 1568.04 L1294.31 1532.4 Z" fill="#000000" fill-rule="evenodd" fill-opacity="1" /><polyline clip-path="url(#clip602)" style="stroke:#000000; stroke-linecap:butt; stroke-linejoin:round; stroke-width:2; stroke-opacity:0.1; fill:none" points="
  205.121,1167.9 2352.76,1167.9 
  "/>
<polyline clip-path="url(#clip602)" style="stroke:#000000; stroke-linecap:butt; stroke-linejoin:round; stroke-width:2; stroke-opacity:0.1; fill:none" points="
  205.121,897.469 2352.76,897.469 
  "/>
<polyline clip-path="url(#clip602)" style="stroke:#000000; stroke-linecap:butt; stroke-linejoin:round; stroke-width:2; stroke-opacity:0.1; fill:none" points="
  205.121,627.041 2352.76,627.041 
  "/>
<polyline clip-path="url(#clip602)" style="stroke:#000000; stroke-linecap:butt; stroke-linejoin:round; stroke-width:2; stroke-opacity:0.1; fill:none" points="
  205.121,356.613 2352.76,356.613 
  "/>
<polyline clip-path="url(#clip602)" style="stroke:#000000; stroke-linecap:butt; stroke-linejoin:round; stroke-width:2; stroke-opacity:0.1; fill:none" points="
  205.121,86.1857 2352.76,86.1857 
  "/>
<polyline clip-path="url(#clip600)" style="stroke:#000000; stroke-linecap:butt; stroke-linejoin:round; stroke-width:4; stroke-opacity:1; fill:none" points="
  205.121,1423.18 205.121,47.2441 
  "/>
<polyline clip-path="url(#clip600)" style="stroke:#000000; stroke-linecap:butt; stroke-linejoin:round; stroke-width:4; stroke-opacity:1; fill:none" points="
  205.121,1167.9 224.019,1167.9 
  "/>
<polyline clip-path="url(#clip600)" style="stroke:#000000; stroke-linecap:butt; stroke-linejoin:round; stroke-width:4; stroke-opacity:1; fill:none" points="
  205.121,897.469 224.019,897.469 
  "/>
<polyline clip-path="url(#clip600)" style="stroke:#000000; stroke-linecap:butt; stroke-linejoin:round; stroke-width:4; stroke-opacity:1; fill:none" points="
  205.121,627.041 224.019,627.041 
  "/>
<polyline clip-path="url(#clip600)" style="stroke:#000000; stroke-linecap:butt; stroke-linejoin:round; stroke-width:4; stroke-opacity:1; fill:none" points="
  205.121,356.613 224.019,356.613 
  "/>
<polyline clip-path="url(#clip600)" style="stroke:#000000; stroke-linecap:butt; stroke-linejoin:round; stroke-width:4; stroke-opacity:1; fill:none" points="
  205.121,86.1857 224.019,86.1857 
  "/>
<path clip-path="url(#clip600)" d="M122.038 1181.24 L138.357 1181.24 L138.357 1185.18 L116.413 1185.18 L116.413 1181.24 Q119.075 1178.49 123.658 1173.86 Q128.265 1169.2 129.445 1167.86 Q131.691 1165.34 132.57 1163.6 Q133.473 1161.84 133.473 1160.15 Q133.473 1157.4 131.529 1155.66 Q129.607 1153.93 126.505 1153.93 Q124.306 1153.93 121.853 1154.69 Q119.422 1155.45 116.644 1157.01 L116.644 1152.28 Q119.468 1151.15 121.922 1150.57 Q124.376 1149.99 126.413 1149.99 Q131.783 1149.99 134.978 1152.68 Q138.172 1155.36 138.172 1159.85 Q138.172 1161.98 137.362 1163.9 Q136.575 1165.8 134.468 1168.39 Q133.89 1169.07 130.788 1172.28 Q127.686 1175.48 122.038 1181.24 Z" fill="#000000" fill-rule="evenodd" fill-opacity="1" /><path clip-path="url(#clip600)" d="M148.218 1150.62 L166.575 1150.62 L166.575 1154.55 L152.501 1154.55 L152.501 1163.02 Q153.519 1162.68 154.538 1162.51 Q155.556 1162.33 156.575 1162.33 Q162.362 1162.33 165.741 1165.5 Q169.121 1168.67 169.121 1174.09 Q169.121 1179.67 165.649 1182.77 Q162.177 1185.85 155.857 1185.85 Q153.681 1185.85 151.413 1185.48 Q149.167 1185.11 146.76 1184.37 L146.76 1179.67 Q148.843 1180.8 151.066 1181.36 Q153.288 1181.91 155.765 1181.91 Q159.769 1181.91 162.107 1179.81 Q164.445 1177.7 164.445 1174.09 Q164.445 1170.48 162.107 1168.37 Q159.769 1166.26 155.765 1166.26 Q153.89 1166.26 152.015 1166.68 Q150.163 1167.1 148.218 1167.98 L148.218 1150.62 Z" fill="#000000" fill-rule="evenodd" fill-opacity="1" /><path clip-path="url(#clip600)" d="M131.181 896.114 Q134.538 896.832 136.413 899.1 Q138.311 901.369 138.311 904.702 Q138.311 909.818 134.792 912.619 Q131.274 915.42 124.793 915.42 Q122.617 915.42 120.302 914.98 Q118.01 914.563 115.556 913.707 L115.556 909.193 Q117.501 910.327 119.816 910.906 Q122.13 911.485 124.654 911.485 Q129.052 911.485 131.343 909.749 Q133.658 908.012 133.658 904.702 Q133.658 901.647 131.505 899.934 Q129.376 898.198 125.556 898.198 L121.529 898.198 L121.529 894.355 L125.742 894.355 Q129.191 894.355 131.019 892.989 Q132.848 891.601 132.848 889.008 Q132.848 886.346 130.95 884.934 Q129.075 883.499 125.556 883.499 Q123.635 883.499 121.436 883.915 Q119.237 884.332 116.598 885.212 L116.598 881.045 Q119.26 880.304 121.575 879.934 Q123.913 879.564 125.973 879.564 Q131.297 879.564 134.399 881.994 Q137.501 884.401 137.501 888.522 Q137.501 891.392 135.857 893.383 Q134.214 895.35 131.181 896.114 Z" fill="#000000" fill-rule="evenodd" fill-opacity="1" /><path clip-path="url(#clip600)" d="M157.177 883.267 Q153.566 883.267 151.737 886.832 Q149.931 890.374 149.931 897.503 Q149.931 904.61 151.737 908.175 Q153.566 911.716 157.177 911.716 Q160.811 911.716 162.616 908.175 Q164.445 904.61 164.445 897.503 Q164.445 890.374 162.616 886.832 Q160.811 883.267 157.177 883.267 M157.177 879.564 Q162.987 879.564 166.042 884.17 Q169.121 888.753 169.121 897.503 Q169.121 906.23 166.042 910.837 Q162.987 915.42 157.177 915.42 Q151.366 915.42 148.288 910.837 Q145.232 906.23 145.232 897.503 Q145.232 888.753 148.288 884.17 Q151.366 879.564 157.177 879.564 Z" fill="#000000" fill-rule="evenodd" fill-opacity="1" /><path clip-path="url(#clip600)" d="M132.177 625.687 Q135.533 626.404 137.408 628.673 Q139.306 630.941 139.306 634.275 Q139.306 639.39 135.788 642.191 Q132.269 644.992 125.788 644.992 Q123.612 644.992 121.297 644.552 Q119.006 644.136 116.552 643.279 L116.552 638.765 Q118.496 639.9 120.811 640.478 Q123.126 641.057 125.649 641.057 Q130.047 641.057 132.339 639.321 Q134.654 637.585 134.654 634.275 Q134.654 631.219 132.501 629.506 Q130.371 627.77 126.552 627.77 L122.524 627.77 L122.524 623.928 L126.737 623.928 Q130.186 623.928 132.015 622.562 Q133.843 621.173 133.843 618.58 Q133.843 615.918 131.945 614.506 Q130.07 613.071 126.552 613.071 Q124.63 613.071 122.431 613.488 Q120.232 613.904 117.593 614.784 L117.593 610.617 Q120.255 609.877 122.57 609.506 Q124.908 609.136 126.968 609.136 Q132.292 609.136 135.394 611.566 Q138.496 613.974 138.496 618.094 Q138.496 620.965 136.853 622.955 Q135.209 624.923 132.177 625.687 Z" fill="#000000" fill-rule="evenodd" fill-opacity="1" /><path clip-path="url(#clip600)" d="M148.218 609.761 L166.575 609.761 L166.575 613.696 L152.501 613.696 L152.501 622.168 Q153.519 621.821 154.538 621.659 Q155.556 621.474 156.575 621.474 Q162.362 621.474 165.741 624.645 Q169.121 627.816 169.121 633.233 Q169.121 638.812 165.649 641.914 Q162.177 644.992 155.857 644.992 Q153.681 644.992 151.413 644.622 Q149.167 644.251 146.76 643.511 L146.76 638.812 Q148.843 639.946 151.066 640.501 Q153.288 641.057 155.765 641.057 Q159.769 641.057 162.107 638.951 Q164.445 636.844 164.445 633.233 Q164.445 629.622 162.107 627.515 Q159.769 625.409 155.765 625.409 Q153.89 625.409 152.015 625.826 Q150.163 626.242 148.218 627.122 L148.218 609.761 Z" fill="#000000" fill-rule="evenodd" fill-opacity="1" /><path clip-path="url(#clip600)" d="M129.862 343.407 L118.056 361.856 L129.862 361.856 L129.862 343.407 M128.635 339.333 L134.515 339.333 L134.515 361.856 L139.445 361.856 L139.445 365.745 L134.515 365.745 L134.515 373.893 L129.862 373.893 L129.862 365.745 L114.26 365.745 L114.26 361.231 L128.635 339.333 Z" fill="#000000" fill-rule="evenodd" fill-opacity="1" /><path clip-path="url(#clip600)" d="M157.177 342.412 Q153.566 342.412 151.737 345.977 Q149.931 349.518 149.931 356.648 Q149.931 363.754 151.737 367.319 Q153.566 370.861 157.177 370.861 Q160.811 370.861 162.616 367.319 Q164.445 363.754 164.445 356.648 Q164.445 349.518 162.616 345.977 Q160.811 342.412 157.177 342.412 M157.177 338.708 Q162.987 338.708 166.042 343.315 Q169.121 347.898 169.121 356.648 Q169.121 365.375 166.042 369.981 Q162.987 374.565 157.177 374.565 Q151.366 374.565 148.288 369.981 Q145.232 365.375 145.232 356.648 Q145.232 347.898 148.288 343.315 Q151.366 338.708 157.177 338.708 Z" fill="#000000" fill-rule="evenodd" fill-opacity="1" /><path clip-path="url(#clip600)" d="M130.857 72.9797 L119.052 91.4287 L130.857 91.4287 L130.857 72.9797 M129.63 68.9057 L135.51 68.9057 L135.51 91.4287 L140.441 91.4287 L140.441 95.3176 L135.51 95.3176 L135.51 103.466 L130.857 103.466 L130.857 95.3176 L115.256 95.3176 L115.256 90.8037 L129.63 68.9057 Z" fill="#000000" fill-rule="evenodd" fill-opacity="1" /><path clip-path="url(#clip600)" d="M148.218 68.9057 L166.575 68.9057 L166.575 72.8408 L152.501 72.8408 L152.501 81.313 Q153.519 80.9658 154.538 80.8038 Q155.556 80.6186 156.575 80.6186 Q162.362 80.6186 165.741 83.7899 Q169.121 86.9611 169.121 92.3778 Q169.121 97.9564 165.649 101.058 Q162.177 104.137 155.857 104.137 Q153.681 104.137 151.413 103.767 Q149.167 103.396 146.76 102.655 L146.76 97.9564 Q148.843 99.0907 151.066 99.6462 Q153.288 100.202 155.765 100.202 Q159.769 100.202 162.107 98.0953 Q164.445 95.9889 164.445 92.3778 Q164.445 88.7667 162.107 86.6602 Q159.769 84.5537 155.765 84.5537 Q153.89 84.5537 152.015 84.9704 Q150.163 85.3871 148.218 86.2667 L148.218 68.9057 Z" fill="#000000" fill-rule="evenodd" fill-opacity="1" /><path clip-path="url(#clip600)" d="M18.0438 792.026 L24.314 792.026 Q22.5634 795.686 21.704 798.933 Q20.8447 802.179 20.8447 805.203 Q20.8447 810.455 22.8817 813.319 Q24.9187 816.152 28.6745 816.152 Q31.8255 816.152 33.4488 814.274 Q35.0402 812.364 36.0269 807.081 L36.8226 803.198 Q38.1912 796.004 41.6605 792.599 Q45.098 789.161 50.8908 789.161 Q57.7976 789.161 61.3624 793.808 Q64.9272 798.423 64.9272 807.367 Q64.9272 810.741 64.1633 814.561 Q63.3994 818.348 61.9035 822.422 L55.2831 822.422 Q57.4793 818.507 58.5933 814.751 Q59.7073 810.996 59.7073 807.367 Q59.7073 801.861 57.543 798.869 Q55.3786 795.877 51.3682 795.877 Q47.8671 795.877 45.8937 798.041 Q43.9204 800.174 42.9337 805.076 L42.1698 808.991 Q40.7375 816.184 37.682 819.398 Q34.6264 822.613 29.1837 822.613 Q22.8817 822.613 19.2532 818.189 Q15.6248 813.733 15.6248 805.935 Q15.6248 802.593 16.2295 799.124 Q16.8343 795.654 18.0438 792.026 Z" fill="#000000" fill-rule="evenodd" fill-opacity="1" /><path clip-path="url(#clip600)" d="M29.7248 753.736 L35.1993 753.736 Q33.8307 756.219 33.1623 758.733 Q32.4621 761.216 32.4621 763.762 Q32.4621 769.459 36.0905 772.61 Q39.6872 775.762 46.212 775.762 Q52.7369 775.762 56.3653 772.61 Q59.9619 769.459 59.9619 763.762 Q59.9619 761.216 59.2935 758.733 Q58.5933 756.219 57.2247 753.736 L62.6355 753.736 Q63.7814 756.187 64.3543 758.829 Q64.9272 761.439 64.9272 764.399 Q64.9272 772.451 59.8664 777.194 Q54.8057 781.936 46.212 781.936 Q37.491 781.936 32.4939 777.162 Q27.4968 772.356 27.4968 764.017 Q27.4968 761.311 28.0697 758.733 Q28.6108 756.155 29.7248 753.736 Z" fill="#000000" fill-rule="evenodd" fill-opacity="1" /><path clip-path="url(#clip600)" d="M32.4621 729.737 Q32.4621 734.448 36.1542 737.185 Q39.8145 739.923 46.212 739.923 Q52.6095 739.923 56.3017 737.217 Q59.9619 734.48 59.9619 729.737 Q59.9619 725.059 56.2698 722.321 Q52.5777 719.584 46.212 719.584 Q39.8781 719.584 36.186 722.321 Q32.4621 725.059 32.4621 729.737 M27.4968 729.737 Q27.4968 722.099 32.4621 717.738 Q37.4273 713.378 46.212 713.378 Q54.9649 713.378 59.9619 717.738 Q64.9272 722.099 64.9272 729.737 Q64.9272 737.408 59.9619 741.769 Q54.9649 746.097 46.212 746.097 Q37.4273 746.097 32.4621 741.769 Q27.4968 737.408 27.4968 729.737 Z" fill="#000000" fill-rule="evenodd" fill-opacity="1" /><path clip-path="url(#clip600)" d="M33.8307 683.013 Q33.2578 684 33.0032 685.178 Q32.7167 686.323 32.7167 687.724 Q32.7167 692.689 35.9632 695.363 Q39.1779 698.004 45.2253 698.004 L64.0042 698.004 L64.0042 703.893 L28.3562 703.893 L28.3562 698.004 L33.8944 698.004 Q30.6479 696.158 29.0883 693.198 Q27.4968 690.238 27.4968 686.005 Q27.4968 685.4 27.5923 684.668 Q27.656 683.936 27.8151 683.045 L33.8307 683.013 Z" fill="#000000" fill-rule="evenodd" fill-opacity="1" /><path clip-path="url(#clip600)" d="M44.7161 647.811 L47.5806 647.811 L47.5806 674.738 Q53.6281 674.356 56.8109 671.109 Q59.9619 667.831 59.9619 662.006 Q59.9619 658.633 59.1344 655.481 Q58.3069 652.299 56.6518 649.179 L62.1899 649.179 Q63.5267 652.33 64.227 655.641 Q64.9272 658.951 64.9272 662.356 Q64.9272 670.887 59.9619 675.884 Q54.9967 680.849 46.5303 680.849 Q37.7774 680.849 32.6531 676.138 Q27.4968 671.396 27.4968 663.375 Q27.4968 656.182 32.1438 652.012 Q36.7589 647.811 44.7161 647.811 M42.9973 653.667 Q38.1912 653.731 35.3266 656.373 Q32.4621 658.983 32.4621 663.311 Q32.4621 668.213 35.2312 671.173 Q38.0002 674.101 43.0292 674.547 L42.9973 653.667 Z" fill="#000000" fill-rule="evenodd" fill-opacity="1" /><circle clip-path="url(#clip602)" cx="265.903" cy="86.1857" r="14" fill="#009af9" fill-rule="evenodd" fill-opacity="1" stroke="#000000" stroke-opacity="1" stroke-width="3.2"/>
<circle clip-path="url(#clip602)" cx="286.368" cy="572.955" r="14" fill="#009af9" fill-rule="evenodd" fill-opacity="1" stroke="#000000" stroke-opacity="1" stroke-width="3.2"/>
<circle clip-path="url(#clip602)" cx="306.834" cy="627.041" r="14" fill="#009af9" fill-rule="evenodd" fill-opacity="1" stroke="#000000" stroke-opacity="1" stroke-width="3.2"/>
<circle clip-path="url(#clip602)" cx="327.299" cy="897.469" r="14" fill="#009af9" fill-rule="evenodd" fill-opacity="1" stroke="#000000" stroke-opacity="1" stroke-width="3.2"/>
<circle clip-path="url(#clip602)" cx="347.765" cy="789.297" r="14" fill="#009af9" fill-rule="evenodd" fill-opacity="1" stroke="#000000" stroke-opacity="1" stroke-width="3.2"/>
<circle clip-path="url(#clip602)" cx="368.23" cy="681.126" r="14" fill="#009af9" fill-rule="evenodd" fill-opacity="1" stroke="#000000" stroke-opacity="1" stroke-width="3.2"/>
<circle clip-path="url(#clip602)" cx="388.695" cy="951.554" r="14" fill="#009af9" fill-rule="evenodd" fill-opacity="1" stroke="#000000" stroke-opacity="1" stroke-width="3.2"/>
<circle clip-path="url(#clip602)" cx="409.161" cy="1005.64" r="14" fill="#009af9" fill-rule="evenodd" fill-opacity="1" stroke="#000000" stroke-opacity="1" stroke-width="3.2"/>
<circle clip-path="url(#clip602)" cx="429.626" cy="735.212" r="14" fill="#009af9" fill-rule="evenodd" fill-opacity="1" stroke="#000000" stroke-opacity="1" stroke-width="3.2"/>
<circle clip-path="url(#clip602)" cx="450.091" cy="735.212" r="14" fill="#009af9" fill-rule="evenodd" fill-opacity="1" stroke="#000000" stroke-opacity="1" stroke-width="3.2"/>
<circle clip-path="url(#clip602)" cx="470.557" cy="518.87" r="14" fill="#009af9" fill-rule="evenodd" fill-opacity="1" stroke="#000000" stroke-opacity="1" stroke-width="3.2"/>
<circle clip-path="url(#clip602)" cx="491.022" cy="1059.73" r="14" fill="#009af9" fill-rule="evenodd" fill-opacity="1" stroke="#000000" stroke-opacity="1" stroke-width="3.2"/>
<circle clip-path="url(#clip602)" cx="511.487" cy="410.699" r="14" fill="#009af9" fill-rule="evenodd" fill-opacity="1" stroke="#000000" stroke-opacity="1" stroke-width="3.2"/>
<circle clip-path="url(#clip602)" cx="531.953" cy="572.955" r="14" fill="#009af9" fill-rule="evenodd" fill-opacity="1" stroke="#000000" stroke-opacity="1" stroke-width="3.2"/>
<circle clip-path="url(#clip602)" cx="552.418" cy="356.613" r="14" fill="#009af9" fill-rule="evenodd" fill-opacity="1" stroke="#000000" stroke-opacity="1" stroke-width="3.2"/>
<circle clip-path="url(#clip602)" cx="572.884" cy="843.383" r="14" fill="#009af9" fill-rule="evenodd" fill-opacity="1" stroke="#000000" stroke-opacity="1" stroke-width="3.2"/>
<circle clip-path="url(#clip602)" cx="593.349" cy="572.955" r="14" fill="#009af9" fill-rule="evenodd" fill-opacity="1" stroke="#000000" stroke-opacity="1" stroke-width="3.2"/>
<circle clip-path="url(#clip602)" cx="613.814" cy="951.554" r="14" fill="#009af9" fill-rule="evenodd" fill-opacity="1" stroke="#000000" stroke-opacity="1" stroke-width="3.2"/>
<circle clip-path="url(#clip602)" cx="634.28" cy="627.041" r="14" fill="#009af9" fill-rule="evenodd" fill-opacity="1" stroke="#000000" stroke-opacity="1" stroke-width="3.2"/>
<circle clip-path="url(#clip602)" cx="654.745" cy="410.699" r="14" fill="#009af9" fill-rule="evenodd" fill-opacity="1" stroke="#000000" stroke-opacity="1" stroke-width="3.2"/>
<circle clip-path="url(#clip602)" cx="675.21" cy="843.383" r="14" fill="#009af9" fill-rule="evenodd" fill-opacity="1" stroke="#000000" stroke-opacity="1" stroke-width="3.2"/>
<circle clip-path="url(#clip602)" cx="695.676" cy="572.955" r="14" fill="#009af9" fill-rule="evenodd" fill-opacity="1" stroke="#000000" stroke-opacity="1" stroke-width="3.2"/>
<circle clip-path="url(#clip602)" cx="716.141" cy="735.212" r="14" fill="#009af9" fill-rule="evenodd" fill-opacity="1" stroke="#000000" stroke-opacity="1" stroke-width="3.2"/>
<circle clip-path="url(#clip602)" cx="736.606" cy="735.212" r="14" fill="#009af9" fill-rule="evenodd" fill-opacity="1" stroke="#000000" stroke-opacity="1" stroke-width="3.2"/>
<circle clip-path="url(#clip602)" cx="757.072" cy="897.469" r="14" fill="#009af9" fill-rule="evenodd" fill-opacity="1" stroke="#000000" stroke-opacity="1" stroke-width="3.2"/>
<circle clip-path="url(#clip602)" cx="777.537" cy="194.357" r="14" fill="#009af9" fill-rule="evenodd" fill-opacity="1" stroke="#000000" stroke-opacity="1" stroke-width="3.2"/>
<circle clip-path="url(#clip602)" cx="798.002" cy="518.87" r="14" fill="#009af9" fill-rule="evenodd" fill-opacity="1" stroke="#000000" stroke-opacity="1" stroke-width="3.2"/>
<circle clip-path="url(#clip602)" cx="818.468" cy="518.87" r="14" fill="#009af9" fill-rule="evenodd" fill-opacity="1" stroke="#000000" stroke-opacity="1" stroke-width="3.2"/>
<circle clip-path="url(#clip602)" cx="838.933" cy="843.383" r="14" fill="#009af9" fill-rule="evenodd" fill-opacity="1" stroke="#000000" stroke-opacity="1" stroke-width="3.2"/>
<circle clip-path="url(#clip602)" cx="859.399" cy="843.383" r="14" fill="#009af9" fill-rule="evenodd" fill-opacity="1" stroke="#000000" stroke-opacity="1" stroke-width="3.2"/>
<circle clip-path="url(#clip602)" cx="879.864" cy="843.383" r="14" fill="#009af9" fill-rule="evenodd" fill-opacity="1" stroke="#000000" stroke-opacity="1" stroke-width="3.2"/>
<circle clip-path="url(#clip602)" cx="900.329" cy="843.383" r="14" fill="#009af9" fill-rule="evenodd" fill-opacity="1" stroke="#000000" stroke-opacity="1" stroke-width="3.2"/>
<circle clip-path="url(#clip602)" cx="920.795" cy="410.699" r="14" fill="#009af9" fill-rule="evenodd" fill-opacity="1" stroke="#000000" stroke-opacity="1" stroke-width="3.2"/>
<circle clip-path="url(#clip602)" cx="941.26" cy="410.699" r="14" fill="#009af9" fill-rule="evenodd" fill-opacity="1" stroke="#000000" stroke-opacity="1" stroke-width="3.2"/>
<circle clip-path="url(#clip602)" cx="961.725" cy="572.955" r="14" fill="#009af9" fill-rule="evenodd" fill-opacity="1" stroke="#000000" stroke-opacity="1" stroke-width="3.2"/>
<circle clip-path="url(#clip602)" cx="982.191" cy="1167.9" r="14" fill="#009af9" fill-rule="evenodd" fill-opacity="1" stroke="#000000" stroke-opacity="1" stroke-width="3.2"/>
<circle clip-path="url(#clip602)" cx="1002.66" cy="681.126" r="14" fill="#009af9" fill-rule="evenodd" fill-opacity="1" stroke="#000000" stroke-opacity="1" stroke-width="3.2"/>
<circle clip-path="url(#clip602)" cx="1023.12" cy="735.212" r="14" fill="#009af9" fill-rule="evenodd" fill-opacity="1" stroke="#000000" stroke-opacity="1" stroke-width="3.2"/>
<circle clip-path="url(#clip602)" cx="1043.59" cy="681.126" r="14" fill="#009af9" fill-rule="evenodd" fill-opacity="1" stroke="#000000" stroke-opacity="1" stroke-width="3.2"/>
<circle clip-path="url(#clip602)" cx="1064.05" cy="681.126" r="14" fill="#009af9" fill-rule="evenodd" fill-opacity="1" stroke="#000000" stroke-opacity="1" stroke-width="3.2"/>
<circle clip-path="url(#clip602)" cx="1084.52" cy="951.554" r="14" fill="#009af9" fill-rule="evenodd" fill-opacity="1" stroke="#000000" stroke-opacity="1" stroke-width="3.2"/>
<circle clip-path="url(#clip602)" cx="1104.98" cy="951.554" r="14" fill="#009af9" fill-rule="evenodd" fill-opacity="1" stroke="#000000" stroke-opacity="1" stroke-width="3.2"/>
<circle clip-path="url(#clip602)" cx="1125.45" cy="1059.73" r="14" fill="#009af9" fill-rule="evenodd" fill-opacity="1" stroke="#000000" stroke-opacity="1" stroke-width="3.2"/>
<circle clip-path="url(#clip602)" cx="1145.91" cy="518.87" r="14" fill="#009af9" fill-rule="evenodd" fill-opacity="1" stroke="#000000" stroke-opacity="1" stroke-width="3.2"/>
<circle clip-path="url(#clip602)" cx="1166.38" cy="789.297" r="14" fill="#009af9" fill-rule="evenodd" fill-opacity="1" stroke="#000000" stroke-opacity="1" stroke-width="3.2"/>
<circle clip-path="url(#clip602)" cx="1186.84" cy="464.784" r="14" fill="#009af9" fill-rule="evenodd" fill-opacity="1" stroke="#000000" stroke-opacity="1" stroke-width="3.2"/>
<circle clip-path="url(#clip602)" cx="1207.31" cy="843.383" r="14" fill="#009af9" fill-rule="evenodd" fill-opacity="1" stroke="#000000" stroke-opacity="1" stroke-width="3.2"/>
<circle clip-path="url(#clip602)" cx="1227.78" cy="410.699" r="14" fill="#009af9" fill-rule="evenodd" fill-opacity="1" stroke="#000000" stroke-opacity="1" stroke-width="3.2"/>
<circle clip-path="url(#clip602)" cx="1248.24" cy="843.383" r="14" fill="#009af9" fill-rule="evenodd" fill-opacity="1" stroke="#000000" stroke-opacity="1" stroke-width="3.2"/>
<circle clip-path="url(#clip602)" cx="1268.71" cy="627.041" r="14" fill="#009af9" fill-rule="evenodd" fill-opacity="1" stroke="#000000" stroke-opacity="1" stroke-width="3.2"/>
<circle clip-path="url(#clip602)" cx="1289.17" cy="735.212" r="14" fill="#009af9" fill-rule="evenodd" fill-opacity="1" stroke="#000000" stroke-opacity="1" stroke-width="3.2"/>
<circle clip-path="url(#clip602)" cx="1309.64" cy="572.955" r="14" fill="#009af9" fill-rule="evenodd" fill-opacity="1" stroke="#000000" stroke-opacity="1" stroke-width="3.2"/>
<circle clip-path="url(#clip602)" cx="1330.1" cy="627.041" r="14" fill="#009af9" fill-rule="evenodd" fill-opacity="1" stroke="#000000" stroke-opacity="1" stroke-width="3.2"/>
<circle clip-path="url(#clip602)" cx="1350.57" cy="735.212" r="14" fill="#009af9" fill-rule="evenodd" fill-opacity="1" stroke="#000000" stroke-opacity="1" stroke-width="3.2"/>
<circle clip-path="url(#clip602)" cx="1371.03" cy="1167.9" r="14" fill="#009af9" fill-rule="evenodd" fill-opacity="1" stroke="#000000" stroke-opacity="1" stroke-width="3.2"/>
<circle clip-path="url(#clip602)" cx="1391.5" cy="356.613" r="14" fill="#009af9" fill-rule="evenodd" fill-opacity="1" stroke="#000000" stroke-opacity="1" stroke-width="3.2"/>
<circle clip-path="url(#clip602)" cx="1411.96" cy="789.297" r="14" fill="#009af9" fill-rule="evenodd" fill-opacity="1" stroke="#000000" stroke-opacity="1" stroke-width="3.2"/>
<circle clip-path="url(#clip602)" cx="1432.43" cy="518.87" r="14" fill="#009af9" fill-rule="evenodd" fill-opacity="1" stroke="#000000" stroke-opacity="1" stroke-width="3.2"/>
<circle clip-path="url(#clip602)" cx="1452.89" cy="843.383" r="14" fill="#009af9" fill-rule="evenodd" fill-opacity="1" stroke="#000000" stroke-opacity="1" stroke-width="3.2"/>
<circle clip-path="url(#clip602)" cx="1473.36" cy="302.528" r="14" fill="#009af9" fill-rule="evenodd" fill-opacity="1" stroke="#000000" stroke-opacity="1" stroke-width="3.2"/>
<circle clip-path="url(#clip602)" cx="1493.82" cy="735.212" r="14" fill="#009af9" fill-rule="evenodd" fill-opacity="1" stroke="#000000" stroke-opacity="1" stroke-width="3.2"/>
<circle clip-path="url(#clip602)" cx="1514.29" cy="843.383" r="14" fill="#009af9" fill-rule="evenodd" fill-opacity="1" stroke="#000000" stroke-opacity="1" stroke-width="3.2"/>
<circle clip-path="url(#clip602)" cx="1534.76" cy="843.383" r="14" fill="#009af9" fill-rule="evenodd" fill-opacity="1" stroke="#000000" stroke-opacity="1" stroke-width="3.2"/>
<circle clip-path="url(#clip602)" cx="1555.22" cy="843.383" r="14" fill="#009af9" fill-rule="evenodd" fill-opacity="1" stroke="#000000" stroke-opacity="1" stroke-width="3.2"/>
<circle clip-path="url(#clip602)" cx="1575.69" cy="627.041" r="14" fill="#009af9" fill-rule="evenodd" fill-opacity="1" stroke="#000000" stroke-opacity="1" stroke-width="3.2"/>
<circle clip-path="url(#clip602)" cx="1596.15" cy="1276.07" r="14" fill="#009af9" fill-rule="evenodd" fill-opacity="1" stroke="#000000" stroke-opacity="1" stroke-width="3.2"/>
<circle clip-path="url(#clip602)" cx="1616.62" cy="681.126" r="14" fill="#009af9" fill-rule="evenodd" fill-opacity="1" stroke="#000000" stroke-opacity="1" stroke-width="3.2"/>
<circle clip-path="url(#clip602)" cx="1637.08" cy="464.784" r="14" fill="#009af9" fill-rule="evenodd" fill-opacity="1" stroke="#000000" stroke-opacity="1" stroke-width="3.2"/>
<circle clip-path="url(#clip602)" cx="1657.55" cy="572.955" r="14" fill="#009af9" fill-rule="evenodd" fill-opacity="1" stroke="#000000" stroke-opacity="1" stroke-width="3.2"/>
<circle clip-path="url(#clip602)" cx="1678.01" cy="681.126" r="14" fill="#009af9" fill-rule="evenodd" fill-opacity="1" stroke="#000000" stroke-opacity="1" stroke-width="3.2"/>
<circle clip-path="url(#clip602)" cx="1698.48" cy="1113.81" r="14" fill="#009af9" fill-rule="evenodd" fill-opacity="1" stroke="#000000" stroke-opacity="1" stroke-width="3.2"/>
<circle clip-path="url(#clip602)" cx="1718.94" cy="572.955" r="14" fill="#009af9" fill-rule="evenodd" fill-opacity="1" stroke="#000000" stroke-opacity="1" stroke-width="3.2"/>
<circle clip-path="url(#clip602)" cx="1739.41" cy="1059.73" r="14" fill="#009af9" fill-rule="evenodd" fill-opacity="1" stroke="#000000" stroke-opacity="1" stroke-width="3.2"/>
<circle clip-path="url(#clip602)" cx="1759.87" cy="627.041" r="14" fill="#009af9" fill-rule="evenodd" fill-opacity="1" stroke="#000000" stroke-opacity="1" stroke-width="3.2"/>
<circle clip-path="url(#clip602)" cx="1780.34" cy="627.041" r="14" fill="#009af9" fill-rule="evenodd" fill-opacity="1" stroke="#000000" stroke-opacity="1" stroke-width="3.2"/>
<circle clip-path="url(#clip602)" cx="1800.81" cy="627.041" r="14" fill="#009af9" fill-rule="evenodd" fill-opacity="1" stroke="#000000" stroke-opacity="1" stroke-width="3.2"/>
<circle clip-path="url(#clip602)" cx="1821.27" cy="1276.07" r="14" fill="#009af9" fill-rule="evenodd" fill-opacity="1" stroke="#000000" stroke-opacity="1" stroke-width="3.2"/>
<circle clip-path="url(#clip602)" cx="1841.74" cy="1059.73" r="14" fill="#009af9" fill-rule="evenodd" fill-opacity="1" stroke="#000000" stroke-opacity="1" stroke-width="3.2"/>
<circle clip-path="url(#clip602)" cx="1862.2" cy="897.469" r="14" fill="#009af9" fill-rule="evenodd" fill-opacity="1" stroke="#000000" stroke-opacity="1" stroke-width="3.2"/>
<circle clip-path="url(#clip602)" cx="1882.67" cy="1221.98" r="14" fill="#009af9" fill-rule="evenodd" fill-opacity="1" stroke="#000000" stroke-opacity="1" stroke-width="3.2"/>
<circle clip-path="url(#clip602)" cx="1903.13" cy="843.383" r="14" fill="#009af9" fill-rule="evenodd" fill-opacity="1" stroke="#000000" stroke-opacity="1" stroke-width="3.2"/>
<circle clip-path="url(#clip602)" cx="1923.6" cy="681.126" r="14" fill="#009af9" fill-rule="evenodd" fill-opacity="1" stroke="#000000" stroke-opacity="1" stroke-width="3.2"/>
<circle clip-path="url(#clip602)" cx="1944.06" cy="681.126" r="14" fill="#009af9" fill-rule="evenodd" fill-opacity="1" stroke="#000000" stroke-opacity="1" stroke-width="3.2"/>
<circle clip-path="url(#clip602)" cx="1964.53" cy="1167.9" r="14" fill="#009af9" fill-rule="evenodd" fill-opacity="1" stroke="#000000" stroke-opacity="1" stroke-width="3.2"/>
<circle clip-path="url(#clip602)" cx="1984.99" cy="1167.9" r="14" fill="#009af9" fill-rule="evenodd" fill-opacity="1" stroke="#000000" stroke-opacity="1" stroke-width="3.2"/>
<circle clip-path="url(#clip602)" cx="2005.46" cy="1059.73" r="14" fill="#009af9" fill-rule="evenodd" fill-opacity="1" stroke="#000000" stroke-opacity="1" stroke-width="3.2"/>
<circle clip-path="url(#clip602)" cx="2025.92" cy="627.041" r="14" fill="#009af9" fill-rule="evenodd" fill-opacity="1" stroke="#000000" stroke-opacity="1" stroke-width="3.2"/>
<circle clip-path="url(#clip602)" cx="2046.39" cy="518.87" r="14" fill="#009af9" fill-rule="evenodd" fill-opacity="1" stroke="#000000" stroke-opacity="1" stroke-width="3.2"/>
<circle clip-path="url(#clip602)" cx="2066.85" cy="410.699" r="14" fill="#009af9" fill-rule="evenodd" fill-opacity="1" stroke="#000000" stroke-opacity="1" stroke-width="3.2"/>
<circle clip-path="url(#clip602)" cx="2087.32" cy="1059.73" r="14" fill="#009af9" fill-rule="evenodd" fill-opacity="1" stroke="#000000" stroke-opacity="1" stroke-width="3.2"/>
<circle clip-path="url(#clip602)" cx="2107.79" cy="464.784" r="14" fill="#009af9" fill-rule="evenodd" fill-opacity="1" stroke="#000000" stroke-opacity="1" stroke-width="3.2"/>
<circle clip-path="url(#clip602)" cx="2128.25" cy="627.041" r="14" fill="#009af9" fill-rule="evenodd" fill-opacity="1" stroke="#000000" stroke-opacity="1" stroke-width="3.2"/>
<circle clip-path="url(#clip602)" cx="2148.72" cy="518.87" r="14" fill="#009af9" fill-rule="evenodd" fill-opacity="1" stroke="#000000" stroke-opacity="1" stroke-width="3.2"/>
<circle clip-path="url(#clip602)" cx="2169.18" cy="518.87" r="14" fill="#009af9" fill-rule="evenodd" fill-opacity="1" stroke="#000000" stroke-opacity="1" stroke-width="3.2"/>
<circle clip-path="url(#clip602)" cx="2189.65" cy="1059.73" r="14" fill="#009af9" fill-rule="evenodd" fill-opacity="1" stroke="#000000" stroke-opacity="1" stroke-width="3.2"/>
<circle clip-path="url(#clip602)" cx="2210.11" cy="464.784" r="14" fill="#009af9" fill-rule="evenodd" fill-opacity="1" stroke="#000000" stroke-opacity="1" stroke-width="3.2"/>
<circle clip-path="url(#clip602)" cx="2230.58" cy="1384.24" r="14" fill="#009af9" fill-rule="evenodd" fill-opacity="1" stroke="#000000" stroke-opacity="1" stroke-width="3.2"/>
<circle clip-path="url(#clip602)" cx="2251.04" cy="627.041" r="14" fill="#009af9" fill-rule="evenodd" fill-opacity="1" stroke="#000000" stroke-opacity="1" stroke-width="3.2"/>
<circle clip-path="url(#clip602)" cx="2271.51" cy="627.041" r="14" fill="#009af9" fill-rule="evenodd" fill-opacity="1" stroke="#000000" stroke-opacity="1" stroke-width="3.2"/>
<circle clip-path="url(#clip602)" cx="2291.97" cy="627.041" r="14" fill="#009af9" fill-rule="evenodd" fill-opacity="1" stroke="#000000" stroke-opacity="1" stroke-width="3.2"/>
<polyline clip-path="url(#clip602)" style="stroke:#009af9; stroke-linecap:butt; stroke-linejoin:round; stroke-width:4; stroke-opacity:1; fill:none" points="
  265.903,657.232 2291.97,803.456 
  "/>
</svg>
