<?xml version="1.0" encoding="utf-8"?>
<svg xmlns="http://www.w3.org/2000/svg" xmlns:xlink="http://www.w3.org/1999/xlink" width="600" height="400" viewBox="0 0 2400 1600">
<defs>
  <clipPath id="clip870">
    <rect x="0" y="0" width="2400" height="1600"/>
  </clipPath>
</defs>
<path clip-path="url(#clip870)" d="
M0 1600 L2400 1600 L2400 0 L0 0  Z
  " fill="#ffffff" fill-rule="evenodd" fill-opacity="1"/>
<defs>
  <clipPath id="clip871">
    <rect x="480" y="0" width="1681" height="1600"/>
  </clipPath>
</defs>
<path clip-path="url(#clip870)" d="
M219.866 1423.18 L2352.76 1423.18 L2352.76 47.2441 L219.866 47.2441  Z
  " fill="#ffffff" fill-rule="evenodd" fill-opacity="1"/>
<defs>
  <clipPath id="clip872">
    <rect x="219" y="47" width="2134" height="1377"/>
  </clipPath>
</defs>
<polyline clip-path="url(#clip872)" style="stroke:#000000; stroke-linecap:butt; stroke-linejoin:round; stroke-width:2; stroke-opacity:0.1; fill:none" points="
  240.777,1423.18 240.777,47.2441 
  "/>
<polyline clip-path="url(#clip872)" style="stroke:#000000; stroke-linecap:butt; stroke-linejoin:round; stroke-width:2; stroke-opacity:0.1; fill:none" points="
  635.318,1423.18 635.318,47.2441 
  "/>
<polyline clip-path="url(#clip872)" style="stroke:#000000; stroke-linecap:butt; stroke-linejoin:round; stroke-width:2; stroke-opacity:0.1; fill:none" points="
  1029.86,1423.18 1029.86,47.2441 
  "/>
<polyline clip-path="url(#clip872)" style="stroke:#000000; stroke-linecap:butt; stroke-linejoin:round; stroke-width:2; stroke-opacity:0.1; fill:none" points="
  1424.4,1423.18 1424.4,47.2441 
  "/>
<polyline clip-path="url(#clip872)" style="stroke:#000000; stroke-linecap:butt; stroke-linejoin:round; stroke-width:2; stroke-opacity:0.1; fill:none" points="
  1818.94,1423.18 1818.94,47.2441 
  "/>
<polyline clip-path="url(#clip872)" style="stroke:#000000; stroke-linecap:butt; stroke-linejoin:round; stroke-width:2; stroke-opacity:0.1; fill:none" points="
  2213.48,1423.18 2213.48,47.2441 
  "/>
<polyline clip-path="url(#clip870)" style="stroke:#000000; stroke-linecap:butt; stroke-linejoin:round; stroke-width:4; stroke-opacity:1; fill:none" points="
  219.866,1423.18 2352.76,1423.18 
  "/>
<polyline clip-path="url(#clip870)" style="stroke:#000000; stroke-linecap:butt; stroke-linejoin:round; stroke-width:4; stroke-opacity:1; fill:none" points="
  240.777,1423.18 240.777,1404.28 
  "/>
<polyline clip-path="url(#clip870)" style="stroke:#000000; stroke-linecap:butt; stroke-linejoin:round; stroke-width:4; stroke-opacity:1; fill:none" points="
  635.318,1423.18 635.318,1404.28 
  "/>
<polyline clip-path="url(#clip870)" style="stroke:#000000; stroke-linecap:butt; stroke-linejoin:round; stroke-width:4; stroke-opacity:1; fill:none" points="
  1029.86,1423.18 1029.86,1404.28 
  "/>
<polyline clip-path="url(#clip870)" style="stroke:#000000; stroke-linecap:butt; stroke-linejoin:round; stroke-width:4; stroke-opacity:1; fill:none" points="
  1424.4,1423.18 1424.4,1404.28 
  "/>
<polyline clip-path="url(#clip870)" style="stroke:#000000; stroke-linecap:butt; stroke-linejoin:round; stroke-width:4; stroke-opacity:1; fill:none" points="
  1818.94,1423.18 1818.94,1404.28 
  "/>
<polyline clip-path="url(#clip870)" style="stroke:#000000; stroke-linecap:butt; stroke-linejoin:round; stroke-width:4; stroke-opacity:1; fill:none" points="
  2213.48,1423.18 2213.48,1404.28 
  "/>
<path clip-path="url(#clip870)" d="M240.777 1454.1 Q237.166 1454.1 235.337 1457.66 Q233.532 1461.2 233.532 1468.33 Q233.532 1475.44 235.337 1479.01 Q237.166 1482.55 240.777 1482.55 Q244.411 1482.55 246.217 1479.01 Q248.045 1475.44 248.045 1468.33 Q248.045 1461.2 246.217 1457.66 Q244.411 1454.1 240.777 1454.1 M240.777 1450.39 Q246.587 1450.39 249.643 1455 Q252.721 1459.58 252.721 1468.33 Q252.721 1477.06 249.643 1481.67 Q246.587 1486.25 240.777 1486.25 Q234.967 1486.25 231.888 1481.67 Q228.833 1477.06 228.833 1468.33 Q228.833 1459.58 231.888 1455 Q234.967 1450.39 240.777 1450.39 Z" fill="#000000" fill-rule="evenodd" fill-opacity="1" /><path clip-path="url(#clip870)" d="M610.006 1481.64 L617.645 1481.64 L617.645 1455.28 L609.334 1456.95 L609.334 1452.69 L617.598 1451.02 L622.274 1451.02 L622.274 1481.64 L629.913 1481.64 L629.913 1485.58 L610.006 1485.58 L610.006 1481.64 Z" fill="#000000" fill-rule="evenodd" fill-opacity="1" /><path clip-path="url(#clip870)" d="M649.357 1454.1 Q645.746 1454.1 643.918 1457.66 Q642.112 1461.2 642.112 1468.33 Q642.112 1475.44 643.918 1479.01 Q645.746 1482.55 649.357 1482.55 Q652.992 1482.55 654.797 1479.01 Q656.626 1475.44 656.626 1468.33 Q656.626 1461.2 654.797 1457.66 Q652.992 1454.1 649.357 1454.1 M649.357 1450.39 Q655.168 1450.39 658.223 1455 Q661.302 1459.58 661.302 1468.33 Q661.302 1477.06 658.223 1481.67 Q655.168 1486.25 649.357 1486.25 Q643.547 1486.25 640.469 1481.67 Q637.413 1477.06 637.413 1468.33 Q637.413 1459.58 640.469 1455 Q643.547 1450.39 649.357 1450.39 Z" fill="#000000" fill-rule="evenodd" fill-opacity="1" /><path clip-path="url(#clip870)" d="M1008.63 1481.64 L1024.95 1481.64 L1024.95 1485.58 L1003.01 1485.58 L1003.01 1481.64 Q1005.67 1478.89 1010.25 1474.26 Q1014.86 1469.61 1016.04 1468.27 Q1018.29 1465.74 1019.16 1464.01 Q1020.07 1462.25 1020.07 1460.56 Q1020.07 1457.8 1018.12 1456.07 Q1016.2 1454.33 1013.1 1454.33 Q1010.9 1454.33 1008.45 1455.09 Q1006.02 1455.86 1003.24 1457.41 L1003.24 1452.69 Q1006.06 1451.55 1008.52 1450.97 Q1010.97 1450.39 1013.01 1450.39 Q1018.38 1450.39 1021.57 1453.08 Q1024.77 1455.77 1024.77 1460.26 Q1024.77 1462.39 1023.96 1464.31 Q1023.17 1466.2 1021.06 1468.8 Q1020.48 1469.47 1017.38 1472.69 Q1014.28 1475.88 1008.63 1481.64 Z" fill="#000000" fill-rule="evenodd" fill-opacity="1" /><path clip-path="url(#clip870)" d="M1044.77 1454.1 Q1041.16 1454.1 1039.33 1457.66 Q1037.52 1461.2 1037.52 1468.33 Q1037.52 1475.44 1039.33 1479.01 Q1041.16 1482.55 1044.77 1482.55 Q1048.4 1482.55 1050.21 1479.01 Q1052.04 1475.44 1052.04 1468.33 Q1052.04 1461.2 1050.21 1457.66 Q1048.4 1454.1 1044.77 1454.1 M1044.77 1450.39 Q1050.58 1450.39 1053.63 1455 Q1056.71 1459.58 1056.71 1468.33 Q1056.71 1477.06 1053.63 1481.67 Q1050.58 1486.25 1044.77 1486.25 Q1038.96 1486.25 1035.88 1481.67 Q1032.82 1477.06 1032.82 1468.33 Q1032.82 1459.58 1035.88 1455 Q1038.96 1450.39 1044.77 1450.39 Z" fill="#000000" fill-rule="evenodd" fill-opacity="1" /><path clip-path="url(#clip870)" d="M1413.24 1466.95 Q1416.6 1467.66 1418.47 1469.93 Q1420.37 1472.2 1420.37 1475.53 Q1420.37 1480.65 1416.85 1483.45 Q1413.34 1486.25 1406.85 1486.25 Q1404.68 1486.25 1402.36 1485.81 Q1400.07 1485.39 1397.62 1484.54 L1397.62 1480.02 Q1399.56 1481.16 1401.88 1481.74 Q1404.19 1482.32 1406.72 1482.32 Q1411.11 1482.32 1413.41 1480.58 Q1415.72 1478.84 1415.72 1475.53 Q1415.72 1472.48 1413.57 1470.77 Q1411.44 1469.03 1407.62 1469.03 L1403.59 1469.03 L1403.59 1465.19 L1407.8 1465.19 Q1411.25 1465.19 1413.08 1463.82 Q1414.91 1462.43 1414.91 1459.84 Q1414.91 1457.18 1413.01 1455.77 Q1411.14 1454.33 1407.62 1454.33 Q1405.7 1454.33 1403.5 1454.75 Q1401.3 1455.16 1398.66 1456.04 L1398.66 1451.88 Q1401.32 1451.14 1403.64 1450.77 Q1405.97 1450.39 1408.03 1450.39 Q1413.36 1450.39 1416.46 1452.83 Q1419.56 1455.23 1419.56 1459.35 Q1419.56 1462.22 1417.92 1464.21 Q1416.28 1466.18 1413.24 1466.95 Z" fill="#000000" fill-rule="evenodd" fill-opacity="1" /><path clip-path="url(#clip870)" d="M1439.24 1454.1 Q1435.63 1454.1 1433.8 1457.66 Q1431.99 1461.2 1431.99 1468.33 Q1431.99 1475.44 1433.8 1479.01 Q1435.63 1482.55 1439.24 1482.55 Q1442.87 1482.55 1444.68 1479.01 Q1446.51 1475.44 1446.51 1468.33 Q1446.51 1461.2 1444.68 1457.66 Q1442.87 1454.1 1439.24 1454.1 M1439.24 1450.39 Q1445.05 1450.39 1448.1 1455 Q1451.18 1459.58 1451.18 1468.33 Q1451.18 1477.06 1448.1 1481.67 Q1445.05 1486.25 1439.24 1486.25 Q1433.43 1486.25 1430.35 1481.67 Q1427.29 1477.06 1427.29 1468.33 Q1427.29 1459.58 1430.35 1455 Q1433.43 1450.39 1439.24 1450.39 Z" fill="#000000" fill-rule="evenodd" fill-opacity="1" /><path clip-path="url(#clip870)" d="M1807.11 1455.09 L1795.31 1473.54 L1807.11 1473.54 L1807.11 1455.09 M1805.89 1451.02 L1811.77 1451.02 L1811.77 1473.54 L1816.7 1473.54 L1816.7 1477.43 L1811.77 1477.43 L1811.77 1485.58 L1807.11 1485.58 L1807.11 1477.43 L1791.51 1477.43 L1791.51 1472.92 L1805.89 1451.02 Z" fill="#000000" fill-rule="evenodd" fill-opacity="1" /><path clip-path="url(#clip870)" d="M1834.43 1454.1 Q1830.82 1454.1 1828.99 1457.66 Q1827.18 1461.2 1827.18 1468.33 Q1827.18 1475.44 1828.99 1479.01 Q1830.82 1482.55 1834.43 1482.55 Q1838.06 1482.55 1839.87 1479.01 Q1841.7 1475.44 1841.7 1468.33 Q1841.7 1461.2 1839.87 1457.66 Q1838.06 1454.1 1834.43 1454.1 M1834.43 1450.39 Q1840.24 1450.39 1843.29 1455 Q1846.37 1459.58 1846.37 1468.33 Q1846.37 1477.06 1843.29 1481.67 Q1840.24 1486.25 1834.43 1486.25 Q1828.62 1486.25 1825.54 1481.67 Q1822.48 1477.06 1822.48 1468.33 Q1822.48 1459.58 1825.54 1455 Q1828.62 1450.39 1834.43 1450.39 Z" fill="#000000" fill-rule="evenodd" fill-opacity="1" /><path clip-path="url(#clip870)" d="M2188.18 1451.02 L2206.54 1451.02 L2206.54 1454.96 L2192.46 1454.96 L2192.46 1463.43 Q2193.48 1463.08 2194.5 1462.92 Q2195.52 1462.73 2196.54 1462.73 Q2202.33 1462.73 2205.71 1465.9 Q2209.08 1469.08 2209.08 1474.49 Q2209.08 1480.07 2205.61 1483.17 Q2202.14 1486.25 2195.82 1486.25 Q2193.65 1486.25 2191.38 1485.88 Q2189.13 1485.51 2186.72 1484.77 L2186.72 1480.07 Q2188.81 1481.2 2191.03 1481.76 Q2193.25 1482.32 2195.73 1482.32 Q2199.73 1482.32 2202.07 1480.21 Q2204.41 1478.1 2204.41 1474.49 Q2204.41 1470.88 2202.07 1468.77 Q2199.73 1466.67 2195.73 1466.67 Q2193.85 1466.67 2191.98 1467.08 Q2190.13 1467.5 2188.18 1468.38 L2188.18 1451.02 Z" fill="#000000" fill-rule="evenodd" fill-opacity="1" /><path clip-path="url(#clip870)" d="M2228.3 1454.1 Q2224.69 1454.1 2222.86 1457.66 Q2221.05 1461.2 2221.05 1468.33 Q2221.05 1475.44 2222.86 1479.01 Q2224.69 1482.55 2228.3 1482.55 Q2231.93 1482.55 2233.74 1479.01 Q2235.57 1475.44 2235.57 1468.33 Q2235.57 1461.2 2233.74 1457.66 Q2231.93 1454.1 2228.3 1454.1 M2228.3 1450.39 Q2234.11 1450.39 2237.16 1455 Q2240.24 1459.58 2240.24 1468.33 Q2240.24 1477.06 2237.16 1481.67 Q2234.11 1486.25 2228.3 1486.25 Q2222.49 1486.25 2219.41 1481.67 Q2216.35 1477.06 2216.35 1468.33 Q2216.35 1459.58 2219.41 1455 Q2222.49 1450.39 2228.3 1450.39 Z" fill="#000000" fill-rule="evenodd" fill-opacity="1" /><path clip-path="url(#clip870)" d="M1108.93 1524.18 L1108.93 1530.96 Q1105.68 1527.94 1101.99 1526.44 Q1098.33 1524.95 1094.19 1524.95 Q1086.05 1524.95 1081.72 1529.95 Q1077.39 1534.91 1077.39 1544.33 Q1077.39 1553.72 1081.72 1558.72 Q1086.05 1563.68 1094.19 1563.68 Q1098.33 1563.68 1101.99 1562.19 Q1105.68 1560.69 1108.93 1557.67 L1108.93 1564.38 Q1105.56 1566.68 1101.77 1567.82 Q1098.01 1568.97 1093.81 1568.97 Q1083.02 1568.97 1076.82 1562.38 Q1070.61 1555.76 1070.61 1544.33 Q1070.61 1532.87 1076.82 1526.28 Q1083.02 1519.66 1093.81 1519.66 Q1098.08 1519.66 1101.83 1520.81 Q1105.62 1521.92 1108.93 1524.18 Z" fill="#000000" fill-rule="evenodd" fill-opacity="1" /><path clip-path="url(#clip870)" d="M1134.81 1550.12 Q1127.71 1550.12 1124.97 1551.75 Q1122.23 1553.37 1122.23 1557.29 Q1122.23 1560.4 1124.27 1562.25 Q1126.34 1564.07 1129.87 1564.07 Q1134.74 1564.07 1137.67 1560.63 Q1140.63 1557.16 1140.63 1551.43 L1140.63 1550.12 L1134.81 1550.12 M1146.49 1547.71 L1146.49 1568.04 L1140.63 1568.04 L1140.63 1562.63 Q1138.63 1565.88 1135.63 1567.44 Q1132.64 1568.97 1128.31 1568.97 Q1122.84 1568.97 1119.59 1565.91 Q1116.38 1562.82 1116.38 1557.67 Q1116.38 1551.65 1120.39 1548.6 Q1124.43 1545.54 1132.42 1545.54 L1140.63 1545.54 L1140.63 1544.97 Q1140.63 1540.93 1137.96 1538.73 Q1135.32 1536.5 1130.51 1536.5 Q1127.45 1536.5 1124.56 1537.23 Q1121.66 1537.97 1118.99 1539.43 L1118.99 1534.02 Q1122.2 1532.78 1125.23 1532.17 Q1128.25 1531.54 1131.12 1531.54 Q1138.85 1531.54 1142.67 1535.55 Q1146.49 1539.56 1146.49 1547.71 Z" fill="#000000" fill-rule="evenodd" fill-opacity="1" /><path clip-path="url(#clip870)" d="M1179.21 1537.87 Q1178.22 1537.3 1177.04 1537.04 Q1175.9 1536.76 1174.5 1536.76 Q1169.53 1536.76 1166.86 1540 Q1164.22 1543.22 1164.22 1549.27 L1164.22 1568.04 L1158.33 1568.04 L1158.33 1532.4 L1164.22 1532.4 L1164.22 1537.93 Q1166.06 1534.69 1169.02 1533.13 Q1171.98 1531.54 1176.22 1531.54 Q1176.82 1531.54 1177.55 1531.63 Q1178.29 1531.7 1179.18 1531.85 L1179.21 1537.87 Z" fill="#000000" fill-rule="evenodd" fill-opacity="1" /><path clip-path="url(#clip870)" d="M1207.66 1537.81 L1207.66 1518.52 L1213.52 1518.52 L1213.52 1568.04 L1207.66 1568.04 L1207.66 1562.7 Q1205.82 1565.88 1202.98 1567.44 Q1200.18 1568.97 1196.24 1568.97 Q1189.78 1568.97 1185.7 1563.81 Q1181.66 1558.65 1181.66 1550.25 Q1181.66 1541.85 1185.7 1536.69 Q1189.78 1531.54 1196.24 1531.54 Q1200.18 1531.54 1202.98 1533.1 Q1205.82 1534.62 1207.66 1537.81 M1187.71 1550.25 Q1187.71 1556.71 1190.35 1560.4 Q1193.02 1564.07 1197.67 1564.07 Q1202.32 1564.07 1204.99 1560.4 Q1207.66 1556.71 1207.66 1550.25 Q1207.66 1543.79 1204.99 1540.13 Q1202.32 1536.44 1197.67 1536.44 Q1193.02 1536.44 1190.35 1540.13 Q1187.71 1543.79 1187.71 1550.25 Z" fill="#000000" fill-rule="evenodd" fill-opacity="1" /><path clip-path="url(#clip870)" d="M1246.56 1520.52 L1255.21 1520.52 L1276.29 1560.28 L1276.29 1520.52 L1282.52 1520.52 L1282.52 1568.04 L1273.87 1568.04 L1252.8 1528.29 L1252.8 1568.04 L1246.56 1568.04 L1246.56 1520.52 Z" fill="#000000" fill-rule="evenodd" fill-opacity="1" /><path clip-path="url(#clip870)" d="M1294.46 1553.98 L1294.46 1532.4 L1300.32 1532.4 L1300.32 1553.75 Q1300.32 1558.81 1302.29 1561.36 Q1304.26 1563.87 1308.21 1563.87 Q1312.95 1563.87 1315.69 1560.85 Q1318.46 1557.83 1318.46 1552.61 L1318.46 1532.4 L1324.31 1532.4 L1324.31 1568.04 L1318.46 1568.04 L1318.46 1562.57 Q1316.33 1565.82 1313.49 1567.41 Q1310.69 1568.97 1306.97 1568.97 Q1300.82 1568.97 1297.64 1565.15 Q1294.46 1561.33 1294.46 1553.98 M1309.2 1531.54 L1309.2 1531.54 Z" fill="#000000" fill-rule="evenodd" fill-opacity="1" /><path clip-path="url(#clip870)" d="M1364.13 1539.24 Q1366.33 1535.29 1369.38 1533.41 Q1372.44 1531.54 1376.58 1531.54 Q1382.15 1531.54 1385.17 1535.45 Q1388.19 1539.33 1388.19 1546.53 L1388.19 1568.04 L1382.31 1568.04 L1382.31 1546.72 Q1382.31 1541.59 1380.49 1539.11 Q1378.68 1536.63 1374.95 1536.63 Q1370.4 1536.63 1367.76 1539.65 Q1365.12 1542.68 1365.12 1547.9 L1365.12 1568.04 L1359.23 1568.04 L1359.23 1546.72 Q1359.23 1541.56 1357.42 1539.11 Q1355.6 1536.63 1351.81 1536.63 Q1347.33 1536.63 1344.68 1539.68 Q1342.04 1542.71 1342.04 1547.9 L1342.04 1568.04 L1336.15 1568.04 L1336.15 1532.4 L1342.04 1532.4 L1342.04 1537.93 Q1344.05 1534.66 1346.85 1533.1 Q1349.65 1531.54 1353.5 1531.54 Q1357.38 1531.54 1360.09 1533.51 Q1362.83 1535.48 1364.13 1539.24 Z" fill="#000000" fill-rule="evenodd" fill-opacity="1" /><path clip-path="url(#clip870)" d="M1425.47 1550.25 Q1425.47 1543.79 1422.79 1540.13 Q1420.15 1536.44 1415.5 1536.44 Q1410.86 1536.44 1408.18 1540.13 Q1405.54 1543.79 1405.54 1550.25 Q1405.54 1556.71 1408.18 1560.4 Q1410.86 1564.07 1415.5 1564.07 Q1420.15 1564.07 1422.79 1560.4 Q1425.47 1556.71 1425.47 1550.25 M1405.54 1537.81 Q1407.39 1534.62 1410.19 1533.1 Q1413.02 1531.54 1416.94 1531.54 Q1423.43 1531.54 1427.47 1536.69 Q1431.54 1541.85 1431.54 1550.25 Q1431.54 1558.65 1427.47 1563.81 Q1423.43 1568.97 1416.94 1568.97 Q1413.02 1568.97 1410.19 1567.44 Q1407.39 1565.88 1405.54 1562.7 L1405.54 1568.04 L1399.65 1568.04 L1399.65 1518.52 L1405.54 1518.52 L1405.54 1537.81 Z" fill="#000000" fill-rule="evenodd" fill-opacity="1" /><path clip-path="url(#clip870)" d="M1471.74 1548.76 L1471.74 1551.62 L1444.82 1551.62 Q1445.2 1557.67 1448.45 1560.85 Q1451.72 1564 1457.55 1564 Q1460.92 1564 1464.07 1563.17 Q1467.26 1562.35 1470.38 1560.69 L1470.38 1566.23 Q1467.22 1567.57 1463.91 1568.27 Q1460.6 1568.97 1457.2 1568.97 Q1448.67 1568.97 1443.67 1564 Q1438.71 1559.04 1438.71 1550.57 Q1438.71 1541.82 1443.42 1536.69 Q1448.16 1531.54 1456.18 1531.54 Q1463.37 1531.54 1467.54 1536.18 Q1471.74 1540.8 1471.74 1548.76 M1465.89 1547.04 Q1465.82 1542.23 1463.18 1539.37 Q1460.57 1536.5 1456.24 1536.5 Q1451.34 1536.5 1448.38 1539.27 Q1445.45 1542.04 1445.01 1547.07 L1465.89 1547.04 Z" fill="#000000" fill-rule="evenodd" fill-opacity="1" /><path clip-path="url(#clip870)" d="M1502.01 1537.87 Q1501.03 1537.3 1499.85 1537.04 Q1498.7 1536.76 1497.3 1536.76 Q1492.34 1536.76 1489.66 1540 Q1487.02 1543.22 1487.02 1549.27 L1487.02 1568.04 L1481.13 1568.04 L1481.13 1532.4 L1487.02 1532.4 L1487.02 1537.93 Q1488.87 1534.69 1491.83 1533.13 Q1494.79 1531.54 1499.02 1531.54 Q1499.63 1531.54 1500.36 1531.63 Q1501.09 1531.7 1501.98 1531.85 L1502.01 1537.87 Z" fill="#000000" fill-rule="evenodd" fill-opacity="1" /><polyline clip-path="url(#clip872)" style="stroke:#000000; stroke-linecap:butt; stroke-linejoin:round; stroke-width:2; stroke-opacity:0.1; fill:none" points="
  219.866,1423.18 2352.76,1423.18 
  "/>
<polyline clip-path="url(#clip872)" style="stroke:#000000; stroke-linecap:butt; stroke-linejoin:round; stroke-width:2; stroke-opacity:0.1; fill:none" points="
  219.866,1147.99 2352.76,1147.99 
  "/>
<polyline clip-path="url(#clip872)" style="stroke:#000000; stroke-linecap:butt; stroke-linejoin:round; stroke-width:2; stroke-opacity:0.1; fill:none" points="
  219.866,872.806 2352.76,872.806 
  "/>
<polyline clip-path="url(#clip872)" style="stroke:#000000; stroke-linecap:butt; stroke-linejoin:round; stroke-width:2; stroke-opacity:0.1; fill:none" points="
  219.866,597.618 2352.76,597.618 
  "/>
<polyline clip-path="url(#clip872)" style="stroke:#000000; stroke-linecap:butt; stroke-linejoin:round; stroke-width:2; stroke-opacity:0.1; fill:none" points="
  219.866,322.431 2352.76,322.431 
  "/>
<polyline clip-path="url(#clip872)" style="stroke:#000000; stroke-linecap:butt; stroke-linejoin:round; stroke-width:2; stroke-opacity:0.1; fill:none" points="
  219.866,47.2441 2352.76,47.2441 
  "/>
<polyline clip-path="url(#clip870)" style="stroke:#000000; stroke-linecap:butt; stroke-linejoin:round; stroke-width:4; stroke-opacity:1; fill:none" points="
  219.866,1423.18 219.866,47.2441 
  "/>
<polyline clip-path="url(#clip870)" style="stroke:#000000; stroke-linecap:butt; stroke-linejoin:round; stroke-width:4; stroke-opacity:1; fill:none" points="
  219.866,1423.18 238.764,1423.18 
  "/>
<polyline clip-path="url(#clip870)" style="stroke:#000000; stroke-linecap:butt; stroke-linejoin:round; stroke-width:4; stroke-opacity:1; fill:none" points="
  219.866,1147.99 238.764,1147.99 
  "/>
<polyline clip-path="url(#clip870)" style="stroke:#000000; stroke-linecap:butt; stroke-linejoin:round; stroke-width:4; stroke-opacity:1; fill:none" points="
  219.866,872.806 238.764,872.806 
  "/>
<polyline clip-path="url(#clip870)" style="stroke:#000000; stroke-linecap:butt; stroke-linejoin:round; stroke-width:4; stroke-opacity:1; fill:none" points="
  219.866,597.618 238.764,597.618 
  "/>
<polyline clip-path="url(#clip870)" style="stroke:#000000; stroke-linecap:butt; stroke-linejoin:round; stroke-width:4; stroke-opacity:1; fill:none" points="
  219.866,322.431 238.764,322.431 
  "/>
<polyline clip-path="url(#clip870)" style="stroke:#000000; stroke-linecap:butt; stroke-linejoin:round; stroke-width:4; stroke-opacity:1; fill:none" points="
  219.866,47.2441 238.764,47.2441 
  "/>
<path clip-path="url(#clip870)" d="M126.691 1408.98 Q123.08 1408.98 121.251 1412.54 Q119.445 1416.08 119.445 1423.21 Q119.445 1430.32 121.251 1433.89 Q123.08 1437.43 126.691 1437.43 Q130.325 1437.43 132.13 1433.89 Q133.959 1430.32 133.959 1423.21 Q133.959 1416.08 132.13 1412.54 Q130.325 1408.98 126.691 1408.98 M126.691 1405.27 Q132.501 1405.27 135.556 1409.88 Q138.635 1414.46 138.635 1423.21 Q138.635 1431.94 135.556 1436.55 Q132.501 1441.13 126.691 1441.13 Q120.88 1441.13 117.802 1436.55 Q114.746 1431.94 114.746 1423.21 Q114.746 1414.46 117.802 1409.88 Q120.88 1405.27 126.691 1405.27 Z" fill="#000000" fill-rule="evenodd" fill-opacity="1" /><path clip-path="url(#clip870)" d="M146.853 1434.58 L151.737 1434.58 L151.737 1440.46 L146.853 1440.46 L146.853 1434.58 Z" fill="#000000" fill-rule="evenodd" fill-opacity="1" /><path clip-path="url(#clip870)" d="M171.922 1408.98 Q168.311 1408.98 166.482 1412.54 Q164.677 1416.08 164.677 1423.21 Q164.677 1430.32 166.482 1433.89 Q168.311 1437.43 171.922 1437.43 Q175.556 1437.43 177.362 1433.89 Q179.19 1430.32 179.19 1423.21 Q179.19 1416.08 177.362 1412.54 Q175.556 1408.98 171.922 1408.98 M171.922 1405.27 Q177.732 1405.27 180.788 1409.88 Q183.866 1414.46 183.866 1423.21 Q183.866 1431.94 180.788 1436.55 Q177.732 1441.13 171.922 1441.13 Q166.112 1441.13 163.033 1436.55 Q159.978 1431.94 159.978 1423.21 Q159.978 1414.46 163.033 1409.88 Q166.112 1405.27 171.922 1405.27 Z" fill="#000000" fill-rule="evenodd" fill-opacity="1" /><path clip-path="url(#clip870)" d="M128.288 1133.79 Q124.677 1133.79 122.848 1137.36 Q121.043 1140.9 121.043 1148.03 Q121.043 1155.13 122.848 1158.7 Q124.677 1162.24 128.288 1162.24 Q131.922 1162.24 133.728 1158.7 Q135.556 1155.13 135.556 1148.03 Q135.556 1140.9 133.728 1137.36 Q131.922 1133.79 128.288 1133.79 M128.288 1130.09 Q134.098 1130.09 137.154 1134.69 Q140.232 1139.28 140.232 1148.03 Q140.232 1156.75 137.154 1161.36 Q134.098 1165.94 128.288 1165.94 Q122.478 1165.94 119.399 1161.36 Q116.343 1156.75 116.343 1148.03 Q116.343 1139.28 119.399 1134.69 Q122.478 1130.09 128.288 1130.09 Z" fill="#000000" fill-rule="evenodd" fill-opacity="1" /><path clip-path="url(#clip870)" d="M148.45 1159.39 L153.334 1159.39 L153.334 1165.27 L148.45 1165.27 L148.45 1159.39 Z" fill="#000000" fill-rule="evenodd" fill-opacity="1" /><path clip-path="url(#clip870)" d="M167.547 1161.34 L183.866 1161.34 L183.866 1165.27 L161.922 1165.27 L161.922 1161.34 Q164.584 1158.58 169.167 1153.95 Q173.774 1149.3 174.954 1147.96 Q177.2 1145.43 178.079 1143.7 Q178.982 1141.94 178.982 1140.25 Q178.982 1137.5 177.038 1135.76 Q175.116 1134.02 172.014 1134.02 Q169.815 1134.02 167.362 1134.79 Q164.931 1135.55 162.153 1137.1 L162.153 1132.38 Q164.977 1131.25 167.431 1130.67 Q169.885 1130.09 171.922 1130.09 Q177.292 1130.09 180.487 1132.77 Q183.681 1135.46 183.681 1139.95 Q183.681 1142.08 182.871 1144 Q182.084 1145.9 179.977 1148.49 Q179.399 1149.16 176.297 1152.38 Q173.195 1155.57 167.547 1161.34 Z" fill="#000000" fill-rule="evenodd" fill-opacity="1" /><path clip-path="url(#clip870)" d="M126.205 858.604 Q122.593 858.604 120.765 862.169 Q118.959 865.711 118.959 872.84 Q118.959 879.947 120.765 883.512 Q122.593 887.053 126.205 887.053 Q129.839 887.053 131.644 883.512 Q133.473 879.947 133.473 872.84 Q133.473 865.711 131.644 862.169 Q129.839 858.604 126.205 858.604 M126.205 854.901 Q132.015 854.901 135.07 859.507 Q138.149 864.09 138.149 872.84 Q138.149 881.567 135.07 886.174 Q132.015 890.757 126.205 890.757 Q120.394 890.757 117.316 886.174 Q114.26 881.567 114.26 872.84 Q114.26 864.09 117.316 859.507 Q120.394 854.901 126.205 854.901 Z" fill="#000000" fill-rule="evenodd" fill-opacity="1" /><path clip-path="url(#clip870)" d="M146.366 884.206 L151.251 884.206 L151.251 890.086 L146.366 890.086 L146.366 884.206 Z" fill="#000000" fill-rule="evenodd" fill-opacity="1" /><path clip-path="url(#clip870)" d="M174.283 859.6 L162.477 878.049 L174.283 878.049 L174.283 859.6 M173.056 855.526 L178.936 855.526 L178.936 878.049 L183.866 878.049 L183.866 881.937 L178.936 881.937 L178.936 890.086 L174.283 890.086 L174.283 881.937 L158.681 881.937 L158.681 877.424 L173.056 855.526 Z" fill="#000000" fill-rule="evenodd" fill-opacity="1" /><path clip-path="url(#clip870)" d="M126.529 583.417 Q122.918 583.417 121.089 586.982 Q119.283 590.524 119.283 597.653 Q119.283 604.76 121.089 608.324 Q122.918 611.866 126.529 611.866 Q130.163 611.866 131.968 608.324 Q133.797 604.76 133.797 597.653 Q133.797 590.524 131.968 586.982 Q130.163 583.417 126.529 583.417 M126.529 579.713 Q132.339 579.713 135.394 584.32 Q138.473 588.903 138.473 597.653 Q138.473 606.38 135.394 610.986 Q132.339 615.57 126.529 615.57 Q120.718 615.57 117.64 610.986 Q114.584 606.38 114.584 597.653 Q114.584 588.903 117.64 584.32 Q120.718 579.713 126.529 579.713 Z" fill="#000000" fill-rule="evenodd" fill-opacity="1" /><path clip-path="url(#clip870)" d="M146.691 609.019 L151.575 609.019 L151.575 614.898 L146.691 614.898 L146.691 609.019 Z" fill="#000000" fill-rule="evenodd" fill-opacity="1" /><path clip-path="url(#clip870)" d="M172.339 595.755 Q169.19 595.755 167.339 597.908 Q165.51 600.061 165.51 603.81 Q165.51 607.537 167.339 609.713 Q169.19 611.866 172.339 611.866 Q175.487 611.866 177.315 609.713 Q179.167 607.537 179.167 603.81 Q179.167 600.061 177.315 597.908 Q175.487 595.755 172.339 595.755 M181.621 581.102 L181.621 585.362 Q179.862 584.528 178.056 584.088 Q176.274 583.649 174.514 583.649 Q169.885 583.649 167.431 586.774 Q165.001 589.899 164.653 596.218 Q166.019 594.204 168.079 593.139 Q170.139 592.051 172.616 592.051 Q177.825 592.051 180.834 595.223 Q183.866 598.371 183.866 603.81 Q183.866 609.135 180.718 612.352 Q177.57 615.57 172.339 615.57 Q166.343 615.57 163.172 610.986 Q160.001 606.38 160.001 597.653 Q160.001 589.459 163.89 584.598 Q167.778 579.713 174.329 579.713 Q176.089 579.713 177.871 580.061 Q179.676 580.408 181.621 581.102 Z" fill="#000000" fill-rule="evenodd" fill-opacity="1" /><path clip-path="url(#clip870)" d="M126.783 308.23 Q123.172 308.23 121.343 311.795 Q119.538 315.336 119.538 322.466 Q119.538 329.572 121.343 333.137 Q123.172 336.679 126.783 336.679 Q130.417 336.679 132.223 333.137 Q134.052 329.572 134.052 322.466 Q134.052 315.336 132.223 311.795 Q130.417 308.23 126.783 308.23 M126.783 304.526 Q132.593 304.526 135.649 309.133 Q138.728 313.716 138.728 322.466 Q138.728 331.193 135.649 335.799 Q132.593 340.383 126.783 340.383 Q120.973 340.383 117.894 335.799 Q114.839 331.193 114.839 322.466 Q114.839 313.716 117.894 309.133 Q120.973 304.526 126.783 304.526 Z" fill="#000000" fill-rule="evenodd" fill-opacity="1" /><path clip-path="url(#clip870)" d="M146.945 333.832 L151.829 333.832 L151.829 339.711 L146.945 339.711 L146.945 333.832 Z" fill="#000000" fill-rule="evenodd" fill-opacity="1" /><path clip-path="url(#clip870)" d="M172.014 323.299 Q168.681 323.299 166.76 325.082 Q164.862 326.864 164.862 329.989 Q164.862 333.114 166.76 334.896 Q168.681 336.679 172.014 336.679 Q175.348 336.679 177.269 334.896 Q179.19 333.091 179.19 329.989 Q179.19 326.864 177.269 325.082 Q175.371 323.299 172.014 323.299 M167.339 321.309 Q164.329 320.568 162.64 318.508 Q160.973 316.447 160.973 313.485 Q160.973 309.341 163.913 306.934 Q166.876 304.526 172.014 304.526 Q177.176 304.526 180.116 306.934 Q183.056 309.341 183.056 313.485 Q183.056 316.447 181.366 318.508 Q179.7 320.568 176.714 321.309 Q180.093 322.096 181.968 324.387 Q183.866 326.679 183.866 329.989 Q183.866 335.012 180.788 337.697 Q177.732 340.383 172.014 340.383 Q166.297 340.383 163.218 337.697 Q160.163 335.012 160.163 329.989 Q160.163 326.679 162.061 324.387 Q163.959 322.096 167.339 321.309 M165.626 313.924 Q165.626 316.61 167.292 318.114 Q168.982 319.619 172.014 319.619 Q175.024 319.619 176.714 318.114 Q178.426 316.61 178.426 313.924 Q178.426 311.239 176.714 309.735 Q175.024 308.23 172.014 308.23 Q168.982 308.23 167.292 309.735 Q165.626 311.239 165.626 313.924 Z" fill="#000000" fill-rule="evenodd" fill-opacity="1" /><path clip-path="url(#clip870)" d="M117.501 60.5889 L125.14 60.5889 L125.14 34.2233 L116.83 35.89 L116.83 31.6308 L125.093 29.9641 L129.769 29.9641 L129.769 60.5889 L137.408 60.5889 L137.408 64.5241 L117.501 64.5241 L117.501 60.5889 Z" fill="#000000" fill-rule="evenodd" fill-opacity="1" /><path clip-path="url(#clip870)" d="M146.853 58.6445 L151.737 58.6445 L151.737 64.5241 L146.853 64.5241 L146.853 58.6445 Z" fill="#000000" fill-rule="evenodd" fill-opacity="1" /><path clip-path="url(#clip870)" d="M171.922 33.0428 Q168.311 33.0428 166.482 36.6076 Q164.677 40.1492 164.677 47.2788 Q164.677 54.3853 166.482 57.9501 Q168.311 61.4917 171.922 61.4917 Q175.556 61.4917 177.362 57.9501 Q179.19 54.3853 179.19 47.2788 Q179.19 40.1492 177.362 36.6076 Q175.556 33.0428 171.922 33.0428 M171.922 29.3391 Q177.732 29.3391 180.788 33.9456 Q183.866 38.5289 183.866 47.2788 Q183.866 56.0056 180.788 60.6121 Q177.732 65.1954 171.922 65.1954 Q166.112 65.1954 163.033 60.6121 Q159.978 56.0056 159.978 47.2788 Q159.978 38.5289 163.033 33.9456 Q166.112 29.3391 171.922 29.3391 Z" fill="#000000" fill-rule="evenodd" fill-opacity="1" /><path clip-path="url(#clip870)" d="M45.0025 1312.65 L42.138 1312.65 L29.6293 1300.14 L33.4488 1296.32 L40.8648 1303.73 L40.8648 1264.93 L46.2757 1264.93 L46.2757 1303.73 L53.6917 1296.32 L57.5111 1300.14 L45.0025 1312.65 Z" fill="#000000" fill-rule="evenodd" fill-opacity="1" /><path clip-path="url(#clip870)" d="M16.4842 1234.09 L16.4842 1227.66 L58.5933 1227.66 L58.5933 1204.52 L64.0042 1204.52 L64.0042 1234.09 L16.4842 1234.09 Z" fill="#000000" fill-rule="evenodd" fill-opacity="1" /><path clip-path="url(#clip870)" d="M44.7161 1168.68 L47.5806 1168.68 L47.5806 1195.61 Q53.6281 1195.23 56.8109 1191.98 Q59.9619 1188.7 59.9619 1182.88 Q59.9619 1179.51 59.1344 1176.36 Q58.3069 1173.17 56.6518 1170.05 L62.1899 1170.05 Q63.5267 1173.2 64.227 1176.51 Q64.9272 1179.82 64.9272 1183.23 Q64.9272 1191.76 59.9619 1196.76 Q54.9967 1201.72 46.5303 1201.72 Q37.7774 1201.72 32.6531 1197.01 Q27.4968 1192.27 27.4968 1184.25 Q27.4968 1177.06 32.1438 1172.89 Q36.7589 1168.68 44.7161 1168.68 M42.9973 1174.54 Q38.1912 1174.6 35.3266 1177.25 Q32.4621 1179.86 32.4621 1184.19 Q32.4621 1189.09 35.2312 1192.05 Q38.0002 1194.98 43.0292 1195.42 L42.9973 1174.54 Z" fill="#000000" fill-rule="evenodd" fill-opacity="1" /><path clip-path="url(#clip870)" d="M14.479 1141.03 L19.3487 1141.03 L19.3487 1146.63 Q19.3487 1149.78 20.6219 1151.02 Q21.895 1152.23 25.2052 1152.23 L28.3562 1152.23 L28.3562 1142.59 L32.9077 1142.59 L32.9077 1152.23 L64.0042 1152.23 L64.0042 1158.12 L32.9077 1158.12 L32.9077 1163.72 L28.3562 1163.72 L28.3562 1158.12 L25.8736 1158.12 Q19.9216 1158.12 17.2162 1155.35 Q14.479 1152.58 14.479 1146.56 L14.479 1141.03 Z" fill="#000000" fill-rule="evenodd" fill-opacity="1" /><path clip-path="url(#clip870)" d="M18.2347 1131.48 L28.3562 1131.48 L28.3562 1119.41 L32.9077 1119.41 L32.9077 1131.48 L52.2594 1131.48 Q56.6199 1131.48 57.8613 1130.3 Q59.1026 1129.09 59.1026 1125.43 L59.1026 1119.41 L64.0042 1119.41 L64.0042 1125.43 Q64.0042 1132.21 61.4897 1134.79 Q58.9434 1137.37 52.2594 1137.37 L32.9077 1137.37 L32.9077 1141.66 L28.3562 1141.66 L28.3562 1137.37 L18.2347 1137.37 L18.2347 1131.48 Z" fill="#000000" fill-rule="evenodd" fill-opacity="1" /><path clip-path="url(#clip870)" d="M16.4842 1090.74 L16.4842 1084.31 L35.9632 1084.31 L35.9632 1060.95 L16.4842 1060.95 L16.4842 1054.52 L64.0042 1054.52 L64.0042 1060.95 L41.3741 1060.95 L41.3741 1084.31 L64.0042 1084.31 L64.0042 1090.74 L16.4842 1090.74 Z" fill="#000000" fill-rule="evenodd" fill-opacity="1" /><path clip-path="url(#clip870)" d="M46.0847 1025.77 Q46.0847 1032.87 47.7079 1035.61 Q49.3312 1038.35 53.2461 1038.35 Q56.3653 1038.35 58.2114 1036.31 Q60.0256 1034.24 60.0256 1030.71 Q60.0256 1025.84 56.5881 1022.91 Q53.1188 1019.95 47.3897 1019.95 L46.0847 1019.95 L46.0847 1025.77 M43.6657 1014.09 L64.0042 1014.09 L64.0042 1019.95 L58.5933 1019.95 Q61.8398 1021.96 63.3994 1024.95 Q64.9272 1027.94 64.9272 1032.27 Q64.9272 1037.74 61.8716 1040.99 Q58.7843 1044.2 53.6281 1044.2 Q47.6125 1044.2 44.5569 1040.19 Q41.5014 1036.15 41.5014 1028.16 L41.5014 1019.95 L40.9285 1019.95 Q36.8862 1019.95 34.6901 1022.62 Q32.4621 1025.27 32.4621 1030.07 Q32.4621 1033.13 33.1941 1036.02 Q33.9262 1038.92 35.3903 1041.59 L29.9795 1041.59 Q28.7381 1038.38 28.1334 1035.36 Q27.4968 1032.33 27.4968 1029.47 Q27.4968 1021.73 31.5072 1017.91 Q35.5176 1014.09 43.6657 1014.09 Z" fill="#000000" fill-rule="evenodd" fill-opacity="1" /><path clip-path="url(#clip870)" d="M42.4881 972.398 L64.0042 972.398 L64.0042 978.255 L42.679 978.255 Q37.6183 978.255 35.1038 980.228 Q32.5894 982.201 32.5894 986.148 Q32.5894 990.891 35.6131 993.628 Q38.6368 996.365 43.8567 996.365 L64.0042 996.365 L64.0042 1002.25 L28.3562 1002.25 L28.3562 996.365 L33.8944 996.365 Q30.6797 994.264 29.0883 991.432 Q27.4968 988.567 27.4968 984.843 Q27.4968 978.7 31.3163 975.549 Q35.1038 972.398 42.4881 972.398 Z" fill="#000000" fill-rule="evenodd" fill-opacity="1" /><path clip-path="url(#clip870)" d="M33.7671 937.259 L14.479 937.259 L14.479 931.403 L64.0042 931.403 L64.0042 937.259 L58.657 937.259 Q61.8398 939.106 63.3994 941.938 Q64.9272 944.739 64.9272 948.686 Q64.9272 955.147 59.771 959.221 Q54.6147 963.263 46.212 963.263 Q37.8093 963.263 32.6531 959.221 Q27.4968 955.147 27.4968 948.686 Q27.4968 944.739 29.0564 941.938 Q30.5842 939.106 33.7671 937.259 M46.212 957.216 Q52.6732 957.216 56.3653 954.574 Q60.0256 951.901 60.0256 947.254 Q60.0256 942.607 56.3653 939.933 Q52.6732 937.259 46.212 937.259 Q39.7508 937.259 36.0905 939.933 Q32.3984 942.607 32.3984 947.254 Q32.3984 951.901 36.0905 954.574 Q39.7508 957.216 46.212 957.216 Z" fill="#000000" fill-rule="evenodd" fill-opacity="1" /><path clip-path="url(#clip870)" d="M41.7242 565.025 Q42.4244 562.956 44.7161 561.014 Q47.0077 559.041 51.0181 557.068 L64.0042 550.543 L64.0042 557.45 L51.8138 563.529 Q47.0395 565.884 45.48 568.112 Q43.9204 570.308 43.9204 574.128 L43.9204 581.13 L64.0042 581.13 L64.0042 587.559 L16.4842 587.559 L16.4842 573.046 Q16.4842 564.897 19.8898 560.887 Q23.2955 556.877 30.1704 556.877 Q34.6582 556.877 37.6183 558.977 Q40.5784 561.046 41.7242 565.025 M21.7677 581.13 L38.6368 581.13 L38.6368 573.046 Q38.6368 568.399 36.5043 566.043 Q34.34 563.656 30.1704 563.656 Q26.0009 563.656 23.9002 566.043 Q21.7677 568.399 21.7677 573.046 L21.7677 581.13 Z" fill="#000000" fill-rule="evenodd" fill-opacity="1" /><path clip-path="url(#clip870)" d="M28.3562 542.522 L28.3562 536.666 L64.0042 536.666 L64.0042 542.522 L28.3562 542.522 M14.479 542.522 L14.479 536.666 L21.895 536.666 L21.895 542.522 L14.479 542.522 Z" fill="#000000" fill-rule="evenodd" fill-opacity="1" /><path clip-path="url(#clip870)" d="M45.7664 500.954 Q39.4007 500.954 35.8996 503.596 Q32.3984 506.206 32.3984 510.948 Q32.3984 515.659 35.8996 518.301 Q39.4007 520.91 45.7664 520.91 Q52.1003 520.91 55.6014 518.301 Q59.1026 515.659 59.1026 510.948 Q59.1026 506.206 55.6014 503.596 Q52.1003 500.954 45.7664 500.954 M59.58 495.098 Q68.683 495.098 73.1071 499.14 Q77.5631 503.182 77.5631 511.521 Q77.5631 514.608 77.0857 517.346 Q76.6401 520.083 75.6852 522.661 L69.9879 522.661 Q71.3884 520.083 72.0568 517.568 Q72.7252 515.054 72.7252 512.444 Q72.7252 506.683 69.7015 503.819 Q66.7096 500.954 60.6303 500.954 L57.7339 500.954 Q60.885 502.768 62.4446 505.601 Q64.0042 508.434 64.0042 512.38 Q64.0042 518.937 59.0071 522.947 Q54.01 526.958 45.7664 526.958 Q37.491 526.958 32.4939 522.947 Q27.4968 518.937 27.4968 512.38 Q27.4968 508.434 29.0564 505.601 Q30.616 502.768 33.7671 500.954 L28.3562 500.954 L28.3562 495.098 L59.58 495.098 Z" fill="#000000" fill-rule="evenodd" fill-opacity="1" /><path clip-path="url(#clip870)" d="M42.4881 453.402 L64.0042 453.402 L64.0042 459.259 L42.679 459.259 Q37.6183 459.259 35.1038 461.232 Q32.5894 463.205 32.5894 467.152 Q32.5894 471.895 35.6131 474.632 Q38.6368 477.369 43.8567 477.369 L64.0042 477.369 L64.0042 483.257 L14.479 483.257 L14.479 477.369 L33.8944 477.369 Q30.6797 475.268 29.0883 472.436 Q27.4968 469.571 27.4968 465.847 Q27.4968 459.704 31.3163 456.553 Q35.1038 453.402 42.4881 453.402 Z" fill="#000000" fill-rule="evenodd" fill-opacity="1" /><path clip-path="url(#clip870)" d="M18.2347 435.928 L28.3562 435.928 L28.3562 423.865 L32.9077 423.865 L32.9077 435.928 L52.2594 435.928 Q56.6199 435.928 57.8613 434.751 Q59.1026 433.541 59.1026 429.881 L59.1026 423.865 L64.0042 423.865 L64.0042 429.881 Q64.0042 436.66 61.4897 439.238 Q58.9434 441.817 52.2594 441.817 L32.9077 441.817 L32.9077 446.113 L28.3562 446.113 L28.3562 441.817 L18.2347 441.817 L18.2347 435.928 Z" fill="#000000" fill-rule="evenodd" fill-opacity="1" /><path clip-path="url(#clip870)" d="M16.4842 395.188 L16.4842 388.758 L35.9632 388.758 L35.9632 365.396 L16.4842 365.396 L16.4842 358.967 L64.0042 358.967 L64.0042 365.396 L41.3741 365.396 L41.3741 388.758 L64.0042 388.758 L64.0042 395.188 L16.4842 395.188 Z" fill="#000000" fill-rule="evenodd" fill-opacity="1" /><path clip-path="url(#clip870)" d="M46.0847 330.226 Q46.0847 337.323 47.7079 340.061 Q49.3312 342.798 53.2461 342.798 Q56.3653 342.798 58.2114 340.761 Q60.0256 338.692 60.0256 335.159 Q60.0256 330.289 56.5881 327.361 Q53.1188 324.401 47.3897 324.401 L46.0847 324.401 L46.0847 330.226 M43.6657 318.545 L64.0042 318.545 L64.0042 324.401 L58.5933 324.401 Q61.8398 326.406 63.3994 329.398 Q64.9272 332.39 64.9272 336.719 Q64.9272 342.193 61.8716 345.44 Q58.7843 348.654 53.6281 348.654 Q47.6125 348.654 44.5569 344.644 Q41.5014 340.602 41.5014 332.613 L41.5014 324.401 L40.9285 324.401 Q36.8862 324.401 34.6901 327.075 Q32.4621 329.716 32.4621 334.523 Q32.4621 337.578 33.1941 340.475 Q33.9262 343.371 35.3903 346.044 L29.9795 346.044 Q28.7381 342.83 28.1334 339.806 Q27.4968 336.782 27.4968 333.918 Q27.4968 326.183 31.5072 322.364 Q35.5176 318.545 43.6657 318.545 Z" fill="#000000" fill-rule="evenodd" fill-opacity="1" /><path clip-path="url(#clip870)" d="M42.4881 276.849 L64.0042 276.849 L64.0042 282.706 L42.679 282.706 Q37.6183 282.706 35.1038 284.679 Q32.5894 286.652 32.5894 290.599 Q32.5894 295.342 35.6131 298.079 Q38.6368 300.816 43.8567 300.816 L64.0042 300.816 L64.0042 306.704 L28.3562 306.704 L28.3562 300.816 L33.8944 300.816 Q30.6797 298.715 29.0883 295.883 Q27.4968 293.018 27.4968 289.294 Q27.4968 283.151 31.3163 280 Q35.1038 276.849 42.4881 276.849 Z" fill="#000000" fill-rule="evenodd" fill-opacity="1" /><path clip-path="url(#clip870)" d="M33.7671 241.711 L14.479 241.711 L14.479 235.854 L64.0042 235.854 L64.0042 241.711 L58.657 241.711 Q61.8398 243.557 63.3994 246.389 Q64.9272 249.19 64.9272 253.137 Q64.9272 259.598 59.771 263.672 Q54.6147 267.714 46.212 267.714 Q37.8093 267.714 32.6531 263.672 Q27.4968 259.598 27.4968 253.137 Q27.4968 249.19 29.0564 246.389 Q30.5842 243.557 33.7671 241.711 M46.212 261.667 Q52.6732 261.667 56.3653 259.025 Q60.0256 256.352 60.0256 251.705 Q60.0256 247.058 56.3653 244.384 Q52.6732 241.711 46.212 241.711 Q39.7508 241.711 36.0905 244.384 Q32.3984 247.058 32.3984 251.705 Q32.3984 256.352 36.0905 259.025 Q39.7508 261.667 46.212 261.667 Z" fill="#000000" fill-rule="evenodd" fill-opacity="1" /><path clip-path="url(#clip870)" d="M42.138 157.779 L45.0025 157.779 L57.5111 170.287 L53.6917 174.107 L46.2757 166.691 L46.2757 205.49 L40.8648 205.49 L40.8648 166.691 L33.4488 174.107 L29.6293 170.287 L42.138 157.779 Z" fill="#000000" fill-rule="evenodd" fill-opacity="1" /><polyline clip-path="url(#clip872)" style="stroke:#009af9; stroke-linecap:butt; stroke-linejoin:round; stroke-width:8; stroke-opacity:1; fill:none" points="
  280.231,308.672 319.685,432.506 359.139,652.656 398.593,804.009 438.048,693.934 477.502,693.934 516.956,790.249 556.41,845.287 595.864,597.618 635.318,776.49 
  674.772,638.896 714.226,831.527 753.68,611.378 793.135,790.249 832.589,721.453 872.043,804.009 911.497,748.971 950.951,900.324 990.405,680.175 1029.86,790.249 
  1069.31,762.731 1108.77,762.731 1148.22,817.768 1187.68,693.934 1227.13,735.212 1266.58,748.971 1306.04,693.934 1345.49,776.49 1384.95,735.212 1424.4,707.693 
  1463.85,817.768 1503.31,693.934 1542.76,638.896 1582.22,652.656 1621.67,542.581 1661.13,625.137 1700.58,611.378 1740.03,638.896 1779.49,611.378 1818.94,638.896 
  1858.4,570.1 1897.85,528.822 1937.3,790.249 1976.76,625.137 2016.21,611.378 2055.67,721.453 2095.12,652.656 2134.57,625.137 2174.03,583.859 2213.48,570.1 
  2252.94,570.1 2292.39,322.431 
  "/>
<polyline clip-path="url(#clip872)" style="stroke:#e26f46; stroke-linecap:butt; stroke-linejoin:round; stroke-width:8; stroke-opacity:1; fill:none" points="
  280.231,731.91 319.685,722.553 359.139,733.836 398.593,739.34 438.048,740.441 477.502,737.551 516.956,744.431 556.41,737.276 595.864,737.964 635.318,717.05 
  674.772,748.421 714.226,736.175 753.68,724.755 793.135,735.487 832.589,742.642 872.043,740.165 911.497,732.46 950.951,736.863 990.405,737.413 1029.86,737.826 
  1069.31,749.659 1108.77,740.716 1148.22,740.578 1187.68,747.183 1227.13,756.401 1266.58,741.679 1306.04,744.431 1345.49,739.065 1384.95,746.77 1424.4,733.561 
  1463.85,750.622 1503.31,728.883 1542.76,741.541 1582.22,734.111 1621.67,736.863 1661.13,725.856 1700.58,731.359 1740.03,742.229 1779.49,727.369 1818.94,737.964 
  1858.4,737.826 1897.85,725.856 1937.3,731.359 1976.76,727.232 2016.21,731.772 2055.67,744.568 2095.12,740.853 2134.57,743.743 2174.03,732.598 2213.48,731.497 
  2252.94,737.138 2292.39,741.541 
  "/>
<path clip-path="url(#clip870)" d="
M1789.33 248.629 L2281.66 248.629 L2281.66 93.1086 L1789.33 93.1086  Z
  " fill="#ffffff" fill-rule="evenodd" fill-opacity="1"/>
<polyline clip-path="url(#clip870)" style="stroke:#000000; stroke-linecap:butt; stroke-linejoin:round; stroke-width:4; stroke-opacity:1; fill:none" points="
  1789.33,248.629 2281.66,248.629 2281.66,93.1086 1789.33,93.1086 1789.33,248.629 
  "/>
<polyline clip-path="url(#clip870)" style="stroke:#009af9; stroke-linecap:butt; stroke-linejoin:round; stroke-width:4; stroke-opacity:1; fill:none" points="
  1813.02,144.949 1955.22,144.949 
  "/>
<path clip-path="url(#clip870)" d="M1990.81 139.289 Q1987.39 139.289 1985.4 141.974 Q1983.41 144.636 1983.41 149.289 Q1983.41 153.942 1985.37 156.627 Q1987.37 159.289 1990.81 159.289 Q1994.22 159.289 1996.21 156.604 Q1998.2 153.918 1998.2 149.289 Q1998.2 144.682 1996.21 141.997 Q1994.22 139.289 1990.81 139.289 M1990.81 135.678 Q1996.37 135.678 1999.54 139.289 Q2002.71 142.9 2002.71 149.289 Q2002.71 155.655 1999.54 159.289 Q1996.37 162.9 1990.81 162.9 Q1985.24 162.9 1982.06 159.289 Q1978.92 155.655 1978.92 149.289 Q1978.92 142.9 1982.06 139.289 Q1985.24 135.678 1990.81 135.678 Z" fill="#000000" fill-rule="evenodd" fill-opacity="1" /><path clip-path="url(#clip870)" d="M2028.38 149.289 Q2028.38 144.59 2026.44 141.928 Q2024.52 139.243 2021.14 139.243 Q2017.76 139.243 2015.81 141.928 Q2013.89 144.59 2013.89 149.289 Q2013.89 153.988 2015.81 156.673 Q2017.76 159.335 2021.14 159.335 Q2024.52 159.335 2026.44 156.673 Q2028.38 153.988 2028.38 149.289 M2013.89 140.238 Q2015.24 137.923 2017.27 136.812 Q2019.33 135.678 2022.18 135.678 Q2026.9 135.678 2029.84 139.428 Q2032.8 143.178 2032.8 149.289 Q2032.8 155.4 2029.84 159.15 Q2026.9 162.9 2022.18 162.9 Q2019.33 162.9 2017.27 161.789 Q2015.24 160.655 2013.89 158.34 L2013.89 162.229 L2009.61 162.229 L2009.61 126.21 L2013.89 126.21 L2013.89 140.238 Z" fill="#000000" fill-rule="evenodd" fill-opacity="1" /><path clip-path="url(#clip870)" d="M2056.39 137.067 L2056.39 141.094 Q2054.59 140.169 2052.64 139.706 Q2050.7 139.243 2048.61 139.243 Q2045.44 139.243 2043.85 140.215 Q2042.27 141.187 2042.27 143.131 Q2042.27 144.613 2043.41 145.469 Q2044.54 146.303 2047.97 147.067 L2049.43 147.391 Q2053.96 148.363 2055.86 150.145 Q2057.78 151.905 2057.78 155.076 Q2057.78 158.687 2054.91 160.793 Q2052.06 162.9 2047.06 162.9 Q2044.98 162.9 2042.71 162.483 Q2040.47 162.09 2037.97 161.28 L2037.97 156.881 Q2040.33 158.108 2042.62 158.733 Q2044.91 159.335 2047.16 159.335 Q2050.17 159.335 2051.79 158.317 Q2053.41 157.275 2053.41 155.4 Q2053.41 153.664 2052.23 152.738 Q2051.07 151.812 2047.11 150.956 L2045.63 150.608 Q2041.67 149.775 2039.91 148.062 Q2038.15 146.326 2038.15 143.317 Q2038.15 139.659 2040.74 137.669 Q2043.34 135.678 2048.11 135.678 Q2050.47 135.678 2052.55 136.025 Q2054.63 136.372 2056.39 137.067 Z" fill="#000000" fill-rule="evenodd" fill-opacity="1" /><path clip-path="url(#clip870)" d="M2086.74 148.201 L2086.74 150.284 L2067.16 150.284 Q2067.43 154.682 2069.8 156.997 Q2072.18 159.289 2076.42 159.289 Q2078.87 159.289 2081.16 158.687 Q2083.48 158.085 2085.74 156.881 L2085.74 160.909 Q2083.45 161.881 2081.05 162.391 Q2078.64 162.9 2076.16 162.9 Q2069.96 162.9 2066.32 159.289 Q2062.71 155.678 2062.71 149.52 Q2062.71 143.155 2066.14 139.428 Q2069.59 135.678 2075.42 135.678 Q2080.65 135.678 2083.68 139.057 Q2086.74 142.414 2086.74 148.201 M2082.48 146.951 Q2082.43 143.456 2080.51 141.372 Q2078.61 139.289 2075.47 139.289 Q2071.9 139.289 2069.75 141.303 Q2067.62 143.317 2067.3 146.974 L2082.48 146.951 Z" fill="#000000" fill-rule="evenodd" fill-opacity="1" /><path clip-path="url(#clip870)" d="M2108.75 140.284 Q2108.04 139.868 2107.18 139.682 Q2106.35 139.474 2105.33 139.474 Q2101.72 139.474 2099.77 141.835 Q2097.85 144.173 2097.85 148.571 L2097.85 162.229 L2093.57 162.229 L2093.57 136.303 L2097.85 136.303 L2097.85 140.331 Q2099.19 137.969 2101.35 136.835 Q2103.5 135.678 2106.58 135.678 Q2107.02 135.678 2107.55 135.747 Q2108.08 135.794 2108.73 135.909 L2108.75 140.284 Z" fill="#000000" fill-rule="evenodd" fill-opacity="1" /><path clip-path="url(#clip870)" d="M2110.17 136.303 L2114.68 136.303 L2122.78 158.062 L2130.88 136.303 L2135.4 136.303 L2125.67 162.229 L2119.89 162.229 L2110.17 136.303 Z" fill="#000000" fill-rule="evenodd" fill-opacity="1" /><path clip-path="url(#clip870)" d="M2163.45 148.201 L2163.45 150.284 L2143.87 150.284 Q2144.15 154.682 2146.51 156.997 Q2148.89 159.289 2153.13 159.289 Q2155.58 159.289 2157.87 158.687 Q2160.19 158.085 2162.46 156.881 L2162.46 160.909 Q2160.17 161.881 2157.76 162.391 Q2155.35 162.9 2152.87 162.9 Q2146.67 162.9 2143.04 159.289 Q2139.42 155.678 2139.42 149.52 Q2139.42 143.155 2142.85 139.428 Q2146.3 135.678 2152.13 135.678 Q2157.36 135.678 2160.4 139.057 Q2163.45 142.414 2163.45 148.201 M2159.19 146.951 Q2159.15 143.456 2157.23 141.372 Q2155.33 139.289 2152.18 139.289 Q2148.61 139.289 2146.46 141.303 Q2144.33 143.317 2144.01 146.974 L2159.19 146.951 Z" fill="#000000" fill-rule="evenodd" fill-opacity="1" /><path clip-path="url(#clip870)" d="M2187.5 140.238 L2187.5 126.21 L2191.76 126.21 L2191.76 162.229 L2187.5 162.229 L2187.5 158.34 Q2186.16 160.655 2184.1 161.789 Q2182.06 162.9 2179.19 162.9 Q2174.49 162.9 2171.53 159.15 Q2168.59 155.4 2168.59 149.289 Q2168.59 143.178 2171.53 139.428 Q2174.49 135.678 2179.19 135.678 Q2182.06 135.678 2184.1 136.812 Q2186.16 137.923 2187.5 140.238 M2172.99 149.289 Q2172.99 153.988 2174.91 156.673 Q2176.85 159.335 2180.23 159.335 Q2183.61 159.335 2185.56 156.673 Q2187.5 153.988 2187.5 149.289 Q2187.5 144.59 2185.56 141.928 Q2183.61 139.243 2180.23 139.243 Q2176.85 139.243 2174.91 141.928 Q2172.99 144.59 2172.99 149.289 Z" fill="#000000" fill-rule="evenodd" fill-opacity="1" /><polyline clip-path="url(#clip870)" style="stroke:#e26f46; stroke-linecap:butt; stroke-linejoin:round; stroke-width:4; stroke-opacity:1; fill:none" points="
  1813.02,196.789 1955.22,196.789 
  "/>
<path clip-path="url(#clip870)" d="M2004.47 209.138 L2004.47 199.856 L1996.83 199.856 L1996.83 196.013 L2009.1 196.013 L2009.1 210.851 Q2006.39 212.772 2003.13 213.768 Q1999.87 214.74 1996.16 214.74 Q1988.06 214.74 1983.48 210.018 Q1978.92 205.272 1978.92 196.823 Q1978.92 188.351 1983.48 183.629 Q1988.06 178.884 1996.16 178.884 Q1999.54 178.884 2002.57 179.717 Q2005.63 180.55 2008.2 182.171 L2008.2 187.147 Q2005.61 184.948 2002.69 183.837 Q1999.77 182.726 1996.55 182.726 Q1990.21 182.726 1987.02 186.268 Q1983.85 189.809 1983.85 196.823 Q1983.85 203.814 1987.02 207.356 Q1990.21 210.897 1996.55 210.897 Q1999.03 210.897 2000.98 210.481 Q2002.92 210.041 2004.47 209.138 Z" fill="#000000" fill-rule="evenodd" fill-opacity="1" /><path clip-path="url(#clip870)" d="M2038.36 180.643 L2038.36 185.203 Q2035.7 183.93 2033.34 183.305 Q2030.98 182.68 2028.78 182.68 Q2024.96 182.68 2022.87 184.161 Q2020.81 185.643 2020.81 188.374 Q2020.81 190.666 2022.18 191.847 Q2023.57 193.004 2027.41 193.722 L2030.24 194.3 Q2035.47 195.296 2037.94 197.819 Q2040.44 200.319 2040.44 204.532 Q2040.44 209.555 2037.06 212.147 Q2033.71 214.74 2027.2 214.74 Q2024.75 214.74 2021.97 214.184 Q2019.22 213.629 2016.25 212.541 L2016.25 207.726 Q2019.1 209.323 2021.83 210.133 Q2024.56 210.944 2027.2 210.944 Q2031.21 210.944 2033.38 209.37 Q2035.56 207.796 2035.56 204.879 Q2035.56 202.333 2033.99 200.897 Q2032.43 199.462 2028.87 198.745 L2026.02 198.189 Q2020.79 197.147 2018.45 194.925 Q2016.12 192.703 2016.12 188.745 Q2016.12 184.161 2019.33 181.522 Q2022.57 178.884 2028.24 178.884 Q2030.68 178.884 2033.2 179.323 Q2035.72 179.763 2038.36 180.643 Z" fill="#000000" fill-rule="evenodd" fill-opacity="1" /><path clip-path="url(#clip870)" d="M2064.12 197.865 Q2065.63 198.374 2067.04 200.041 Q2068.48 201.708 2069.91 204.624 L2074.66 214.069 L2069.63 214.069 L2065.21 205.203 Q2063.5 201.731 2061.88 200.596 Q2060.28 199.462 2057.5 199.462 L2052.41 199.462 L2052.41 214.069 L2047.74 214.069 L2047.74 179.509 L2058.29 179.509 Q2064.22 179.509 2067.13 181.985 Q2070.05 184.462 2070.05 189.462 Q2070.05 192.726 2068.52 194.879 Q2067.02 197.032 2064.12 197.865 M2052.41 183.351 L2052.41 195.62 L2058.29 195.62 Q2061.67 195.62 2063.38 194.069 Q2065.12 192.495 2065.12 189.462 Q2065.12 186.43 2063.38 184.902 Q2061.67 183.351 2058.29 183.351 L2052.41 183.351 Z" fill="#000000" fill-rule="evenodd" fill-opacity="1" /><path clip-path="url(#clip870)" d="M2115.74 193.12 Q2117.34 190.249 2119.56 188.884 Q2121.79 187.518 2124.8 187.518 Q2128.85 187.518 2131.04 190.365 Q2133.24 193.189 2133.24 198.421 L2133.24 214.069 L2128.96 214.069 L2128.96 198.559 Q2128.96 194.833 2127.64 193.027 Q2126.32 191.222 2123.61 191.222 Q2120.3 191.222 2118.38 193.421 Q2116.46 195.62 2116.46 199.416 L2116.46 214.069 L2112.18 214.069 L2112.18 198.559 Q2112.18 194.809 2110.86 193.027 Q2109.54 191.222 2106.79 191.222 Q2103.52 191.222 2101.6 193.444 Q2099.68 195.643 2099.68 199.416 L2099.68 214.069 L2095.4 214.069 L2095.4 188.143 L2099.68 188.143 L2099.68 192.171 Q2101.14 189.786 2103.17 188.652 Q2105.21 187.518 2108.01 187.518 Q2110.84 187.518 2112.8 188.953 Q2114.8 190.388 2115.74 193.12 Z" fill="#000000" fill-rule="evenodd" fill-opacity="1" /><path clip-path="url(#clip870)" d="M2151.79 191.129 Q2148.36 191.129 2146.37 193.814 Q2144.38 196.476 2144.38 201.129 Q2144.38 205.782 2146.35 208.467 Q2148.34 211.129 2151.79 211.129 Q2155.19 211.129 2157.18 208.444 Q2159.17 205.758 2159.17 201.129 Q2159.17 196.522 2157.18 193.837 Q2155.19 191.129 2151.79 191.129 M2151.79 187.518 Q2157.34 187.518 2160.51 191.129 Q2163.68 194.74 2163.68 201.129 Q2163.68 207.495 2160.51 211.129 Q2157.34 214.74 2151.79 214.74 Q2146.21 214.74 2143.04 211.129 Q2139.89 207.495 2139.89 201.129 Q2139.89 194.74 2143.04 191.129 Q2146.21 187.518 2151.79 187.518 Z" fill="#000000" fill-rule="evenodd" fill-opacity="1" /><path clip-path="url(#clip870)" d="M2187.8 192.078 L2187.8 178.05 L2192.06 178.05 L2192.06 214.069 L2187.8 214.069 L2187.8 210.18 Q2186.46 212.495 2184.4 213.629 Q2182.36 214.74 2179.49 214.74 Q2174.79 214.74 2171.83 210.99 Q2168.89 207.24 2168.89 201.129 Q2168.89 195.018 2171.83 191.268 Q2174.79 187.518 2179.49 187.518 Q2182.36 187.518 2184.4 188.652 Q2186.46 189.763 2187.8 192.078 M2173.29 201.129 Q2173.29 205.828 2175.21 208.513 Q2177.16 211.175 2180.54 211.175 Q2183.92 211.175 2185.86 208.513 Q2187.8 205.828 2187.8 201.129 Q2187.8 196.43 2185.86 193.768 Q2183.92 191.083 2180.54 191.083 Q2177.16 191.083 2175.21 193.768 Q2173.29 196.43 2173.29 201.129 Z" fill="#000000" fill-rule="evenodd" fill-opacity="1" /><path clip-path="url(#clip870)" d="M2223.01 200.041 L2223.01 202.124 L2203.43 202.124 Q2203.71 206.522 2206.07 208.837 Q2208.45 211.129 2212.69 211.129 Q2215.14 211.129 2217.43 210.527 Q2219.75 209.925 2222.02 208.721 L2222.02 212.749 Q2219.73 213.721 2217.32 214.231 Q2214.91 214.74 2212.43 214.74 Q2206.23 214.74 2202.6 211.129 Q2198.98 207.518 2198.98 201.36 Q2198.98 194.995 2202.41 191.268 Q2205.86 187.518 2211.69 187.518 Q2216.92 187.518 2219.96 190.897 Q2223.01 194.254 2223.01 200.041 M2218.75 198.791 Q2218.71 195.296 2216.79 193.212 Q2214.89 191.129 2211.74 191.129 Q2208.17 191.129 2206.02 193.143 Q2203.89 195.157 2203.57 198.814 L2218.75 198.791 Z" fill="#000000" fill-rule="evenodd" fill-opacity="1" /><path clip-path="url(#clip870)" d="M2230 178.05 L2234.26 178.05 L2234.26 214.069 L2230 214.069 L2230 178.05 Z" fill="#000000" fill-rule="evenodd" fill-opacity="1" /></svg>
